<svg width="64" height="64" viewBox="0 0 64 64" fill="none" xmlns="http://www.w3.org/2000/svg">
<circle cx="32" cy="32" r="32" fill="#FEFCE8"/>
<path d="M36.5951 21.04L42.9421 27.386C43.0075 27.4513 43.0536 27.5334 43.0751 27.6233C43.0966 27.7132 43.0928 27.8073 43.0642 27.8951C43.0355 27.983 42.983 28.0611 42.9125 28.121C42.8421 28.1808 42.7565 28.2199 42.6651 28.234L41.1911 28.464L35.5351 22.808L35.7471 21.323C35.7603 21.2312 35.7988 21.1448 35.8582 21.0736C35.9177 21.0024 35.9958 20.9491 36.0838 20.9198C36.1718 20.8904 36.2662 20.8861 36.3565 20.9073C36.4468 20.9286 36.5294 20.9745 36.5951 21.04ZM24.5941 40.15C28.3161 36.819 32.5891 35.822 37.2371 34.63L37.6831 30.612L33.3861 26.315L29.3681 26.761C28.1761 31.409 27.1791 35.681 23.8481 39.404L22.4531 38.01C25.2811 34.71 26.3431 31.057 27.7561 24.929L34.1201 24.222L39.7771 29.879L39.0701 36.243C32.9421 37.657 29.2881 38.718 25.9891 41.546L24.5941 40.15ZM29.8781 34.12C29.6871 33.9355 29.5347 33.7148 29.4299 33.4708C29.3251 33.2268 29.2699 32.9644 29.2676 32.6988C29.2653 32.4333 29.3159 32.1699 29.4165 31.9241C29.517 31.6783 29.6655 31.455 29.8533 31.2672C30.0411 31.0794 30.2644 30.9309 30.5102 30.8304C30.756 30.7298 31.0194 30.6792 31.2849 30.6815C31.5505 30.6838 31.8129 30.739 32.0569 30.8438C32.3009 30.9486 32.5216 31.101 32.7061 31.292C33.0654 31.6701 33.2628 32.1735 33.2563 32.6951C33.2497 33.2166 33.0396 33.7149 32.6709 34.0838C32.3021 34.4526 31.8039 34.6629 31.2824 34.6696C30.7608 34.6764 30.2573 34.4792 29.8791 34.12H29.8781Z" fill="#FACC15"/>
</svg>
