<svg width="64" height="64" viewBox="0 0 64 64" fill="none" xmlns="http://www.w3.org/2000/svg">
<circle cx="32" cy="32" r="32" fill="#ECFDF5"/>
<path d="M35.5001 22C36.0159 21.9999 36.5254 22.1139 36.9921 22.3338C37.4587 22.5536 37.871 22.8739 38.1994 23.2717C38.5279 23.6695 38.7643 24.135 38.8918 24.6348C39.0193 25.1346 39.0348 25.6565 38.9371 26.163L38.9221 26.229C39.792 26.5192 40.5526 27.0682 41.1021 27.8025C41.6515 28.5368 41.9636 29.4214 41.9966 30.3379C42.0295 31.2544 41.7818 32.1592 41.2865 32.931C40.7912 33.7029 40.072 34.3051 39.2251 34.657L38.1391 41.164C38.1002 41.3975 37.9798 41.6097 37.7993 41.7627C37.6188 41.9158 37.3898 41.9999 37.1531 42H26.8471C26.6104 41.9999 26.3814 41.9158 26.2008 41.7627C26.0203 41.6097 25.8999 41.3975 25.8611 41.164L24.8321 34.994C24.14 34.9547 23.4829 34.677 22.9724 34.2081C22.4619 33.7391 22.1296 33.1078 22.0319 32.4216C21.9342 31.7353 22.0772 31.0364 22.4365 30.4436C22.7959 29.8508 23.3494 29.4008 24.0031 29.17L24.0001 29C23.9999 27.9874 24.2561 26.9913 24.7447 26.1043C25.2333 25.2174 25.9384 24.4686 26.7943 23.9275C27.6503 23.3865 28.6292 23.0709 29.64 23.0102C30.6507 22.9494 31.6605 23.1454 32.5751 23.58C32.8929 23.0944 33.3268 22.6956 33.8375 22.4197C34.3482 22.1438 34.9196 21.9996 35.5001 22V22ZM31.0001 35H29.0001V40H31.0001V35ZM35.0001 35H33.0001V40H35.0001V35ZM37.5001 33C37.8697 33 38.2347 32.918 38.5689 32.76C38.903 32.602 39.1979 32.3718 39.4324 32.0861C39.667 31.8004 39.8352 31.4663 39.925 31.1077C40.0149 30.7492 40.0241 30.3752 39.9521 30.0127C39.88 29.6501 39.7285 29.3081 39.5083 29.0111C39.2882 28.7142 39.005 28.4698 38.679 28.2955C38.3531 28.1212 37.9926 28.0213 37.6234 28.003C37.2542 27.9848 36.8856 28.0487 36.5441 28.19L36.3691 28.271C35.9076 28.5088 35.3718 28.5578 34.8749 28.4078C34.378 28.2578 33.9588 27.9204 33.7061 27.467L33.6361 27.33C33.3165 26.6344 32.804 26.0452 32.1595 25.6322C31.515 25.2192 30.7655 24.9998 30.0001 25C27.8581 25 26.1091 26.684 26.0051 28.767L26.0001 28.964L26.0031 29.134C26.0101 29.5267 25.9014 29.9127 25.6905 30.244C25.4796 30.5753 25.1758 30.8372 24.8171 30.997L24.6671 31.056C24.445 31.1351 24.258 31.2899 24.1389 31.4934C24.0199 31.6968 23.9764 31.9357 24.0162 32.168C24.056 32.4003 24.1765 32.6112 24.3565 32.7633C24.5364 32.9155 24.7644 32.9993 25.0001 33H37.5001Z" fill="#34D399"/>
</svg>
