<svg width="64" height="64" viewBox="0 0 64 64" fill="none" xmlns="http://www.w3.org/2000/svg">
<circle cx="32" cy="32" r="32" fill="#F5F3FF"/>
<path d="M36.5 23C39.538 23 42 25.5 42 29C42 36 34.5 40 32 41.5C30.023 40.314 24.917 37.563 22.869 33.001L21 33V31H22.21C22.074 30.364 22 29.698 22 29C22 25.5 24.5 23 27.5 23C29.36 23 31 24 32 25C33 24 34.64 23 36.5 23ZM36.5 25C35.424 25 34.26 25.57 33.414 26.414L32 27.828L30.586 26.414C29.74 25.57 28.576 25 27.5 25C25.56 25 24 26.656 24 29C24 29.685 24.09 30.352 24.267 31H26.434L28.5 27.556L31.5 32.556L32.434 31H37V33H33.566L31.5 36.444L28.5 31.444L27.566 33H25.108C25.898 34.374 27.093 35.668 28.645 36.903C29.39 37.495 30.185 38.048 31.066 38.603C31.365 38.792 31.661 38.973 32 39.175C32.339 38.973 32.635 38.792 32.934 38.604C33.815 38.048 34.61 37.495 35.354 36.903C38.335 34.533 40 31.943 40 29C40 26.64 38.463 25 36.5 25Z" fill="#8B5CF6"/>
</svg>
