<svg width="64" height="64" viewBox="0 0 64 64" fill="none" xmlns="http://www.w3.org/2000/svg">
<circle cx="32" cy="32" r="32" fill="#F2F8FF"/>
<path d="M36.9998 37.9998V35.9998H37.4998C38.0768 35.9998 38.6449 35.857 39.1534 35.5843C39.662 35.3116 40.0952 34.9174 40.4145 34.4367C40.7338 33.9561 40.9294 33.404 40.9837 32.8295C41.0381 32.255 40.9496 31.676 40.726 31.1441C40.5025 30.6121 40.1509 30.1436 39.7026 29.7804C39.2542 29.4171 38.723 29.1703 38.1562 29.062C37.5894 28.9537 37.0047 28.9872 36.454 29.1596C35.9033 29.3319 35.4037 29.6377 34.9998 30.0498V29.9998C34.9994 28.8999 34.6967 27.8213 34.1247 26.8818C33.5527 25.9423 32.7335 25.1782 31.7566 24.6728C30.7796 24.1674 29.6826 23.9403 28.5853 24.0163C27.488 24.0923 26.4328 24.4684 25.5348 25.1036C24.6369 25.7388 23.9308 26.6086 23.4938 27.618C23.0567 28.6273 22.9056 29.7374 23.0568 30.8268C23.208 31.9163 23.6557 32.9432 24.3511 33.7954C25.0465 34.6476 25.9628 35.2922 26.9998 35.6588V37.7478C25.6735 37.4046 24.4576 36.7266 23.4685 35.7787C22.4794 34.8307 21.7503 33.6447 21.3511 32.3342C20.9519 31.0237 20.8959 29.6326 21.1885 28.2942C21.4811 26.9559 22.1125 25.7151 23.0222 24.6907C23.9319 23.6664 25.0894 22.8928 26.3838 22.4441C27.6783 21.9955 29.0662 21.8867 30.4147 22.1283C31.7632 22.3699 33.0271 22.9538 34.0852 23.8239C35.1434 24.6941 35.9603 25.8214 36.4578 27.0978C37.2098 26.9539 37.9836 26.9687 38.7297 27.141C39.4757 27.3134 40.1775 27.6397 40.7902 28.0989C41.4029 28.5582 41.9129 29.1403 42.2876 29.808C42.6624 30.4757 42.8936 31.2143 42.9664 31.9765C43.0393 32.7388 42.9522 33.5078 42.7107 34.2344C42.4692 34.961 42.0787 35.6292 41.5641 36.1962C41.0495 36.7632 40.4222 37.2165 39.7224 37.527C39.0225 37.8376 38.2655 37.9987 37.4998 37.9998L36.9998 38.0008V37.9998ZM28.9998 35.9998H30.9998V39.9998H28.9998V35.9998ZM32.9998 38.9998H34.9998V42.9998H32.9998V38.9998Z" fill="#0E88FF"/>
</svg>
