<svg width="20" height="20" viewBox="0 0 20 20" fill="none" xmlns="http://www.w3.org/2000/svg">
<path d="M10.4169 6.66663H9.16686V11.6666L13.1252 14.0416L13.7502 13.0166L10.4169 11.0416V6.66663ZM14.4477 1.5083L18.2869 4.71247L17.2202 5.99163L13.3785 2.78913L14.4477 1.5083ZM5.55269 1.5083L6.62102 2.7883L2.78102 5.99163L1.71436 4.71163L5.55269 1.5083ZM10.0002 3.3333C5.85852 3.3333 2.50019 6.69163 2.50019 10.8333C2.50019 14.975 5.85852 18.3333 10.0002 18.3333C14.1419 18.3333 17.5002 14.975 17.5002 10.8333C17.5002 6.69163 14.1419 3.3333 10.0002 3.3333ZM10.0002 16.6666C6.78352 16.6666 4.16686 14.05 4.16686 10.8333C4.16686 7.61663 6.78352 4.99997 10.0002 4.99997C13.2169 4.99997 15.8335 7.61663 15.8335 10.8333C15.8335 14.05 13.2169 16.6666 10.0002 16.6666Z" fill="#c9c9c9"/>
</svg>
