<svg width="16" height="16" viewBox="0 0 16 16" fill="none" xmlns="http://www.w3.org/2000/svg">
<path fill-rule="evenodd" clip-rule="evenodd" d="M3.99999 9.33341C4.73637 9.33341 5.33332 8.73646 5.33332 8.00008C5.33332 7.2637 4.73637 6.66675 3.99999 6.66675C3.26361 6.66675 2.66666 7.2637 2.66666 8.00008C2.66666 8.73646 3.26361 9.33341 3.99999 9.33341ZM9.33332 8.00008C9.33332 8.73646 8.73637 9.33341 7.99999 9.33341C7.26361 9.33341 6.66666 8.73646 6.66666 8.00008C6.66666 7.2637 7.26361 6.66675 7.99999 6.66675C8.73637 6.66675 9.33332 7.2637 9.33332 8.00008ZM13.3333 8.00008C13.3333 8.73646 12.7364 9.33341 12 9.33341C11.2636 9.33341 10.6667 8.73646 10.6667 8.00008C10.6667 7.2637 11.2636 6.66675 12 6.66675C12.7364 6.66675 13.3333 7.2637 13.3333 8.00008Z" fill="#808080"/>
</svg>
