<svg width="32" height="33" viewBox="0 0 32 33" fill="none" xmlns="http://www.w3.org/2000/svg">
<path d="M16 32.5C24.8667 32.5 32 25.3667 32 16.5C32 7.63328 24.8667 0.5 16 0.5C7.13328 0.5 0 7.63328 0 16.5C0 25.3667 7.13328 32.5 16 32.5Z" fill="#2775CA"/>
<path d="M20.4 19.0333C20.4 16.7 19 15.9 16.2 15.5668C14.2001 15.3 13.8001 14.7668 13.8001 13.8333C13.8001 12.8999 14.4668 12.3 15.8 12.3C17 12.3 17.6668 12.7 18 13.7C18.0668 13.9 18.2668 14.0333 18.4668 14.0333H19.5333C19.8 14.0333 20 13.8333 20 13.5668V13.5C19.7333 12.0333 18.5333 10.9 17 10.7667V9.16674C17 8.90002 16.8 8.70002 16.4668 8.6333H15.4668C15.2001 8.6333 15.0001 8.8333 14.9333 9.16674V10.7C12.9333 10.9667 11.6668 12.3 11.6668 13.9668C11.6668 16.1668 13.0001 17.0333 15.8 17.3668C17.6668 17.7 18.2668 18.1 18.2668 19.1668C18.2668 20.2335 17.3333 20.9668 16.0668 20.9668C14.3333 20.9668 13.7333 20.2333 13.5333 19.2333C13.4668 18.9668 13.2668 18.8333 13.0668 18.8333H11.9334C11.6668 18.8333 11.4668 19.0333 11.4668 19.3V19.3668C11.7334 21.0333 12.8001 22.2333 15.0001 22.5668V24.1668C15.0001 24.4333 15.2001 24.6333 15.5333 24.7001H16.5333C16.8 24.7001 17 24.5001 17.0668 24.1668V22.5668C19.0667 22.2333 20.4 20.8333 20.4 19.0333Z" fill="white"/>
<path d="M12.5993 26.0336C7.39935 24.167 4.73263 18.367 6.66607 13.2336C7.66607 10.4336 9.86607 8.30027 12.5993 7.30027C12.8661 7.16699 12.9993 6.96699 12.9993 6.63355V5.70027C12.9993 5.43355 12.8661 5.23355 12.5993 5.16699C12.5326 5.16699 12.3993 5.16699 12.3326 5.23355C5.99935 7.23355 2.53263 13.967 4.53263 20.3003C5.73263 24.0336 8.59935 26.9003 12.3326 28.1003C12.5993 28.2336 12.8661 28.1003 12.9326 27.8336C12.9993 27.767 12.9993 27.7003 12.9993 27.567V26.6336C12.9993 26.4336 12.7993 26.167 12.5993 26.0336ZM19.6661 5.23355C19.3993 5.10027 19.1326 5.23355 19.0661 5.50027C18.9993 5.56699 18.9993 5.63355 18.9993 5.76699V6.70027C18.9993 6.96699 19.1993 7.23355 19.3993 7.36699C24.5993 9.23355 27.2661 15.0336 25.3326 20.167C24.3326 22.967 22.1326 25.1003 19.3993 26.1003C19.1326 26.2336 18.9993 26.4336 18.9993 26.767V27.7003C18.9993 27.967 19.1326 28.167 19.3993 28.2336C19.4661 28.2336 19.5993 28.2336 19.6661 28.167C25.9993 26.167 29.4661 19.4336 27.4661 13.1003C26.2661 9.30027 23.3326 6.43355 19.6661 5.23355Z" fill="white"/>
</svg>
