<svg width="530" height="530" xmlns="http://www.w3.org/2000/svg">

 <g>
  <title>background</title>
  <rect fill="none" id="canvas_background" height="532" width="532" y="-1" x="-1"/>
 </g>
 <g>
  <title>Layer 1</title>
  <path id="svg_1" fill="#00FFA3" d="m88.88935,372.98201c3.193,-3.19 7.522,-4.982 12.035,-4.982l416.461,0c7.586,0 11.384,9.174 6.017,14.536l-82.291,82.226c-3.193,3.191 -7.522,4.983 -12.036,4.983l-416.4601,0c-7.5866,0 -11.3845,-9.174 -6.0178,-14.537l82.2919,-82.226z"/>
  <path id="svg_2" fill="#00FFA3" d="m88.88935,65.9825c3.193,-3.1904 7.522,-4.9825 12.035,-4.9825l416.461,0c7.586,0 11.384,9.1739 6.017,14.5363l-82.291,82.2267c-3.193,3.19 -7.522,4.982 -12.036,4.982l-416.4601,0c-7.5866,0 -11.3845,-9.174 -6.0178,-14.536l82.2919,-82.2265z"/>
  <path id="svg_3" fill="#00FFA3" d="m441.11135,219.1095c-3.193,-3.19 -7.522,-4.982 -12.036,-4.982l-416.4601,0c-7.5866,0 -11.3845,9.173 -6.0178,14.536l82.2919,82.226c3.193,3.19 7.522,4.983 12.035,4.983l416.461,0c7.586,0 11.384,-9.174 6.017,-14.537l-82.291,-82.226z"/>
 </g>
</svg>