<svg width="151" height="74" viewBox="0 0 151 74" fill="none" xmlns="http://www.w3.org/2000/svg">
<circle cx="75" cy="37" r="34" stroke="url(#paint0_linear_21_84)" stroke-width="6"/>
<path d="M92 37C92 46.8184 89.8424 55.5586 86.503 61.7364C83.0991 68.0337 78.8964 71 75 71C71.1036 71 66.9009 68.0337 63.497 61.7364C60.1576 55.5586 58 46.8184 58 37C58 27.1816 60.1576 18.4414 63.497 12.2636C66.9009 5.96627 71.1036 3 75 3C78.8964 3 83.0991 5.96627 86.503 12.2636C89.8424 18.4414 92 27.1816 92 37Z" stroke="url(#paint1_linear_21_84)" stroke-width="6"/>
<path d="M75 54C65.1816 54 56.4414 51.8424 50.2636 48.503C43.9663 45.0991 41 40.8964 41 37C41 33.1036 43.9663 28.9009 50.2636 25.497C56.4414 22.1576 65.1816 20 75 20C84.8184 20 93.5586 22.1576 99.7364 25.497C106.034 28.9009 109 33.1036 109 37C109 40.8964 106.034 45.0991 99.7364 48.503C93.5586 51.8424 84.8184 54 75 54Z" stroke="#448FFF" stroke-width="6"/>
<path d="M26.5 39.5C27.3284 39.5 28 38.8284 28 38C28 37.1716 27.3284 36.5 26.5 36.5V39.5ZM0.43934 36.9393C-0.146447 37.5251 -0.146447 38.4749 0.43934 39.0607L9.98528 48.6066C10.5711 49.1924 11.5208 49.1924 12.1066 48.6066C12.6924 48.0208 12.6924 47.0711 12.1066 46.4853L3.62132 38L12.1066 29.5147C12.6924 28.9289 12.6924 27.9792 12.1066 27.3934C11.5208 26.8076 10.5711 26.8076 9.98528 27.3934L0.43934 36.9393ZM26.5 36.5H1.5V39.5H26.5V36.5Z" fill="#BBD6FF"/>
<path d="M124 36.5C123.172 36.5 122.5 37.1716 122.5 38C122.5 38.8284 123.172 39.5 124 39.5L124 36.5ZM150.061 39.0607C150.646 38.4749 150.646 37.5251 150.061 36.9393L140.515 27.3934C139.929 26.8076 138.979 26.8076 138.393 27.3934C137.808 27.9792 137.808 28.9289 138.393 29.5147L146.879 38L138.393 46.4853C137.808 47.0711 137.808 48.0208 138.393 48.6066C138.979 49.1924 139.929 49.1924 140.515 48.6066L150.061 39.0607ZM124 39.5L149 39.5L149 36.5L124 36.5L124 39.5Z" fill="#BBD6FF"/>
<defs>
<linearGradient id="paint0_linear_21_84" x1="58" y1="74" x2="112" y2="-18" gradientUnits="userSpaceOnUse">
<stop stop-color="#448FFF"/>
<stop offset="1" stop-color="#448FFF" stop-opacity="0"/>
</linearGradient>
<linearGradient id="paint1_linear_21_84" x1="75" y1="0" x2="75" y2="74" gradientUnits="userSpaceOnUse">
<stop stop-color="#448FFF"/>
<stop offset="1" stop-color="#448FFF" stop-opacity="0"/>
</linearGradient>
</defs>
</svg>
