<?xml version="1.0" standalone="no"?>
<!DOCTYPE svg PUBLIC "-//W3C//DTD SVG 20010904//EN"
 "http://www.w3.org/TR/2001/REC-SVG-20010904/DTD/svg10.dtd">
<svg version="1.0" xmlns="http://www.w3.org/2000/svg"
 width="1800.000000pt" height="1800.000000pt" viewBox="0 0 1800.000000 1800.000000"
 preserveAspectRatio="xMidYMid meet">
<metadata>
Created by potrace 1.14, written by Peter Selinger 2001-2017
</metadata>
<g transform="translate(0.000000,1800.000000) scale(0.100000,-0.100000)"
fill="#000000" stroke="none">
<path d="M5993 15643 c-12 -2 -44 -24 -71 -48 -50 -45 -50 -45 -149 -280 -41
-99 -113 -317 -147 -449 -125 -478 -107 -981 50 -1453 101 -303 253 -555 463
-764 l97 -95 -86 -170 c-100 -196 -225 -477 -305 -684 -31 -80 -59 -152 -64
-160 -5 -9 -39 -19 -92 -27 -628 -94 -1064 -201 -1336 -328 -331 -155 -556
-410 -608 -690 -50 -265 86 -500 326 -561 85 -22 201 -14 290 18 133 49 207
112 468 397 112 122 194 180 313 220 82 28 343 80 352 70 2 -2 -7 -44 -20 -94
-86 -321 -216 -990 -266 -1364 -6 -51 -17 -94 -22 -96 -417 -115 -762 -266
-1046 -456 -622 -417 -1057 -1089 -1269 -1961 -39 -159 -47 -199 -76 -363 -71
-407 -113 -1017 -100 -1460 25 -854 148 -1906 311 -2655 112 -515 360 -1471
516 -1987 l61 -203 2928 0 2929 0 -7 108 c-10 186 28 395 98 533 64 128 123
205 248 329 188 187 370 301 685 429 55 23 113 53 129 68 92 88 91 225 -3 273
-37 19 -193 69 -315 101 -144 37 -556 205 -780 316 -369 184 -580 396 -667
673 -20 65 -23 95 -23 220 1 137 3 150 34 240 54 159 127 273 263 409 180 182
389 320 738 490 219 106 334 153 570 231 313 105 544 151 745 151 291 1 388
-80 388 -321 1 -102 -15 -173 -57 -260 -42 -89 -179 -226 -311 -312 -256 -168
-614 -359 -814 -434 -120 -45 -172 -86 -191 -151 -16 -53 -7 -101 29 -150 35
-49 66 -64 233 -113 230 -67 591 -209 823 -324 433 -215 628 -428 660 -721 20
-179 -79 -363 -345 -638 -198 -206 -389 -351 -634 -483 -118 -64 -152 -98
-167 -164 -19 -83 28 -168 115 -210 35 -16 76 -23 193 -31 331 -21 778 -124
987 -225 l69 -34 1984 0 c1090 0 1983 2 1983 4 0 4 -31 78 -140 336 -313 742
-538 1458 -775 2470 -116 497 -192 862 -330 1600 -247 1314 -350 1770 -514
2265 -277 841 -730 1497 -1291 1870 -118 79 -269 163 -358 198 -40 16 -40 17
-46 79 -3 35 -13 241 -21 458 -9 217 -18 424 -22 459 l-6 64 29 -8 c394 -102
894 -25 1293 199 236 133 392 298 510 539 133 273 188 516 174 767 l-6 105 64
31 c172 85 285 211 333 373 55 185 -49 392 -245 488 -239 117 -545 119 -1764
8 -269 -24 -533 -47 -585 -50 -52 -4 -102 -9 -112 -11 -12 -4 -18 4 -23 28 -4
18 -20 75 -36 127 -16 51 -29 99 -29 105 0 6 15 20 33 30 64 37 143 91 217
147 640 492 832 1311 559 2391 -87 348 -172 468 -329 468 -107 0 -167 -57
-296 -284 -166 -288 -260 -413 -473 -627 -199 -199 -404 -358 -607 -470 l-62
-33 -53 47 c-80 71 -264 207 -349 260 -504 310 -1251 431 -1935 312 -455 -79
-921 -269 -1243 -507 l-56 -42 -95 33 c-309 106 -575 273 -796 502 -215 223
-406 512 -500 760 -50 129 -114 173 -222 152z m4071 -1329 c78 -20 285 -84
306 -94 8 -5 56 -27 105 -51 76 -35 309 -177 325 -198 3 -3 34 -30 70 -60 213
-178 452 -477 605 -756 59 -108 135 -262 135 -274 0 -6 5 -11 10 -11 6 0 10
-5 10 -11 0 -6 6 -25 14 -42 37 -82 56 -126 56 -132 0 -4 6 -21 14 -38 37 -88
150 -417 144 -422 -2 -1 -86 -10 -188 -19 -498 -44 -684 -63 -1550 -161 -69
-8 -386 -37 -705 -65 -319 -28 -645 -57 -725 -65 -132 -14 -921 -102 -1115
-124 -293 -35 -364 -43 -485 -61 -74 -10 -136 -17 -138 -15 -2 2 34 97 80 210
l83 207 70 23 c103 32 324 151 391 210 7 6 31 25 55 44 24 19 91 81 148 139
285 288 422 645 392 1022 -10 123 -35 90 198 257 388 278 865 450 1376 496
112 10 261 6 319 -9z m4420 -2259 c133 -23 210 -77 208 -145 -2 -79 -103 -176
-225 -216 -80 -26 -124 -54 -154 -98 l-28 -41 0 -255 c0 -251 0 -257 -29 -355
-31 -108 -104 -283 -158 -373 -51 -86 -199 -228 -298 -286 -317 -186 -709
-266 -1009 -206 -206 42 -378 121 -494 230 -146 136 -257 310 -344 540 -49
128 -149 476 -169 584 -9 51 -65 113 -114 126 -29 8 -72 5 -181 -10 -79 -11
-225 -32 -324 -46 -286 -40 -461 -72 -494 -89 -17 -8 -37 -28 -45 -44 -8 -15
-29 -112 -46 -214 -33 -203 -62 -313 -117 -452 -111 -281 -231 -465 -429 -655
-127 -122 -250 -209 -391 -276 -101 -49 -287 -111 -388 -130 -22 -4 -49 -13
-60 -20 -38 -25 -252 -56 -335 -49 -41 3 -95 6 -118 7 -26 1 -46 7 -49 15 -3
7 -9 11 -13 8 -5 -3 -12 0 -16 6 -4 8 -3 9 4 5 16 -10 15 7 0 23 -7 7 -8 12
-3 11 20 -4 26 0 18 13 -11 17 -10 31 2 39 6 5 3 8 -7 8 -21 0 -23 20 -5 39 7
9 7 11 1 8 -7 -4 -15 0 -18 9 -10 26 -7 34 12 28 14 -5 15 -4 2 5 -19 13 -19
14 -70 -107 -23 -57 -48 -106 -55 -108 -20 -8 -223 41 -311 75 -114 44 -324
187 -324 221 0 5 50 123 111 262 61 139 131 298 154 353 24 55 102 235 174
399 72 164 128 303 125 307 -3 5 1 9 8 10 10 0 10 2 -1 6 -11 5 -11 7 0 14 8
4 14 20 14 34 1 26 -10 34 -18 13 -4 -10 -6 -10 -6 -1 -1 6 4 15 9 18 8 5 7
12 -1 22 -10 11 -10 16 0 23 10 6 9 10 -5 19 -14 7 -15 10 -4 11 12 0 11 3 -2
16 -15 15 -15 19 -2 40 12 17 12 24 3 30 -7 4 -9 3 -5 -4 3 -6 1 -14 -5 -18
-7 -4 -9 -3 -5 4 3 6 2 13 -4 17 -6 4 -8 11 -4 16 3 5 10 7 15 4 10 -7 8 23
-3 40 -12 19 6 33 47 38 105 14 141 20 150 27 6 5 26 11 45 14 61 11 692 65
704 60 13 -5 312 22 323 29 5 3 98 12 208 22 186 15 307 28 865 90 374 42 840
85 1415 130 182 14 346 28 365 31 37 5 254 26 460 44 69 5 258 22 420 36 460
41 853 48 1024 19z m-2951 -950 c118 -462 295 -790 556 -1037 l99 -93 16 -335
c17 -352 59 -1316 76 -1725 5 -132 21 -438 35 -679 l25 -439 -89 -136 c-112
-173 -231 -363 -262 -421 -13 -25 -26 -47 -29 -50 -3 -3 -14 -25 -25 -50 -11
-25 -22 -47 -25 -50 -6 -6 -21 -37 -44 -90 -8 -19 -24 -56 -35 -82 -12 -26
-21 -51 -21 -55 0 -4 -7 -20 -14 -35 -23 -43 -94 -301 -121 -433 -24 -122 -49
-311 -61 -467 -5 -76 -8 -86 -23 -78 -201 113 -547 118 -963 16 -169 -42 -514
-155 -615 -201 -17 -8 -34 -15 -38 -15 -3 0 -27 -9 -53 -21 -26 -11 -65 -28
-86 -37 -52 -22 -390 -192 -440 -221 -22 -12 -64 -38 -93 -57 -29 -19 -56 -34
-59 -34 -11 0 -180 -124 -259 -191 -75 -63 -210 -198 -263 -263 -42 -51 -140
-204 -168 -263 l-27 -58 -22 75 c-25 81 -109 323 -124 355 -6 11 -13 31 -16
45 -4 14 -13 39 -20 55 -41 94 -54 126 -60 154 -4 17 -10 31 -15 31 -4 0 -11
16 -14 35 -4 19 -11 35 -15 35 -5 0 -12 16 -15 35 -4 19 -11 35 -15 35 -5 0
-12 16 -15 35 -4 19 -11 35 -16 35 -5 0 -12 16 -16 35 -3 19 -10 35 -15 35 -5
0 -9 5 -9 11 0 13 -12 41 -87 196 -29 62 -53 116 -53 122 0 5 -3 11 -8 13 -4
2 -26 41 -50 88 -38 77 -57 112 -119 220 -165 288 -373 561 -574 755 -146 140
-386 328 -502 394 -23 13 -54 32 -69 42 -14 11 -31 19 -37 19 -6 0 -11 3 -11
8 0 4 -17 15 -37 25 -21 9 -78 39 -128 66 l-90 49 -6 123 c-15 285 -22 1308
-10 1589 37 897 144 1749 314 2500 l12 55 50 7 c28 4 120 17 205 28 85 12 169
24 186 27 31 5 32 4 39 -44 16 -112 69 -316 121 -471 135 -400 322 -659 614
-847 163 -106 351 -172 590 -209 284 -44 503 -27 895 70 347 86 587 213 854
453 323 291 586 797 652 1251 7 47 15 89 19 93 9 11 523 86 565 84 29 -2 30
-4 58 -112z m162 -7756 c36 -244 121 -735 132 -752 3 -5 -30 14 -73 44 -127
85 -410 239 -441 239 -7 0 -13 4 -13 9 0 5 -12 12 -27 16 -15 3 -52 18 -83 32
-91 41 -111 49 -200 78 -47 16 -101 35 -120 43 l-34 14 149 75 c261 131 536
312 639 422 16 17 31 29 33 27 2 -2 19 -113 38 -247z m-2679 -1338 c40 -28 74
-51 78 -51 3 0 31 -16 61 -35 69 -44 321 -168 435 -214 47 -19 90 -38 95 -41
6 -4 27 -13 48 -20 22 -7 51 -18 65 -26 15 -8 31 -14 35 -14 17 0 107 -43 107
-50 0 -5 -14 -15 -31 -24 -74 -37 -256 -176 -363 -278 -122 -115 -252 -278
-302 -376 -16 -31 -32 -58 -36 -60 -5 -2 -8 -8 -8 -13 0 -15 -44 -109 -51
-109 -4 0 -10 21 -14 48 -13 95 -126 705 -190 1028 -36 182 -65 335 -65 340 0
4 15 -6 33 -23 17 -17 64 -54 103 -82z m3174 -901 c28 -102 70 -248 94 -325
55 -175 156 -504 163 -528 5 -19 16 -25 -138 63 -39 22 -73 40 -77 40 -3 0
-24 9 -46 19 -141 67 -308 117 -584 175 -57 12 -104 25 -105 28 -1 3 20 22 47
43 147 112 349 323 446 465 13 19 27 37 30 40 4 3 24 34 45 70 66 111 68 115
71 105 2 -6 26 -93 54 -195z"/>
<path d="M8690 9771 c0 -6 5 -11 10 -11 6 0 8 -11 6 -25 -3 -14 -1 -25 3 -25
14 0 9 49 -5 61 -10 8 -14 8 -14 0z"/>
<path d="M9220 9108 c-74 -38 -109 -127 -79 -205 12 -34 163 -188 275 -283
270 -228 635 -388 990 -434 247 -33 555 -6 671 58 43 24 83 92 83 141 0 50
-40 117 -85 142 -47 27 -86 28 -166 8 -90 -24 -276 -34 -403 -23 -210 18 -346
58 -571 168 -163 81 -254 146 -422 305 -159 151 -202 169 -293 123z"/>
</g>
</svg>
