<svg width="24" height="18" viewBox="0 0 24 18" fill="none" xmlns="http://www.w3.org/2000/svg">
<g clip-path="url(#clip0)">
<path d="M19.6706 1.60293C18.1896 0.92338 16.6014 0.422718 14.9409 0.135969C14.9106 0.130434 14.8804 0.144265 14.8649 0.171926C14.6606 0.535202 14.4344 1.00913 14.2759 1.38163C12.4899 1.11425 10.7131 1.11425 8.96374 1.38163C8.80527 1.00085 8.57081 0.535202 8.36565 0.171926C8.35007 0.145187 8.31986 0.131357 8.28962 0.135969C6.63002 0.421802 5.04187 0.922464 3.55994 1.60293C3.54711 1.60846 3.53612 1.61769 3.52882 1.62967C0.51642 6.13013 -0.308802 10.52 0.0960244 14.8554C0.0978561 14.8766 0.109763 14.8969 0.126249 14.9098C2.11374 16.3693 4.03897 17.2554 5.92845 17.8428C5.95869 17.852 5.99073 17.8409 6.00997 17.816C6.45693 17.2057 6.85535 16.5621 7.19696 15.8853C7.21712 15.8456 7.19787 15.7986 7.15667 15.7829C6.5247 15.5432 5.92295 15.2509 5.3441 14.919C5.29832 14.8923 5.29465 14.8268 5.33677 14.7954C5.45858 14.7041 5.58043 14.6092 5.69674 14.5133C5.71778 14.4958 5.74711 14.4921 5.77185 14.5031C9.57463 16.2394 13.6916 16.2394 17.4495 14.5031C17.4742 14.4912 17.5036 14.4949 17.5255 14.5124C17.6419 14.6083 17.7637 14.7041 17.8864 14.7954C17.9285 14.8268 17.9258 14.8923 17.88 14.919C17.3011 15.2574 16.6994 15.5432 16.0665 15.782C16.0253 15.7977 16.007 15.8456 16.0271 15.8853C16.3761 16.5611 16.7745 17.2047 17.2132 17.8151C17.2315 17.8409 17.2645 17.852 17.2947 17.8428C19.1934 17.2554 21.1186 16.3693 23.1061 14.9098C23.1235 14.8969 23.1345 14.8775 23.1363 14.8563C23.6208 9.84408 22.3248 5.49024 19.7008 1.63058C19.6944 1.61769 19.6834 1.60846 19.6706 1.60293ZM7.76484 12.2156C6.61994 12.2156 5.67658 11.1645 5.67658 9.8736C5.67658 8.58274 6.60165 7.53164 7.76484 7.53164C8.93716 7.53164 9.8714 8.59197 9.85307 9.8736C9.85307 11.1645 8.928 12.2156 7.76484 12.2156ZM15.4858 12.2156C14.341 12.2156 13.3976 11.1645 13.3976 9.8736C13.3976 8.58274 14.3226 7.53164 15.4858 7.53164C16.6582 7.53164 17.5924 8.59197 17.5741 9.8736C17.5741 11.1645 16.6582 12.2156 15.4858 12.2156Z" fill="#121212"/>
</g>
<defs>
<clipPath id="clip0">
<rect width="23.2364" height="18" fill="white"/>
</clipPath>
</defs>
</svg>
