<?xml version="1.0" encoding="UTF-8" standalone="no"?>
<!-- Created with Inkscape (http://www.inkscape.org/) -->

<svg
   width="105.39228mm"
   height="20.885109mm"
   viewBox="0 0 105.39228 20.885109"
   version="1.1"
   id="svg5"
   inkscape:version="1.1 (c68e22c387, 2021-05-23)"
   sodipodi:docname="ATOM3000_logo.svg"
   xmlns:inkscape="http://www.inkscape.org/namespaces/inkscape"
   xmlns:sodipodi="http://sodipodi.sourceforge.net/DTD/sodipodi-0.dtd"
   xmlns="http://www.w3.org/2000/svg"
   xmlns:svg="http://www.w3.org/2000/svg">
  <sodipodi:namedview
     id="namedview7"
     pagecolor="#ffffff"
     bordercolor="#666666"
     borderopacity="1.0"
     inkscape:pageshadow="2"
     inkscape:pageopacity="0.0"
     inkscape:pagecheckerboard="0"
     inkscape:document-units="mm"
     showgrid="false"
     inkscape:zoom="1.4142136"
     inkscape:cx="33.941125"
     inkscape:cy="1.0606602"
     inkscape:window-width="1920"
     inkscape:window-height="1017"
     inkscape:window-x="1912"
     inkscape:window-y="-8"
     inkscape:window-maximized="1"
     inkscape:current-layer="layer1"
     showguides="true"
     inkscape:guide-bbox="true" />
  <defs
     id="defs2" />
  <g
     inkscape:label="Layer 1"
     inkscape:groupmode="layer"
     id="layer1"
     transform="translate(-31.816145,-83.823741)">
    <g
       aria-label="ATOM3000"
       id="text88097"
       style="font-size:10.5833px;line-height:1.25;stroke-width:0.264583"
       transform="matrix(4,0,0,3,-95.448435,-209.4177)">
      <path
         d="m 32.768642,101.03644 h 0.656164 v -2.328324 h -0.656164 z m 0.656164,0.9525 h -0.656164 v 2.71991 h -0.952497 v -6.476982 q 0,-0.1905 0.137583,-0.328083 0.148166,-0.148166 0.338665,-0.148166 h 1.608662 q 0.190499,0 0.328082,0.148166 0.148166,0.137583 0.148166,0.328083 v 6.476982 h -0.952497 z"
         style="font-family:Atomic;-inkscape-font-specification:Atomic;fill:#f2f1f2;fill-opacity:0.857798"
         id="path106235" />
      <path
         d="m 36.959613,98.708116 h -0.666748 v 6.000734 H 35.340368 V 98.708116 H 34.67362 v -0.952497 h 2.285993 z"
         style="font-family:Atomic;-inkscape-font-specification:Atomic;fill:#f2f1f2;fill-opacity:0.857798"
         id="path106237" />
      <path
         d="m 39.795924,104.2326 q 0,0.1905 -0.148167,0.33866 -0.137583,0.13759 -0.328082,0.13759 H 37.70043 q -0.190499,0 -0.338665,-0.13759 -0.137583,-0.14816 -0.137583,-0.33866 v -5.990149 q 0,-0.190499 0.137583,-0.328082 0.148166,-0.148167 0.338665,-0.148167 h 1.619245 q 0.190499,0 0.328082,0.148167 0.148167,0.137583 0.148167,0.328082 z m -0.952497,-0.47625 v -5.037651 h -0.666748 v 5.037651 z"
         style="font-family:Atomic;-inkscape-font-specification:Atomic;fill:#f2f1f2;fill-opacity:0.857798"
         id="path106239" />
      <path
         d="m 43.39423,104.70885 h -0.952497 v -6.000734 h -0.222249 v 6.000734 h -0.952497 v -6.000734 h -0.22225 v 6.000734 H 40.09224 v -6.476982 q 0,-0.1905 0.137583,-0.328083 0.148166,-0.148166 0.338666,-0.148166 h 2.349492 q 0.179916,0 0.328083,0.148166 0.148166,0.137583 0.148166,0.328083 z"
         style="font-family:Atomic;-inkscape-font-specification:Atomic;fill:#f2f1f2;fill-opacity:0.857798"
         id="path106241" />
      <path
         d="m 44.873758,101.03538 h 0.908048 v -2.049986 h -0.866773 v 1.554686 h -1.238247 v -2.173809 q 0,-0.24765 0.178858,-0.426507 0.192616,-0.192617 0.440265,-0.192617 h 2.10502 q 0.24765,0 0.426507,0.192617 0.192617,0.178857 0.192617,0.426507 v 5.723449 q 0,0.24765 -0.192617,0.44027 -0.178857,0.17886 -0.426507,0.17886 h -2.10502 q -0.247649,0 -0.440265,-0.17886 -0.178858,-0.19262 -0.178858,-0.44027 v -1.56844 h 1.238247 v 0.94932 h 0.866773 v -1.19697 h -0.908048 z"
         style="font-size:13.7583px;fill:#f2f1f2;fill-opacity:0.857798"
         id="path106243" />
      <path
         d="m 50.11565,97.747147 q 0.247649,0 0.426507,0.192617 0.192616,0.178857 0.192616,0.426507 v 5.723449 q 0,0.24765 -0.192616,0.44027 -0.178858,0.17886 -0.426507,0.17886 h -2.10502 q -0.247649,0 -0.440266,-0.17886 -0.178857,-0.19262 -0.178857,-0.44027 v -5.723449 q 0,-0.24765 0.178857,-0.426507 0.192617,-0.192617 0.440266,-0.192617 z m -1.485896,3.329513 0.866772,-0.85302 v -1.238246 h -0.866772 z m 0.866772,0.90804 -0.866772,0.85302 v 0.63288 h 0.866772 z"
         style="font-size:13.7583px;fill:#f2f1f2;fill-opacity:0.857798"
         id="path106245" />
      <path
         d="m 53.830371,97.747147 q 0.247649,0 0.426507,0.192617 0.192616,0.178857 0.192616,0.426507 v 5.723449 q 0,0.24765 -0.192616,0.44027 -0.178858,0.17886 -0.426507,0.17886 h -2.10502 q -0.24765,0 -0.440266,-0.17886 -0.178858,-0.19262 -0.178858,-0.44027 v -5.723449 q 0,-0.24765 0.178858,-0.426507 0.192616,-0.192617 0.440266,-0.192617 z m -1.485897,3.329513 0.866773,-0.85302 v -1.238246 h -0.866773 z m 0.866773,0.90804 -0.866773,0.85302 v 0.63288 h 0.866773 z"
         style="font-size:13.7583px;fill:#f2f1f2;fill-opacity:0.857798"
         id="path106247" />
      <path
         d="m 57.545092,97.747147 q 0.24765,0 0.426508,0.192617 0.192616,0.178857 0.192616,0.426507 v 5.723449 q 0,0.24765 -0.192616,0.44027 -0.178858,0.17886 -0.426508,0.17886 h -2.10502 q -0.247649,0 -0.440265,-0.17886 -0.178858,-0.19262 -0.178858,-0.44027 v -5.723449 q 0,-0.24765 0.178858,-0.426507 0.192616,-0.192617 0.440265,-0.192617 z m -1.485896,3.329513 0.866773,-0.85302 v -1.238246 h -0.866773 z m 0.866773,0.90804 -0.866773,0.85302 v 0.63288 h 0.866773 z"
         style="font-size:13.7583px;fill:#f2f1f2;fill-opacity:0.857798"
         id="path106249" />
    </g>
  </g>
</svg>
