<?xml version="1.0" encoding="utf-8"?>
<!-- Generator: Adobe Illustrator 26.0.3, SVG Export Plug-In . SVG Version: 6.00 Build 0)  -->
<svg version="1.1" id="Layer_1" xmlns="http://www.w3.org/2000/svg" xmlns:xlink="http://www.w3.org/1999/xlink" x="0px" y="0px"
	 viewBox="0 0 200 23" style="enable-background:new 0 0 200 23;" xml:space="preserve">
<style type="text/css">
	.st0{fill:#FFFFFF;}
	.st1{fill:#C98C28;}
</style>
<g>
	<path class="st0" d="M19.8,15.2c0,2.6-1.5,4.6-5.1,4.6H0.4V4.2H14c3.5,0,4.6,1.6,4.6,4c0,1-0.5,2-1.2,2.9
		C18.8,12.1,19.8,13.5,19.8,15.2z M6.2,9.7h5.3c0.6,0,1.3,0,1.3-0.8C12.9,8,12.2,8,11.6,8H6.2V9.7z M14,14.8c0-0.8-0.7-0.8-1.3-0.8
		H6.2v1.6h6.5C13.3,15.6,14,15.6,14,14.8z"/>
	<path class="st0" d="M36.5,14.9v4.9h-16V4.2h5.8v10.7H36.5z"/>
	<path class="st0" d="M36.9,12c0-5.4,2.9-8,9.8-8c6.8,0,9.8,2.6,9.8,8c0,5.4-3,8-9.8,8C39.8,20.1,36.9,17.5,36.9,12z M50.7,12
		c0-1.6-0.6-3.1-4-3.1c-3.4,0-4,1.4-4,3.1c0,1.7,0.6,3.1,4,3.1S50.7,13.7,50.7,12z"/>
	<path class="st0" d="M66.7,4c6.2,0,9.5,2.2,9.7,7.1h-5.9c-0.2-1.5-1.4-2.2-3.8-2.2c-3.4,0-4,1.4-4,3.1c0,1.7,0.6,3.1,4,3.1
		c2.4,0,3.6-0.8,3.8-2.2h5.9c-0.2,4.9-3.5,7.1-9.7,7.1c-6.9,0-9.8-2.6-9.8-8C56.9,6.6,59.9,4,66.7,4z"/>
	<path class="st0" d="M89.4,11.6l9,8.2h-8l-5-4.9l-2.4,2v3h-5.8V4.2h5.8v6.1l7.2-6.1h8.2L89.4,11.6z"/>
	<path class="st0" d="M119.5,4.2v15.6h-5.8v-5.3h-9.1v5.3h-5.8V4.2h5.8v5.3h9.1V4.2H119.5z"/>
	<path class="st0" d="M126.1,8.7v1.4h10.7v3.8h-10.7v1.4h10.7v4.5h-16.5V4.2h16.5v4.5H126.1z"/>
	<path class="st0" d="M151.3,17h-6.6l-1.1,2.8h-6.4l6.5-15.6h8.6l6.5,15.6h-6.4L151.3,17z M149.8,13L148,8.3l-1.8,4.8H149.8z"/>
	<path class="st0" d="M178.1,12c0,5.3-3.5,7.8-7.3,7.8h-11.6V4.2h11.6C174.6,4.2,178.1,6.7,178.1,12z M172.3,12c0-2.9-2-2.9-3.3-2.9
		h-4v5.8h4C170.3,14.9,172.3,14.9,172.3,12z"/>
	<path class="st1" d="M190.7,20v2H188v-2c-5.7-0.1-8.8-1.4-8.8-5.7h5.8c0,0.6,0.5,1.1,3,1.2v-1.7c-6.2-0.3-8.6-1.5-8.6-5
		c0-3.3,3-4.7,8.6-4.9V2h2.7v2c5,0.3,7.7,1.8,7.7,5.4h-5.8c0-0.6-0.6-0.8-2-0.9V10c5.2,0.3,8.4,1,8.4,4.7
		C199.1,18.6,196.1,19.9,190.7,20z M188,9.9V8.5c-2.3,0-2.8,0.2-2.8,0.7C185.2,9.7,185.6,9.8,188,9.9z M193.3,14.8
		c0-0.6-0.4-0.7-2.6-0.8v1.6C192.9,15.5,193.3,15.3,193.3,14.8z"/>
</g>
</svg>
