<svg width="1770" height="2192" viewBox="0 0 1770 2192" fill="none" xmlns="http://www.w3.org/2000/svg">
<g clip-path="url(#clip0)">
<path d="M1770 0H0V2192H1770V0Z" fill="black"/>
<path d="M207.609 694.525C210.695 694.525 213.196 692.024 213.196 688.938C213.196 685.852 210.695 683.351 207.609 683.351C204.524 683.351 202.022 685.852 202.022 688.938C202.022 692.024 204.524 694.525 207.609 694.525Z" stroke="white" stroke-width="2"/>
<path d="M137.834 1212.35C140.92 1212.35 143.421 1209.85 143.421 1206.76C143.421 1203.67 140.92 1201.17 137.834 1201.17C134.748 1201.17 132.247 1203.67 132.247 1206.76C132.247 1209.85 134.748 1212.35 137.834 1212.35Z" stroke="white" stroke-width="2"/>
<path d="M296.784 812.812C299.87 812.812 302.371 810.311 302.371 807.225C302.371 804.14 299.87 801.638 296.784 801.638C293.699 801.638 291.197 804.14 291.197 807.225C291.197 810.311 293.699 812.812 296.784 812.812Z" stroke="white" stroke-width="2"/>
<path d="M211.345 1218.94C214.43 1218.94 216.932 1216.44 216.932 1213.35C216.932 1210.26 214.43 1207.76 211.345 1207.76C208.259 1207.76 205.758 1210.26 205.758 1213.35C205.758 1216.44 208.259 1218.94 211.345 1218.94Z" stroke="white" stroke-width="2"/>
<path d="M1594.17 855.837C1597.26 855.837 1599.76 853.336 1599.76 850.25C1599.76 847.164 1597.26 844.663 1594.17 844.663C1591.08 844.663 1588.58 847.164 1588.58 850.25C1588.58 853.336 1591.08 855.837 1594.17 855.837Z" stroke="white" stroke-width="2"/>
<path d="M1569.71 1672.95C1572.8 1672.95 1575.3 1670.45 1575.3 1667.36C1575.3 1664.27 1572.8 1661.77 1569.71 1661.77C1566.62 1661.77 1564.12 1664.27 1564.12 1667.36C1564.12 1670.45 1566.62 1672.95 1569.71 1672.95Z" stroke="white" stroke-width="2"/>
<path d="M251.922 772.772C253.906 772.772 255.515 771.163 255.515 769.179C255.515 767.195 253.906 765.586 251.922 765.586C249.938 765.586 248.329 767.195 248.329 769.179C248.329 771.163 249.938 772.772 251.922 772.772Z" fill="white"/>
<path d="M181.255 1289.26C183.239 1289.26 184.848 1287.65 184.848 1285.67C184.848 1283.69 183.239 1282.08 181.255 1282.08C179.271 1282.08 177.662 1283.69 177.662 1285.67C177.662 1287.65 179.271 1289.26 181.255 1289.26Z" fill="#8D41EF"/>
<path d="M1553.36 860.43C1555.34 860.43 1556.95 858.821 1556.95 856.837C1556.95 854.853 1555.34 853.244 1553.36 853.244C1551.38 853.244 1549.77 854.853 1549.77 856.837C1549.77 858.821 1551.38 860.43 1553.36 860.43Z" fill="#EF4195"/>
<path d="M363.329 706.25C365.314 706.25 366.922 704.641 366.922 702.657C366.922 700.673 365.314 699.064 363.329 699.064C361.345 699.064 359.736 700.673 359.736 702.657C359.736 704.641 361.345 706.25 363.329 706.25Z" fill="#F79F19"/>
<path d="M206.609 800.638C208.593 800.638 210.201 799.029 210.201 797.045C210.201 795.061 208.593 793.452 206.609 793.452C204.624 793.452 203.016 795.061 203.016 797.045C203.016 799.029 204.624 800.638 206.609 800.638Z" fill="white"/>
<path d="M179.843 1328.95C181.827 1328.95 183.436 1327.34 183.436 1325.36C183.436 1323.38 181.827 1321.77 179.843 1321.77C177.859 1321.77 176.25 1323.38 176.25 1325.36C176.25 1327.34 177.859 1328.95 179.843 1328.95Z" fill="white"/>
<path d="M1549.77 893.346C1551.75 893.346 1553.36 891.737 1553.36 889.753C1553.36 887.769 1551.75 886.16 1549.77 886.16C1547.79 886.16 1546.18 887.769 1546.18 889.753C1546.18 891.737 1547.79 893.346 1549.77 893.346Z" fill="white"/>
<path d="M311.667 1027.15C313.651 1027.15 315.26 1025.54 315.26 1023.56C315.26 1021.58 313.651 1019.97 311.667 1019.97C309.683 1019.97 308.074 1021.58 308.074 1023.56C308.074 1025.54 309.683 1027.15 311.667 1027.15Z" fill="white"/>
<path opacity="0.4" d="M1522.9 1050.37C1524.88 1050.37 1526.49 1048.76 1526.49 1046.78C1526.49 1044.8 1524.88 1043.19 1522.9 1043.19C1520.92 1043.19 1519.31 1044.8 1519.31 1046.78C1519.31 1048.76 1520.92 1050.37 1522.9 1050.37Z" fill="white"/>
<path d="M1604.61 1717.65C1606.59 1717.65 1608.2 1716.04 1608.2 1714.06C1608.2 1712.08 1606.59 1710.47 1604.61 1710.47C1602.63 1710.47 1601.02 1712.08 1601.02 1714.06C1601.02 1716.04 1602.63 1717.65 1604.61 1717.65Z" fill="#895F1D"/>
<path d="M1551.91 1764.18C1553.89 1764.18 1555.5 1762.57 1555.5 1760.59C1555.5 1758.61 1553.89 1757 1551.91 1757C1549.93 1757 1548.32 1758.61 1548.32 1760.59C1548.32 1762.57 1549.93 1764.18 1551.91 1764.18Z" fill="white"/>
<path d="M1566.72 1802.1C1568.7 1802.1 1570.31 1800.49 1570.31 1798.51C1570.31 1796.53 1568.7 1794.92 1566.72 1794.92C1564.74 1794.92 1563.13 1796.53 1563.13 1798.51C1563.13 1800.49 1564.74 1802.1 1566.72 1802.1Z" fill="white"/>
<path d="M1611.79 1831.44C1613.77 1831.44 1615.38 1829.83 1615.38 1827.85C1615.38 1825.87 1613.77 1824.26 1611.79 1824.26C1609.81 1824.26 1608.2 1825.87 1608.2 1827.85C1608.2 1829.83 1609.81 1831.44 1611.79 1831.44Z" fill="white"/>
<path d="M1634.24 1181.01C1636.22 1181.01 1637.83 1179.4 1637.83 1177.42C1637.83 1175.44 1636.22 1173.83 1634.24 1173.83C1632.26 1173.83 1630.65 1175.44 1630.65 1177.42C1630.65 1179.4 1632.26 1181.01 1634.24 1181.01Z" fill="white"/>
<path opacity="0.5" d="M1483.89 1457.72C1485.87 1457.72 1487.48 1456.11 1487.48 1454.13C1487.48 1452.15 1485.87 1450.54 1483.89 1450.54C1481.91 1450.54 1480.3 1452.15 1480.3 1454.13C1480.3 1456.11 1481.91 1457.72 1483.89 1457.72Z" fill="white"/>
<path d="M1660.48 1410.87C1662.46 1410.87 1664.07 1409.26 1664.07 1407.28C1664.07 1405.3 1662.46 1403.69 1660.48 1403.69C1658.5 1403.69 1656.89 1405.3 1656.89 1407.28C1656.89 1409.26 1658.5 1410.87 1660.48 1410.87Z" fill="white"/>
<path d="M1469.42 1986.67C1471.4 1986.67 1473.01 1985.06 1473.01 1983.08C1473.01 1981.1 1471.4 1979.49 1469.42 1979.49C1467.44 1979.49 1465.83 1981.1 1465.83 1983.08C1465.83 1985.06 1467.44 1986.67 1469.42 1986.67Z" fill="white"/>
<path d="M248.373 1979.48C250.357 1979.48 251.966 1977.87 251.966 1975.89C251.966 1973.91 250.357 1972.3 248.373 1972.3C246.389 1972.3 244.78 1973.91 244.78 1975.89C244.78 1977.87 246.389 1979.48 248.373 1979.48Z" fill="white"/>
<path d="M1515.72 520.795C1517.7 520.795 1519.31 519.187 1519.31 517.202C1519.31 515.218 1517.7 513.609 1515.72 513.609C1513.74 513.609 1512.13 515.218 1512.13 517.202C1512.13 519.187 1513.74 520.795 1515.72 520.795Z" fill="white"/>
<path opacity="0.3" d="M516.068 941.447C518.052 941.447 519.66 939.838 519.66 937.854C519.66 935.87 518.052 934.261 516.068 934.261C514.083 934.261 512.475 935.87 512.475 937.854C512.475 939.838 514.083 941.447 516.068 941.447Z" fill="white"/>
<path opacity="0.4" d="M210.604 283.994C212.588 283.994 214.197 282.385 214.197 280.401C214.197 278.417 212.588 276.808 210.604 276.808C208.619 276.808 207.011 278.417 207.011 280.401C207.011 282.385 208.619 283.994 210.604 283.994Z" fill="white"/>
<path d="M308.074 339.8C310.059 339.8 311.667 338.191 311.667 336.207C311.667 334.223 310.059 332.614 308.074 332.614C306.09 332.614 304.481 334.223 304.481 336.207C304.481 338.191 306.09 339.8 308.074 339.8Z" fill="white"/>
<path d="M1603.46 167.061C1605.44 167.061 1607.05 165.452 1607.05 163.468C1607.05 161.484 1605.44 159.875 1603.46 159.875C1601.48 159.875 1599.87 161.484 1599.87 163.468C1599.87 165.452 1601.48 167.061 1603.46 167.061Z" fill="white"/>
<path opacity="0.5" d="M1667.66 343.394C1669.64 343.394 1671.25 341.785 1671.25 339.801C1671.25 337.817 1669.64 336.208 1667.66 336.208C1665.68 336.208 1664.07 337.817 1664.07 339.801C1664.07 341.785 1665.68 343.394 1667.66 343.394Z" fill="white"/>
<path d="M1299.79 806.935C1301.77 806.935 1303.38 805.326 1303.38 803.342C1303.38 801.358 1301.77 799.749 1299.79 799.749C1297.81 799.749 1296.2 801.358 1296.2 803.342C1296.2 805.326 1297.81 806.935 1299.79 806.935Z" fill="white"/>
<path d="M263.151 1560.67C265.136 1560.67 266.744 1559.06 266.744 1557.08C266.744 1555.1 265.136 1553.49 263.151 1553.49C261.167 1553.49 259.559 1555.1 259.559 1557.08C259.559 1559.06 261.167 1560.67 263.151 1560.67Z" fill="white"/>
<path d="M156.719 1348.26C158.703 1348.26 160.312 1346.65 160.312 1344.67C160.312 1342.69 158.703 1341.08 156.719 1341.08C154.735 1341.08 153.126 1342.69 153.126 1344.67C153.126 1346.65 154.735 1348.26 156.719 1348.26Z" fill="white"/>
<path d="M1617.1 915.661C1619.08 915.661 1620.69 914.052 1620.69 912.068C1620.69 910.084 1619.08 908.475 1617.1 908.475C1615.12 908.475 1613.51 910.084 1613.51 912.068C1613.51 914.052 1615.12 915.661 1617.1 915.661Z" fill="white"/>
<path d="M1627.05 781.509C1629.03 781.509 1630.64 779.9 1630.64 777.916C1630.64 775.932 1629.03 774.323 1627.05 774.323C1625.07 774.323 1623.46 775.932 1623.46 777.916C1623.46 779.9 1625.07 781.509 1627.05 781.509Z" fill="white"/>
<path d="M1601.01 765.436C1602.99 765.436 1604.6 763.827 1604.6 761.843C1604.6 759.859 1602.99 758.25 1601.01 758.25C1599.03 758.25 1597.42 759.859 1597.42 761.843C1597.42 763.827 1599.03 765.436 1601.01 765.436Z" fill="white"/>
<path d="M206.44 1353.04C208.424 1353.04 210.032 1351.43 210.032 1349.45C210.032 1347.47 208.424 1345.86 206.44 1345.86C204.455 1345.86 202.847 1347.47 202.847 1349.45C202.847 1351.43 204.455 1353.04 206.44 1353.04Z" fill="white"/>
<path d="M1576.37 917.442C1578.35 917.442 1579.96 915.833 1579.96 913.849C1579.96 911.864 1578.35 910.256 1576.37 910.256C1574.39 910.256 1572.78 911.864 1572.78 913.849C1572.78 915.833 1574.39 917.442 1576.37 917.442Z" fill="white"/>
<path opacity="0.6" d="M87.9767 1746.04C89.961 1746.04 91.5696 1744.43 91.5696 1742.45C91.5696 1740.47 89.961 1738.86 87.9767 1738.86C85.9924 1738.86 84.3838 1740.47 84.3838 1742.45C84.3838 1744.43 85.9924 1746.04 87.9767 1746.04Z" fill="white"/>
<path opacity="0.3" d="M212.964 793.453L244.78 773.313" stroke="white"/>
<path opacity="0.3" d="M180.474 1318.46L181.255 1293.14" stroke="white"/>
<path opacity="0.3" d="M1550.4 882.858L1552.06 863.385" stroke="white"/>
<path opacity="0.3" d="M1583.35 850.06L1560.21 855.027" stroke="white"/>
<path opacity="0.3" d="M259.558 764.571L356.59 706.25" stroke="white"/>
<path opacity="0.3" d="M212.964 697.42L247.211 760.946" stroke="white"/>
<path opacity="0.3" d="M143.188 1215.25L177.435 1278.77" stroke="white"/>
<path opacity="0.3" d="M1600.75 768.228L1594.09 838.456" stroke="white"/>
<path opacity="0.3" d="M208.447 1225.16L185.739 1279.27" stroke="white"/>
<path opacity="0.3" d="M1623.46 784.35L1600.75 838.456" stroke="white"/>
<path opacity="0.3" d="M257.401 774.524L287.707 800.638" stroke="white"/>
<path opacity="0.3" d="M184.046 1329.47L202.355 1345.25" stroke="white"/>
<path opacity="0.3" d="M1553.97 893.864L1572.28 909.64" stroke="white"/>
<path opacity="0.3" d="M174.662 1329.47L161.903 1340.46" stroke="white"/>
<path opacity="0.3" d="M1611.06 912.068L1582.41 913.972" stroke="white"/>
<path opacity="0.3" d="M1599.87 1708.8L1576.14 1675.99" stroke="white"/>
<path opacity="0.3" d="M1557.99 1755.79L1599.4 1718.89" stroke="white"/>
<path opacity="0.3" d="M1564.01 1792.23L1553.82 1767.36" stroke="white"/>
<path opacity="0.3" d="M1604.94 1824L1572.59 1803.62" stroke="white"/>
<rect width="1770" height="2192" fill="black" fill-opacity="0.53"/>
</g>
<defs>
<clipPath id="clip0">
<rect width="1770" height="2192" fill="white"/>
</clipPath>
</defs>
</svg>
