<svg width="1770" height="2192" viewBox="0 0 1770 2192" fill="none" xmlns="http://www.w3.org/2000/svg">
<rect width="1770" height="2192" fill="black"/>
<rect x="402.89" y="1043.19" width="203.159" height="313.973" rx="24" fill="black" fill-opacity="0.1"/>
<path fill-rule="evenodd" clip-rule="evenodd" d="M420.973 1071.96C420.973 1065.68 426.059 1060.6 432.333 1060.6H577.648C583.922 1060.6 589.008 1065.68 589.008 1071.96V1198.92H585.715V1071.96C585.715 1067.5 582.104 1063.89 577.648 1063.89H432.333C427.877 1063.89 424.266 1067.5 424.266 1071.96V1145.71C425.887 1145.87 427.783 1146.4 429.466 1147.58C431.908 1149.29 433.708 1152.23 433.706 1156.76L433.7 1168.81C434.004 1168.53 434.322 1168.28 434.652 1168.05C436.999 1166.4 439.76 1166.02 441.615 1166.15L443.145 1166.26L443.145 1196.6V1196.61L443.145 1215.54L443.145 1215.74H439.852L439.852 1215.54L439.852 1196.6C439.854 1193.05 438.508 1191.16 437.016 1190.12C435.975 1189.39 434.774 1189.01 433.705 1188.87L433.705 1210.78L433.705 1215.74H430.412L430.412 1210.78L430.412 1187.88L430.398 1187.88L430.413 1156.76C430.415 1153.21 429.07 1151.32 427.577 1150.28C426.537 1149.55 425.335 1149.17 424.266 1149.02L424.266 1203.86L424.266 1215.74H420.973V1145.79V1071.96ZM424.266 1245.26V1300.36H504.758V1287.8C504.758 1281.42 499.586 1276.25 493.206 1276.25H460.718C454.909 1276.25 450.201 1271.54 450.201 1265.73C450.201 1259.92 454.909 1255.21 460.718 1255.21H547.156C545.772 1256.32 544.497 1257.45 543.326 1258.56H460.718C456.758 1258.56 453.548 1261.77 453.548 1265.73C453.548 1269.69 456.758 1272.9 460.718 1272.9H493.206C501.434 1272.9 508.105 1279.57 508.105 1287.8V1300.36H527.49V1303.65H424.266V1326.42C424.266 1330.88 427.877 1334.49 432.333 1334.49H577.648C582.104 1334.49 585.715 1330.88 585.715 1326.42V1294.79H589.008V1326.42C589.008 1332.7 583.922 1337.78 577.648 1337.78H432.333C426.059 1337.78 420.973 1332.7 420.973 1326.42V1245.26H424.266ZM518.875 1116.71C498.917 1116.71 482.738 1132.89 482.738 1152.85C482.738 1172.8 498.917 1188.98 518.875 1188.98C530.268 1188.98 540.429 1183.71 547.053 1175.47C542.323 1179.03 536.442 1181.14 530.07 1181.14C514.446 1181.14 501.78 1168.47 501.78 1152.85C501.78 1142.31 510.318 1133.78 520.85 1133.78C531.382 1133.78 539.92 1142.31 539.92 1152.85H536.573C536.573 1144.16 529.533 1137.12 520.85 1137.12C512.167 1137.12 505.128 1144.16 505.128 1152.85C505.128 1166.62 516.295 1177.79 530.07 1177.79C543.845 1177.79 555.011 1166.62 555.011 1152.85C555.011 1132.89 538.832 1116.71 518.875 1116.71ZM558.359 1152.85C558.359 1131.04 540.681 1113.36 518.875 1113.36C500.808 1113.36 485.576 1125.5 480.882 1142.06C478.858 1138.37 475.14 1135.75 470.778 1135.24C471.663 1128.23 477.651 1122.8 484.905 1122.8V1119.45C477.919 1119.45 471.884 1123.53 469.046 1129.43C466.208 1123.53 460.173 1119.45 453.186 1119.45V1122.8C460.455 1122.8 466.452 1128.25 467.319 1135.28C460.865 1136.2 455.903 1141.75 455.903 1148.46V1180.07C455.903 1194.14 467.315 1205.56 481.393 1205.56H550.34H557.042H587.951C591.854 1205.56 595.017 1208.72 595.017 1212.62C595.017 1216.52 591.854 1219.69 587.951 1219.69H421.27C415.363 1219.69 410.574 1224.48 410.574 1230.38C410.574 1236.29 415.363 1241.08 421.27 1241.08H552.577C556.366 1241.08 559.459 1244.06 559.634 1247.81C560.681 1247.38 561.762 1246.98 562.878 1246.62C562.138 1241.59 557.808 1237.73 552.577 1237.73H421.27C417.212 1237.73 413.921 1234.44 413.921 1230.38C413.921 1226.33 417.212 1223.03 421.27 1223.03H587.951C593.702 1223.03 598.365 1218.37 598.365 1212.62C598.365 1206.87 593.702 1202.21 587.951 1202.21H557.041C556.955 1193.39 552.293 1186.21 545.103 1182.36C553.236 1175.13 558.359 1164.59 558.359 1152.85ZM542.24 1184.68C535.697 1189.49 527.618 1192.33 518.875 1192.33C510.693 1192.33 503.092 1189.84 496.789 1185.58H488.582C483.384 1185.58 479.171 1181.37 479.171 1176.17V1148.46C479.171 1142.96 474.711 1138.5 469.21 1138.5C463.709 1138.5 459.25 1142.96 459.25 1148.46V1180.07C459.25 1192.29 469.164 1202.21 481.393 1202.21H550.34H553.693C553.603 1194.18 549.12 1187.79 542.24 1184.68ZM482.518 1176.17C482.518 1179.52 485.233 1182.23 488.582 1182.23H492.503C488.229 1178.4 484.797 1173.64 482.518 1168.27V1176.17ZM528.698 1160.72C533.047 1160.72 536.573 1157.2 536.573 1152.85H539.92C539.92 1159.04 534.896 1164.07 528.698 1164.07C522.5 1164.07 517.475 1159.04 517.475 1152.85H520.823C520.823 1157.2 524.348 1160.72 528.698 1160.72ZM439.852 1188.18C439.55 1187.9 439.233 1187.65 438.905 1187.42C437.222 1186.24 435.326 1185.71 433.705 1185.55V1177.23C433.703 1173.68 435.048 1171.79 436.54 1170.74C437.581 1170.02 438.783 1169.64 439.852 1169.49V1188.18ZM576.523 1292.15C576.482 1292.19 576.441 1292.23 576.4 1292.28L576.346 1292.33L576.274 1292.4H550.767L558.669 1284.5H582.738C580.996 1287.18 578.923 1289.75 576.523 1292.15ZM588.601 1254.57L573.047 1270.12H588.767C589.898 1264.77 589.849 1259.44 588.601 1254.57ZM587.923 1273.41H569.755L561.962 1281.2H584.685C586.048 1278.66 587.128 1276.04 587.923 1273.41ZM547.474 1295.69H572.57C562.163 1304.02 549.475 1306.93 538.936 1304.23L547.474 1295.69ZM545.49 1268.51C537.258 1278.77 534.293 1291.26 536.789 1301.72L545.49 1293.02V1268.51ZM548.783 1264.82C548.85 1264.75 548.918 1264.68 548.986 1264.62C551.399 1262.2 553.988 1260.12 556.685 1258.37V1281.83L548.783 1289.73V1264.82ZM571.008 1267.5L586.092 1252.42C581.348 1251.29 576.188 1251.28 571.008 1252.37V1267.5ZM567.716 1270.79L559.978 1278.53V1256.43C562.507 1255.08 565.103 1254.01 567.716 1253.22V1270.79ZM546.658 1262.29C534.185 1274.76 529.743 1291.94 534.502 1305.62L534.764 1306.38L535.516 1306.64C549.196 1311.4 566.378 1306.95 578.851 1294.48C591.324 1282.01 595.766 1264.83 591.007 1251.15L590.745 1250.39L589.993 1250.13C576.313 1245.37 559.131 1249.82 546.658 1262.29ZM585.715 1228.19V1245.31H589.008V1228.19H585.715ZM506.888 1317.16C506.683 1316.02 505.763 1314.56 503.335 1314.56C501.469 1314.56 499.85 1315.85 499.85 1317.69C499.85 1319.13 500.852 1320.23 502.498 1320.54L503.829 1320.79C504.474 1320.91 504.872 1321.27 504.872 1321.77C504.872 1322.37 504.35 1322.78 503.5 1322.78C502.169 1322.78 501.565 1322 501.483 1321.11L499.494 1321.59C499.631 1322.96 500.783 1324.7 503.472 1324.7C505.791 1324.7 507.067 1323.15 507.067 1321.63C507.067 1320.24 506.106 1319.05 504.254 1318.71L502.951 1318.46C502.279 1318.34 501.99 1317.99 501.99 1317.53C501.99 1316.99 502.512 1316.48 503.321 1316.48C504.501 1316.48 504.872 1317.25 504.94 1317.7L506.888 1317.16ZM464.552 1316.84V1314.77H456.389V1316.84H459.38V1324.5H461.548V1316.84H464.552ZM477.254 1324.5V1314.77H475.073V1318.58H471.19V1314.77H469.022V1324.5H471.19V1320.63H475.073V1324.5H477.254ZM488.681 1322.44V1324.5H482.508V1314.77H488.668V1316.81H484.675V1318.66H488.297V1320.57H484.675V1322.44H488.681ZM520.16 1314.77V1324.5H517.869L513.863 1318.1V1324.5H511.709V1314.77H514.343L517.992 1320.68V1314.77H520.16ZM531.925 1324.5H534.285L530.663 1314.77H528.152L524.489 1324.5H526.767L527.466 1322.52H531.226L531.925 1324.5ZM529.373 1317.18L530.54 1320.54H528.18L529.373 1317.18ZM540.834 1314.77V1324.5H538.639V1314.77H540.834ZM552.461 1324.5V1322.42H548.263V1314.77H546.095V1324.5H552.461ZM506.011 1076.75V1090.37H502.938V1076.75H506.011Z" fill="black"/>
<circle cx="207.609" cy="688.938" r="5.58693" stroke="white" stroke-width="2"/>
<circle cx="137.834" cy="1206.76" r="5.58693" stroke="white" stroke-width="2"/>
<circle cx="296.784" cy="807.225" r="5.58693" stroke="white" stroke-width="2"/>
<circle cx="211.345" cy="1213.35" r="5.58693" stroke="white" stroke-width="2"/>
<circle cx="1594.17" cy="850.25" r="5.58693" stroke="white" stroke-width="2"/>
<circle cx="1569.71" cy="1667.36" r="5.58693" stroke="white" stroke-width="2"/>
<circle cx="251.922" cy="769.179" r="3.59289" fill="white"/>
<circle cx="181.255" cy="1285.67" r="3.59289" fill="#8D41EF"/>
<circle cx="1553.36" cy="856.837" r="3.59289" fill="#EF4195"/>
<circle cx="363.329" cy="702.657" r="3.59289" fill="#F79F19"/>
<circle cx="206.609" cy="797.045" r="3.59289" fill="white"/>
<circle cx="179.843" cy="1325.36" r="3.59289" fill="white"/>
<circle cx="1549.77" cy="889.753" r="3.59289" fill="white"/>
<circle cx="311.667" cy="1023.56" r="3.59289" fill="white"/>
<circle opacity="0.4" cx="1522.9" cy="1046.78" r="3.59289" fill="white"/>
<circle cx="1604.61" cy="1714.06" r="3.59289" fill="#895F1D"/>
<circle cx="1551.91" cy="1760.59" r="3.59289" fill="white"/>
<circle cx="1566.72" cy="1798.51" r="3.59289" fill="white"/>
<circle cx="1611.79" cy="1827.85" r="3.59289" fill="white"/>
<circle cx="1634.24" cy="1177.42" r="3.59289" fill="white"/>
<circle opacity="0.5" cx="1483.89" cy="1454.13" r="3.59289" fill="white"/>
<circle cx="1660.48" cy="1407.28" r="3.59289" fill="white"/>
<circle cx="1469.42" cy="1983.08" r="3.59289" fill="white"/>
<circle cx="248.373" cy="1975.89" r="3.59289" fill="white"/>
<circle cx="1515.72" cy="517.202" r="3.59289" fill="white"/>
<circle opacity="0.3" cx="516.067" cy="937.854" r="3.59289" fill="white"/>
<circle opacity="0.4" cx="210.604" cy="280.401" r="3.59289" fill="white"/>
<circle cx="308.074" cy="336.207" r="3.59289" fill="white"/>
<circle cx="1603.46" cy="163.468" r="3.59289" fill="white"/>
<circle opacity="0.5" cx="1667.66" cy="339.801" r="3.59289" fill="white"/>
<circle cx="1299.79" cy="803.342" r="3.59289" fill="white"/>
<circle cx="263.151" cy="1557.08" r="3.59289" fill="white"/>
<circle cx="156.719" cy="1344.67" r="3.59289" fill="white"/>
<circle cx="1617.1" cy="912.068" r="3.59289" fill="white"/>
<circle cx="1627.05" cy="777.916" r="3.59289" fill="white"/>
<circle cx="1601.01" cy="761.843" r="3.59289" fill="white"/>
<circle cx="206.44" cy="1349.45" r="3.59289" fill="white"/>
<circle cx="1576.37" cy="913.849" r="3.59289" fill="white"/>
<circle opacity="0.6" cx="87.9767" cy="1742.45" r="3.59289" fill="white"/>
<path opacity="0.3" d="M212.964 793.453L244.78 773.313" stroke="white"/>
<path opacity="0.3" d="M180.474 1318.46L181.255 1293.14" stroke="white"/>
<path opacity="0.3" d="M1550.4 882.858L1552.06 863.385" stroke="white"/>
<path opacity="0.3" d="M1583.35 850.06L1560.21 855.027" stroke="white"/>
<path opacity="0.3" d="M259.558 764.571L356.59 706.25" stroke="white"/>
<path opacity="0.3" d="M212.964 697.42L247.211 760.946" stroke="white"/>
<path opacity="0.3" d="M143.188 1215.25L177.435 1278.77" stroke="white"/>
<path opacity="0.3" d="M1600.75 768.228L1594.09 838.456" stroke="white"/>
<path opacity="0.3" d="M208.447 1225.16L185.739 1279.27" stroke="white"/>
<path opacity="0.3" d="M1623.46 784.35L1600.75 838.456" stroke="white"/>
<path opacity="0.3" d="M257.401 774.524L287.707 800.638" stroke="white"/>
<path opacity="0.3" d="M184.046 1329.47L202.355 1345.25" stroke="white"/>
<path opacity="0.3" d="M1553.97 893.864L1572.28 909.64" stroke="white"/>
<path opacity="0.3" d="M174.662 1329.47L161.903 1340.46" stroke="white"/>
<path opacity="0.3" d="M1611.06 912.068L1582.41 913.972" stroke="white"/>
<path opacity="0.3" d="M1599.87 1708.8L1576.14 1675.99" stroke="white"/>
<path opacity="0.3" d="M1557.99 1755.79L1599.4 1718.89" stroke="white"/>
<path opacity="0.3" d="M1564.01 1792.23L1553.82 1767.36" stroke="white"/>
<path opacity="0.3" d="M1604.94 1824L1572.59 1803.62" stroke="white"/>
</svg>
