<svg width="206" height="27" viewBox="0 0 206 27" fill="none" xmlns="http://www.w3.org/2000/svg">
<path d="M0.199219 1.16211H4.66406V11.5332H15.5449V1.16211H20.0098V26H15.5449V15.6289H4.66406V26H0.199219V1.16211ZM42.0703 1.16211H45.4102L55.3066 26H50.4902L48.5039 20.6035H38.9941L36.9902 26H32.1211L42.0703 1.16211ZM47.0977 16.7891L43.7578 7.71875L40.4004 16.7891H47.0977ZM67.418 1.16211H71.8828V21.7812H82.5V26H67.418V1.16211ZM94.8047 1.16211H99.2695V21.7812H109.887V26H94.8047V1.16211ZM131.121 26.3516C127.898 26.3516 125.508 25.4727 123.949 23.7148C122.402 21.9453 121.629 19.4785 121.629 16.3145V1.16211H126.076V15.8047C126.076 17.2227 126.223 18.3828 126.516 19.2852C126.82 20.1758 127.336 20.8613 128.062 21.3418C128.801 21.8105 129.82 22.0449 131.121 22.0449C132.422 22.0449 133.441 21.8105 134.18 21.3418C134.918 20.873 135.434 20.1875 135.727 19.2852C136.02 18.3828 136.166 17.2227 136.166 15.8047V1.16211H140.631V16.1387C140.631 19.3848 139.852 21.8984 138.293 23.6797C136.746 25.4609 134.355 26.3516 131.121 26.3516ZM165.398 26.3516C162.773 26.3516 160.559 25.7773 158.754 24.6289C156.949 23.4805 155.602 21.9395 154.711 20.0059C153.82 18.0605 153.375 15.916 153.375 13.5723C153.375 11.2285 153.814 9.08984 154.693 7.15625C155.584 5.21094 156.932 3.6582 158.736 2.49805C160.541 1.33789 162.75 0.757812 165.363 0.757812C167.836 0.757812 170.016 1.37305 171.902 2.60352C173.789 3.82227 175.23 5.58594 176.227 7.89453L172.061 9.54688C171.615 7.97656 170.807 6.82812 169.635 6.10156C168.475 5.375 167.039 5.01172 165.328 5.01172C163.641 5.01172 162.234 5.38086 161.109 6.11914C159.984 6.85742 159.152 7.85938 158.613 9.125C158.074 10.3789 157.805 11.8027 157.805 13.3965C157.805 15.0957 158.074 16.6016 158.613 17.9141C159.152 19.2148 159.99 20.2402 161.127 20.9902C162.264 21.7402 163.688 22.1152 165.398 22.1152C167.039 22.1152 168.404 21.7578 169.494 21.043C170.596 20.3164 171.475 19.1387 172.131 17.5098L176.262 19.1973C175.289 21.5059 173.854 23.2754 171.955 24.5059C170.068 25.7363 167.883 26.3516 165.398 26.3516ZM188.988 1.16211H205.512V5.25781H193.453V11.5332H204.686V15.6289H193.453V21.7812H205.512V26H188.988V1.16211Z" fill="#A4A474"/>
</svg>
