<svg width="42" height="30" viewBox="0 0 42 30" fill="none" xmlns="http://www.w3.org/2000/svg">
<path fill-rule="evenodd" clip-rule="evenodd" d="M15.5 0C23.7843 0 30.5 6.71574 30.5 15C30.5 23.2843 23.7843 30 15.5 30C7.21574 30 0.5 23.2843 0.5 15C0.5 6.71574 7.21574 0 15.5 0ZM18.6918 7.00778C18.2 7.49979 17.8911 8.10516 17.7642 8.73976C15.3606 7.83505 12.6037 8.4098 10.7683 10.2454C8.93128 12.0824 8.35711 14.8425 9.26522 17.2476C8.62652 17.373 8.01674 17.683 7.52189 18.1778C6.19636 19.5033 6.19636 21.6526 7.52189 22.9781C8.84749 24.3036 10.9966 24.3036 12.3222 22.9781C12.8199 22.4804 13.1307 21.8665 13.2547 21.2238C13.9993 21.5016 14.7772 21.6389 15.5513 21.6389C17.2709 21.6389 18.9694 20.9708 20.2316 19.7086C22.0605 17.8799 22.6382 15.1363 21.7474 12.7387C22.3867 12.6134 22.997 12.3034 23.4922 11.8081C24.8178 10.4826 24.8178 8.33337 23.4922 7.00778C22.1666 5.68224 20.0174 5.68224 18.6918 7.00778ZM22.6573 7.80317C23.5313 8.6772 23.5313 10.0993 22.6573 10.9733C22.1538 11.4771 21.4603 11.708 20.7535 11.6073C20.7197 11.6025 20.6868 11.6037 20.6544 11.6075C20.4455 11.5804 20.2268 11.6088 20.0217 11.7039C19.7295 11.8392 19.521 12.0811 19.42 12.3618C19.3209 12.6376 19.3256 12.9509 19.4584 13.2378C20.211 14.8635 19.8651 16.8072 18.5977 18.0746C17.3302 19.3419 15.3864 19.6883 13.7602 18.9352C13.4695 18.8005 13.1515 18.7972 12.8729 18.9006C12.597 19.003 12.3597 19.2101 12.2263 19.4983C12.1412 19.6821 12.1089 19.8768 12.1224 20.0656C12.1175 20.1028 12.116 20.1409 12.1224 20.18C12.241 20.8931 12.0068 21.6237 11.4964 22.1345C10.6224 23.0082 9.20032 23.0082 8.32617 22.1345C7.90277 21.7109 7.66958 21.148 7.66958 20.5493C7.66958 19.9505 7.90277 19.3875 8.32617 18.9642C8.82959 18.4605 9.52348 18.23 10.2656 18.3316C10.3405 18.3467 10.4164 18.3572 10.4936 18.3572C10.6561 18.3572 10.8212 18.3227 10.9782 18.25C11.2634 18.118 11.4687 17.8842 11.5723 17.612C11.679 17.3315 11.6775 17.0101 11.5415 16.7161C10.789 15.0904 11.1349 13.1467 12.4023 11.8794C13.6698 10.6119 15.6137 10.2658 17.2397 11.0188C17.5293 11.153 17.8461 11.1568 18.124 11.0546C18.4012 10.9526 18.6396 10.7449 18.7736 10.4557C18.8774 10.2315 18.9024 9.99126 18.8611 9.75776C18.7426 9.04434 18.9767 8.31365 19.4872 7.80317C20.3612 6.92902 21.7834 6.92902 22.6573 7.80317ZM13.7603 13.2373C12.7906 14.2071 12.7906 15.7794 13.7603 16.7492C14.7301 17.719 16.3025 17.719 17.2722 16.7492C18.242 15.7794 18.242 14.2071 17.2722 13.2373C16.3025 12.2676 14.7301 12.2676 13.7603 13.2373Z" fill="white"/>
</svg>
