<svg width="120" height="120" viewBox="0 0 120 120" fill="none" xmlns="http://www.w3.org/2000/svg">
<path d="M16.4508 94.9922H16.0453C15.9516 94.9922 15.9047 94.9383 15.9047 94.8258V86.1539C15.9047 86.0414 15.9516 85.9875 16.0453 85.9875H16.4508C16.5539 85.9875 16.6055 86.0414 16.6055 86.1539V89.9742C16.6055 90.0586 16.6523 90.1008 16.7461 90.1008H20.6625C20.7563 90.1008 20.8031 90.0586 20.8031 89.9742V86.1539C20.8031 86.0414 20.85 85.9875 20.9438 85.9875H21.3492C21.45 85.9875 21.5016 86.0414 21.5016 86.1539V94.8258C21.5016 94.9383 21.45 94.9922 21.3492 94.9922H20.9438C20.85 94.9922 20.8031 94.9383 20.8031 94.8258V90.8648C20.8031 90.7805 20.7563 90.7383 20.6625 90.7383H16.7461C16.6523 90.7383 16.6055 90.7805 16.6055 90.8648V94.8258C16.6055 94.9383 16.5539 94.9922 16.4508 94.9922Z" fill="#69696B"/>
<path d="M31.4625 94.9922H29.7422C29.4796 95.0064 29.2169 94.9668 28.9702 94.8757C28.7235 94.7846 28.4981 94.644 28.3078 94.4625C28.1276 94.2672 27.9882 94.0379 27.8981 93.7879C27.8079 93.5379 27.7687 93.2724 27.7828 93.007V87.982C27.7684 87.7166 27.8075 87.4511 27.8977 87.201C27.9879 86.951 28.1273 86.7217 28.3078 86.5266C28.4981 86.3451 28.7235 86.2044 28.9702 86.1133C29.2169 86.0222 29.4796 85.9826 29.7422 85.9969H31.4625C31.7251 85.9823 31.9879 86.0218 32.2346 86.1129C32.4814 86.204 32.7068 86.3448 32.8969 86.5266C33.0778 86.7214 33.2176 86.9507 33.3078 87.2008C33.398 87.4509 33.4368 87.7166 33.4219 87.982V93.007C33.4365 93.2724 33.3976 93.5381 33.3074 93.7881C33.2172 94.0382 33.0776 94.2675 32.8969 94.4625C32.7068 94.6442 32.4814 94.785 32.2346 94.8761C31.9879 94.9672 31.7251 95.0067 31.4625 94.9922ZM29.7984 94.364H31.4063C31.5866 94.376 31.7675 94.3503 31.9373 94.2885C32.1072 94.2268 32.2624 94.1304 32.393 94.0055C32.6376 93.7216 32.7605 93.3528 32.7352 92.9789V88.0102C32.7601 87.6356 32.6373 87.2662 32.393 86.9812C32.2619 86.8571 32.1066 86.7614 31.9368 86.7001C31.767 86.6387 31.5864 86.6132 31.4063 86.625H29.8102C29.6305 86.6128 29.4502 86.6388 29.2813 86.7015C29.1124 86.7641 28.9588 86.8618 28.8305 86.9883C28.5926 87.2737 28.4727 87.6393 28.4953 88.0102V92.9789C28.4724 93.3491 28.5923 93.714 28.8305 93.9984C28.957 94.1241 29.1086 94.2217 29.2754 94.2847C29.4422 94.3477 29.6204 94.3747 29.7984 94.364Z" fill="#69696B"/>
<path d="M46.1719 85.9969H46.9266C47.0203 85.9969 47.0672 86.0508 47.0672 86.1633V94.8352C47.0672 94.9477 47.0203 95.0016 46.9266 95.0016H46.5211C46.418 95.0016 46.3664 94.9477 46.3664 94.8352V87.0727H46.3102L43.8281 92.8805C43.8123 92.9243 43.7838 92.9624 43.7462 92.99C43.7087 93.0175 43.6637 93.0333 43.6172 93.0352H43.1484C43.103 93.0354 43.0588 93.0202 43.0231 92.9921C42.9873 92.964 42.9621 92.9247 42.9516 92.8805L40.4344 87.0586H40.3781V94.8258C40.3781 94.9383 40.3312 94.9922 40.2375 94.9922H39.8438C39.75 94.9922 39.7031 94.9383 39.7031 94.8258V86.1539C39.7031 86.0414 39.75 85.9875 39.8438 85.9875H40.5984C40.6258 85.9841 40.6535 85.9905 40.6767 86.0055C40.6998 86.0205 40.7169 86.0432 40.725 86.0695L43.3594 92.2219H43.4156L46.0453 86.0789C46.0534 86.0525 46.0705 86.0298 46.0936 86.0148C46.1168 85.9998 46.1445 85.9935 46.1719 85.9969Z" fill="#69696B"/>
<path d="M57.8906 94.9922H53.5711C53.4774 94.9922 53.4305 94.9383 53.4305 94.8258V86.1539C53.4305 86.0414 53.4774 85.9875 53.5711 85.9875H57.8906C58.0031 85.9875 58.0594 86.0367 58.0594 86.1398V86.4844C58.0594 86.5852 58.0031 86.6367 57.8906 86.6367H54.2719C54.1781 86.6367 54.1313 86.6789 54.1313 86.7633V89.9813C54.1313 90.0656 54.1781 90.1078 54.2719 90.1078H57.5039C57.5246 90.1051 57.5455 90.1072 57.5652 90.1139C57.5849 90.1206 57.6029 90.1318 57.6176 90.1465C57.6323 90.1612 57.6434 90.1791 57.6501 90.1988C57.6568 90.2185 57.6589 90.2395 57.6563 90.2602V90.5836C57.6594 90.6043 57.6577 90.6255 57.6512 90.6455C57.6446 90.6654 57.6335 90.6835 57.6187 90.6984C57.6038 90.7132 57.5857 90.7243 57.5658 90.7309C57.5458 90.7374 57.5246 90.7391 57.5039 90.7359H54.2719C54.1781 90.7359 54.1313 90.7781 54.1313 90.8625V94.2492C54.1313 94.3336 54.1781 94.3758 54.2719 94.3758H57.8906C58.0031 94.3758 58.0594 94.4273 58.0594 94.5281V94.8516C58.0641 94.943 58.0078 94.9922 57.8906 94.9922Z" fill="#69696B"/>
<path d="M68.8031 96.8531H68.4117C68.3543 96.8545 68.2976 96.8396 68.2482 96.8102C68.1989 96.7807 68.1589 96.7379 68.1328 96.6867L67.0969 94.9922H66.0187C65.7551 95.0062 65.4914 94.9665 65.2436 94.8754C64.9958 94.7843 64.7692 94.6439 64.5773 94.4625C64.3951 94.2683 64.2541 94.0392 64.1627 93.7891C64.0712 93.539 64.0313 93.273 64.0453 93.007V87.982C64.0311 87.7161 64.0708 87.45 64.1623 87.1998C64.2537 86.9497 64.3949 86.7206 64.5773 86.5266C64.7692 86.3452 64.9958 86.2047 65.2436 86.1137C65.4914 86.0226 65.7551 85.9829 66.0187 85.9969H67.7344C67.9999 85.9754 68.2669 86.0121 68.5167 86.1045C68.7666 86.1968 68.9933 86.3426 69.181 86.5316C69.3687 86.7207 69.5128 86.9484 69.6034 87.1989C69.694 87.4494 69.7288 87.7167 69.7055 87.982V93.007C69.7286 93.5221 69.5513 94.0261 69.2109 94.4133C69.0351 94.5931 68.8246 94.7353 68.5921 94.8312C68.3596 94.9271 68.11 94.9747 67.8586 94.9711L68.9086 96.6656C68.9672 96.7969 68.9344 96.8531 68.8031 96.8531ZM66.075 94.3641H67.6711C67.8514 94.376 68.0323 94.3503 68.2022 94.2885C68.372 94.2268 68.5272 94.1304 68.6578 94.0055C68.9024 93.7216 69.0253 93.3528 69 92.9789V88.0102C69.0249 87.6356 68.9021 87.2662 68.6578 86.9813C68.5267 86.8571 68.3714 86.7614 68.2017 86.7001C68.0319 86.6388 67.8512 86.6132 67.6711 86.625H66.075C65.8959 86.6128 65.7162 86.6381 65.5475 86.6995C65.3787 86.7608 65.2247 86.8568 65.0953 86.9813C64.8553 87.2683 64.7352 87.6368 64.7601 88.0102V92.9789C64.7349 93.3516 64.855 93.7195 65.0953 94.0055C65.2243 94.1307 65.3781 94.2274 65.5469 94.2891C65.7157 94.3509 65.8957 94.3765 66.075 94.3641Z" fill="#69696B"/>
<path d="M80.8828 85.9969H81.2742C81.295 85.9938 81.3163 85.9956 81.3363 86.0021C81.3563 86.0086 81.3745 86.0197 81.3895 86.0345C81.4045 86.0493 81.4159 86.0673 81.4227 86.0872C81.4296 86.1071 81.4317 86.1284 81.4289 86.1492V93.007C81.443 93.2724 81.4038 93.5379 81.3137 93.7879C81.2235 94.0379 81.0842 94.2673 80.9039 94.4625C80.7135 94.6438 80.488 94.7843 80.2414 94.8754C79.9947 94.9664 79.7321 95.0062 79.4695 94.9922H77.9016C77.639 95.0068 77.3762 94.9673 77.1294 94.8762C76.8827 94.785 76.6573 94.6443 76.4672 94.4625C76.2869 94.2673 76.1476 94.0379 76.0574 93.7879C75.9673 93.5379 75.9281 93.2724 75.9422 93.007V86.1633C75.9422 86.0508 75.9891 85.9969 76.0828 85.9969H76.4883C76.5914 85.9969 76.643 86.0508 76.643 86.1633V92.9789C76.62 93.3491 76.74 93.7141 76.9781 93.9985C77.1059 94.1257 77.2595 94.2241 77.4284 94.2872C77.5974 94.3502 77.7779 94.3765 77.9578 94.3641H79.3992C79.5796 94.376 79.7604 94.3503 79.9303 94.2885C80.1002 94.2268 80.2553 94.1304 80.3859 94.0055C80.6305 93.7216 80.7535 93.3528 80.7281 92.9789V86.1633C80.7281 86.0508 80.7797 85.9969 80.8828 85.9969Z" fill="#69696B"/>
<path d="M87.7617 94.8258V86.1539C87.7617 86.0414 87.8086 85.9875 87.9023 85.9875H91.1719C91.4343 85.9734 91.697 86.0117 91.9445 86.1002C92.192 86.1888 92.4193 86.3257 92.6133 86.5031C92.7952 86.6917 92.9364 86.9158 93.0279 87.1614C93.1195 87.407 93.1594 87.6688 93.1453 87.9305V88.7836C93.1453 89.6336 92.7437 90.1805 91.9406 90.4242C92.1164 90.4353 92.2879 90.4827 92.4444 90.5634C92.6009 90.6441 92.739 90.7563 92.85 90.893C93.1241 91.2201 93.2648 91.6386 93.2437 92.0648V93.0469C93.2583 93.3086 93.2185 93.5705 93.127 93.8162C93.0354 94.0618 92.894 94.2859 92.7117 94.4742C92.518 94.6521 92.2908 94.7896 92.0432 94.8786C91.7957 94.9675 91.533 95.0061 91.2703 94.9922H87.9023C87.8086 94.9922 87.7617 94.9383 87.7617 94.8258ZM88.5937 90.1242H91.0547C91.2387 90.1363 91.4233 90.1114 91.5976 90.051C91.7719 89.9906 91.9324 89.896 92.0695 89.7727C92.1941 89.6405 92.2901 89.484 92.3514 89.313C92.4127 89.142 92.438 88.9602 92.4258 88.7789V87.9539C92.4258 87.0586 91.9828 86.6109 91.0969 86.6109H88.5937C88.5 86.6109 88.4531 86.6531 88.4531 86.7375V90C88.4594 90.0828 88.5062 90.1242 88.5937 90.1242ZM88.5937 94.3781H91.1953C92.0812 94.3781 92.5242 93.9305 92.5242 93.0352V92.0695C92.5242 91.182 92.0391 90.7383 91.0687 90.7383H88.5937C88.5 90.7383 88.4531 90.7758 88.4531 90.8508V94.2516C88.4594 94.3359 88.5062 94.3781 88.5937 94.3781Z" fill="#69696B"/>
<path d="M103.927 94.9922H99.6094C99.5156 94.9922 99.4688 94.9383 99.4688 94.8258V86.1539C99.4688 86.0414 99.5156 85.9875 99.6094 85.9875H103.934C104.046 85.9875 104.102 86.0367 104.102 86.1398V86.4844C104.102 86.5852 104.046 86.6367 103.934 86.6367H100.312C100.219 86.6367 100.172 86.6789 100.172 86.7633V89.9813C100.172 90.0656 100.219 90.1078 100.312 90.1078H103.545C103.565 90.1047 103.587 90.1065 103.607 90.113C103.627 90.1196 103.645 90.1307 103.66 90.1454C103.675 90.1602 103.686 90.1782 103.693 90.1982C103.7 90.2181 103.702 90.2393 103.699 90.2602V90.5836C103.702 90.6045 103.7 90.6257 103.693 90.6456C103.686 90.6655 103.675 90.6836 103.66 90.6983C103.645 90.7131 103.627 90.7242 103.607 90.7307C103.587 90.7372 103.565 90.739 103.545 90.7359H100.312C100.219 90.7359 100.172 90.7781 100.172 90.8625V94.2492C100.172 94.3336 100.219 94.3758 100.312 94.3758H103.936C104.048 94.3758 104.105 94.4273 104.105 94.5281V94.8516C104.095 94.943 104.039 94.9922 103.927 94.9922Z" fill="#69696B"/>
<path d="M80.0438 48.3984L71.9274 43.7109L63.811 48.3984L63.661 48.4828L71.9953 53.3484L80.1985 48.4898L80.0438 48.3984Z" fill="#EFEFEF"/>
<path d="M63.6586 48.4828V57.9539L71.7727 62.6414L71.9273 62.7305L71.993 53.3391L63.6586 48.4828Z" fill="#36363C"/>
<path d="M80.1961 48.4898L71.993 53.3484L71.9274 62.7398L72.082 62.6508L80.1984 57.9633V48.4898H80.1961Z" fill="#5E5E63"/>
<path d="M80.1984 48.4922V48.6727L72.1476 53.4399L72.082 62.6508L71.9273 62.7399L71.7727 62.6508L71.8359 53.4399L63.6586 48.668V48.4828L63.6609 48.4805L63.8109 48.3961L71.993 53.168L80.0437 48.3984L80.1961 48.4875V48.4899L80.1984 48.4922Z" fill="white"/>
<path d="M68.264 27.9281L68.1164 27.8438L60 23.1469L51.8812 27.8344L51.7359 27.9164L60.0445 32.782L68.2687 27.9211L68.264 27.9281Z" fill="#EFEFEF"/>
<path d="M51.7336 27.9258V37.3969L59.85 42.0844L60.0047 42.1758L60.0469 32.7844L51.7336 27.9258Z" fill="#28282D"/>
<path d="M68.2664 27.9305L60.0422 32.7914L60 42.1875L60.157 42.0961L68.2688 37.4086V27.9305H68.2664Z" fill="#5E5E63"/>
<path d="M68.2688 27.9375V28.1156L60.218 32.8805L60.1571 42.0914L60 42.1805L59.8453 42.0914L59.9086 32.8805L51.7289 28.1086V27.9305L51.7313 27.9258L51.736 27.9234L51.8813 27.8391L60.0633 32.6133L68.1164 27.8438L68.2641 27.9281L68.2664 27.9305L68.2688 27.9375Z" fill="white"/>
<path d="M56.189 48.3984L48.0726 43.7109L39.9586 48.3984L39.8039 48.4875V57.9586L47.9156 62.6461L48.0679 62.7328L48.2203 62.6438L56.3343 57.9563V48.4898L56.189 48.3984Z" fill="#EFEFEF"/>
<path d="M39.8039 48.4828V57.9539L47.9156 62.6414L48.0679 62.7281L48.1289 53.3367L39.8039 48.4828Z" fill="#D7D7D8"/>
<path d="M48.1359 53.3484L48.0726 62.7398L56.3414 57.9539V48.4898L48.1359 53.3484Z" fill="#86868A"/>
<path d="M56.3414 48.4898V48.6703L48.2906 53.4375L48.2273 62.6508L48.075 62.7398H48.0726L48.0679 62.7375L47.9156 62.6508L47.9789 53.4375L39.8039 48.6633V48.4828L39.9586 48.3937L48.1336 53.168L56.189 48.3984L56.3414 48.4898Z" fill="white"/>
<path d="M80.1914 34.7789L80.0461 34.6969L71.9273 30.0094L63.8133 34.6969L63.6586 34.7859L71.993 39.6492L80.1961 34.7906L80.1914 34.7789Z" fill="#EFEFEF"/>
<path d="M63.6586 34.7789V44.2477L71.7727 48.9352L71.9273 49.0266L71.993 39.6352L63.6586 34.7789Z" fill="#36363C"/>
<path d="M80.1961 34.7836L71.993 39.6422L71.9274 49.0336L72.082 48.9422L80.1984 44.2547V34.7836H80.1961Z" fill="#5E5E63"/>
<path d="M56.189 34.6875L48.0726 30L39.9586 34.6875L39.8039 34.7766V44.2453L47.9156 48.9328L48.0726 49.0242L48.2273 48.9328L56.3414 44.2453V34.7836L56.189 34.6875Z" fill="#EFEFEF"/>
<path d="M39.8039 34.7789V44.2477L47.9156 48.9352L48.0726 49.0266L48.1336 39.6352L39.8039 34.7789Z" fill="#D7D7D8"/>
<path d="M48.1336 39.6422L48.0726 49.0336L48.2273 48.9422L56.3414 44.2547V34.7836L48.1336 39.6422Z" fill="#86868A"/>
<path d="M56.3414 34.7836V34.9641L48.2906 39.7336L48.2273 48.9422L48.0726 49.0336L47.9156 48.9422L47.9789 39.7336L39.8039 34.9594V34.7812L39.9586 34.6898L48.1336 39.4641L56.189 34.6922L56.3414 34.7836Z" fill="white"/>
<path d="M68.2641 55.3383L68.1164 55.2539L60 50.5664L51.886 55.2539L51.7336 55.343L60.0422 60.2063L68.2664 55.3453L68.2641 55.3383Z" fill="#EFEFEF"/>
<path d="M51.7336 55.3383V64.807L59.85 69.4945L60.0047 69.5836L60.0469 60.1945L51.7336 55.3383Z" fill="#AFAFB1"/>
<path d="M68.2664 55.3406L60.0422 60.2016L60 69.5906L60.157 69.5016L68.2688 64.8141V55.3406H68.2664Z" fill="#86868A"/>
<path d="M68.2664 41.6344L68.1141 41.5477L60 36.8602L51.886 41.5477L51.7336 41.6391V51.0938L59.85 55.7813L60.0047 55.8703L60.1617 55.7813L68.2735 51.0938V41.625L68.2664 41.6344Z" fill="#EFEFEF"/>
<path d="M51.7336 41.632V51.0938L59.85 55.7813L60.0047 55.8703L60.068 46.4813L51.7336 41.632Z" fill="#AFAFB1"/>
<path d="M68.2664 41.6344L60.0633 46.4953L60 55.8844L60.157 55.7953L68.2688 51.1078V41.6391L68.2664 41.6344Z" fill="#86868A"/>
<path d="M68.2688 41.6391V41.8172L60.218 46.5844L60.1571 55.7953L60 55.8844L59.8453 55.7953L59.9086 46.5844L51.7289 41.8125V41.6344L51.7313 41.632L51.886 41.5406L60.0633 46.3149L68.1141 41.5453L68.2664 41.632V41.6344L68.2688 41.6391Z" fill="white"/>
<path d="M80.1984 34.7906V34.9664L72.1476 39.7359L72.082 48.9422L71.9273 49.0336L71.7727 48.9422L71.8359 39.7336L63.6586 34.9641V34.7812L63.8133 34.6898L71.993 39.4664L80.0461 34.6969L80.1914 34.7812L80.1961 34.7836L80.1984 34.7906Z" fill="white"/>
<path d="M68.2688 55.3477V55.5258L60.218 60.2906L60.1571 69.5016L60 69.5906L59.8453 69.5016L59.9086 60.2906L51.7289 55.5211V55.3406L51.7313 55.3383V55.3359L51.886 55.2469L60.0633 60.0234L68.1164 55.2539L68.2641 55.3383L68.2664 55.3406L68.2688 55.3477Z" fill="white"/>
</svg>
