<?xml version="1.0" encoding="UTF-8"?>
<svg width="1024px" height="1024px" viewBox="0 0 1024 1024" version="1.1" xmlns="http://www.w3.org/2000/svg" xmlns:xlink="http://www.w3.org/1999/xlink">
    <title>Logo-white-1</title>
    <defs>
        <circle id="path-1" cx="512" cy="512" r="414"></circle>
        <filter x="-4.3%" y="-4.3%" width="108.7%" height="108.7%" filterUnits="objectBoundingBox" id="filter-2">
            <feGaussianBlur stdDeviation="14.5" in="SourceAlpha" result="shadowBlurInner1"></feGaussianBlur>
            <feOffset dx="14" dy="14" in="shadowBlurInner1" result="shadowOffsetInner1"></feOffset>
            <feComposite in="shadowOffsetInner1" in2="SourceAlpha" operator="arithmetic" k2="-1" k3="1" result="shadowInnerInner1"></feComposite>
            <feColorMatrix values="0 0 0 0 1   0 0 0 0 1   0 0 0 0 1  0 0 0 1 0" type="matrix" in="shadowInnerInner1" result="shadowMatrixInner1"></feColorMatrix>
            <feGaussianBlur stdDeviation="14.5" in="SourceAlpha" result="shadowBlurInner2"></feGaussianBlur>
            <feOffset dx="-7" dy="14" in="shadowBlurInner2" result="shadowOffsetInner2"></feOffset>
            <feComposite in="shadowOffsetInner2" in2="SourceAlpha" operator="arithmetic" k2="-1" k3="1" result="shadowInnerInner2"></feComposite>
            <feColorMatrix values="0 0 0 0 0.0196078431   0 0 0 0 0.698039216   0 0 0 0 0.650980392  0 0 0 1 0" type="matrix" in="shadowInnerInner2" result="shadowMatrixInner2"></feColorMatrix>
            <feGaussianBlur stdDeviation="21.5" in="SourceAlpha" result="shadowBlurInner3"></feGaussianBlur>
            <feOffset dx="-29" dy="-29" in="shadowBlurInner3" result="shadowOffsetInner3"></feOffset>
            <feComposite in="shadowOffsetInner3" in2="SourceAlpha" operator="arithmetic" k2="-1" k3="1" result="shadowInnerInner3"></feComposite>
            <feColorMatrix values="0 0 0 0 0.231372549   0 0 0 0 0.6   0 0 0 0 0.764705882  0 0 0 0.462030157 0" type="matrix" in="shadowInnerInner3" result="shadowMatrixInner3"></feColorMatrix>
            <feMerge>
                <feMergeNode in="shadowMatrixInner1"></feMergeNode>
                <feMergeNode in="shadowMatrixInner2"></feMergeNode>
                <feMergeNode in="shadowMatrixInner3"></feMergeNode>
            </feMerge>
        </filter>
        <linearGradient x1="38.2148057%" y1="52.9842497%" x2="58.6713607%" y2="72.6367259%" id="linearGradient-3">
            <stop stop-color="#069BB6" offset="0%"></stop>
            <stop stop-color="#2912A4" offset="100%"></stop>
        </linearGradient>
        <path d="M386.672681,439.454059 C483.573909,515.161595 595.839593,542.756327 672.58836,517.144303 C629.394014,596.869473 544.878464,651.029398 447.688383,651.029398 C306.579629,651.029398 192.188383,536.862009 192.188383,396.029398 C192.188383,336.489315 212.634234,281.715271 246.900902,238.319336 C262.43552,306.393547 311.690656,380.87168 386.672681,439.454059 Z" id="path-4"></path>
        <filter x="-5.2%" y="-6.1%" width="110.4%" height="112.1%" filterUnits="objectBoundingBox" id="filter-5">
            <feGaussianBlur stdDeviation="15" in="SourceAlpha" result="shadowBlurInner1"></feGaussianBlur>
            <feOffset dx="10" dy="20" in="shadowBlurInner1" result="shadowOffsetInner1"></feOffset>
            <feComposite in="shadowOffsetInner1" in2="SourceAlpha" operator="arithmetic" k2="-1" k3="1" result="shadowInnerInner1"></feComposite>
            <feColorMatrix values="0 0 0 0 0.775419207   0 0 0 0 0.858103318   0 0 0 0 1  0 0 0 0.5 0" type="matrix" in="shadowInnerInner1"></feColorMatrix>
        </filter>
        <linearGradient x1="20.0490198%" y1="24.4987991%" x2="71.1819285%" y2="85.3078499%" id="linearGradient-6">
            <stop stop-color="#037DB5" offset="0%"></stop>
            <stop stop-color="#0F0D3B" offset="100%"></stop>
        </linearGradient>
        <path d="M479.229418,420.217695 C538.086752,473.198237 604.180558,507.595639 664.899916,521.114497 C621.25157,554.904198 566.441745,575.017903 506.924992,575.017903 C364.435526,575.017903 248.924992,459.731226 248.924992,317.517903 C248.924992,230.181986 292.488896,153.001246 359.111876,106.440771 C320.669141,188.930378 368.667551,320.695208 479.229418,420.217695 Z" id="path-7"></path>
        <filter x="-7.2%" y="-6.4%" width="114.4%" height="112.8%" filterUnits="objectBoundingBox" id="filter-8">
            <feGaussianBlur stdDeviation="15" in="SourceAlpha" result="shadowBlurInner1"></feGaussianBlur>
            <feOffset dx="0" dy="30" in="shadowBlurInner1" result="shadowOffsetInner1"></feOffset>
            <feComposite in="shadowOffsetInner1" in2="SourceAlpha" operator="arithmetic" k2="-1" k3="1" result="shadowInnerInner1"></feComposite>
            <feColorMatrix values="0 0 0 0 0.544226372   0 0 0 0 1   0 0 0 0 0.989915411  0 0 0 0.4375 0" type="matrix" in="shadowInnerInner1"></feColorMatrix>
        </filter>
        <linearGradient x1="27.2496196%" y1="66.6059881%" x2="78.3849549%" y2="71.7279616%" id="linearGradient-9">
            <stop stop-color="#231F7C" offset="0%"></stop>
            <stop stop-color="#078BAE" offset="100%"></stop>
        </linearGradient>
        <path d="M255.625689,113.689595 C194.93204,191.373924 238.517681,326.843106 352.976944,416.268483 C429.609069,476.140061 518.581606,500.193194 587.234815,486.238598 C539.736973,554.413428 460.676976,599.036612 371.174824,599.036612 C225.923934,599.036612 108.174824,481.511359 108.174824,336.536612 C108.174824,223.733151 179.463043,127.548292 279.526205,90.4144855 C270.599591,97.034185 262.579121,104.789608 255.625689,113.689595 Z" id="path-10"></path>
        <filter x="-3.7%" y="-3.4%" width="107.3%" height="106.9%" filterUnits="objectBoundingBox" id="filter-11">
            <feGaussianBlur stdDeviation="15" in="SourceAlpha" result="shadowBlurInner1"></feGaussianBlur>
            <feOffset dx="5" dy="5" in="shadowBlurInner1" result="shadowOffsetInner1"></feOffset>
            <feComposite in="shadowOffsetInner1" in2="SourceAlpha" operator="arithmetic" k2="-1" k3="1" result="shadowInnerInner1"></feComposite>
            <feColorMatrix values="0 0 0 0 0.707573848   0 0 0 0 0.711115447   0 0 0 0 0.879981884  0 0 0 0.47694493 0" type="matrix" in="shadowInnerInner1"></feColorMatrix>
        </filter>
        <filter x="-11.6%" y="-11.6%" width="123.2%" height="123.2%" filterUnits="objectBoundingBox" id="filter-12">
            <feGaussianBlur stdDeviation="32" in="SourceGraphic"></feGaussianBlur>
        </filter>
        <linearGradient x1="44.8157275%" y1="8.94898417%" x2="15.6426327%" y2="35.3515305%" id="linearGradient-13">
            <stop stop-color="#1D2861" offset="0%"></stop>
            <stop stop-color="#03BFB5" offset="100%"></stop>
        </linearGradient>
        <linearGradient x1="24.3551976%" y1="62.2047854%" x2="90.0406508%" y2="71.5032434%" id="linearGradient-14">
            <stop stop-color="#05B2A6" offset="0%"></stop>
            <stop stop-color="#0874B3" offset="100%"></stop>
        </linearGradient>
        <linearGradient x1="50%" y1="0%" x2="50%" y2="83.9248835%" id="linearGradient-15">
            <stop stop-color="#3FD9DF" offset="0%"></stop>
            <stop stop-color="#3FD9DF" offset="31.6542832%"></stop>
            <stop stop-color="#087CB2" offset="100%"></stop>
        </linearGradient>
    </defs>
    <g id="Logo-white-1" stroke="none" stroke-width="1" fill="none" fill-rule="evenodd">
        <g id="Oval" fill="black" fill-opacity="1">
            <use filter="url(#filter-2)" xlink:href="#path-1"></use>
        </g>
        <g id="Group-2" transform="translate(98.000000, 97.000000)">
            <g id="Group" transform="translate(24.000000, 43.149064)">
                <g id="Combined-Shape" opacity="0.63642351" transform="translate(432.388371, 444.674367) rotate(300.000000) translate(-432.388371, -444.674367) ">
                    <use fill="url(#linearGradient-3)" fill-rule="evenodd" xlink:href="#path-4"></use>
                    <use fill="black" fill-opacity="1" filter="url(#filter-5)" xlink:href="#path-4"></use>
                </g>
                <g id="Combined-Shape" transform="translate(456.911994, 340.729542) rotate(166.000000) translate(-456.911994, -340.729542) ">
                    <use fill="url(#linearGradient-6)" fill-rule="evenodd" xlink:href="#path-7"></use>
                    <use fill="black" fill-opacity="1" filter="url(#filter-8)" xlink:href="#path-7"></use>
                </g>
                <g id="Combined-Shape" transform="translate(347.704819, 344.725549) rotate(53.000000) translate(-347.704819, -344.725549) ">
                    <use fill="url(#linearGradient-9)" fill-rule="evenodd" xlink:href="#path-10"></use>
                    <use fill="black" fill-opacity="1" filter="url(#filter-11)" xlink:href="#path-10"></use>
                </g>
            </g>
            <circle id="Oval" stroke="#FFFFFF" stroke-width="10" filter="url(#filter-12)" cx="422" cy="426" r="409"></circle>
            <path d="M417.395063,91.305235 C593.154162,91.305235 735.635063,235.720266 735.635063,413.865235 C735.635063,592.010204 593.154162,736.425235 417.395063,736.425235 C241.635965,736.425235 99.1550634,592.010204 99.1550634,413.865235 C99.1550634,235.720266 241.635965,91.305235 417.395063,91.305235 Z M416.963961,204.954011 C272.221174,204.954011 154.883961,323.902999 154.883961,470.634011 C154.883961,617.365024 272.221174,736.314011 416.963961,736.314011 C561.706748,736.314011 679.043961,617.365024 679.043961,470.634011 C679.043961,323.902999 561.706748,204.954011 416.963961,204.954011 Z" id="Combined-Shape" fill="url(#linearGradient-13)" transform="translate(417.395063, 413.865235) scale(-1, 1) rotate(-17.000000) translate(-417.395063, -413.865235) "></path>
            <path d="M159.32,291.68 C159.32,469.824969 303.735031,614.24 481.88,614.24 C576.067412,614.24 660.826073,573.87072 719.79735,509.490795 C678.655577,640.292189 556.426571,735.16 412.04,735.16 C233.895031,735.16 89.48,590.744969 89.48,412.6 C89.48,328.64238 121.556392,252.176602 174.122769,194.789076 C164.506064,225.373777 159.32,257.921253 159.32,291.68 Z" id="Combined-Shape" fill="url(#linearGradient-14)"></path>
            <path d="M418.618202,49.2405679 C446.561543,49.2405679 473.677397,52.783462 499.54107,59.4445563 C360.494992,95.3096243 257.778202,221.5597 257.778202,371.800568 C257.778202,523.348611 362.290149,650.486581 503.171326,685.07176 C476.222048,692.357146 447.873636,696.240568 418.618202,696.240568 C239.954085,696.240568 95.1182016,551.404684 95.1182016,372.740568 C95.1182016,194.076451 239.954085,49.2405679 418.618202,49.2405679 Z" id="Combined-Shape" fill="url(#linearGradient-15)" transform="translate(299.144764, 372.740568) rotate(19.000000) translate(-299.144764, -372.740568) "></path>
        </g>
    </g>
</svg>