<svg width="103" height="14" viewBox="0 0 115 20" fill="none" xmlns="http://www.w3.org/2000/svg">
<path d="M0.173828 0.581055H2.40625V5.7666H7.84668V0.581055H10.0791V13H7.84668V7.81445H2.40625V13H0.173828V0.581055ZM21.1094 0.581055H22.7793L27.7275 13H25.3193L24.3262 10.3018H19.5713L18.5693 13H16.1348L21.1094 0.581055ZM23.623 8.39453L21.9531 3.85938L20.2744 8.39453H23.623ZM33.7832 0.581055H36.0156V10.8906H41.3242V13H33.7832V0.581055ZM47.4766 0.581055H49.709V10.8906H55.0176V13H47.4766V0.581055ZM65.6348 13.1758C64.0234 13.1758 62.8281 12.7363 62.0488 11.8574C61.2754 10.9727 60.8887 9.73926 60.8887 8.15723V0.581055H63.1123V7.90234C63.1123 8.61133 63.1855 9.19141 63.332 9.64258C63.4844 10.0879 63.7422 10.4307 64.1055 10.6709C64.4746 10.9053 64.9844 11.0225 65.6348 11.0225C66.2852 11.0225 66.7949 10.9053 67.1641 10.6709C67.5332 10.4365 67.791 10.0938 67.9375 9.64258C68.084 9.19141 68.1572 8.61133 68.1572 7.90234V0.581055H70.3896V8.06934C70.3896 9.69238 70 10.9492 69.2207 11.8398C68.4473 12.7305 67.252 13.1758 65.6348 13.1758ZM82.7734 13.1758C81.4609 13.1758 80.3535 12.8887 79.4512 12.3145C78.5488 11.7402 77.875 10.9697 77.4297 10.0029C76.9844 9.03027 76.7617 7.95801 76.7617 6.78613C76.7617 5.61426 76.9814 4.54492 77.4209 3.57812C77.8662 2.60547 78.54 1.8291 79.4424 1.24902C80.3447 0.668945 81.4492 0.378906 82.7559 0.378906C83.9922 0.378906 85.082 0.686523 86.0254 1.30176C86.9688 1.91113 87.6895 2.79297 88.1875 3.94727L86.1045 4.77344C85.8818 3.98828 85.4775 3.41406 84.8916 3.05078C84.3115 2.6875 83.5938 2.50586 82.7383 2.50586C81.8945 2.50586 81.1914 2.69043 80.6289 3.05957C80.0664 3.42871 79.6504 3.92969 79.3809 4.5625C79.1113 5.18945 78.9766 5.90137 78.9766 6.69824C78.9766 7.54785 79.1113 8.30078 79.3809 8.95703C79.6504 9.60742 80.0693 10.1201 80.6377 10.4951C81.2061 10.8701 81.918 11.0576 82.7734 11.0576C83.5938 11.0576 84.2764 10.8789 84.8213 10.5215C85.3721 10.1582 85.8115 9.56934 86.1396 8.75488L88.2051 9.59863C87.7188 10.7529 87.001 11.6377 86.0518 12.2529C85.1084 12.8682 84.0156 13.1758 82.7734 13.1758ZM94.5684 0.581055H102.83V2.62891H96.8008V5.7666H102.417V7.81445H96.8008V10.8906H102.83V13H94.5684V0.581055Z" fill="url(#paint0_linear_2_2)"/>
<defs>
<linearGradient id="paint0_linear_2_2" x1="110" y1="20" x2="-90" y2="20" gradientUnits="userSpaceOnUse">
<stop stop-color="#A4A474"/>
<stop offset="1" stop-color="#A4A474" stop-opacity="0"/>
</linearGradient>
</defs>
</svg>
