<?xml version="1.0" standalone="no"?>
<!DOCTYPE svg PUBLIC "-//W3C//DTD SVG 20010904//EN"
 "http://www.w3.org/TR/2001/REC-SVG-20010904/DTD/svg10.dtd">
<svg version="1.0" xmlns="http://www.w3.org/2000/svg"
 width="300.000000pt" height="189.000000pt" viewBox="0 0 300.000000 189.000000"
 preserveAspectRatio="xMidYMid meet">
<metadata>
Created by potrace 1.10, written by Peter Selinger 2001-2011
</metadata>
<g transform="translate(0.000000,189.000000) scale(0.100000,-0.100000)"
fill="#000000" stroke="none">
<path d="M975 1880 c4 -6 10 -8 15 -5 4 3 13 -2 20 -10 7 -8 16 -12 21 -9 5 3
9 -2 9 -11 0 -9 5 -13 10 -10 16 10 12 19 -21 38 -34 19 -64 23 -54 7z"/>
<path d="M1490 1886 c0 -2 7 -7 16 -10 8 -3 12 -2 9 4 -6 10 -25 14 -25 6z"/>
<path d="M1558 1883 c6 -2 18 -2 25 0 6 3 1 5 -13 5 -14 0 -19 -2 -12 -5z"/>
<path d="M2458 1883 c6 -2 18 -2 25 0 6 3 1 5 -13 5 -14 0 -19 -2 -12 -5z"/>
<path d="M2598 1872 c-6 -22 24 -63 39 -54 5 4 1 20 -13 39 -18 27 -23 30 -26
15z"/>
<path d="M2670 1870 c0 -12 7 -20 18 -20 13 0 14 2 3 9 -7 5 -10 14 -7 20 4 6
2 11 -3 11 -6 0 -11 -9 -11 -20z"/>
<path d="M766 1863 c-6 -14 -5 -15 5 -6 7 7 10 15 7 18 -3 3 -9 -2 -12 -12z"/>
<path d="M2383 1860 c-1 -11 1 -19 5 -17 4 1 25 -15 47 -36 47 -44 61 -46 60
-10 0 41 36 38 54 -4 12 -26 21 -33 42 -33 21 0 27 4 23 15 -7 18 -16 19 -31
4 -7 -7 -12 -3 -17 15 -3 14 -11 26 -17 26 -6 0 -1 9 12 20 13 10 19 19 12 20
-6 0 -15 -5 -18 -10 -4 -6 -14 -8 -24 -5 -9 3 -26 -1 -36 -9 -14 -10 -26 -11
-47 -4 -16 6 -27 13 -24 16 5 5 -23 31 -34 32 -3 0 -6 -9 -7 -20z"/>
<path d="M2805 1860 c-3 -5 -2 -10 3 -10 4 0 22 -14 39 -30 17 -17 34 -27 37
-22 3 5 -7 20 -22 33 -39 35 -50 41 -57 29z"/>
<path d="M1350 1849 c0 -5 5 -7 10 -4 6 3 10 8 10 11 0 2 -4 4 -10 4 -5 0 -10
-5 -10 -11z"/>
<path d="M675 1840 c-3 -5 -1 -10 4 -10 6 0 11 5 11 10 0 6 -2 10 -4 10 -3 0
-8 -4 -11 -10z"/>
<path d="M906 1841 c-3 -5 -8 -32 -10 -59 l-4 -49 36 1 c29 1 38 -4 49 -24 9
-17 13 -20 13 -8 0 20 -23 44 -50 53 -22 7 -26 20 -10 30 6 3 10 14 10 24 0
22 -26 46 -34 32z"/>
<path d="M645 1830 c-3 -5 -1 -10 4 -10 6 0 11 5 11 10 0 6 -2 10 -4 10 -3 0
-8 -4 -11 -10z"/>
<path d="M820 1829 c0 -5 5 -7 10 -4 6 3 10 8 10 11 0 2 -4 4 -10 4 -5 0 -10
-5 -10 -11z"/>
<path d="M991 1832 c-1 -8 -6 -10 -13 -6 -9 5 -9 3 1 -9 7 -9 17 -14 22 -12
11 8 49 -26 49 -44 0 -8 9 -25 21 -37 11 -12 19 -29 17 -38 -3 -14 -6 -14 -30
-2 -39 20 -41 7 -7 -32 31 -34 55 -43 45 -16 -4 9 1 28 10 41 16 25 12 59 -5
48 -11 -6 -26 13 -27 35 -3 45 -5 51 -13 45 -5 -3 -16 2 -25 11 -9 8 -20 13
-25 10 -5 -4 -12 0 -14 6 -4 10 -6 10 -6 0z"/>
<path d="M1201 1826 c-13 -15 -1 -29 14 -18 13 9 17 32 6 32 -5 0 -14 -6 -20
-14z"/>
<path d="M2946 1814 c-53 -19 -59 -28 -13 -21 25 4 35 2 31 -5 -4 -6 2 -6 15
1 11 7 21 18 21 26 0 18 -4 18 -54 -1z"/>
<path d="M836 1805 c-3 -8 -1 -15 4 -15 6 0 10 7 10 15 0 8 -2 15 -4 15 -2 0
-6 -7 -10 -15z"/>
<path d="M1116 1788 c-3 -12 0 -28 6 -36 10 -11 13 -10 20 8 5 14 3 26 -6 35
-12 12 -15 11 -20 -7z"/>
<path d="M518 1793 c7 -3 16 -2 19 1 4 3 -2 6 -13 5 -11 0 -14 -3 -6 -6z"/>
<path d="M733 1789 c-18 -5 -33 -14 -33 -19 0 -5 -17 -10 -37 -12 -21 -2 -37
-7 -36 -13 1 -5 -17 -11 -40 -13 -23 -1 -44 -7 -47 -13 -4 -5 -23 -10 -43 -11
-20 -1 -37 -5 -37 -10 0 -5 5 -6 10 -3 6 3 10 2 10 -4 0 -9 41 1 88 23 15 6
26 7 30 1 8 -12 36 -19 29 -8 -8 12 16 38 35 39 10 1 15 -2 12 -7 -3 -5 2 -9
11 -9 9 0 13 5 10 10 -3 6 3 10 15 10 11 0 33 11 48 25 29 27 25 29 -25 14z"/>
<path d="M425 1760 c-3 -5 -1 -10 4 -10 6 0 11 5 11 10 0 6 -2 10 -4 10 -3 0
-8 -4 -11 -10z"/>
<path d="M2510 1750 c8 -5 15 -15 15 -21 0 -7 6 -14 13 -17 8 -2 10 2 5 15 -7
20 -22 33 -38 33 -5 0 -3 -5 5 -10z"/>
<path d="M801 1733 c-19 -3 -40 -11 -48 -19 -8 -8 -19 -12 -24 -8 -19 11 -22
-29 -3 -44 13 -10 15 -16 7 -19 -7 -3 -13 -13 -13 -23 0 -9 -6 -23 -14 -29
-20 -17 -36 8 -31 48 3 26 1 31 -11 27 -9 -3 -20 -6 -25 -6 -6 0 -9 -6 -8 -12
3 -28 -2 -36 -33 -43 -18 -4 -38 -7 -45 -6 -6 1 -14 -3 -18 -9 -3 -5 -14 -10
-23 -10 -23 0 -83 -18 -102 -30 -12 -7 -11 -13 10 -35 25 -26 25 -27 6 -41
-15 -10 -17 -17 -9 -25 29 -29 51 12 44 84 -2 15 33 37 60 37 20 0 7 -30 -16
-36 -26 -6 -32 -18 -15 -29 6 -3 11 -16 11 -28 1 -14 4 -10 8 11 7 38 23 43
32 10 8 -28 19 -6 16 32 -2 22 4 26 41 35 24 6 46 16 50 22 12 19 34 -2 32
-28 -1 -13 -2 -27 -1 -31 1 -6 209 53 229 66 5 3 22 0 37 -8 17 -9 22 -16 13
-19 -8 -4 -7 -6 5 -6 10 -1 20 6 23 14 8 21 40 19 63 -4 28 -28 71 -55 71 -45
-1 14 -33 49 -52 57 -10 3 -18 11 -18 16 0 6 -9 15 -20 21 -15 8 -26 7 -45 -6
-38 -25 -49 -15 -46 44 2 50 2 52 -24 52 -21 0 -25 -4 -24 -22 5 -59 -1 -76
-31 -86 -30 -11 -47 -2 -35 18 4 6 1 17 -5 25 -16 19 -9 60 10 60 11 0 15 -10
14 -32 -1 -21 3 -33 11 -33 8 0 12 11 10 33 -2 17 -3 40 -4 50 -1 9 -7 16 -13
15 -7 0 -28 -3 -47 -5z m-5 -96 c1 -31 1 -57 0 -57 -1 0 -16 -4 -34 -9 -28 -9
-32 -7 -32 10 0 12 10 23 26 29 16 7 23 14 18 22 -10 15 -13 50 -7 61 13 23
28 -5 29 -56z"/>
<path d="M2650 1729 c0 -19 21 -50 31 -44 5 4 9 1 9 -5 0 -6 4 -9 9 -6 5 3 20
-6 35 -21 20 -20 26 -22 26 -9 0 9 -3 16 -7 16 -5 0 -28 18 -51 40 -47 43 -52
46 -52 29z"/>
<path d="M2750 1733 c0 -5 9 -19 19 -32 l18 -23 -5 31 c-2 18 -10 31 -18 31
-8 0 -14 -3 -14 -7z"/>
<path d="M2964 1728 c3 -7 9 -21 12 -30 8 -21 24 -24 24 -4 0 8 -7 17 -16 20
-8 3 -12 10 -9 16 3 5 1 10 -5 10 -7 0 -9 -6 -6 -12z"/>
<path d="M1232 1718 c-8 -8 -8 -17 0 -32 6 -12 11 -22 10 -23 -6 -10 0 -33 7
-29 5 3 12 -5 15 -18 3 -13 22 -34 42 -45 31 -18 34 -24 23 -37 -10 -12 -10
-17 -1 -23 7 -4 10 -15 6 -24 -3 -9 -3 -17 2 -17 4 0 84 25 177 56 194 64 159
69 281 -48 59 -57 67 -69 56 -82 -7 -9 -17 -13 -22 -10 -6 4 -6 9 2 14 6 4 -7
7 -29 6 -23 -1 -41 -5 -41 -9 0 -5 -4 -6 -9 -2 -6 3 -25 -3 -45 -14 -25 -14
-36 -17 -40 -8 -3 9 -5 9 -5 0 -1 -7 -7 -13 -14 -13 -7 0 -31 -9 -53 -20 l-39
-21 35 7 c19 3 75 19 124 35 94 30 116 28 116 -13 0 -17 -5 -20 -27 -15 -16 2
-36 2 -46 -2 -16 -6 -8 -16 48 -66 68 -60 86 -86 78 -116 -11 -40 -43 -28
-121 44 -74 68 -98 95 -90 102 1 2 39 -30 83 -71 71 -66 115 -91 115 -65 0 5
-6 8 -14 7 -7 0 -48 32 -91 72 l-77 73 -46 -15 c-42 -15 -47 -15 -64 1 -10 9
-21 13 -25 10 -10 -11 29 -48 46 -43 51 15 71 17 71 7 0 -6 -6 -11 -14 -11 -8
0 -17 -4 -20 -9 -3 -4 6 -6 19 -3 15 2 34 -4 51 -17 15 -12 24 -21 20 -21 -4
0 5 -11 20 -25 15 -14 31 -25 35 -25 5 0 9 -5 9 -10 0 -7 -6 -7 -20 0 -14 7
-20 7 -20 0 0 -10 20 -14 48 -11 6 1 12 -3 12 -9 0 -5 6 -10 14 -10 8 0 16 -7
20 -15 3 -8 11 -15 18 -14 10 0 10 2 0 6 -8 3 -6 10 8 21 28 24 36 74 16 95
-9 9 -16 20 -15 24 1 4 -8 13 -20 19 -11 6 -18 14 -13 19 4 5 2 5 -4 2 -6 -4
-19 2 -29 13 -17 19 -17 20 1 21 10 1 24 1 29 0 6 0 10 15 11 34 1 61 18 65
69 15 25 -24 45 -40 45 -36 0 5 -56 65 -125 133 -69 68 -123 127 -121 131 2 4
-20 7 -49 7 -29 0 -51 -3 -49 -6 2 -3 -30 -17 -71 -31 -64 -22 -77 -24 -93
-12 -17 12 -20 11 -18 -4 1 -11 -7 -18 -24 -20 -20 -2 -22 -1 -10 8 10 8 11
10 2 8 -8 -2 -12 -6 -10 -9 2 -3 -4 -14 -12 -23 -13 -17 -14 -17 -21 1 -4 10
-4 30 -2 46 4 18 1 27 -7 27 -10 0 -10 3 0 15 10 12 10 19 2 27 -9 9 -12 9
-12 -1 0 -7 -5 -9 -11 -5 -6 3 -9 15 -6 25 6 22 -10 25 -32 5 -14 -12 -19 -11
-36 6 -14 14 -15 19 -5 16 19 -4 25 35 7 50 -10 9 -16 9 -25 0z"/>
<path d="M1180 1696 c0 -9 -7 -13 -20 -11 -15 3 -20 -2 -22 -18 -2 -41 -3 -46
-11 -53 -12 -12 -8 -32 9 -38 8 -3 13 -2 10 3 -3 5 1 14 8 20 21 17 27 0 25
-64 -3 -60 1 -68 23 -60 11 4 13 20 10 68 -2 34 -9 71 -15 82 -14 25 -15 35
-5 63 4 13 4 22 -2 22 -6 0 -10 -6 -10 -14z"/>
<path d="M2560 1702 c0 -5 18 -24 41 -43 22 -19 53 -47 68 -62 27 -27 28 -28
34 -8 3 12 1 19 -4 15 -5 -3 -9 0 -9 6 0 6 -13 16 -30 21 -16 6 -30 14 -30 19
0 4 -11 19 -25 34 -24 26 -45 34 -45 18z"/>
<path d="M398 1683 c-29 -7 -21 -31 10 -29 33 2 54 14 47 27 -6 9 -27 10 -57
2z"/>
<path d="M350 1649 c-10 -17 -19 -20 -58 -17 -39 2 -47 0 -47 -14 0 -10 -6
-23 -13 -30 -6 -6 -12 -18 -12 -25 0 -6 -8 -16 -17 -22 -13 -7 -18 -22 -18
-52 0 -25 -5 -44 -13 -47 -7 -2 -11 2 -10 10 2 7 -5 13 -17 13 -14 0 -20 -7
-20 -22 0 -13 -4 -24 -10 -25 -5 -2 -10 15 -10 37 0 38 2 40 27 37 32 -3 35 3
13 25 -12 12 -19 13 -30 3 -8 -7 -15 -9 -15 -4 0 4 -6 -1 -14 -12 -8 -10 -18
-20 -23 -20 -41 -7 -49 -16 -48 -55 0 -21 4 -39 8 -39 4 0 12 0 17 0 6 0 10
18 10 40 0 47 24 56 33 13 4 -20 1 -33 -13 -44 -19 -16 -24 -40 -22 -93 2 -23
5 -26 16 -17 8 7 12 21 9 31 -4 14 0 20 10 20 10 0 17 11 19 27 4 35 28 43 28
9 0 -13 4 -28 10 -31 6 -4 10 10 10 33 0 45 24 66 28 24 3 -35 12 -42 42 -30
l25 9 -25 20 c-21 16 -23 20 -10 29 8 5 20 11 25 13 6 2 4 11 -4 21 -11 13
-11 22 -3 40 6 13 8 32 6 43 -5 19 0 21 134 54 54 14 57 37 3 29 -9 -1 -12 5
-8 19 7 27 1 27 -13 0z"/>
<path d="M570 1661 c0 -6 -7 -11 -15 -11 -8 0 -29 -9 -47 -20 l-33 -20 30 4
c43 6 96 29 92 40 -5 14 -27 20 -27 7z"/>
<path d="M2860 1657 c0 -7 -9 -20 -20 -30 -11 -9 -17 -23 -14 -31 5 -12 8 -12
22 2 16 16 29 72 17 72 -3 0 -5 -6 -5 -13z"/>
<path d="M424 1615 c-7 -18 3 -35 21 -35 18 0 26 25 12 39 -15 15 -27 14 -33
-4z"/>
<path d="M177 1613 c-12 -12 -7 -22 8 -17 8 4 15 10 15 15 0 11 -14 12 -23 2z"/>
<path d="M2907 1601 c-6 -25 10 -38 26 -22 8 8 7 15 -5 27 -14 14 -16 14 -21
-5z"/>
<path d="M103 1598 c-28 -14 -30 -28 -3 -28 11 0 20 5 20 11 0 6 8 8 18 5 13
-4 19 -1 19 9 0 17 -22 18 -54 3z"/>
<path d="M2970 1595 c0 -8 7 -15 15 -15 8 0 15 7 15 15 0 8 -7 15 -15 15 -8 0
-15 -7 -15 -15z"/>
<path d="M2746 1591 c-10 -16 -2 -59 9 -55 6 3 9 18 7 34 -5 32 -7 35 -16 21z"/>
<path d="M25 1556 c-14 -14 -22 -31 -19 -40 8 -20 32 -9 40 17 4 12 11 25 16
28 6 4 6 9 -1 13 -6 4 -22 -4 -36 -18z"/>
<path d="M350 1560 c0 -5 5 -10 10 -10 6 0 10 5 10 10 0 6 -4 10 -10 10 -5 0
-10 -4 -10 -10z"/>
<path d="M305 1550 c-3 -5 1 -10 9 -10 9 0 16 5 16 10 0 6 -4 10 -9 10 -6 0
-13 -4 -16 -10z"/>
<path d="M596 1535 c-22 -33 -13 -48 20 -33 17 8 24 18 22 32 -4 29 -23 30
-42 1z"/>
<path d="M898 1553 c7 -3 16 -2 19 1 4 3 -2 6 -13 5 -11 0 -14 -3 -6 -6z"/>
<path d="M1668 1553 c7 -3 16 -2 19 1 4 3 -2 6 -13 5 -11 0 -14 -3 -6 -6z"/>
<path d="M1237 1543 c-3 -5 5 -17 19 -27 26 -20 32 -51 12 -59 -7 -3 -4 -6 7
-6 28 -1 51 14 35 24 -6 4 -9 17 -6 30 7 28 -9 42 -29 25 -10 -8 -16 -7 -23 6
-5 9 -12 12 -15 7z"/>
<path d="M1600 1530 c0 -5 7 -10 15 -10 8 0 15 5 15 10 0 6 -7 10 -15 10 -8 0
-15 -4 -15 -10z"/>
<path d="M2817 1533 c-14 -14 -6 -33 21 -47 15 -8 55 -42 90 -76 35 -34 65
-60 67 -58 9 9 -8 48 -21 48 -8 0 -17 7 -20 15 -4 8 -12 15 -20 15 -14 0 -18
12 -14 39 1 12 -1 12 -12 3 -12 -9 -20 -5 -44 20 -16 17 -22 27 -14 23 13 -8
13 -7 1 8 -14 18 -24 21 -34 10z"/>
<path d="M2565 1504 c-109 -38 -421 -139 -507 -164 -43 -13 -78 -27 -78 -31 0
-5 3 -9 8 -9 4 0 20 -12 35 -26 l29 -26 55 17 c37 12 51 20 42 26 -7 4 -18 4
-24 -1 -21 -18 -81 -22 -94 -7 -16 20 -3 28 49 30 25 1 35 4 27 10 -7 5 -2 7
16 4 16 -2 27 0 27 7 0 7 4 6 9 -2 6 -10 10 -10 20 2 7 8 19 12 27 9 8 -3 14
-1 14 5 0 6 -6 12 -12 15 -7 2 4 7 25 11 20 4 42 4 49 0 7 -4 8 -3 4 4 -4 7
-2 12 4 12 11 0 26 -28 18 -35 -2 -3 -13 -6 -24 -8 -43 -8 -74 -20 -74 -27 0
-4 -10 -10 -22 -13 -12 -4 -19 -9 -15 -13 6 -6 100 20 162 45 11 5 47 16 80
26 33 9 76 23 95 31 19 7 50 16 67 19 41 8 52 24 28 41 -18 13 -18 14 0 34 21
23 55 27 55 5 0 -8 5 -15 11 -15 6 0 1 -9 -12 -20 -27 -22 -24 -24 17 -10 16
5 48 14 72 20 23 6 42 15 42 20 0 15 -28 12 -53 -5 -21 -13 -24 -12 -42 15
-24 36 -38 36 -130 4z m15 -41 c-1 -27 -128 -70 -167 -57 -15 5 -16 4 -3 -5
14 -10 11 -12 -15 -11 -3 0 -19 -7 -36 -16 -26 -13 -33 -14 -40 -2 -5 7 -9 16
-9 19 0 10 28 19 55 19 13 0 27 5 30 10 3 6 14 10 24 10 11 0 38 9 62 20 44
20 99 27 99 13z"/>
<path d="M1535 1510 c-3 -5 -2 -10 4 -10 5 0 13 5 16 10 3 6 2 10 -4 10 -5 0
-13 -4 -16 -10z"/>
<path d="M363 1497 c-25 -11 -31 -27 -9 -27 14 0 42 28 35 34 -2 2 -14 -1 -26
-7z"/>
<path d="M1640 1500 c0 -5 5 -10 10 -10 6 0 10 5 10 10 0 6 -4 10 -10 10 -5 0
-10 -4 -10 -10z"/>
<path d="M1475 1490 c-3 -5 -1 -10 4 -10 6 0 11 5 11 10 0 6 -2 10 -4 10 -3 0
-8 -4 -11 -10z"/>
<path d="M305 1479 c-10 -15 3 -25 16 -12 7 7 7 13 1 17 -6 3 -14 1 -17 -5z"/>
<path d="M1575 1480 c-3 -5 1 -10 10 -10 9 0 13 5 10 10 -3 6 -8 10 -10 10 -2
0 -7 -4 -10 -10z"/>
<path d="M1745 1480 c-3 -5 -1 -10 4 -10 6 0 11 5 11 10 0 6 -2 10 -4 10 -3 0
-8 -4 -11 -10z"/>
<path d="M1410 1470 c0 -5 5 -10 11 -10 5 0 7 5 4 10 -3 6 -8 10 -11 10 -2 0
-4 -4 -4 -10z"/>
<path d="M265 1460 c-3 -5 1 -10 9 -10 9 0 16 5 16 10 0 6 -4 10 -9 10 -6 0
-13 -4 -16 -10z"/>
<path d="M1505 1460 c-3 -5 1 -10 10 -10 9 0 13 5 10 10 -3 6 -8 10 -10 10 -2
0 -7 -4 -10 -10z"/>
<path d="M1680 1459 c0 -5 5 -7 10 -4 6 3 10 8 10 11 0 2 -4 4 -10 4 -5 0 -10
-5 -10 -11z"/>
<path d="M590 1452 c0 -5 7 -13 16 -16 10 -4 14 -1 12 6 -5 15 -28 23 -28 10z"/>
<path d="M1175 1451 c3 -6 -11 -13 -32 -17 -21 -3 -47 -12 -58 -19 -11 -6 -28
-11 -37 -9 -10 1 -18 -2 -18 -7 0 -5 -3 -8 -7 -8 -5 1 -10 1 -13 0 -43 -15
-148 -37 -164 -34 -20 3 -20 3 -1 -5 17 -8 14 -11 -25 -22 -25 -6 -56 -17 -70
-23 -14 -6 -31 -9 -39 -8 -7 1 -10 -2 -7 -7 3 -6 -1 -13 -10 -16 -13 -5 -14
-9 -4 -21 6 -8 8 -20 4 -26 -4 -7 -3 -9 3 -6 13 8 66 -50 58 -63 -4 -6 1 -7
11 -3 12 4 15 3 10 -5 -4 -8 -2 -10 8 -6 9 3 17 -2 21 -15 3 -12 13 -21 21
-21 8 0 13 -4 9 -9 -3 -5 4 -12 15 -16 28 -9 15 -25 -19 -25 -29 0 -56 21 -44
34 4 4 0 4 -10 0 -11 -4 -17 -1 -17 8 0 7 -9 19 -20 26 -13 8 -20 8 -20 1 0
-5 -5 -7 -10 -4 -6 3 -17 -1 -26 -9 -12 -13 -13 -19 -2 -38 16 -30 16 -39 0
-65 -8 -14 -9 -22 -2 -25 6 -2 12 -18 15 -37 2 -18 6 -35 9 -38 3 -3 -1 -12
-9 -20 -17 -16 -20 -53 -5 -53 17 0 11 -28 -7 -39 -10 -5 -15 -13 -11 -17 12
-11 -12 -34 -28 -27 -9 3 -14 -1 -14 -13 0 -27 16 -49 24 -35 4 6 2 11 -3 11
-6 0 -11 4 -11 9 0 5 9 7 20 4 22 -6 28 -33 8 -33 -10 0 -9 -3 1 -9 8 -5 10
-14 6 -21 -6 -10 -11 -9 -21 5 -8 10 -17 16 -20 12 -4 -3 8 -20 26 -37 36 -34
34 -55 -2 -24 l-23 19 23 -26 c12 -14 22 -29 22 -33 0 -4 6 -14 14 -22 8 -7
17 -19 19 -26 4 -10 7 -10 15 0 7 10 12 6 22 -17 7 -17 19 -31 26 -31 18 0 18
6 -1 27 -8 10 -16 23 -17 28 -1 6 -16 22 -32 37 -16 15 -27 31 -22 35 4 4 11
2 15 -6 6 -9 10 -6 13 11 5 31 -1 60 -13 52 -11 -6 -24 24 -15 34 4 3 11 0 16
-8 8 -13 10 -12 10 3 0 10 5 15 11 12 6 -4 10 -23 9 -44 -1 -20 -1 -52 0 -71
2 -32 3 -33 9 -10 6 22 8 20 13 -18 4 -27 15 -49 30 -62 13 -11 17 -19 10 -20
-7 0 -10 -5 -7 -10 4 -6 10 -8 14 -5 5 2 18 -6 30 -19 20 -21 20 -24 6 -30
-12 -4 -19 0 -22 14 -3 11 -9 18 -13 15 -5 -3 -16 2 -24 11 -9 8 -16 11 -16 5
0 -6 9 -16 20 -23 11 -7 20 -18 20 -25 0 -7 6 -13 13 -13 15 0 86 -70 71 -70
-5 0 -1 -5 9 -11 9 -6 15 -14 12 -19 -3 -5 4 -11 15 -15 12 -4 18 -11 14 -18
-5 -9 -4 -9 6 0 10 10 7 19 -19 48 -17 20 -31 39 -31 43 0 4 7 -1 14 -10 7
-10 15 -18 18 -18 7 0 -7 73 -17 90 -6 9 -4 11 4 5 9 -5 12 3 11 31 -3 54 -1
61 9 45 5 -8 10 -47 10 -85 1 -85 3 -102 19 -118 9 -9 12 -2 12 31 0 27 4 40
11 36 6 -4 9 -24 8 -45 -3 -32 2 -42 33 -69 24 -21 35 -39 34 -55 -1 -23 -16
-27 -16 -5 0 17 -27 39 -47 39 -14 0 -15 2 -4 9 8 5 9 11 3 15 -5 3 -12 -1
-16 -9 -3 -9 5 -21 23 -31 20 -12 27 -23 24 -35 -3 -11 -10 -19 -15 -19 -6 0
-5 -7 2 -15 20 -24 3 -31 -21 -9 -22 19 -22 19 -14 -5 4 -15 3 -21 -3 -17 -14
9 -22 -18 -10 -35 8 -11 9 -10 4 5 -5 14 -2 17 10 12 8 -3 18 -6 20 -6 3 0 2
-4 -1 -10 -3 -5 1 -10 9 -10 19 0 21 -16 4 -26 -6 -4 -14 -2 -16 4 -2 7 -17
12 -32 12 -16 0 -33 7 -38 16 -6 11 -11 13 -16 5 -4 -6 -1 -11 6 -11 7 0 5 -5
-6 -11 -14 -9 -21 -8 -28 2 -6 10 -7 7 -3 -10 5 -16 4 -21 -4 -17 -6 4 -11 3
-11 -3 0 -5 6 -12 13 -14 9 -4 8 -8 -3 -16 -12 -9 -11 -11 8 -11 12 0 22 5 22
10 0 7 6 7 19 0 26 -13 31 -13 31 5 0 18 12 19 28 3 9 -9 12 -9 12 0 0 7 11
10 29 8 19 -2 28 1 27 10 0 7 3 12 9 11 5 -1 9 -5 8 -9 -1 -3 4 -9 12 -12 8
-3 15 -1 15 3 0 13 28 7 48 -10 9 -8 29 -14 44 -15 22 0 25 3 16 13 -6 8 -17
12 -24 9 -7 -2 -20 4 -30 15 -13 14 -25 18 -45 14 -19 -4 -28 -1 -32 9 -4 9
-13 13 -22 10 -8 -3 -15 -1 -15 5 0 6 1 11 3 11 73 11 76 11 87 -10 6 -11 15
-18 20 -15 5 3 11 1 15 -5 3 -5 12 -10 19 -10 9 0 11 16 8 55 -2 37 0 55 8 55
7 0 11 -20 9 -57 -2 -74 -1 -81 10 -64 7 11 10 9 15 -7 14 -43 61 -30 61 17 0
8 6 16 14 19 9 3 11 0 6 -9 -6 -11 -5 -12 6 -1 22 20 28 14 16 -18 -6 -16 -8
-32 -5 -36 11 -10 60 5 53 16 -9 14 9 12 24 -3 13 -13 71 -17 71 -4 0 4 7 7
15 7 20 0 19 6 -5 30 -25 25 -27 25 -26 -1 1 -12 -4 -24 -10 -26 -13 -4 -29
81 -19 97 4 6 3 10 -2 9 -17 -4 -43 14 -43 30 0 14 2 14 11 1 9 -12 10 -11 6
7 -4 18 1 24 30 34 22 7 38 8 42 2 3 -5 14 -12 24 -16 17 -6 17 -9 3 -29 -43
-62 1 -96 77 -59 24 12 48 21 54 21 28 0 149 56 145 68 -4 14 15 17 20 3 2 -6
28 -1 58 9 30 10 53 22 52 26 -6 11 22 24 29 13 9 -16 230 59 251 84 15 19 18
19 18 5 0 -11 5 -15 15 -12 8 4 12 10 9 16 -3 5 3 12 15 15 27 7 38 43 17 58
-8 7 -12 16 -8 21 4 4 -1 2 -10 -5 -15 -11 -17 -10 -13 7 3 18 1 18 -43 4 -46
-15 -102 -37 -132 -52 -8 -4 -24 -4 -35 0 -14 5 5 15 75 38 52 16 136 45 186
63 l91 33 104 -99 c57 -55 151 -146 209 -202 156 -150 218 -205 227 -201 4 2
7 7 5 13 -2 5 6 1 18 -10 21 -19 21 -19 14 1 -10 27 -35 55 -45 49 -12 -8 -39
36 -39 63 0 35 34 24 40 -13 3 -19 11 -31 23 -31 9 -1 17 2 17 7 0 5 5 9 11 9
5 0 9 -8 8 -17 -2 -28 0 -43 9 -43 4 0 6 14 6 30 -2 48 -3 52 -14 45 -6 -4
-10 5 -10 21 0 15 -3 24 -7 20 -8 -8 -10 -13 -12 -43 0 -9 -4 -13 -8 -9 -4 3
-7 36 -8 72 0 48 2 62 10 52 6 -7 19 -18 30 -24 19 -11 20 -8 20 37 0 40 -6
54 -28 76 -23 23 -29 25 -37 14 -7 -12 -11 -12 -24 -2 -9 8 -16 19 -15 25 0 7
2 6 6 -1 4 -11 33 -19 33 -9 0 4 -119 120 -265 259 -49 47 -92 82 -95 78 -9
-13 -89 -41 -119 -41 -23 0 -30 6 -35 25 -4 14 -11 23 -16 20 -6 -3 -10 0 -10
8 0 7 -25 36 -55 64 -30 28 -55 58 -55 67 0 10 -9 16 -22 16 -22 1 -22 2 7 26
23 19 25 24 11 22 -10 -2 -21 3 -23 10 -3 6 2 12 10 12 11 0 16 14 19 55 1 30
0 55 -4 55 -5 0 -9 -15 -9 -32 -1 -26 -3 -28 -6 -9 -4 21 -9 23 -41 17 -21 -3
-80 -20 -132 -36 -52 -17 -113 -33 -135 -35 -22 -2 -44 -4 -50 -4 -5 -1 -3 -6
5 -11 8 -5 25 -7 38 -3 18 4 32 -3 58 -28 41 -40 45 -64 9 -55 -18 5 -25 2
-25 -8 0 -15 -57 -43 -67 -33 -3 4 6 11 20 16 14 5 28 14 31 19 3 6 -12 2 -34
-9 -22 -11 -40 -24 -40 -30 0 -6 -9 -9 -20 -6 -11 3 -20 2 -20 -2 0 -14 -69
-41 -76 -30 -3 6 3 13 15 16 11 3 18 9 15 14 -7 13 -56 -22 -50 -36 2 -6 -2
-12 -10 -12 -8 0 -13 6 -10 14 4 10 -1 12 -22 7 -15 -4 -31 -7 -37 -8 -5 0
-13 -5 -17 -11 -5 -6 -8 -5 -8 4 0 10 -3 11 -14 2 -8 -7 -23 -14 -35 -16 -11
-2 -35 -11 -53 -19 -18 -9 -43 -17 -55 -19 -12 -2 -31 -11 -41 -20 -10 -9 -22
-14 -27 -10 -4 5 -5 0 -2 -9 5 -13 1 -18 -12 -18 -10 0 -24 -7 -31 -15 -7 -9
-19 -14 -27 -11 -7 3 -13 1 -13 -4 0 -6 -9 -10 -20 -10 -11 0 -20 5 -20 10 0
6 5 10 12 10 23 0 98 33 98 43 0 5 -5 5 -13 -2 -8 -6 -17 -8 -20 -4 -4 3 -13
0 -22 -7 -8 -7 -15 -9 -15 -5 0 4 -6 2 -13 -4 -8 -6 -17 -8 -20 -4 -4 3 -7 1
-7 -5 0 -21 -42 -13 -47 8 -3 11 -9 17 -14 14 -5 -3 -9 -1 -9 5 0 5 5 13 10
16 6 3 10 11 10 16 0 6 -7 3 -16 -5 -18 -18 -34 -13 -34 11 0 9 -3 14 -6 10
-8 -8 -34 18 -34 34 0 7 -3 9 -7 6 -7 -8 -83 71 -83 86 0 4 -4 6 -9 3 -5 -3
-8 2 -7 11 0 10 -3 18 -9 19 -27 3 -46 18 -40 32 4 12 3 12 -9 3 -12 -10 -16
-8 -21 8 -3 10 -18 27 -33 36 -34 22 -98 88 -94 98 1 4 -4 7 -10 7 -8 0 -5 7
6 15 17 13 22 11 50 -18 17 -18 40 -36 50 -40 10 -4 16 -10 13 -13 -8 -8 12
-28 36 -37 9 -3 17 -14 17 -22 0 -9 5 -13 10 -10 6 3 10 -1 10 -10 0 -9 3 -14
8 -12 10 7 32 -19 24 -29 -4 -4 1 -4 11 -1 11 4 16 3 12 -3 -8 -13 16 -38 31
-33 7 2 14 -8 18 -22 4 -14 13 -25 20 -25 8 0 25 -13 38 -29 13 -15 37 -36 52
-46 24 -16 27 -24 23 -52 -5 -27 -2 -33 11 -32 9 0 12 3 6 5 -6 3 -8 21 -5 46
6 44 23 55 95 62 17 1 32 8 34 14 2 7 17 12 34 12 16 0 41 9 55 20 28 22 48
27 37 9 -7 -12 38 9 46 22 3 4 18 11 34 15 22 5 27 4 21 -6 -5 -9 -4 -11 4 -6
6 4 9 11 6 16 -3 4 5 10 17 13 12 4 20 9 17 11 -3 3 -99 -26 -213 -64 l-207
-70 -270 268 c-149 147 -277 268 -285 270 -33 8 -8 23 89 52 56 18 158 50 227
72 69 22 147 47 175 55 41 13 46 18 30 24 -29 11 -67 11 -60 0z m-432 -345 c6
-16 -2 -28 -14 -20 -12 7 -11 34 0 34 5 0 11 -6 14 -14z m-28 -16 c3 -11 11
-20 16 -20 5 0 9 -16 9 -36 0 -21 -4 -33 -10 -29 -5 3 -10 17 -10 31 0 14 -7
32 -15 40 -17 17 -20 34 -6 34 5 0 13 -9 16 -20z m75 -28 c0 -5 14 -23 31 -40
18 -18 29 -35 25 -39 -6 -6 -75 65 -76 80 0 4 5 7 10 7 6 0 10 -4 10 -8z m-20
-49 c0 -15 10 -33 24 -44 17 -14 24 -29 24 -54 0 -19 -4 -35 -8 -35 -12 0 -43
51 -35 58 3 4 10 0 15 -8 5 -8 12 -12 15 -8 4 3 -7 19 -24 34 -23 20 -31 36
-31 61 0 20 4 32 10 28 6 -3 10 -18 10 -32z m-40 -33 c4 -3 10 -20 13 -38 5
-25 3 -32 -6 -30 -6 3 -13 17 -15 33 -2 15 -10 34 -18 42 -8 8 -11 19 -8 25 4
6 11 3 17 -8 6 -11 13 -21 17 -24z m1519 -24 c17 -35 4 -45 -51 -42 -31 3 -36
1 -27 -10 9 -11 8 -14 -3 -14 -8 0 -24 -9 -36 -20 -12 -12 -22 -18 -22 -14 0
4 -9 -1 -20 -11 -16 -15 -23 -16 -33 -6 -6 7 -7 12 -2 11 28 -6 26 2 -5 22
-21 12 -30 23 -22 26 9 3 10 8 2 17 -8 10 -2 14 25 19 19 4 40 4 45 1 6 -3 10
-2 10 4 0 6 16 13 35 17 19 3 35 11 35 16 0 6 7 8 15 4 8 -3 15 -1 15 5 0 19
25 3 39 -25z m-1397 -3 c23 -21 26 -52 2 -33 -18 16 -38 50 -28 50 4 0 16 -7
26 -17z m46 -19 c-4 -3 -12 5 -18 18 -12 22 -12 22 6 6 10 -10 15 -20 12 -24z
m77 -59 c20 -19 39 -34 43 -32 8 2 12 -7 12 -29 0 -11 -21 4 -56 40 -31 31
-59 54 -62 51 -3 -3 4 -15 16 -28 12 -13 22 -30 22 -37 0 -8 -16 3 -35 23 -37
39 -46 63 -20 53 8 -3 15 0 15 6 0 12 8 6 65 -47z m-194 -26 c28 -28 48 -53
45 -56 -5 -6 -106 90 -106 101 0 13 12 4 61 -45z m-61 19 c0 -5 11 -19 25 -30
14 -11 25 -27 25 -36 0 -12 -11 -5 -35 21 -32 35 -49 77 -25 62 6 -3 10 -11
10 -17z m1515 12 c-3 -5 -17 -10 -31 -10 -14 0 -34 -5 -45 -10 -11 -7 -19 -7
-19 -1 0 11 46 29 78 30 13 1 20 -3 17 -9z m-1385 -46 c0 -21 -4 -33 -10 -29
-5 3 -10 22 -10 41 0 21 4 33 10 29 6 -3 10 -22 10 -41z m1250 -20 c-9 -15
-20 -24 -30 -21 -9 2 -22 -4 -29 -14 -15 -25 -27 -24 -34 2 -6 24 33 43 67 33
11 -4 18 -3 14 1 -4 5 -3 14 4 22 17 21 23 6 8 -23z m127 24 c-2 -7 -12 -13
-23 -13 -13 0 -20 -9 -24 -29 -6 -38 -25 -31 -25 9 0 23 6 31 25 36 39 11 52
10 47 -3z m-1327 -49 c0 -24 -4 -38 -10 -34 -5 3 -10 24 -10 46 0 24 4 38 10
34 6 -3 10 -24 10 -46z m80 30 c0 -5 -4 -9 -10 -9 -5 0 -10 7 -10 16 0 8 5 12
10 9 6 -3 10 -10 10 -16z m50 -46 c0 -18 -10 -16 -26 5 -22 28 -18 48 6 27 11
-10 20 -24 20 -32z m1106 31 c-3 -9 -6 -24 -6 -35 0 -10 -4 -19 -10 -19 -5 0
-10 16 -10 35 0 25 4 35 16 35 11 0 14 -5 10 -16z m-1384 -11 c23 -21 26 -52
2 -33 -18 16 -38 50 -28 50 4 0 16 -7 26 -17z m1478 8 c0 -12 -20 -25 -27 -18
-7 7 6 27 18 27 5 0 9 -4 9 -9z m-1512 -46 c0 -19 -4 -35 -8 -35 -14 0 -22 19
-13 33 4 6 6 20 4 31 -1 10 2 15 7 12 6 -3 10 -22 10 -41z m282 -22 c17 -24
30 -46 30 -48 0 -7 61 -67 65 -64 2 2 1 17 -2 32 -4 21 -8 25 -14 15 -7 -10
-9 -10 -9 0 0 6 -6 12 -14 12 -11 0 -15 12 -14 40 0 45 1 46 22 24 21 -20 21
-38 0 -30 -9 3 -14 1 -12 -5 4 -12 7 -12 43 -3 24 6 24 6 -17 45 -23 21 -39
41 -36 45 3 3 28 -15 54 -41 40 -38 46 -48 34 -56 -13 -9 -13 -10 1 -6 18 6
59 -30 59 -51 0 -6 7 -9 16 -5 12 5 15 2 11 -13 -7 -23 31 -74 59 -78 15 -3
18 -10 16 -32 -7 -59 -42 -57 -42 2 0 20 -4 33 -9 29 -6 -3 -15 4 -21 15 -6
11 -18 20 -26 20 -8 0 -12 4 -9 10 3 5 1 18 -4 27 -9 15 -10 13 -11 -14 0 -22
6 -36 20 -43 11 -6 20 -18 20 -26 0 -9 9 -27 20 -41 27 -34 17 -43 -15 -13
-14 13 -28 21 -31 17 -4 -4 4 -15 17 -26 23 -19 24 -19 5 -40 -18 -20 -18 -22
-3 -39 21 -23 22 -42 2 -42 -8 0 -24 -10 -36 -22 l-22 -23 6 33 c7 33 -8 46
-16 15 -4 -17 -4 -17 -12 1 -5 11 -3 21 4 25 8 5 5 13 -10 26 -20 19 -20 19
-14 -8 10 -39 -1 -33 -21 11 -10 20 -24 45 -32 55 -20 23 -7 35 16 14 21 -19
32 -22 32 -7 0 6 -7 10 -15 10 -8 0 -15 7 -15 15 0 8 -7 15 -15 15 -17 0 -18
14 -5 45 7 17 9 16 10 -10 1 -16 4 -24 7 -17 2 6 11 12 19 12 11 0 13 7 8 28
-4 15 -11 29 -16 30 -4 2 -8 7 -8 12 0 5 -18 27 -40 50 -22 23 -40 46 -40 51
0 5 0 11 0 14 1 10 -28 35 -39 35 -6 0 -11 10 -11 21 0 18 2 19 15 9 9 -7 29
-33 45 -57z m1319 -16 c-9 -7 -14 -18 -12 -24 7 -21 -5 -15 -18 8 -8 15 -8 19
0 15 18 -11 13 16 -6 29 -9 7 -13 17 -9 24 6 8 16 4 34 -14 24 -24 25 -28 11
-38z m-85 39 c-3 -8 -19 -19 -36 -25 -39 -14 -38 -14 -38 3 0 7 15 18 33 24
45 14 47 14 41 -2z m21 -45 c-13 -13 -15 -13 -15 -1 0 8 3 26 7 39 l6 25 9
-24 c6 -17 4 -28 -7 -39z m-1449 32 c22 -29 18 -49 -6 -28 -19 17 -27 45 -14
45 4 0 13 -8 20 -17z m44 -7 c0 -7 11 -19 25 -26 14 -7 25 -20 25 -28 0 -16
-12 -9 -52 31 -19 18 -25 53 -8 42 6 -3 10 -12 10 -19z m1100 11 c0 -15 -67
-40 -74 -28 -7 11 7 28 29 34 35 9 45 7 45 -6z m-995 -24 c33 -37 34 -63 0
-32 -13 13 -25 29 -25 36 0 6 -6 14 -12 16 -10 4 -10 6 -1 6 7 1 24 -11 38
-26z m1089 18 c3 -5 -1 -14 -8 -20 -16 -13 -32 2 -21 19 8 12 22 13 29 1z
m-1140 -17 c3 -8 2 -12 -4 -9 -6 3 -10 10 -10 16 0 14 7 11 14 -7z m1078 -6
c-5 -20 -17 -24 -27 -8 -8 13 1 27 18 27 9 0 12 -7 9 -19z m158 8 c0 -12 -47
-36 -72 -36 -22 0 0 24 32 35 19 7 36 13 38 14 1 0 2 -5 2 -13z m-280 -6 c0
-11 -42 -30 -66 -30 -24 0 -16 18 14 28 36 14 52 14 52 2z m-127 -7 c4 -4 -30
-17 -75 -30 -45 -13 -84 -26 -87 -29 -10 -9 9 -16 26 -9 10 5 22 7 27 6 4 -1
14 3 21 9 7 6 17 10 21 9 5 -1 26 5 46 14 45 20 61 21 56 5 -3 -7 -17 -14 -31
-16 -29 -4 -36 -19 -12 -28 27 -11 16 -21 -40 -34 -31 -7 -58 -17 -61 -22 -3
-4 -17 -8 -30 -8 -16 0 -24 -5 -21 -12 5 -15 2 -16 92 17 39 14 78 25 88 25
26 0 15 -24 -12 -28 -13 -2 -20 -9 -17 -15 3 -7 9 -20 12 -29 4 -10 10 -18 15
-18 15 0 10 -57 -6 -70 -12 -10 -15 -9 -16 6 0 14 -2 15 -6 4 -3 -8 -11 -18
-17 -22 -7 -5 -4 -12 9 -22 17 -13 20 -13 23 0 2 8 10 14 18 14 11 0 14 -9 12
-32 -3 -33 -28 -53 -28 -23 0 13 -6 16 -22 11 -13 -3 -26 -6 -30 -6 -4 0 -8
-10 -10 -22 -2 -15 -13 -24 -37 -30 -42 -11 -53 -2 -15 13 34 13 18 24 -17 11
-13 -5 -24 -17 -24 -28 0 -27 -31 -30 -38 -3 -3 12 -10 18 -17 14 -8 -5 -8
-11 0 -20 7 -9 6 -16 -5 -25 -19 -15 -34 -5 -17 12 8 8 8 15 1 24 -7 8 -7 14
1 19 5 3 10 15 10 26 0 10 7 19 15 19 8 0 15 4 15 9 0 5 -7 14 -15 21 -23 19
-19 50 7 50 20 0 21 1 3 20 -10 11 -25 20 -33 20 -12 0 -12 4 3 20 10 11 25
20 33 20 12 0 10 5 -6 23 -28 30 -28 45 1 56 21 9 21 9 3 17 -12 5 -30 1 -49
-10 -19 -10 -34 -13 -40 -7 -5 5 -1 12 12 16 12 3 19 10 16 15 -3 4 3 6 14 3
10 -2 52 7 92 21 101 35 131 41 142 29z m-883 -49 c0 -21 -4 -33 -10 -29 -5 3
-10 22 -10 41 0 21 4 33 10 29 6 -3 10 -22 10 -41z m1538 -21 c15 -13 22 -29
18 -38 -5 -13 -8 -13 -26 5 -11 11 -20 25 -20 30 0 6 -6 10 -14 10 -17 0 -25
18 -18 43 4 16 6 15 21 -5 8 -13 26 -33 39 -45z m-488 48 c0 -12 -20 -25 -27
-18 -7 7 6 27 18 27 5 0 9 -4 9 -9z m266 -6 c-34 -18 -36 -18 -36 -4 0 5 4 8
9 4 5 -3 12 -1 16 5 3 5 14 10 23 10 11 0 6 -6 -12 -15z m111 -10 c-4 -8 -13
-15 -22 -15 -21 0 -19 28 3 32 22 5 26 2 19 -17z m-1286 -36 c28 -28 48 -54
44 -57 -3 -3 -16 6 -29 21 -13 15 -28 27 -35 27 -6 0 -11 6 -11 14 0 8 -7 16
-15 20 -14 5 -22 26 -10 26 3 0 28 -23 56 -51z m864 41 c5 -9 -50 -40 -70 -40
-26 0 26 42 62 50 1 0 5 -5 8 -10z m149 -5 c-6 -16 -34 -21 -34 -7 0 13 11 22
26 22 8 0 11 -6 8 -15z m50 -22 c-8 -8 -22 -12 -31 -9 -14 6 -14 8 3 25 13 13
23 15 31 9 10 -8 9 -13 -3 -25z m-1254 -19 c0 -19 -4 -34 -10 -34 -5 0 -10 18
-10 41 0 24 4 38 10 34 6 -3 10 -22 10 -41z m180 -81 c0 -7 -4 -13 -10 -13 -5
0 -10 4 -10 8 0 5 -20 30 -45 56 -25 27 -45 43 -45 37 0 -6 14 -24 30 -39 30
-29 39 -52 20 -52 -5 0 -10 6 -10 13 0 8 -11 20 -25 27 -20 11 -25 21 -25 53
l0 39 60 -59 c33 -32 60 -64 60 -70z m-50 94 c0 -5 -4 -5 -10 -2 -5 3 -10 14
-10 23 0 15 2 15 10 2 5 -8 10 -19 10 -23z m1020 13 c11 -11 27 -20 36 -20 9
0 14 -5 12 -12 -8 -22 -27 -20 -52 5 -19 19 -26 21 -30 11 -6 -16 -36 -19 -36
-4 0 15 23 39 38 40 6 0 21 -9 32 -20z m268 -5 c-18 -17 -68 -28 -68 -15 0 12
61 39 73 32 5 -2 3 -10 -5 -17z m213 -100 c6 4 3 12 -8 20 -17 13 -17 14 1 34
27 30 33 26 34 -16 0 -62 3 -70 12 -46 5 12 7 31 5 42 -4 24 26 54 33 33 3
-10 8 -8 18 5 12 16 15 16 24 3 12 -19 13 -30 0 -30 -5 0 -7 -7 -4 -15 12 -30
24 -14 24 31 0 32 4 44 13 42 15 -6 22 -58 8 -58 -16 0 -13 -26 5 -45 11 -10
25 -14 40 -11 18 5 22 3 18 -9 -4 -8 -1 -15 5 -15 6 0 11 9 11 20 0 11 7 20
15 20 8 0 15 -4 15 -10 0 -5 -4 -10 -10 -10 -5 0 -10 -5 -10 -11 0 -6 7 -8 16
-5 8 3 12 2 9 -4 -3 -6 -13 -10 -20 -10 -8 0 -12 -6 -9 -14 4 -11 12 -13 31
-5 32 12 33 12 33 -5 0 -8 -7 -17 -16 -20 -24 -9 -54 -7 -54 4 0 6 -7 10 -15
10 -8 0 -15 5 -15 12 0 6 -3 8 -7 5 -3 -4 -17 5 -30 20 -21 21 -24 23 -22 7 2
-10 0 -25 -5 -32 -5 -9 -1 -19 13 -28 12 -8 21 -22 21 -31 0 -14 -3 -14 -24 1
-16 10 -27 12 -31 6 -4 -6 4 -14 17 -19 13 -6 17 -10 11 -10 -7 -1 -13 -5 -13
-10 0 -5 8 -7 18 -5 10 3 31 -8 52 -26 19 -17 42 -35 50 -40 11 -7 12 -11 1
-24 -7 -8 -10 -20 -6 -26 3 -5 -1 -10 -10 -10 -11 0 -15 7 -13 23 2 13 -2 21
-9 20 -7 -2 -10 3 -7 11 7 18 -16 32 -26 16 -5 -8 -10 -9 -14 -2 -3 6 0 13 6
15 18 8 -10 27 -39 27 -14 0 -22 6 -22 18 -1 9 -4 36 -7 60 -5 35 -3 46 12 57
16 11 17 16 6 27 -11 11 -16 9 -31 -11 -13 -17 -24 -22 -36 -17 -10 3 -24 1
-32 -6 -13 -10 -19 -8 -37 12 -26 29 -56 55 -56 47 0 -3 7 -13 16 -22 23 -23
13 -27 -21 -9 -28 14 -44 7 -45 -18 0 -12 -30 -9 -30 2 0 6 -4 10 -10 10 -5 0
-10 -9 -10 -19 0 -21 -17 -37 -28 -27 -3 4 3 21 13 39 l19 32 -28 -19 c-16
-10 -25 -13 -22 -7 12 19 -13 12 -31 -9 -20 -22 -43 -26 -44 -7 0 6 -4 2 -9
-10 -6 -14 -21 -24 -44 -29 -20 -3 -36 -10 -36 -16 0 -5 4 -7 9 -3 15 9 25
-16 11 -28 -9 -9 -15 -7 -27 11 -9 12 -22 22 -29 22 -28 0 -15 38 17 49 44 15
48 14 42 -9 -3 -11 0 -20 6 -20 6 0 11 6 11 14 0 8 5 27 11 43 9 24 12 26 22
13 18 -23 36 -23 64 0 14 11 31 20 37 20 6 0 17 4 25 9 13 8 13 12 1 26 -12
14 -10 19 16 40 l29 23 57 -60 c32 -32 63 -56 69 -53z m-1579 8 c9 -10 30 -31
47 -47 17 -16 31 -36 31 -43 0 -8 -27 13 -60 46 -53 53 -60 65 -59 98 l1 38
12 -37 c6 -21 19 -46 28 -55z m1006 45 c-4 -40 -25 -49 -26 -11 0 32 5 43 19
43 6 0 9 -14 7 -32z m282 27 c0 -6 -57 -35 -70 -35 -17 0 -11 28 8 33 24 7 62
8 62 2z m-330 -46 c0 -28 -4 -39 -12 -36 -17 5 -9 77 8 77 2 0 4 -18 4 -41z
m418 29 c-2 -6 -21 -17 -41 -24 -31 -11 -37 -11 -37 1 0 7 12 18 28 23 37 14
54 14 50 0z m-978 -19 c0 -5 -4 -9 -10 -9 -5 0 -10 7 -10 16 0 8 5 12 10 9 6
-3 10 -10 10 -16z m790 8 c0 -13 -40 -37 -60 -37 -31 0 8 33 58 49 1 1 2 -5 2
-12z m-130 -6 c0 -5 -7 -11 -15 -15 -9 -3 -15 0 -15 9 0 8 7 15 15 15 8 0 15
-4 15 -9z m-415 -14 c10 -8 15 -19 11 -25 -11 -18 -22 -14 -34 13 -13 28 -5
32 23 12z m1161 1 c3 -4 -3 -11 -14 -17 -20 -11 -32 -6 -32 14 0 12 35 14 46
3z m-1216 -7 c0 -14 -18 -23 -30 -16 -6 4 -8 11 -5 16 8 12 35 12 35 0z m510
-10 c0 -13 -9 -20 -30 -25 -44 -8 -44 -8 -48 3 -2 6 12 17 30 25 44 19 48 19
48 -3z m-1138 -11 c17 -16 19 -23 10 -32 -9 -9 -12 -8 -12 4 0 9 -7 18 -15 22
-8 3 -15 10 -15 16 0 15 8 12 32 -10z m488 10 c0 -5 -7 -10 -15 -10 -8 0 -15
5 -15 10 0 6 7 10 15 10 8 0 15 -4 15 -10z m88 -27 c-2 -25 -8 -38 -18 -38
-17 0 -21 56 -5 67 20 15 26 7 23 -29z m712 26 c0 -5 -4 -8 -9 -5 -5 3 -12 -1
-15 -10 -4 -11 -14 -15 -31 -12 -13 3 -26 0 -29 -6 -3 -7 -5 -6 -5 2 -1 8 8
16 19 19 11 3 20 8 20 12 0 4 11 8 25 9 14 1 25 -3 25 -9z m-630 -10 c0 -5 -4
-8 -9 -4 -6 3 -15 -4 -21 -15 -12 -22 -30 -27 -30 -7 0 7 10 17 23 23 30 15
37 16 37 3z m710 -4 c0 -8 -4 -15 -10 -15 -5 0 -10 7 -10 15 0 8 5 15 10 15 6
0 10 -7 10 -15z m-1152 -74 c1 -32 0 -32 -19 -15 -23 21 -28 54 -4 34 11 -9
15 -9 15 -1 0 6 -7 14 -15 17 -8 4 -15 13 -15 22 0 32 37 -23 38 -57z m826 54
c-4 -8 -10 -15 -15 -15 -5 0 -9 7 -9 15 0 8 7 15 15 15 9 0 12 -6 9 -15z m122
-11 c-3 -8 1 -14 10 -14 9 0 14 -5 12 -12 -7 -21 -23 -19 -33 4 -6 13 -16 22
-23 21 -19 -4 -14 15 6 20 23 5 34 -2 28 -19z m-181 6 c3 -5 2 -10 -4 -10 -5
0 -13 5 -16 10 -3 6 -2 10 4 10 5 0 13 -4 16 -10z m-932 -26 c11 -14 16 -28
12 -32 -7 -7 -45 34 -45 49 0 16 15 9 33 -17z m1054 -1 c-8 -7 -37 9 -31 19 3
5 12 4 20 -3 8 -6 13 -14 11 -16z m-429 -15 c-4 -46 -28 -49 -28 -4 0 26 4 36
16 36 11 0 14 -8 12 -32z m-50 -15 c-4 -48 -28 -57 -28 -10 0 18 3 37 7 40 16
16 24 4 21 -30z m420 25 c-6 -18 -28 -21 -28 -4 0 9 7 16 16 16 9 0 14 -5 12
-12z m92 -12 c0 -8 -14 -19 -31 -25 -40 -14 -39 -14 -39 2 0 7 12 18 28 24 38
15 42 15 42 -1z m278 2 c-3 -7 -26 -21 -51 -30 -46 -17 -47 -17 -35 2 19 30
94 54 86 28z m302 -39 c0 -21 5 -39 11 -39 5 0 8 -4 4 -10 -8 -14 -41 22 -49
55 -5 18 -3 31 5 36 21 12 29 0 29 -42z m92 34 c9 -10 24 -24 32 -31 9 -7 16
-24 16 -37 0 -21 3 -23 34 -18 l33 5 -5 -51 c-4 -50 10 -87 29 -75 16 9 10 34
-6 28 -10 -4 -15 0 -15 11 0 9 4 14 9 10 5 -3 13 0 17 6 4 6 -1 16 -10 21 -14
8 -15 13 -5 24 10 13 14 12 30 -2 16 -15 19 -15 19 -2 0 9 -7 21 -15 28 -8 7
-15 20 -16 29 0 10 -3 8 -10 -7 -11 -29 -32 -18 -23 11 8 25 35 48 47 40 4 -2
5 -13 2 -22 -3 -10 1 -24 10 -31 8 -7 15 -20 15 -30 0 -10 8 -21 18 -25 14 -6
12 -9 -13 -21 -16 -7 -24 -13 -17 -14 6 0 12 -12 12 -26 0 -22 3 -24 14 -15
11 10 15 8 19 -6 3 -10 5 3 6 30 2 72 21 56 21 -18 0 -49 3 -65 14 -65 8 0 17
-6 20 -12 3 -7 3 11 0 41 -5 42 -3 52 7 49 10 -3 14 -24 14 -69 1 -35 0 -67
-2 -70 -1 -4 -25 16 -52 43 -39 39 -55 49 -77 46 -17 -2 -28 -10 -30 -21 -1
-11 -5 -21 -8 -24 -3 -3 -1 -15 5 -27 9 -19 8 -19 -10 3 -12 13 -21 34 -21 47
0 24 -19 35 -21 12 0 -7 -5 0 -10 17 -5 17 -5 32 0 35 12 7 9 63 -4 72 -5 4
-12 2 -16 -4 -12 -18 -29 2 -30 35 -1 18 -3 24 -6 15 -8 -31 -23 -19 -23 17 0
24 -5 35 -15 35 -8 0 -15 7 -15 15 0 20 12 19 32 -2z m-812 3 c0 -3 -4 -8 -10
-11 -5 -3 -10 -1 -10 4 0 6 5 11 10 11 6 0 10 -2 10 -4z m670 -12 c0 -9 -5
-14 -12 -12 -18 6 -21 28 -4 28 9 0 16 -7 16 -16z m-1130 -8 c0 -18 -17 -29
-30 -21 -8 5 -7 11 1 21 15 18 29 18 29 0z m650 -11 c0 -8 -7 -15 -15 -15 -16
0 -20 12 -8 23 11 12 23 8 23 -8z m-937 -62 c4 -7 24 -28 45 -47 20 -19 34
-37 31 -40 -8 -9 -99 78 -99 94 0 7 -3 10 -7 7 -9 -10 -43 23 -43 41 0 11 9 7
32 -14 18 -16 36 -34 41 -41z m208 55 c0 -10 2 -10 6 0 9 24 23 12 23 -21 0
-27 -5 -35 -29 -43 -25 -10 -28 -9 -24 7 3 11 0 19 -6 19 -6 0 -11 8 -11 18 1
16 1 16 14 0 7 -10 19 -18 26 -18 9 0 8 5 -3 18 -19 21 -22 32 -7 32 6 0 10
-6 11 -12z m587 0 c-6 -18 -28 -21 -28 -4 0 9 7 16 16 16 9 0 14 -5 12 -12z
m262 8 c0 -3 -4 -8 -10 -11 -5 -3 -10 -1 -10 4 0 6 5 11 10 11 6 0 10 -2 10
-4z m-180 -46 c-8 -5 -9 -13 -4 -21 6 -12 5 -12 -9 0 -18 14 -24 37 -8 26 5
-3 13 5 17 17 7 21 8 21 12 4 2 -10 -2 -22 -8 -26z m870 30 c0 -5 -2 -10 -4
-10 -3 0 -8 5 -11 10 -3 6 -1 10 4 10 6 0 11 -4 11 -10z m-1897 -20 c16 -19
23 -40 13 -40 -2 0 -11 -3 -19 -6 -8 -3 -17 2 -20 10 -4 10 -1 13 9 9 7 -3 14
-1 14 5 0 5 -7 12 -15 16 -8 3 -15 10 -15 16 0 16 14 12 33 -10z m467 10 c0
-5 -2 -10 -4 -10 -3 0 -8 5 -11 10 -3 6 -1 10 4 10 6 0 11 -4 11 -10z m660 -4
c0 -8 -7 -16 -15 -20 -15 -5 -21 14 -8 27 11 12 23 8 23 -7z m-692 -8 c-6 -18
-28 -21 -28 -4 0 9 7 16 16 16 9 0 14 -5 12 -12z m132 -1 c0 -15 -68 -38 -76
-25 -3 4 10 15 28 23 41 18 48 18 48 2z m330 1 c0 -7 -4 -19 -9 -26 -6 -11 -9
-9 -14 7 -2 11 -2 22 1 25 10 10 22 6 22 -6z m90 2 c0 -5 -5 -10 -11 -10 -5 0
-7 5 -4 10 3 6 8 10 11 10 2 0 4 -4 4 -10z m-42 -12 c-6 -18 -28 -21 -28 -4 0
9 7 16 16 16 9 0 14 -5 12 -12z m136 -12 c-1 -9 2 -16 8 -16 5 0 6 -4 3 -10
-3 -5 -13 -10 -21 -10 -9 0 -12 5 -8 12 4 7 3 8 -4 4 -13 -8 -17 26 -5 38 11
11 28 0 27 -18z m230 9 c-6 -16 -34 -21 -34 -7 0 13 11 22 26 22 8 0 11 -6 8
-15z m631 -5 c18 -20 15 -38 -4 -25 -15 9 -33 45 -23 45 5 0 17 -9 27 -20z
m-1469 -23 c-3 -12 -5 -25 -5 -28 -1 -3 -7 -6 -14 -6 -10 0 -11 8 -3 33 11 36
28 36 22 1z m789 -7 c0 -18 -6 -35 -12 -37 -9 -3 -13 8 -13 37 0 29 4 40 13
38 6 -3 12 -20 12 -38z m102 13 c4 -11 -26 -27 -35 -19 -2 3 -2 12 2 21 6 18
27 16 33 -2z m-803 -23 c-14 -13 -74 -23 -74 -12 0 13 74 40 79 29 2 -5 -1
-12 -5 -17z m430 15 c-4 -8 -12 -15 -20 -15 -8 0 -14 7 -14 15 0 8 9 15 20 15
13 0 18 -5 14 -15z m226 -18 c0 -46 -31 -75 -58 -55 -10 7 -18 21 -16 31 4 26
12 33 26 19 9 -9 9 -12 -1 -12 -10 0 -11 -3 -2 -13 6 -8 7 -18 3 -22 -4 -5 -1
-5 6 -1 6 4 12 22 12 40 0 18 3 36 7 39 14 15 23 5 23 -26z m-790 8 c-7 -8
-16 -15 -21 -15 -5 0 -9 7 -9 15 0 9 9 15 21 15 18 0 19 -2 9 -15z m520 5 c0
-10 -52 -40 -70 -40 -24 0 -7 28 23 38 43 13 47 14 47 2z m365 0 c3 -6 -1 -13
-10 -16 -19 -8 -30 0 -20 15 8 14 22 14 30 1z m-933 -15 c0 -5 -5 -11 -11 -13
-6 -2 -11 4 -11 13 0 9 5 15 11 13 6 -2 11 -8 11 -13z m428 0 c-7 -8 -16 -15
-21 -15 -5 0 -9 7 -9 15 0 9 9 15 21 15 18 0 19 -2 9 -15z m245 -6 c-4 -5 5
-8 19 -7 15 1 26 6 26 10 0 4 9 8 20 8 13 0 18 -5 14 -15 -4 -8 -15 -15 -25
-15 -10 0 -19 -7 -19 -15 0 -8 -4 -15 -9 -15 -5 0 -12 -7 -15 -16 -3 -8 -2
-13 2 -11 4 3 16 1 27 -3 16 -6 13 -8 -12 -7 -25 0 -33 4 -33 19 0 10 -5 18
-11 18 -8 0 -7 6 2 18 11 13 9 13 -9 -2 -27 -24 -58 -30 -68 -14 -4 7 -3 8 4
4 7 -4 22 3 34 15 21 20 21 21 3 15 -11 -5 -25 -9 -32 -10 -7 -1 -16 -5 -19
-9 -10 -10 -34 -9 -34 1 0 10 122 52 133 45 4 -2 5 -9 2 -14z m-905 -4 c0 -8
-4 -15 -10 -15 -5 0 -10 7 -10 15 0 8 5 15 10 15 6 0 10 -7 10 -15z m190 -6
c0 -5 -4 -9 -10 -9 -5 0 -10 7 -10 16 0 8 5 12 10 9 6 -3 10 -10 10 -16z m507
-14 c-4 -8 -11 -15 -17 -15 -14 0 -13 27 3 33 16 6 21 1 14 -18z m-647 -35 c0
-5 -9 -1 -20 10 -11 11 -20 25 -20 30 0 6 9 1 20 -10 11 -11 20 -24 20 -30z
m174 -14 c11 4 16 1 16 -10 0 -9 -6 -16 -14 -16 -8 0 -18 -5 -22 -11 -4 -8 0
-9 15 -4 26 8 30 -19 4 -29 -20 -8 -35 12 -27 36 3 11 -6 27 -25 44 -17 15
-31 34 -31 43 0 10 12 3 34 -21 23 -25 40 -36 50 -32z m56 49 c0 -8 -7 -15
-15 -15 -16 0 -20 12 -8 23 11 12 23 8 23 -8z m95 -25 c-5 -8 -11 -8 -17 -2
-6 6 -7 16 -3 22 5 8 11 8 17 2 6 -6 7 -16 3 -22z m50 -8 c-3 -4 -10 0 -15 8
-6 9 -5 17 3 22 13 8 24 -19 12 -30z m-373 -62 c3 -19 1 -38 -4 -41 -5 -3 1
-14 12 -24 11 -10 20 -25 20 -33 0 -10 -7 -8 -24 9 -19 19 -24 33 -21 61 3 30
-2 43 -26 67 -40 42 -37 59 5 24 23 -19 35 -39 38 -63z m78 68 c0 -19 -2 -20
-10 -8 -13 19 -13 30 0 30 6 0 10 -10 10 -22z m100 7 c-7 -8 -16 -15 -20 -15
-4 0 -10 7 -14 15 -4 11 2 15 21 15 21 0 24 -2 13 -15z m374 -15 c-5 -4 -24
-11 -43 -15 -45 -10 -38 16 10 31 33 12 52 2 33 -16z m151 21 c-6 -4 -32 -16
-58 -26 -56 -21 -74 -40 -29 -30 36 7 46 -4 32 -39 -6 -17 -17 -26 -30 -26
-16 0 -20 -5 -16 -17 5 -15 -9 -23 -82 -46 -102 -32 -112 -33 -112 -9 0 24 73
60 107 54 6 -2 13 11 15 29 2 18 9 35 17 37 10 3 13 -2 9 -22 -4 -18 -1 -26 8
-26 8 0 14 4 14 9 0 5 13 12 30 16 49 11 48 28 -1 22 -24 -3 -39 -3 -33 -1 7
3 10 13 7 23 -4 16 6 23 54 39 68 23 81 25 68 13z m222 -12 c-4 -16 -3 -18 8
-9 8 7 16 7 19 2 8 -13 -28 -22 -44 -12 -15 9 -6 40 11 40 7 0 9 -9 6 -21z
m-644 -3 c8 -21 -4 -56 -19 -56 -15 0 -17 12 -8 48 7 25 19 29 27 8z m-203
-47 c0 -7 -9 -3 -20 9 -11 12 -20 27 -20 33 0 7 9 3 20 -9 11 -12 20 -27 20
-33z m670 40 c0 -10 -59 -39 -79 -39 -20 0 1 29 27 39 36 13 52 13 52 0z
m-720 -25 c0 -8 -4 -12 -10 -9 -5 3 -10 13 -10 21 0 8 5 12 10 9 6 -3 10 -13
10 -21z m810 12 c0 -12 -47 -36 -71 -36 -21 0 -6 22 24 35 41 18 47 18 47 1z
m1035 4 c3 -5 -1 -10 -9 -10 -9 0 -16 5 -16 10 0 6 4 10 9 10 6 0 13 -4 16
-10z m-1640 -35 c1 -19 -2 -21 -17 -11 -21 13 -24 32 -5 39 17 6 22 -1 22 -28z
m95 20 c-7 -8 -16 -15 -21 -15 -5 0 -9 7 -9 15 0 9 9 15 21 15 18 0 19 -2 9
-15z m50 5 c0 -5 -7 -10 -16 -10 -8 0 -12 5 -9 10 3 6 10 10 16 10 5 0 9 -4 9
-10z m90 1 c0 -14 -18 -23 -30 -16 -6 4 -8 11 -5 16 8 12 35 12 35 0z m100 -1
c0 -11 -70 -43 -78 -35 -6 6 -6 6 38 27 43 21 40 20 40 8z m1300 -38 c0 -12
-4 -12 -20 3 -11 10 -20 25 -20 33 0 12 4 12 20 -3 11 -10 20 -25 20 -33z
m-1452 16 c-4 -27 -28 -36 -28 -10 0 20 8 32 22 32 5 0 8 -10 6 -22z m-308
-39 c0 -24 -4 -38 -10 -34 -5 3 -10 22 -10 41 0 19 5 34 10 34 6 0 10 -18 10
-41z m630 27 c-24 -23 -70 -31 -70 -13 0 15 20 23 65 26 17 1 17 -1 5 -13z
m-410 -5 c0 -13 -26 -32 -33 -24 -8 7 11 33 24 33 5 0 9 -4 9 -9z m150 4 c0
-8 -73 -36 -78 -30 -3 2 10 11 29 19 36 16 49 19 49 11z m1215 -55 c-4 -47 -4
-47 -15 -30 -5 8 -7 23 -4 33 3 9 1 17 -5 17 -15 0 -14 27 2 33 17 6 25 -13
22 -53z m60 22 c3 -9 -1 -12 -13 -8 -16 5 -18 2 -14 -23 2 -16 -1 -32 -7 -35
-7 -5 -11 10 -10 48 2 50 3 54 20 43 10 -6 21 -18 24 -25z m-1615 -29 c0 -13
5 -23 11 -23 6 0 9 -9 7 -20 -2 -12 -7 -19 -13 -18 -5 2 -8 11 -7 21 2 9 -2
17 -7 17 -6 0 -11 17 -11 38 0 27 3 33 10 22 5 -8 10 -25 10 -37z m140 35 c0
-25 -12 -58 -21 -58 -5 0 -9 16 -9 35 0 24 5 35 15 35 8 0 15 -6 15 -12z m228
0 c-6 -18 -28 -21 -28 -4 0 9 7 16 16 16 9 0 14 -5 12 -12z m-442 -15 c19 -26
19 -49 -1 -33 -11 9 -15 9 -15 1 0 -6 7 -14 15 -17 8 -4 15 -14 15 -23 0 -14
-2 -14 -10 -1 -5 8 -12 11 -16 7 -4 -4 1 -16 11 -27 20 -23 13 -39 -9 -21 -9
8 -14 32 -14 71 1 33 3 60 6 60 3 0 11 -8 18 -17z m163 -9 c-9 -11 -15 -12
-23 -4 -8 8 -7 13 4 20 20 12 33 1 19 -16z m241 5 c0 -5 -10 -9 -21 -9 -18 0
-19 2 -9 15 12 15 30 12 30 -6z m-290 -13 c0 -3 -4 -8 -10 -11 -5 -3 -10 -1
-10 4 0 6 5 11 10 11 6 0 10 -2 10 -4z m-221 -58 c1 -10 -5 -18 -13 -18 -8 0
-13 8 -11 18 2 9 4 26 5 37 1 20 1 20 10 0 5 -11 9 -28 9 -37z m1801 23 c0
-17 -4 -33 -10 -36 -6 -4 -10 8 -10 29 0 20 5 36 10 36 6 0 10 -13 10 -29z
m-1530 10 c0 -12 -20 -25 -27 -18 -7 7 6 27 18 27 5 0 9 -4 9 -9z m40 -35 c0
-11 -33 -27 -55 -26 -14 0 -5 17 16 27 31 16 39 16 39 -1z m48 -36 c3 -26 0
-31 -12 -27 -8 3 -16 1 -19 -6 -2 -6 -6 -4 -10 6 -4 10 -2 16 6 14 7 -1 11 9
10 26 -3 41 21 29 25 -13z m-130 8 c-6 -18 -28 -21 -28 -4 0 9 7 16 16 16 9 0
14 -5 12 -12z m-355 -49 c-6 -6 -19 -9 -29 -6 -17 3 -16 5 6 14 28 12 39 8 23
-8z m47 11 c0 -5 -7 -10 -15 -10 -8 0 -15 5 -15 10 0 6 7 10 15 10 8 0 15 -4
15 -10z m283 -5 c4 -8 2 -17 -3 -20 -6 -4 -10 -4 -10 -1 0 2 -3 11 -6 20 -3 9
-2 16 4 16 5 0 12 -7 15 -15z m103 -32 c-11 -11 -19 6 -11 24 8 17 8 17 12 0
3 -10 2 -21 -1 -24z"/>
<path d="M1125 670 c-3 -6 1 -7 9 -4 18 7 21 14 7 14 -6 0 -13 -4 -16 -10z"/>
<path d="M1110 645 c0 -18 24 -75 32 -75 13 0 0 52 -17 69 -8 8 -15 11 -15 6z"/>
<path d="M1110 552 c0 -11 12 -22 32 -30 l31 -11 -28 29 c-34 35 -35 36 -35
12z"/>
<path d="M1080 514 c0 -3 14 -19 31 -36 17 -17 28 -37 25 -45 -3 -8 -1 -11 4
-8 18 11 10 32 -25 64 -19 17 -35 29 -35 25z"/>
<path d="M1147 486 c10 -13 19 -23 21 -21 7 6 -19 45 -29 45 -5 0 -2 -11 8
-24z"/>
<path d="M1680 640 c-9 -6 -10 -10 -3 -10 6 0 15 5 18 10 8 12 4 12 -15 0z"/>
<path d="M1620 620 c0 -5 5 -10 10 -10 6 0 10 5 10 10 0 6 -4 10 -10 10 -5 0
-10 -4 -10 -10z"/>
<path d="M1575 610 c-8 -13 5 -13 25 0 13 8 13 10 -2 10 -9 0 -20 -4 -23 -10z"/>
<path d="M1615 510 c-40 -15 -46 -20 -31 -26 10 -4 21 -2 25 4 3 5 27 13 53
17 39 6 49 4 54 -9 9 -23 24 -20 24 5 0 14 -5 19 -15 16 -8 -4 -17 -2 -20 3
-9 14 -32 11 -90 -10z"/>
<path d="M1631 439 c-28 -11 -26 -14 14 -23 23 -5 27 -4 15 5 -12 9 -11 10 6
6 13 -3 21 1 21 9 0 16 -21 17 -56 3z"/>
<path d="M1576 405 c4 -8 10 -15 15 -15 5 0 9 7 9 15 0 8 -7 15 -15 15 -9 0
-12 -6 -9 -15z"/>
<path d="M1546 363 c-6 -14 -5 -15 5 -6 7 7 10 15 7 18 -3 3 -9 -2 -12 -12z"/>
<path d="M2305 590 c-3 -5 -1 -10 4 -10 6 0 11 5 11 10 0 6 -2 10 -4 10 -3 0
-8 -4 -11 -10z"/>
<path d="M2525 570 c-3 -5 -1 -10 4 -10 6 0 11 5 11 10 0 6 -2 10 -4 10 -3 0
-8 -4 -11 -10z"/>
<path d="M2280 561 c0 -5 5 -13 10 -16 6 -3 10 -2 10 4 0 5 -4 13 -10 16 -5 3
-10 2 -10 -4z"/>
<path d="M1345 1450 c-3 -5 -2 -10 4 -10 5 0 13 5 16 10 3 6 2 10 -4 10 -5 0
-13 -4 -16 -10z"/>
<path d="M1610 1440 c0 -5 7 -10 15 -10 8 0 15 5 15 10 0 6 -7 10 -15 10 -8 0
-15 -4 -15 -10z"/>
<path d="M1780 1446 c0 -2 7 -9 15 -16 13 -11 14 -10 9 4 -5 14 -24 23 -24 12z"/>
<path d="M1275 1430 c-3 -5 1 -10 10 -10 9 0 13 5 10 10 -3 6 -8 10 -10 10 -2
0 -7 -4 -10 -10z"/>
<path d="M1448 1433 c7 -3 16 -2 19 1 4 3 -2 6 -13 5 -11 0 -14 -3 -6 -6z"/>
<path d="M2965 1430 c-3 -5 -1 -10 4 -10 6 0 11 5 11 10 0 6 -2 10 -4 10 -3 0
-8 -4 -11 -10z"/>
<path d="M1545 1420 c3 -5 10 -10 16 -10 5 0 9 5 9 10 0 6 -7 10 -16 10 -8 0
-12 -4 -9 -10z"/>
<path d="M308 1397 c-61 -22 -70 -31 -38 -40 11 -3 20 -1 20 5 0 6 7 8 15 4 8
-3 15 0 15 5 0 6 9 9 20 6 11 -3 18 -1 15 3 -3 5 10 12 30 16 19 3 35 10 35
15 0 15 -51 8 -112 -14z"/>
<path d="M1380 1409 c0 -5 5 -7 10 -4 6 3 10 8 10 11 0 2 -4 4 -10 4 -5 0 -10
-5 -10 -11z"/>
<path d="M440 1406 c0 -2 7 -7 16 -10 8 -3 12 -2 9 4 -6 10 -25 14 -25 6z"/>
<path d="M1480 1400 c0 -5 5 -10 10 -10 6 0 10 5 10 10 0 6 -4 10 -10 10 -5 0
-10 -4 -10 -10z"/>
<path d="M1655 1400 c4 -6 11 -8 16 -5 14 9 11 15 -7 15 -8 0 -12 -5 -9 -10z"/>
<path d="M1310 1390 c0 -5 5 -10 10 -10 6 0 10 5 10 10 0 6 -4 10 -10 10 -5 0
-10 -4 -10 -10z"/>
<path d="M1415 1380 c-3 -5 1 -10 10 -10 9 0 13 5 10 10 -3 6 -8 10 -10 10 -2
0 -7 -4 -10 -10z"/>
<path d="M1588 1383 c7 -3 16 -2 19 1 4 3 -2 6 -13 5 -11 0 -14 -3 -6 -6z"/>
<path d="M1245 1370 c4 -6 11 -8 16 -5 14 9 11 15 -7 15 -8 0 -12 -5 -9 -10z"/>
<path d="M1860 1369 c0 -5 5 -7 10 -4 6 3 10 8 10 11 0 2 -4 4 -10 4 -5 0 -10
-5 -10 -11z"/>
<path d="M0 1365 c0 -5 5 -17 10 -25 5 -8 10 -10 10 -5 0 6 -5 17 -10 25 -5 8
-10 11 -10 5z"/>
<path d="M1350 1360 c0 -5 5 -10 10 -10 6 0 10 5 10 10 0 6 -4 10 -10 10 -5 0
-10 -4 -10 -10z"/>
<path d="M1520 1360 c0 -5 5 -10 10 -10 6 0 10 5 10 10 0 6 -4 10 -10 10 -5 0
-10 -4 -10 -10z"/>
<path d="M1180 1350 c0 -5 5 -10 10 -10 6 0 10 5 10 10 0 6 -4 10 -10 10 -5 0
-10 -4 -10 -10z"/>
<path d="M1285 1340 c-3 -5 1 -10 10 -10 9 0 13 5 10 10 -3 6 -8 10 -10 10 -2
0 -7 -4 -10 -10z"/>
<path d="M1455 1340 c4 -6 11 -8 16 -5 14 9 11 15 -7 15 -8 0 -12 -5 -9 -10z"/>
<path d="M1115 1330 c3 -5 8 -10 11 -10 2 0 4 5 4 10 0 6 -5 10 -11 10 -5 0
-7 -4 -4 -10z"/>
<path d="M133 1317 c-3 -5 0 -14 6 -20 8 -8 11 -8 11 1 0 7 7 12 15 12 8 0 15
4 15 8 0 11 -40 10 -47 -1z"/>
<path d="M948 1323 c7 -3 16 -2 19 1 4 3 -2 6 -13 5 -11 0 -14 -3 -6 -6z"/>
<path d="M1220 1321 c0 -5 7 -11 14 -14 10 -4 13 -1 9 9 -6 15 -23 19 -23 5z"/>
<path d="M1380 1313 c-13 -15 -12 -16 4 -10 10 4 20 7 22 7 2 0 4 5 4 10 0 15
-13 12 -30 -7z"/>
<path d="M1050 1310 c0 -5 5 -10 10 -10 6 0 10 5 10 10 0 6 -4 10 -10 10 -5 0
-10 -4 -10 -10z"/>
<path d="M1485 1303 c-11 -8 -32 -13 -46 -11 -23 4 -25 2 -16 -13 6 -10 14
-15 17 -11 3 4 10 8 15 9 22 3 66 31 58 36 -4 3 -17 -1 -28 -10z"/>
<path d="M1156 1301 c-4 -7 -5 -15 -2 -18 9 -9 19 4 14 18 -4 11 -6 11 -12 0z"/>
<path d="M1320 1300 c0 -5 5 -10 10 -10 6 0 10 5 10 10 0 6 -4 10 -10 10 -5 0
-10 -4 -10 -10z"/>
<path d="M1940 1300 c0 -5 5 -10 11 -10 5 0 7 5 4 10 -3 6 -8 10 -11 10 -2 0
-4 -4 -4 -10z"/>
<path d="M980 1290 c0 -5 7 -10 16 -10 8 0 12 5 9 10 -3 6 -10 10 -16 10 -5 0
-9 -4 -9 -10z"/>
<path d="M99 1286 c0 -1 -2 -11 -3 -23 -2 -16 5 -25 26 -32 15 -6 28 -15 28
-22 0 -15 136 -147 161 -154 10 -4 19 -10 19 -14 0 -6 25 -39 73 -95 14 -16
18 -34 15 -73 -3 -54 0 -61 19 -42 7 7 8 21 2 42 -5 17 -6 33 -4 36 3 2 5 -1
5 -7 0 -7 6 -12 13 -12 10 0 97 -75 97 -84 0 -9 -61 2 -75 14 -12 10 -15 10
-15 -3 0 -21 32 -38 50 -27 9 6 26 -6 56 -38 l42 -47 0 43 c0 24 -2 41 -4 39
-2 -2 -33 26 -69 62 -176 178 -435 438 -436 437z m481 -508 c0 -13 -23 -5 -28
10 -2 7 2 10 12 6 9 -3 16 -11 16 -16z"/>
<path d="M810 1280 c0 -5 5 -10 10 -10 6 0 10 5 10 10 0 6 -4 10 -10 10 -5 0
-10 -4 -10 -10z"/>
<path d="M1250 1280 c0 -5 7 -10 16 -10 8 0 12 5 9 10 -3 6 -10 10 -16 10 -5
0 -9 -4 -9 -10z"/>
<path d="M920 1270 c0 -5 5 -10 11 -10 5 0 7 5 4 10 -3 6 -8 10 -11 10 -2 0
-4 -4 -4 -10z"/>
<path d="M1088 1273 c7 -3 16 -2 19 1 4 3 -2 6 -13 5 -11 0 -14 -3 -6 -6z"/>
<path d="M1377 1273 c-17 -3 -25 -9 -21 -15 5 -7 1 -9 -9 -5 -24 9 -65 -7 -47
-18 9 -5 15 -4 18 3 2 7 8 12 13 12 6 0 7 -4 4 -10 -7 -11 23 -2 42 13 7 5 19
7 27 4 10 -4 13 -1 9 9 -3 7 -6 13 -7 13 0 -1 -13 -4 -29 -6z"/>
<path d="M890 1261 c0 -6 4 -13 10 -16 6 -3 7 1 4 9 -7 18 -14 21 -14 7z"/>
<path d="M1190 1260 c0 -6 7 -10 15 -10 8 0 15 2 15 4 0 2 -7 6 -15 10 -8 3
-15 1 -15 -4z"/>
<path d="M1445 1236 c-64 -21 -94 -34 -83 -38 9 -4 54 6 100 23 45 16 84 29
85 29 1 0 9 -7 18 -16 9 -9 18 -14 21 -11 5 5 -32 49 -38 46 -2 -1 -48 -15
-103 -33z"/>
<path d="M1020 1249 c0 -5 5 -7 10 -4 6 3 10 8 10 11 0 2 -4 4 -10 4 -5 0 -10
-5 -10 -11z"/>
<path d="M1125 1240 c-3 -5 1 -10 10 -10 9 0 13 5 10 10 -3 6 -8 10 -10 10 -2
0 -7 -4 -10 -10z"/>
<path d="M2550 1240 c0 -5 5 -10 10 -10 6 0 10 5 10 10 0 6 -4 10 -10 10 -5 0
-10 -4 -10 -10z"/>
<path d="M950 1230 c0 -5 5 -10 10 -10 6 0 10 5 10 10 0 6 -4 10 -10 10 -5 0
-10 -4 -10 -10z"/>
<path d="M1237 1233 c-4 -3 -7 -11 -7 -17 0 -6 5 -5 12 2 6 6 9 14 7 17 -3 3
-9 2 -12 -2z"/>
<path d="M2210 1230 c0 -5 7 -10 16 -10 8 0 12 5 9 10 -3 6 -10 10 -16 10 -5
0 -9 -4 -9 -10z"/>
<path d="M220 1219 c0 -5 5 -7 10 -4 6 3 10 8 10 11 0 2 -4 4 -10 4 -5 0 -10
-5 -10 -11z"/>
<path d="M1680 1220 c0 -5 5 -10 11 -10 5 0 7 5 4 10 -3 6 -8 10 -11 10 -2 0
-4 -4 -4 -10z"/>
<path d="M2069 1217 c9 -11 10 -17 2 -17 -6 0 -11 -5 -11 -11 0 -8 4 -8 14 0
17 14 29 0 20 -22 -3 -8 -1 -18 4 -21 5 -3 9 7 10 22 0 18 -8 33 -26 47 -21
15 -24 15 -13 2z"/>
<path d="M2485 1220 c3 -5 8 -10 11 -10 2 0 4 5 4 10 0 6 -5 10 -11 10 -5 0
-7 -4 -4 -10z"/>
<path d="M2648 1223 c7 -3 16 -2 19 1 4 3 -2 6 -13 5 -11 0 -14 -3 -6 -6z"/>
<path d="M885 1210 c-3 -5 1 -10 9 -10 9 0 16 5 16 10 0 6 -4 10 -9 10 -6 0
-13 -4 -16 -10z"/>
<path d="M1270 1211 c0 -7 19 -30 41 -52 48 -46 45 -67 -4 -23 l-32 29 29 -33
c19 -20 36 -30 47 -27 18 6 44 -19 35 -34 -4 -5 -1 -13 5 -17 8 -4 9 -3 5 4
-13 21 7 13 36 -15 22 -21 31 -24 40 -15 7 7 20 12 29 12 13 0 17 7 16 27 -1
20 5 30 23 40 l25 13 -27 0 c-16 0 -27 -3 -25 -7 2 -9 -6 -13 -29 -13 -9 0
-12 5 -8 12 5 7 3 8 -6 3 -8 -5 -11 -4 -6 3 8 13 76 37 94 34 6 -2 12 5 12 14
0 11 -5 14 -17 9 -10 -3 -42 -14 -70 -23 -29 -9 -53 -19 -53 -22 0 -3 16 -16
35 -29 19 -13 35 -28 35 -33 0 -11 -43 -28 -50 -19 -38 44 -180 172 -180 162z"/>
<path d="M1494 1210 c-5 -5 -19 -11 -31 -13 -13 -2 -26 -6 -29 -10 -4 -4 -16
-7 -26 -7 -10 0 -18 -4 -18 -10 0 -13 16 -13 41 1 29 15 59 22 97 22 34 1 42
11 16 21 -22 9 -39 7 -50 -4z"/>
<path d="M1160 1199 c0 -5 5 -7 10 -4 6 3 10 8 10 11 0 2 -4 4 -10 4 -5 0 -10
-5 -10 -11z"/>
<path d="M820 1190 c0 -5 5 -10 11 -10 5 0 7 5 4 10 -3 6 -8 10 -11 10 -2 0
-4 -4 -4 -10z"/>
<path d="M998 1193 c7 -3 16 -2 19 1 4 3 -2 6 -13 5 -11 0 -14 -3 -6 -6z"/>
<path d="M1096 1185 c-3 -8 -1 -15 4 -15 6 0 10 7 10 15 0 8 -2 15 -4 15 -2 0
-6 -7 -10 -15z"/>
<path d="M1608 1193 c7 -3 16 -2 19 1 4 3 -2 6 -13 5 -11 0 -14 -3 -6 -6z"/>
<path d="M926 1181 c-4 -7 -5 -15 -2 -18 9 -9 19 4 14 18 -4 11 -6 11 -12 0z"/>
<path d="M1177 1183 c-4 -3 18 -30 49 -60 53 -49 76 -64 73 -45 -2 14 -116
112 -122 105z"/>
<path d="M1715 1180 c-3 -5 -1 -10 4 -10 6 0 11 5 11 10 0 6 -2 10 -4 10 -3 0
-8 -4 -11 -10z"/>
<path d="M1034 1166 c-16 -13 -17 -17 -5 -28 12 -11 13 -11 6 1 -6 10 -4 13 6
9 10 -4 15 1 15 13 0 11 -1 19 -1 19 -1 0 -10 -6 -21 -14z"/>
<path d="M2188 1173 c7 -3 16 -2 19 1 4 3 -2 6 -13 5 -11 0 -14 -3 -6 -6z"/>
<path d="M1650 1160 c0 -5 5 -10 10 -10 6 0 10 5 10 10 0 6 -4 10 -10 10 -5 0
-10 -4 -10 -10z"/>
<path d="M2122 1159 c2 -7 10 -15 17 -17 8 -3 12 1 9 9 -2 7 -10 15 -17 17 -8
3 -12 -1 -9 -9z"/>
<path d="M2290 1160 c0 -5 5 -10 10 -10 6 0 10 5 10 10 0 6 -4 10 -10 10 -5 0
-10 -4 -10 -10z"/>
<path d="M860 1149 c0 -5 5 -7 10 -4 6 3 10 8 10 11 0 2 -4 4 -10 4 -5 0 -10
-5 -10 -11z"/>
<path d="M1130 1140 c0 -5 5 -10 10 -10 6 0 10 5 10 10 0 6 -4 10 -10 10 -5 0
-10 -4 -10 -10z"/>
<path d="M1580 1140 c0 -5 5 -10 10 -10 6 0 10 5 10 10 0 6 -4 10 -10 10 -5 0
-10 -4 -10 -10z"/>
<path d="M966 1132 c6 -4 13 -11 15 -17 2 -5 45 -50 96 -98 85 -83 93 -88 115
-76 12 7 25 13 28 13 3 1 4 4 3 9 -2 4 2 7 9 7 6 0 9 3 6 6 -4 3 -21 -2 -38
-11 l-33 -17 -96 96 c-53 53 -101 96 -106 96 -6 0 -5 -4 1 -8z"/>
<path d="M1071 1137 c2 -1 12 -9 22 -16 15 -12 17 -12 11 3 -3 9 -13 16 -22
16 -8 0 -13 -1 -11 -3z"/>
<path d="M2142 1132 c-9 -6 -5 -12 14 -21 31 -14 42 -8 24 14 -14 17 -20 18
-38 7z"/>
<path d="M2490 1130 c0 -5 7 -10 16 -10 8 0 12 5 9 10 -3 6 -10 10 -16 10 -5
0 -9 -4 -9 -10z"/>
<path d="M895 1121 c-3 -5 -1 -12 5 -16 5 -3 10 1 10 9 0 18 -6 21 -15 7z"/>
<path d="M1176 1123 c-13 -14 -5 -24 15 -18 13 5 19 3 15 -3 -3 -5 3 -12 15
-15 17 -5 18 -3 8 9 -17 20 -45 35 -53 27z"/>
<path d="M1685 1120 c3 -5 8 -10 11 -10 2 0 4 5 4 10 0 6 -5 10 -11 10 -5 0
-7 -4 -4 -10z"/>
<path d="M1620 1100 c0 -5 5 -10 10 -10 6 0 10 5 10 10 0 6 -4 10 -10 10 -5 0
-10 -4 -10 -10z"/>
<path d="M926 1085 c4 -8 12 -15 20 -15 20 0 17 7 -6 20 -16 9 -18 8 -14 -5z"/>
<path d="M2187 1094 c-3 -4 4 -15 16 -25 13 -11 17 -18 9 -19 -7 0 -11 -4 -8
-9 4 -5 0 -11 -6 -14 -7 -3 1 -3 17 -2 17 2 37 4 45 4 9 1 1 14 -20 36 -36 36
-43 39 -53 29z"/>
<path d="M2370 1090 c0 -5 5 -10 11 -10 5 0 7 5 4 10 -3 6 -8 10 -11 10 -2 0
-4 -4 -4 -10z"/>
<path d="M2535 1090 c3 -5 8 -10 11 -10 2 0 4 5 4 10 0 6 -5 10 -11 10 -5 0
-7 -4 -4 -10z"/>
<path d="M1120 1068 c14 -14 30 -24 35 -22 6 2 52 -9 104 -25 73 -23 99 -28
119 -20 30 11 76 3 67 -11 -4 -6 5 -6 21 0 15 6 34 8 41 6 8 -4 11 -1 7 5 -4
6 -19 9 -35 5 -21 -4 -35 0 -48 13 -11 11 -23 15 -28 10 -17 -17 -58 -12 -165
20 -59 17 -116 34 -125 38 -13 4 -11 -1 7 -19z"/>
<path d="M1550 1080 c0 -5 7 -10 16 -10 8 0 12 5 9 10 -3 6 -10 10 -16 10 -5
0 -9 -4 -9 -10z"/>
<path d="M2640 1080 c0 -5 5 -10 11 -10 5 0 7 5 4 10 -3 6 -8 10 -11 10 -2 0
-4 -4 -4 -10z"/>
<path d="M2470 1069 c0 -5 5 -7 10 -4 6 3 10 8 10 11 0 2 -4 4 -10 4 -5 0 -10
-5 -10 -11z"/>
<path d="M2570 1060 c0 -5 5 -10 11 -10 5 0 7 5 4 10 -3 6 -8 10 -11 10 -2 0
-4 -4 -4 -10z"/>
<path d="M1015 1040 c10 -11 20 -20 23 -20 3 0 -3 9 -13 20 -10 11 -20 20 -23
20 -3 0 3 -9 13 -20z"/>
<path d="M1765 1050 c-3 -5 -1 -10 4 -10 6 0 11 5 11 10 0 6 -2 10 -4 10 -3 0
-8 -4 -11 -10z"/>
<path d="M2410 1050 c0 -5 5 -10 10 -10 6 0 10 5 10 10 0 6 -4 10 -10 10 -5 0
-10 -4 -10 -10z"/>
<path d="M975 1040 c3 -5 8 -10 11 -10 2 0 4 5 4 10 0 6 -5 10 -11 10 -5 0 -7
-4 -4 -10z"/>
<path d="M1590 1040 c0 -5 5 -10 10 -10 6 0 10 5 10 10 0 6 -4 10 -10 10 -5 0
-10 -4 -10 -10z"/>
<path d="M2675 1040 c-3 -5 -1 -10 4 -10 6 0 11 5 11 10 0 6 -2 10 -4 10 -3 0
-8 -4 -11 -10z"/>
<path d="M1700 1030 c0 -5 5 -10 11 -10 5 0 7 5 4 10 -3 6 -8 10 -11 10 -2 0
-4 -4 -4 -10z"/>
<path d="M2330 1032 c0 -5 7 -9 15 -9 8 0 15 4 15 9 0 4 -7 8 -15 8 -8 0 -15
-4 -15 -8z"/>
<path d="M1176 1009 c20 -23 24 -23 24 -5 0 7 -9 16 -21 19 -20 5 -20 5 -3
-14z"/>
<path d="M1520 1020 c0 -5 7 -10 15 -10 8 0 15 5 15 10 0 6 -7 10 -15 10 -8 0
-15 -4 -15 -10z"/>
<path d="M2129 1018 c14 -19 32 -15 30 5 0 8 -2 8 -6 -1 -4 -10 -8 -10 -21 0
-15 12 -16 11 -3 -4z"/>
<path d="M2084 1004 c-18 -14 -18 -15 4 -4 12 6 22 13 22 15 0 8 -5 6 -26 -11z"/>
<path d="M2448 1013 c7 -3 16 -2 19 1 4 3 -2 6 -13 5 -11 0 -14 -3 -6 -6z"/>
<path d="M1015 1000 c4 -6 11 -8 16 -5 14 9 11 15 -7 15 -8 0 -12 -5 -9 -10z"/>
<path d="M1635 1000 c3 -5 8 -10 11 -10 2 0 4 5 4 10 0 6 -5 10 -11 10 -5 0
-7 -4 -4 -10z"/>
<path d="M2550 1000 c0 -5 5 -10 10 -10 6 0 10 5 10 10 0 6 -4 10 -10 10 -5 0
-10 -4 -10 -10z"/>
<path d="M1255 986 c22 -7 42 -12 44 -10 9 8 -6 14 -45 18 l-39 5 40 -13z"/>
<path d="M1735 990 c3 -5 11 -10 16 -10 6 0 7 5 4 10 -3 6 -11 10 -16 10 -6 0
-7 -4 -4 -10z"/>
<path d="M1046 977 c3 -10 9 -15 12 -12 3 3 0 11 -7 18 -10 9 -11 8 -5 -6z"/>
<path d="M1387 979 c-11 -6 -32 -8 -48 -5 -27 5 -40 -6 -21 -18 12 -7 92 15
92 25 0 11 -1 11 -23 -2z"/>
<path d="M1565 980 c3 -5 8 -10 11 -10 2 0 4 5 4 10 0 6 -5 10 -11 10 -5 0 -7
-4 -4 -10z"/>
<path d="M2015 980 c-3 -5 -2 -10 4 -10 5 0 13 5 16 10 3 6 2 10 -4 10 -5 0
-13 -4 -16 -10z"/>
<path d="M2321 974 c0 -11 3 -14 6 -6 3 7 2 16 -1 19 -3 4 -6 -2 -5 -13z"/>
<path d="M2485 980 c-3 -5 -1 -10 4 -10 6 0 11 5 11 10 0 6 -2 10 -4 10 -3 0
-8 -4 -11 -10z"/>
<path d="M455 970 c3 -5 8 -10 11 -10 2 0 4 5 4 10 0 6 -5 10 -11 10 -5 0 -7
-4 -4 -10z"/>
<path d="M1086 967 c3 -10 9 -15 12 -12 3 3 0 11 -7 18 -10 9 -11 8 -5 -6z"/>
<path d="M1675 970 c-3 -5 -1 -10 4 -10 6 0 11 5 11 10 0 6 -2 10 -4 10 -3 0
-8 -4 -11 -10z"/>
<path d="M1500 960 c0 -5 5 -10 11 -10 5 0 7 5 4 10 -3 6 -8 10 -11 10 -2 0
-4 -4 -4 -10z"/>
<path d="M1950 960 c0 -5 5 -10 11 -10 5 0 7 5 4 10 -3 6 -8 10 -11 10 -2 0
-4 -4 -4 -10z"/>
<path d="M2416 955 c4 -8 10 -12 15 -9 11 6 2 24 -11 24 -5 0 -7 -7 -4 -15z"/>
<path d="M2700 950 c0 -5 5 -10 11 -10 5 0 7 5 4 10 -3 6 -8 10 -11 10 -2 0
-4 -4 -4 -10z"/>
<path d="M1129 927 c26 -28 31 -32 31 -19 0 4 -13 16 -28 26 l-27 19 24 -26z"/>
<path d="M1260 934 c0 -8 5 -12 10 -9 6 4 8 11 5 16 -9 14 -15 11 -15 -7z"/>
<path d="M1435 940 c-3 -5 -1 -10 4 -10 6 0 11 5 11 10 0 6 -2 10 -4 10 -3 0
-8 -4 -11 -10z"/>
<path d="M1874 935 c-10 -8 -14 -14 -9 -15 15 0 40 18 34 24 -3 3 -14 -1 -25
-9z"/>
<path d="M2525 940 c3 -5 8 -10 11 -10 2 0 4 5 4 10 0 6 -5 10 -11 10 -5 0 -7
-4 -4 -10z"/>
<path d="M1090 930 c0 -5 5 -10 11 -10 5 0 7 5 4 10 -3 6 -8 10 -11 10 -2 0
-4 -4 -4 -10z"/>
<path d="M1363 925 c0 -8 4 -15 9 -15 4 0 8 4 8 9 0 6 -4 12 -8 15 -5 3 -9 -1
-9 -9z"/>
<path d="M1710 930 c0 -5 5 -10 11 -10 5 0 7 5 4 10 -3 6 -8 10 -11 10 -2 0
-4 -4 -4 -10z"/>
<path d="M1535 920 c-3 -6 1 -7 9 -4 18 7 21 14 7 14 -6 0 -13 -4 -16 -10z"/>
<path d="M2460 920 c0 -5 5 -10 10 -10 6 0 10 5 10 10 0 6 -4 10 -10 10 -5 0
-10 -4 -10 -10z"/>
<path d="M1185 910 c-3 -5 1 -10 9 -10 9 0 16 5 16 10 0 6 -4 10 -9 10 -6 0
-13 -4 -16 -10z"/>
<path d="M1640 910 c0 -5 5 -10 10 -10 6 0 10 5 10 10 0 6 -4 10 -10 10 -5 0
-10 -4 -10 -10z"/>
<path d="M1818 913 c7 -3 16 -2 19 1 4 3 -2 6 -13 5 -11 0 -14 -3 -6 -6z"/>
<path d="M386 896 c3 -8 1 -17 -5 -21 -6 -3 -14 0 -17 8 -6 17 -39 11 -161
-28 -43 -14 -103 -33 -133 -42 -70 -22 -79 -29 -41 -35 16 -2 29 0 28 5 -3 12
60 30 84 24 10 -3 17 0 16 5 -1 6 13 15 32 20 39 11 51 0 51 -45 0 -16 4 -26
10 -22 5 3 7 12 4 19 -6 17 12 31 21 16 11 -17 25 -11 25 11 0 34 25 16 26
-19 1 -22 -4 -32 -14 -32 -9 0 -23 -6 -31 -14 -9 -8 -29 -16 -46 -18 -29 -3
-30 -1 -27 31 1 19 7 41 14 48 8 10 5 13 -15 13 -14 0 -28 -7 -31 -16 -3 -8
-2 -12 3 -9 6 3 10 -13 9 -35 0 -27 -5 -40 -14 -40 -8 0 -14 -4 -14 -8 0 -4
-10 -8 -22 -9 -34 -3 -98 -25 -98 -34 0 -5 -7 -6 -15 -3 -9 4 -18 -1 -21 -10
-10 -25 0 -28 42 -12 22 8 48 17 59 21 11 4 27 9 35 10 40 5 160 47 160 55 0
6 12 10 26 10 14 0 23 4 20 9 -3 4 5 6 18 4 19 -4 27 2 39 26 l15 30 -28 -5
c-21 -5 -31 0 -47 20 -12 14 -28 26 -37 26 -9 0 -16 5 -16 10 0 13 27 13 35 0
3 -5 12 -7 19 -4 7 3 19 -2 26 -11 20 -24 27 -18 28 25 1 22 -2 40 -8 40 -5 0
-7 -6 -4 -14z m-106 -51 c0 -8 -9 -15 -20 -15 -20 0 -26 11 -13 23 12 13 33 7
33 -8z m90 -59 c0 -11 -19 -15 -25 -6 -3 5 1 10 9 10 9 0 16 -2 16 -4z"/>
<path d="M530 901 c0 -5 7 -15 17 -22 15 -13 15 -12 4 9 -12 23 -21 28 -21 13z"/>
<path d="M1300 894 c0 -8 5 -12 10 -9 6 4 8 11 5 16 -9 14 -15 11 -15 -7z"/>
<path d="M1470 900 c0 -5 5 -10 10 -10 6 0 10 5 10 10 0 6 -4 10 -10 10 -5 0
-10 -4 -10 -10z"/>
<path d="M1865 900 c3 -5 11 -10 16 -10 6 0 7 5 4 10 -3 6 -11 10 -16 10 -6 0
-7 -4 -4 -10z"/>
<path d="M1125 890 c3 -5 8 -10 11 -10 2 0 4 5 4 10 0 6 -5 10 -11 10 -5 0 -7
-4 -4 -10z"/>
<path d="M1758 893 c7 -3 16 -2 19 1 4 3 -2 6 -13 5 -11 0 -14 -3 -6 -6z"/>
<path d="M1827 893 c-10 -10 -8 -23 4 -23 5 0 8 4 5 9 -4 5 0 12 6 14 7 3 8 6
2 6 -6 1 -14 -2 -17 -6z"/>
<path d="M1230 880 c0 -5 5 -10 11 -10 5 0 7 5 4 10 -3 6 -8 10 -11 10 -2 0
-4 -4 -4 -10z"/>
<path d="M1400 880 c0 -5 5 -10 10 -10 6 0 10 5 10 10 0 6 -4 10 -10 10 -5 0
-10 -4 -10 -10z"/>
<path d="M1676 877 c3 -10 9 -15 12 -12 3 3 0 11 -7 18 -10 9 -11 8 -5 -6z"/>
<path d="M1750 872 c-44 -17 -69 -45 -30 -35 11 3 18 9 15 13 -7 11 39 21 62
14 13 -4 15 -3 4 4 -11 8 -11 10 0 15 35 14 -11 4 -51 -11z"/>
<path d="M1335 860 c-3 -5 1 -10 10 -10 9 0 13 5 10 10 -3 6 -8 10 -10 10 -2
0 -7 -4 -10 -10z"/>
<path d="M2285 860 c-3 -5 -1 -10 4 -10 6 0 11 5 11 10 0 6 -2 10 -4 10 -3 0
-8 -4 -11 -10z"/>
<path d="M2435 860 c3 -5 8 -10 11 -10 2 0 4 5 4 10 0 6 -5 10 -11 10 -5 0 -7
-4 -4 -10z"/>
<path d="M570 856 c0 -2 7 -9 15 -16 9 -7 15 -8 15 -2 0 5 -7 12 -15 16 -8 3
-15 4 -15 2z"/>
<path d="M1615 850 c-3 -5 -1 -10 4 -10 6 0 11 5 11 10 0 6 -2 10 -4 10 -3 0
-8 -4 -11 -10z"/>
<path d="M2708 853 c7 -3 16 -2 19 1 4 3 -2 6 -13 5 -11 0 -14 -3 -6 -6z"/>
<path d="M1265 840 c-3 -5 1 -10 10 -10 9 0 13 5 10 10 -3 6 -8 10 -10 10 -2
0 -7 -4 -10 -10z"/>
<path d="M1440 839 c0 -5 5 -7 10 -4 6 3 10 8 10 11 0 2 -4 4 -10 4 -5 0 -10
-5 -10 -11z"/>
<path d="M2365 840 c4 -6 11 -8 16 -5 14 9 11 15 -7 15 -8 0 -12 -5 -9 -10z"/>
<path d="M2980 840 c0 -5 5 -10 10 -10 6 0 10 5 10 10 0 6 -4 10 -10 10 -5 0
-10 -4 -10 -10z"/>
<path d="M1545 830 c-3 -5 -1 -10 4 -10 6 0 11 5 11 10 0 6 -2 10 -4 10 -3 0
-8 -4 -11 -10z"/>
<path d="M2470 830 c0 -5 5 -10 11 -10 5 0 7 5 4 10 -3 6 -8 10 -11 10 -2 0
-4 -4 -4 -10z"/>
<path d="M2645 830 c3 -5 8 -10 11 -10 2 0 4 5 4 10 0 6 -5 10 -11 10 -5 0 -7
-4 -4 -10z"/>
<path d="M610 820 c0 -5 5 -10 10 -10 6 0 10 5 10 10 0 6 -4 10 -10 10 -5 0
-10 -4 -10 -10z"/>
<path d="M1200 820 c0 -5 5 -10 11 -10 5 0 7 5 4 10 -3 6 -8 10 -11 10 -2 0
-4 -4 -4 -10z"/>
<path d="M1375 820 c3 -5 8 -10 11 -10 2 0 4 5 4 10 0 6 -5 10 -11 10 -5 0 -7
-4 -4 -10z"/>
<path d="M2915 820 c-3 -5 -1 -10 4 -10 6 0 11 5 11 10 0 6 -2 10 -4 10 -3 0
-8 -4 -11 -10z"/>
<path d="M2575 810 c-3 -5 -1 -10 4 -10 6 0 11 5 11 10 0 6 -2 10 -4 10 -3 0
-8 -4 -11 -10z"/>
<path d="M1300 800 c0 -5 4 -10 9 -10 6 0 13 5 16 10 3 6 -1 10 -9 10 -9 0
-16 -4 -16 -10z"/>
<path d="M2930 790 c-24 -15 -7 -19 20 -5 15 8 19 14 10 14 -8 1 -22 -3 -30
-9z"/>
<path d="M125 780 c-3 -5 -2 -10 4 -10 5 0 13 5 16 10 3 6 2 10 -4 10 -5 0
-13 -4 -16 -10z"/>
<path d="M625 780 c-3 -5 -1 -10 4 -10 6 0 11 5 11 10 0 6 -2 10 -4 10 -3 0
-8 -4 -11 -10z"/>
<path d="M1240 780 c0 -5 5 -10 11 -10 5 0 7 5 4 10 -3 6 -8 10 -11 10 -2 0
-4 -4 -4 -10z"/>
<path d="M2345 780 c4 -6 11 -8 16 -5 14 9 11 15 -7 15 -8 0 -12 -5 -9 -10z"/>
<path d="M2775 780 c3 -5 13 -10 21 -10 8 0 14 5 14 10 0 6 -9 10 -21 10 -11
0 -17 -4 -14 -10z"/>
<path d="M425 770 c3 -5 8 -10 11 -10 2 0 4 5 4 10 0 6 -5 10 -11 10 -5 0 -7
-4 -4 -10z"/>
<path d="M1120 769 c0 -5 5 -7 10 -4 6 3 10 8 10 11 0 2 -4 4 -10 4 -5 0 -10
-5 -10 -11z"/>
<path d="M2445 770 c3 -5 8 -10 11 -10 2 0 4 5 4 10 0 6 -5 10 -11 10 -5 0 -7
-4 -4 -10z"/>
<path d="M2880 770 c0 -5 4 -10 9 -10 6 0 13 5 16 10 3 6 -1 10 -9 10 -9 0
-16 -4 -16 -10z"/>
<path d="M2725 760 c-3 -5 1 -10 10 -10 9 0 13 5 10 10 -3 6 -8 10 -10 10 -2
0 -7 -4 -10 -10z"/>
<path d="M10 748 c0 -11 12 -10 30 2 12 7 10 9 -8 7 -12 0 -22 -5 -22 -9z"/>
<path d="M130 750 c-12 -8 -11 -10 8 -10 12 0 22 5 22 10 0 13 -11 13 -30 0z"/>
<path d="M2555 750 c3 -5 8 -10 11 -10 2 0 4 5 4 10 0 6 -5 10 -11 10 -5 0 -7
-4 -4 -10z"/>
<path d="M2780 743 c-25 -9 -40 -18 -33 -20 7 -3 21 0 32 6 11 6 29 11 40 11
11 0 23 5 26 10 8 14 -12 11 -65 -7z"/>
<path d="M1275 740 c3 -5 8 -10 11 -10 2 0 4 5 4 10 0 6 -5 10 -11 10 -5 0 -7
-4 -4 -10z"/>
<path d="M2380 746 c0 -2 7 -7 16 -10 8 -3 12 -2 9 4 -6 10 -25 14 -25 6z"/>
<path d="M2485 730 c3 -5 8 -10 11 -10 2 0 4 5 4 10 0 6 -5 10 -11 10 -5 0 -7
-4 -4 -10z"/>
<path d="M2658 733 c7 -3 16 -2 19 1 4 3 -2 6 -13 5 -11 0 -14 -3 -6 -6z"/>
<path d="M2587 719 c7 -7 15 -10 18 -7 3 3 -2 9 -12 12 -14 6 -15 5 -6 -5z"/>
<path d="M7 706 c-4 -10 -1 -13 8 -9 8 3 12 9 9 14 -7 12 -11 11 -17 -5z"/>
<path d="M48 713 c7 -3 16 -2 19 1 4 3 -2 6 -13 5 -11 0 -14 -3 -6 -6z"/>
<path d="M2420 710 c0 -5 5 -10 10 -10 6 0 10 5 10 10 0 6 -4 10 -10 10 -5 0
-10 -4 -10 -10z"/>
<path d="M2656 701 c-34 -12 -46 -20 -37 -25 7 -5 16 -4 20 1 3 6 26 17 51 26
25 8 38 15 30 15 -8 0 -37 -7 -64 -17z"/>
<path d="M570 702 c0 -12 19 -26 26 -19 2 2 -2 10 -11 17 -9 8 -15 8 -15 2z"/>
<path d="M2788 693 c7 -3 16 -2 19 1 4 3 -2 6 -13 5 -11 0 -14 -3 -6 -6z"/>
<path d="M2968 693 c7 -3 16 -2 19 1 4 3 -2 6 -13 5 -11 0 -14 -3 -6 -6z"/>
<path d="M613 655 c0 -8 4 -12 9 -9 5 3 6 10 3 15 -9 13 -12 11 -12 -6z"/>
<path d="M2655 650 c3 -5 11 -10 16 -10 6 0 7 5 4 10 -3 6 -11 10 -16 10 -6 0
-7 -4 -4 -10z"/>
<path d="M2771 624 c0 -11 3 -14 6 -6 3 7 2 16 -1 19 -3 4 -6 -2 -5 -13z"/>
<path d="M2700 610 c0 -5 5 -10 11 -10 5 0 7 5 4 10 -3 6 -8 10 -11 10 -2 0
-4 -4 -4 -10z"/>
<path d="M2736 575 c4 -8 10 -15 15 -15 4 0 6 7 3 15 -4 8 -10 15 -15 15 -4 0
-6 -7 -3 -15z"/>
<path d="M2782 534 c10 -10 20 -15 24 -12 3 4 -5 12 -18 18 -22 12 -22 12 -6
-6z"/>
<path d="M2950 540 c0 -5 5 -10 11 -10 5 0 7 5 4 10 -3 6 -8 10 -11 10 -2 0
-4 -4 -4 -10z"/>
<path d="M2888 513 c7 -3 16 -2 19 1 4 3 -2 6 -13 5 -11 0 -14 -3 -6 -6z"/>
<path d="M2817 499 c7 -7 15 -10 18 -7 3 3 -2 9 -12 12 -14 6 -15 5 -6 -5z"/>
<path d="M2360 486 c0 -2 6 -9 14 -15 11 -9 16 -9 22 0 4 8 3 9 -4 5 -7 -4
-12 -2 -12 3 0 6 -4 11 -10 11 -5 0 -10 -2 -10 -4z"/>
<path d="M2855 460 c3 -5 11 -10 16 -10 6 0 7 5 4 10 -3 6 -11 10 -16 10 -6 0
-7 -4 -4 -10z"/>
<path d="M2408 443 c7 -3 16 -2 19 1 4 3 -2 6 -13 5 -11 0 -14 -3 -6 -6z"/>
<path d="M2975 440 c-3 -5 -1 -10 4 -10 6 0 11 5 11 10 0 6 -2 10 -4 10 -3 0
-8 -4 -11 -10z"/>
<path d="M2340 419 c0 -5 5 -7 10 -4 6 3 10 8 10 11 0 2 -4 4 -10 4 -5 0 -10
-5 -10 -11z"/>
<path d="M2900 420 c0 -5 5 -10 10 -10 6 0 10 5 10 10 0 6 -4 10 -10 10 -5 0
-10 -4 -10 -10z"/>
<path d="M2448 403 c7 -3 16 -2 19 1 4 3 -2 6 -13 5 -11 0 -14 -3 -6 -6z"/>
<path d="M2480 375 c0 -8 7 -15 15 -15 8 0 19 -9 25 -21 7 -11 14 -18 17 -15
4 3 12 1 20 -5 7 -6 13 -10 13 -7 0 2 -20 21 -45 41 -31 26 -45 33 -45 22z"/>
<path d="M2945 380 c3 -5 11 -10 16 -10 6 0 7 5 4 10 -3 6 -11 10 -16 10 -6 0
-7 -4 -4 -10z"/>
<path d="M2310 360 c0 -5 7 -7 15 -4 8 4 15 8 15 10 0 2 -7 4 -15 4 -8 0 -15
-4 -15 -10z"/>
<path d="M2985 340 c3 -5 8 -10 11 -10 2 0 4 5 4 10 0 6 -5 10 -11 10 -5 0 -7
-4 -4 -10z"/>
<path d="M840 316 c0 -2 7 -7 16 -10 8 -3 12 -2 9 4 -6 10 -25 14 -25 6z"/>
<path d="M2460 310 c0 -5 5 -10 10 -10 6 0 10 5 10 10 0 6 -4 10 -10 10 -5 0
-10 -4 -10 -10z"/>
<path d="M2271 283 c1 -17 3 -21 6 -10 2 9 9 17 14 17 5 0 9 5 9 10 0 6 -7 10
-15 10 -10 0 -15 -9 -14 -27z"/>
<path d="M2390 290 c0 -5 5 -10 11 -10 5 0 7 5 4 10 -3 6 -8 10 -11 10 -2 0
-4 -4 -4 -10z"/>
<path d="M2565 290 c-3 -5 -1 -10 4 -10 6 0 11 5 11 10 0 6 -2 10 -4 10 -3 0
-8 -4 -11 -10z"/>
<path d="M977 284 c-4 -4 -7 -14 -7 -23 0 -11 3 -12 11 -4 6 6 10 16 7 23 -2
6 -7 8 -11 4z"/>
<path d="M2220 280 c0 -5 5 -10 11 -10 5 0 7 5 4 10 -3 6 -8 10 -11 10 -2 0
-4 -4 -4 -10z"/>
<path d="M2495 270 c-3 -5 -1 -10 4 -10 6 0 11 5 11 10 0 6 -2 10 -4 10 -3 0
-8 -4 -11 -10z"/>
<path d="M2150 260 c0 -5 5 -10 11 -10 5 0 7 5 4 10 -3 6 -8 10 -11 10 -2 0
-4 -4 -4 -10z"/>
<path d="M2325 260 c3 -5 8 -10 11 -10 2 0 4 5 4 10 0 6 -5 10 -11 10 -5 0 -7
-4 -4 -10z"/>
<path d="M916 247 c3 -10 9 -15 12 -12 3 3 0 11 -7 18 -10 9 -11 8 -5 -6z"/>
<path d="M2600 256 c0 -2 6 -9 13 -15 10 -8 14 -7 14 4 0 8 -6 15 -14 15 -7 0
-13 -2 -13 -4z"/>
<path d="M2260 240 c0 -5 7 -10 15 -10 8 0 15 5 15 10 0 6 -7 10 -15 10 -8 0
-15 -4 -15 -10z"/>
<path d="M2435 240 c3 -5 8 -10 11 -10 2 0 4 5 4 10 0 6 -5 10 -11 10 -5 0 -7
-4 -4 -10z"/>
<path d="M2088 233 c7 -3 16 -2 19 1 4 3 -2 6 -13 5 -11 0 -14 -3 -6 -6z"/>
<path d="M2540 230 c0 -5 5 -10 10 -10 6 0 10 5 10 10 0 6 -4 10 -10 10 -5 0
-10 -4 -10 -10z"/>
<path d="M2185 220 c3 -5 10 -10 16 -10 5 0 9 5 9 10 0 6 -7 10 -16 10 -8 0
-12 -4 -9 -10z"/>
<path d="M1001 207 c-6 -8 -8 -16 -5 -20 3 -3 -72 -31 -168 -63 -277 -91 -294
-97 -280 -102 7 -2 20 0 30 4 9 4 22 9 27 9 6 1 18 6 29 10 12 5 21 3 28 -6 8
-11 9 -10 4 4 -6 19 1 24 52 31 18 2 38 9 45 14 23 18 114 43 132 36 12 -5 16
-4 12 3 -8 12 20 26 34 17 5 -3 9 -13 9 -22 0 -12 5 -9 18 11 10 15 27 34 38
42 13 10 15 14 5 15 -11 0 -11 3 -1 15 7 8 10 15 7 15 -2 0 -10 -6 -16 -13z"/>
<path d="M2020 209 c0 -5 5 -7 10 -4 6 3 10 8 10 11 0 2 -4 4 -10 4 -5 0 -10
-5 -10 -11z"/>
<path d="M2470 204 c0 -8 5 -12 10 -9 6 3 10 10 10 16 0 5 -4 9 -10 9 -5 0
-10 -7 -10 -16z"/>
<path d="M950 206 c0 -2 7 -7 16 -10 8 -3 12 -2 9 4 -6 10 -25 14 -25 6z"/>
<path d="M2238 203 c7 -3 16 -2 19 1 4 3 -2 6 -13 5 -11 0 -14 -3 -6 -6z"/>
<path d="M2290 200 c0 -5 5 -10 10 -10 6 0 10 5 10 10 0 6 -4 10 -10 10 -5 0
-10 -4 -10 -10z"/>
<path d="M1950 190 c0 -5 5 -10 10 -10 6 0 10 5 10 10 0 6 -4 10 -10 10 -5 0
-10 -4 -10 -10z"/>
<path d="M2950 185 c0 -8 6 -15 14 -15 8 0 16 -5 18 -12 3 -8 6 -9 11 -1 4 6
-4 18 -18 27 -22 14 -25 15 -25 1z"/>
<path d="M1438 178 c-10 -8 -10 -11 0 -15 6 -2 10 -9 6 -14 -3 -5 0 -9 5 -9 6
0 11 7 11 15 0 9 6 15 13 14 22 -3 50 1 45 6 -10 10 -67 12 -80 3z"/>
<path d="M2055 180 c-3 -5 -1 -10 4 -10 6 0 11 5 11 10 0 6 -2 10 -4 10 -3 0
-8 -4 -11 -10z"/>
<path d="M2230 180 c0 -5 5 -10 11 -10 5 0 7 5 4 10 -3 6 -8 10 -11 10 -2 0
-4 -4 -4 -10z"/>
<path d="M708 173 c7 -3 16 -2 19 1 4 3 -2 6 -13 5 -11 0 -14 -3 -6 -6z"/>
<path d="M1880 170 c0 -5 7 -10 16 -10 8 0 12 5 9 10 -3 6 -10 10 -16 10 -5 0
-9 -4 -9 -10z"/>
<path d="M2130 170 c-13 -8 -12 -10 3 -10 9 0 17 5 17 10 0 12 -1 12 -20 0z"/>
<path d="M2340 164 c0 -8 5 -12 10 -9 6 4 8 11 5 16 -9 14 -15 11 -15 -7z"/>
<path d="M2510 170 c0 -5 5 -10 10 -10 6 0 10 5 10 10 0 6 -4 10 -10 10 -5 0
-10 -4 -10 -10z"/>
<path d="M2168 153 c7 -3 16 -2 19 1 4 3 -2 6 -13 5 -11 0 -14 -3 -6 -6z"/>
<path d="M2620 149 c0 -5 5 -7 10 -4 6 3 10 8 10 11 0 2 -4 4 -10 4 -5 0 -10
-5 -10 -11z"/>
<path d="M2270 140 c0 -5 5 -10 10 -10 6 0 10 5 10 10 0 6 -4 10 -10 10 -5 0
-10 -4 -10 -10z"/>
<path d="M2448 143 c7 -3 16 -2 19 1 4 3 -2 6 -13 5 -11 0 -14 -3 -6 -6z"/>
<path d="M2726 142 c-3 -5 1 -9 9 -9 8 0 12 4 9 9 -3 4 -7 8 -9 8 -2 0 -6 -4
-9 -8z"/>
<path d="M1910 136 c0 -2 7 -6 15 -10 8 -3 15 -1 15 4 0 6 -7 10 -15 10 -8 0
-15 -2 -15 -4z"/>
<path d="M2098 133 c7 -3 16 -2 19 1 4 3 -2 6 -13 5 -11 0 -14 -3 -6 -6z"/>
<path d="M2555 130 c-3 -5 -1 -10 4 -10 6 0 11 5 11 10 0 6 -2 10 -4 10 -3 0
-8 -4 -11 -10z"/>
<path d="M1457 111 c-3 -14 -1 -18 9 -14 8 3 14 11 14 19 0 21 -17 17 -23 -5z"/>
<path d="M1740 120 c19 -13 30 -13 30 0 0 6 -10 10 -22 10 -19 0 -20 -2 -8
-10z"/>
<path d="M2030 114 c0 -8 5 -12 10 -9 6 4 8 11 5 16 -9 14 -15 11 -15 -7z"/>
<path d="M2205 120 c-3 -5 -1 -10 4 -10 6 0 11 5 11 10 0 6 -2 10 -4 10 -3 0
-8 -4 -11 -10z"/>
<path d="M2375 120 c4 -6 11 -8 16 -5 14 9 11 15 -7 15 -8 0 -12 -5 -9 -10z"/>
<path d="M2658 113 c7 -3 16 -2 19 1 4 3 -2 6 -13 5 -11 0 -14 -3 -6 -6z"/>
<path d="M1680 99 c0 -5 5 -7 10 -4 6 3 10 8 10 11 0 2 -4 4 -10 4 -5 0 -10
-5 -10 -11z"/>
<path d="M2488 103 c7 -3 16 -2 19 1 4 3 -2 6 -13 5 -11 0 -14 -3 -6 -6z"/>
<path d="M1885 90 c-3 -5 -16 -10 -28 -10 -12 0 -29 -5 -37 -10 -11 -7 -5 -8
20 -4 29 6 78 34 58 34 -4 0 -10 -4 -13 -10z"/>
<path d="M1960 90 c0 -5 5 -10 10 -10 6 0 10 5 10 10 0 6 -4 10 -10 10 -5 0
-10 -4 -10 -10z"/>
<path d="M2590 90 c0 -5 5 -10 11 -10 5 0 7 5 4 10 -3 6 -8 10 -11 10 -2 0 -4
-4 -4 -10z"/>
<path d="M1610 80 c-13 -8 -12 -10 3 -10 9 0 17 5 17 10 0 12 -1 12 -20 0z"/>
<path d="M2240 80 c0 -5 5 -10 10 -10 6 0 10 5 10 10 0 6 -4 10 -10 10 -5 0
-10 -4 -10 -10z"/>
<path d="M2418 83 c7 -3 16 -2 19 1 4 3 -2 6 -13 5 -11 0 -14 -3 -6 -6z"/>
<path d="M2060 70 c0 -5 5 -10 10 -10 6 0 10 5 10 10 0 6 -4 10 -10 10 -5 0
-10 -4 -10 -10z"/>
<path d="M2520 70 c0 -5 5 -10 10 -10 6 0 10 5 10 10 0 6 -4 10 -10 10 -5 0
-10 -4 -10 -10z"/>
<path d="M2700 69 c0 -5 5 -7 10 -4 6 3 10 8 10 11 0 2 -4 4 -10 4 -5 0 -10
-5 -10 -11z"/>
<path d="M2350 60 c0 -5 5 -10 10 -10 6 0 10 5 10 10 0 6 -4 10 -10 10 -5 0
-10 -4 -10 -10z"/>
<path d="M2000 50 c0 -5 5 -10 10 -10 6 0 10 5 10 10 0 6 -4 10 -10 10 -5 0
-10 -4 -10 -10z"/>
<path d="M2178 53 c7 -3 16 -2 19 1 4 3 -2 6 -13 5 -11 0 -14 -3 -6 -6z"/>
<path d="M2630 49 c0 -5 5 -7 10 -4 6 3 10 8 10 11 0 2 -4 4 -10 4 -5 0 -10
-5 -10 -11z"/>
<path d="M2808 53 c7 -3 16 -2 19 1 4 3 -2 6 -13 5 -11 0 -14 -3 -6 -6z"/>
<path d="M1655 40 c-3 -5 -1 -10 4 -10 6 0 11 5 11 10 0 6 -2 10 -4 10 -3 0
-8 -4 -11 -10z"/>
<path d="M2280 40 c0 -5 5 -10 10 -10 6 0 10 5 10 10 0 6 -4 10 -10 10 -5 0
-10 -4 -10 -10z"/>
<path d="M853 25 c0 -8 4 -12 9 -9 5 3 6 10 3 15 -9 13 -12 11 -12 -6z"/>
<path d="M2110 29 c0 -5 5 -7 10 -4 6 3 10 8 10 11 0 2 -4 4 -10 4 -5 0 -10
-5 -10 -11z"/>
<path d="M2570 30 c0 -5 5 -10 10 -10 6 0 10 5 10 10 0 6 -4 10 -10 10 -5 0
-10 -4 -10 -10z"/>
<path d="M2215 20 c-3 -5 1 -10 10 -10 9 0 13 5 10 10 -3 6 -8 10 -10 10 -2 0
-7 -4 -10 -10z"/>
<path d="M2390 19 c0 -5 5 -7 10 -4 6 3 10 8 10 11 0 2 -4 4 -10 4 -5 0 -10
-5 -10 -11z"/>
<path d="M480 10 c-22 -7 -21 -8 13 -9 23 -1 36 3 32 9 -7 11 -10 11 -45 0z"/>
<path d="M1520 10 c0 -5 7 -10 16 -10 8 0 12 5 9 10 -3 6 -10 10 -16 10 -5 0
-9 -4 -9 -10z"/>
<path d="M2678 13 c7 -3 16 -2 19 1 4 3 -2 6 -13 5 -11 0 -14 -3 -6 -6z"/>
</g>
</svg>
