<?xml version="1.0" encoding="utf-8"?>
<!-- Generator: Adobe Illustrator 26.0.3, SVG Export Plug-In . SVG Version: 6.00 Build 0)  -->
<svg version="1.1" id="Layer_1" xmlns="http://www.w3.org/2000/svg" xmlns:xlink="http://www.w3.org/1999/xlink" x="0px" y="0px"
	 viewBox="0 0 200 23" style="enable-background:new 0 0 200 23;" xml:space="preserve">
<style type="text/css">
	.st0{fill:#FFFFFF;}
</style>
<g>
	<path class="st0" d="M22.2,18.1h-3.6V8.6l-5.8,9.6h-2.6L4.4,8.6v9.6H0.9v-14h4.8l5.8,9.9l5.8-9.9h4.8V18.1z"/>
	<path class="st0" d="M36.9,15.2h-8.4l-1.5,3h-3.9l7.2-14h4.8l7.2,14h-4L36.9,15.2z M35.6,12.5l-2.8-5.7l-2.9,5.7H35.6z"/>
	<path class="st0" d="M56.5,14l2.6,4.1h-4.2l-2.3-3.7h-5.8v3.7h-3.6v-14h11c3.2,0,5.3,2,5.3,5.1C59.5,11.6,58.4,13.2,56.5,14z
		 M46.8,11.4h6.4c1.1,0,2.8,0,2.8-2.1c0-2.1-1.7-2.1-2.8-2.1h-6.4V11.4z"/>
	<path class="st0" d="M71.2,10.4l8.5,7.8h-5l-6.1-5.8l-4.3,3.1v2.7h-3.6v-14h3.6v7.2l10-7.2h5.4L71.2,10.4z"/>
	<path class="st0" d="M84,7v2.8h11.2v2.6H84v2.8h11.2v2.9H80.4v-14h14.8V7H84z"/>
	<path class="st0" d="M113.3,7.2h-6.8v10.9H103V7.2h-6.8v-3h17.2V7.2z"/>
	<path class="st0" d="M130.8,9.3c0,3.1-2.2,5.1-5.3,5.1h-7.4v3.7h-3.6v-14h11C128.7,4.2,130.8,6.2,130.8,9.3z M127.2,9.3
		c0-2.1-1.7-2.1-2.8-2.1h-6.4v4.2h6.4C125.6,11.4,127.2,11.4,127.2,9.3z"/>
	<path class="st0" d="M146.5,15.1v3h-14.4v-14h3.6v10.9H146.5z"/>
	<path class="st0" d="M161.3,15.2h-8.4l-1.5,3h-3.9l7.2-14h4.8l7.2,14h-4L161.3,15.2z M159.9,12.5l-2.8-5.7l-2.9,5.7H159.9z"/>
	<path class="st0" d="M174.6,4c5.6,0,8.4,2.1,8.7,6.1h-3.6c-0.3-2.3-2.1-3.1-5.1-3.1c-3.7,0-5.2,1.3-5.2,4.1c0,2.9,1.6,4.2,5.2,4.2
		c3,0,4.7-0.9,5.1-3.2h3.6c-0.4,4-3.2,6.2-8.7,6.2c-6.1,0-8.8-2.6-8.8-7.2C165.8,6.5,168.4,4,174.6,4z"/>
	<path class="st0" d="M188.2,7v2.8h11.2v2.6h-11.2v2.8h11.2v2.9h-14.8v-14h14.8V7H188.2z"/>
</g>
</svg>
