<svg width="150" height="20" viewBox="0 0 150 20" fill="none" xmlns="http://www.w3.org/2000/svg">
<path d="M-0.00060828 0.256348C1.77679 0.256348 3.2368 0.256348 4.76029 0.256348C5.77595 3.58968 6.79161 6.73071 7.80726 9.93584C8.12466 9.93584 8.44205 9.93584 8.75944 9.93584C9.71162 6.79481 10.6638 3.58968 11.6795 0.32045C13.4569 0.32045 15.1708 0.32045 17.1386 0.32045C17.1386 6.79481 17.1386 13.0128 17.1386 19.5512C16.2499 19.5512 15.3612 19.5512 14.0282 19.5512C14.0282 16.6025 14.0282 13.782 14.0282 11.0256C13.7108 10.9615 13.3934 10.8974 13.076 10.8333C11.1082 13.3333 11.489 16.923 9.71162 19.6794C9.01336 19.6794 8.18814 19.6794 7.36291 19.6794C5.77595 17.2435 6.2203 14.0384 3.99855 11.5384C2.15767 14.1025 4.95073 18.782 -0.0640869 19.4871C-0.00060828 13.0769 -0.00060828 6.79481 -0.00060828 0.256348Z" fill="white"/>
<path d="M81.4431 19.3588C78.1422 19.8075 76.2378 18.4614 74.8413 16.0896C73.8891 14.487 72.937 12.9486 71.7309 10.9614C69.8265 13.9742 71.35 16.8588 70.2709 19.5511C69.1917 19.5511 68.1126 19.5511 66.843 19.5511C66.843 13.0768 66.843 6.85882 66.843 0.256254C69.763 -0.000156501 72.683 -0.192464 75.6031 0.448561C77.6344 0.961382 79.2848 2.05113 79.8561 4.29471C80.4274 6.5383 79.5387 8.26907 77.8883 9.61523C77.5074 9.93574 76.9996 10.1922 76.4283 10.5127C78.2057 13.6537 79.7926 16.4101 81.4431 19.3588ZM71.223 8.01266C74.6509 7.82036 75.7935 7.11523 75.6665 5.51266C75.5396 3.9101 74.0161 3.33318 71.223 3.846C71.223 5.19215 71.223 6.4742 71.223 8.01266Z" fill="white"/>
<path d="M121.816 9.03832C121.816 12.4999 121.816 15.8973 121.816 19.5511C120.546 19.5511 119.721 19.5511 118.769 19.5511C118.769 13.205 118.769 6.92294 118.769 0.256273C120.038 0.19217 121.371 0.128067 122.895 0.0639648C124.672 3.71781 126.386 7.24345 128.163 10.8332C128.417 10.7691 128.671 10.705 128.925 10.705C129.116 10.064 129.433 9.42294 129.496 8.78191C129.56 7.17935 129.496 5.57679 129.56 3.97422C129.623 2.24345 130.258 0.897298 132.607 0.320375C132.861 6.79473 132.734 13.0768 132.67 19.6152C131.21 19.6152 129.941 19.6152 128.481 19.6152C126.767 16.0896 124.989 12.4358 123.212 8.78191C122.641 8.84601 122.26 8.97422 121.816 9.03832Z" fill="white"/>
<path d="M136.606 19.4872C136.606 13.0128 136.606 6.85898 136.606 0.19231C140.796 -0.128203 144.922 1.81235e-06 149.365 0.128207C148.921 2.5 147.715 3.14103 146.001 3.20513C144.414 3.26923 142.89 3.20513 141.05 3.20513C141.05 4.80769 141.05 6.02564 141.05 7.3718C142.954 7.5 144.731 7.5641 146.826 7.69231C146.89 8.58974 147.017 9.48718 147.08 10.641C144.985 10.7692 143.081 10.8333 141.05 10.9615C141.05 12.6923 141.05 14.1667 141.05 16.1538C143.97 16.1538 146.763 16.1538 149.746 16.1538C149.873 17.4359 149.937 18.3333 150 19.4872C145.493 19.4872 141.24 19.4872 136.606 19.4872Z" fill="white"/>
<path d="M105.692 0.256348C107.152 0.256348 108.231 0.256348 109.501 0.256348C111.722 6.6666 113.881 13.0128 116.166 19.5512C114.579 19.5512 113.373 19.5512 112.04 19.5512C111.595 18.3974 111.088 17.3717 110.58 16.0256C108.612 16.0256 106.581 16.0256 104.359 16.0256C103.089 17.6281 102.328 20.064 99.0267 19.7435C101.248 13.2051 103.407 6.85891 105.692 0.256348ZM109.437 12.2435C108.739 10.4487 108.295 9.29481 107.85 8.07686C107.596 8.07686 107.279 8.07686 107.025 8.07686C106.517 9.29481 106.073 10.5769 105.375 12.2435C106.898 12.2435 107.85 12.2435 109.437 12.2435Z" fill="white"/>
<path d="M53.449 0.192444C54.909 0.192444 55.9247 0.192444 57.1942 0.192444C59.3525 6.5386 61.5743 12.8206 63.8595 19.4232C62.2725 19.4232 61.1299 19.4232 59.7969 19.4232C59.289 18.3976 58.7812 17.2437 58.2099 15.8976C56.2421 15.8976 54.2742 15.8976 52.1794 15.8976C50.8464 17.5001 50.1481 20.1924 46.7838 19.5514C49.0055 13.0771 51.1638 6.7309 53.449 0.192444ZM56.3055 12.436C56.496 12.1796 56.6864 11.9232 56.8769 11.6668C56.369 10.4489 55.9247 9.29501 55.4168 8.07706C55.1629 8.07706 54.8455 8.14116 54.5916 8.14116C54.1473 9.35911 53.7029 10.513 53.0681 12.1796C54.4647 12.2437 55.4168 12.3719 56.3055 12.436Z" fill="white"/>
<path d="M84.8074 19.4872C84.8074 13.0769 84.8074 6.85896 84.8074 0.320496C86.1405 0.320496 87.3466 0.320496 88.8701 0.320496C88.8701 5.5128 88.8701 10.7051 88.8701 16.282C90.584 16.3461 91.9805 16.4102 93.631 16.4743C94.1388 14.5513 94.8371 12.7564 97.1858 12.1154C97.1858 14.6154 97.1858 16.9231 97.1858 19.4231C93.1866 19.4872 89.1875 19.4872 84.8074 19.4872Z" fill="white"/>
<path d="M35.548 0.320496C39.9281 0.320496 43.9907 0.320496 48.3072 0.320496C47.7994 2.62819 46.2759 3.20511 44.562 3.33332C43.0385 3.46152 41.4515 3.46152 39.8646 3.52562C39.7376 4.29485 39.5472 4.80767 39.5472 5.3205C39.5472 5.96152 39.6107 6.53844 39.7376 7.49998C41.7055 7.49998 43.5463 7.49998 45.6411 7.49998C45.7681 8.71793 45.8316 9.61537 45.8951 10.7051C43.8003 10.8333 41.9594 10.8974 39.8011 11.0256C38.8489 14.0384 40.8168 18.5897 35.548 19.4872C35.548 13.0769 35.548 6.85896 35.548 0.320496Z" fill="white"/>
<path d="M26.915 17.1794C28.5654 16.6025 29.708 14.8076 31.6124 15.7692C30.4698 18.9102 29.0733 20 26.4072 19.9359C23.868 19.8717 22.0271 18.5897 21.5193 15.8333C21.1384 13.8461 21.1384 11.6025 21.5193 9.61534C21.9636 7.24354 23.6141 5.70508 26.1532 5.51277C28.7559 5.32047 30.5967 6.41021 31.6759 9.10252C30.7237 9.55124 29.8985 9.87175 29.1367 10.2564C28.3115 9.55124 27.6132 8.97431 26.9785 8.46149C24.9471 8.91021 24.7567 10.3846 24.8202 11.923C24.8202 13.8461 24.2489 16.0897 26.915 17.1794Z" fill="white"/>
</svg>
