<svg width="200" height="23" viewBox="0 0 200 23" fill="none" xmlns="http://www.w3.org/2000/svg">
<path d="M0 22.7273H3.75237V7.6948L12.475 22.7273H15.6678L24.3904 7.6948V22.7273H28.1427V0H24.4562L14.0878 17.9221L3.68653 0H0V22.7273Z" fill="white"/>
<path d="M36.8621 22.7273H51.3778V19.026H40.6144V13.2143H51.3778V9.51299H40.6144V3.7013H51.3778V0H36.8621V22.7273Z" fill="white"/>
<path d="M65.7406 22.7273H69.4929V3.7013H78.1826V0H57.018V3.7013H65.7406V22.7273Z" fill="white"/>
<path d="M100.61 22.7273H104.724L94.0266 0H90.373L79.6754 22.7273H83.7899L85.6331 18.7662H98.7335L100.61 22.7273ZM87.3777 15.0649L92.1833 4.83766L96.989 15.0649H87.3777Z" fill="white"/>
<path d="M111.222 22.7273H114.974V15.5844H119.813C124.421 15.5844 127.745 12.3052 127.745 7.79221C127.745 3.31169 124.421 0 119.813 0H111.222V22.7273ZM114.974 11.8831V3.7013H119.813C122.249 3.7013 123.993 5.42208 123.993 7.79221C123.993 10.1623 122.249 11.8831 119.813 11.8831H114.974Z" fill="white"/>
<path d="M134.841 22.7273H149.554V19.026H138.593V0H134.841V22.7273Z" fill="white"/>
<path d="M156.145 22.7273H170.661V19.026H159.897V13.2143H170.661V9.51299H159.897V3.7013H170.661V0H156.145V22.7273Z" fill="white"/>
<path d="M176.531 22.7273H181.37L188.282 14.3182L195.161 22.7273H200L190.685 11.3636L200 0H195.194L188.282 8.40909L181.37 0H176.531L185.846 11.3636L176.531 22.7273Z" fill="white"/>
</svg>
