<?xml version="1.0" standalone="no"?>
<!DOCTYPE svg PUBLIC "-//W3C//DTD SVG 20010904//EN"
 "http://www.w3.org/TR/2001/REC-SVG-20010904/DTD/svg10.dtd">
<svg version="1.0" xmlns="http://www.w3.org/2000/svg"
 width="96.000000pt" height="96.000000pt" viewBox="0 0 96.000000 96.000000"
 preserveAspectRatio="xMidYMid meet">
<metadata>
Created by potrace 1.10, written by Peter Selinger 2001-2011
</metadata>
<g transform="translate(0.000000,96.000000) scale(0.100000,-0.100000)"
fill="#000000" stroke="none">
<path d="M438 954 c-8 -7 2 -44 11 -44 8 0 8 37 0 45 -3 3 -8 2 -11 -1z"/>
<path d="M470 950 c0 -5 5 -10 10 -10 6 0 10 5 10 10 0 6 -4 10 -10 10 -5 0
-10 -4 -10 -10z"/>
<path d="M500 950 c0 -5 5 -10 10 -10 6 0 10 5 10 10 0 6 -4 10 -10 10 -5 0
-10 -4 -10 -10z"/>
<path d="M374 934 c3 -9 6 -20 6 -25 0 -5 4 -9 9 -9 4 0 6 11 3 25 -2 14 -9
25 -14 25 -6 0 -7 -7 -4 -16z"/>
<path d="M400 940 c0 -5 5 -10 10 -10 6 0 10 5 10 10 0 6 -4 10 -10 10 -5 0
-10 -4 -10 -10z"/>
<path d="M530 940 c0 -5 5 -10 10 -10 6 0 10 5 10 10 0 6 -4 10 -10 10 -5 0
-10 -4 -10 -10z"/>
<path d="M569 948 c-7 -31 -7 -48 1 -48 6 0 9 4 8 9 -2 5 2 8 7 8 6 -1 9 -7 7
-13 -4 -19 31 -27 40 -10 11 20 10 31 -2 32 -5 1 -12 3 -15 4 -3 1 -8 3 -12 4
-5 1 -14 5 -20 9 -7 5 -13 7 -14 5z m55 -49 c-3 -5 -10 -7 -15 -3 -5 3 -7 10
-3 15 3 5 10 7 15 3 5 -3 7 -10 3 -15z"/>
<path d="M346 918 c8 -27 12 -33 19 -27 7 8 -7 49 -17 49 -5 0 -6 -10 -2 -22z"/>
<path d="M470 920 c0 -5 5 -10 10 -10 6 0 10 5 10 10 0 6 -4 10 -10 10 -5 0
-10 -4 -10 -10z"/>
<path d="M500 920 c0 -5 5 -10 11 -10 5 0 7 5 4 10 -3 6 -8 10 -11 10 -2 0 -4
-4 -4 -10z"/>
<path d="M310 910 c0 -5 6 -10 13 -10 7 -1 4 -6 -7 -15 -10 -8 -15 -19 -11
-25 4 -7 1 -17 -6 -22 -11 -8 -10 -9 4 -4 22 7 23 -10 1 -18 -9 -4 -17 -5 -18
-4 -1 2 -10 13 -21 26 -16 20 -17 25 -5 32 8 5 11 12 8 16 -4 3 -14 -1 -23
-10 -15 -14 -14 -18 9 -41 26 -26 33 -45 17 -45 -5 0 -12 6 -14 13 -3 7 -6 7
-6 1 -1 -6 13 -23 30 -38 29 -27 34 -51 5 -27 -8 6 -18 11 -22 9 -15 -4 -54
13 -54 23 0 5 -4 9 -10 9 -21 0 -9 -18 21 -30 19 -8 28 -18 25 -26 -13 -32
-16 -47 -5 -26 7 12 16 22 21 22 5 0 1 -14 -7 -31 -19 -35 -19 -34 15 -43 l25
-7 -25 15 c-14 9 -19 15 -12 16 7 0 11 4 8 9 -6 10 24 25 32 16 3 -3 1 -5 -5
-5 -5 0 -10 -6 -10 -14 0 -8 6 -12 15 -8 11 4 13 1 7 -7 -6 -10 -2 -10 16 0
13 7 27 13 31 14 9 0 23 15 24 26 1 5 2 14 3 20 0 5 5 8 11 4 5 -3 16 6 26 19
13 20 14 31 5 53 -10 27 -11 27 -5 -7 3 -23 2 -31 -4 -21 -8 11 -11 11 -16 0
-3 -8 -4 -2 -1 14 3 15 1 36 -5 47 -9 16 -8 20 5 20 18 0 19 9 4 30 -9 13 -10
12 -5 -2 3 -10 1 -18 -4 -18 -6 0 -10 5 -10 10 0 6 -5 10 -10 10 -6 0 -4 -15
5 -36 23 -56 17 -64 -10 -14 -30 56 -32 48 -4 -15 28 -63 18 -68 -11 -5 -13
28 -28 50 -34 50 -6 0 -3 7 7 14 10 8 15 20 11 30 -7 18 -24 22 -24 6z m43
-126 c10 -19 22 -32 27 -29 6 3 10 0 10 -7 0 -10 3 -9 11 2 9 13 10 13 6 0 -2
-8 -9 -14 -15 -13 -10 3 -29 -21 -31 -39 -1 -5 -3 -7 -4 -5 -2 1 -11 -4 -21
-12 -17 -14 -31 -9 -31 12 0 7 -9 11 -18 11 -10 -1 -16 1 -13 4 3 3 1 11 -5
19 -14 16 3 17 19 1 9 -9 15 -9 23 -1 8 8 5 17 -11 33 -12 12 -19 25 -15 28 3
4 11 0 16 -8 9 -12 10 -11 5 4 -6 17 7 35 25 36 3 0 13 -16 22 -36z"/>
<path d="M326 788 c4 -11 1 -18 -6 -18 -9 0 -8 -6 3 -18 22 -24 50 -25 37 -3
-5 9 -16 25 -24 36 -13 16 -15 17 -10 3z m24 -39 c0 -6 -4 -7 -10 -4 -5 3 -10
11 -10 16 0 6 5 7 10 4 6 -3 10 -11 10 -16z"/>
<path d="M316 721 c-4 -5 -2 -12 4 -16 6 -4 7 -12 3 -18 -5 -8 -2 -8 9 0 8 7
17 11 20 8 2 -3 5 2 5 10 0 8 -3 13 -5 10 -3 -3 -11 0 -18 6 -8 6 -14 6 -18 0z"/>
<path d="M413 900 c1 -11 5 -20 9 -20 3 0 6 9 5 20 -1 11 -5 20 -9 20 -3 0 -6
-9 -5 -20z"/>
<path d="M527 900 c-3 -11 -2 -20 3 -20 4 0 10 9 13 20 3 11 2 20 -3 20 -4 0
-10 -9 -13 -20z"/>
<path d="M280 900 c0 -5 5 -10 10 -10 6 0 10 5 10 10 0 6 -4 10 -10 10 -5 0
-10 -4 -10 -10z"/>
<path d="M655 900 c-3 -5 1 -10 10 -10 12 0 15 -5 11 -17 -4 -9 -1 -20 6 -24
10 -6 9 -12 -6 -26 -18 -17 -18 -17 -13 0 8 21 -8 23 -17 2 -3 -8 -1 -15 4
-15 6 0 10 -5 10 -11 0 -6 -6 -9 -14 -6 -7 3 -19 0 -25 -6 -16 -16 -14 -3 6
38 9 19 20 35 25 35 4 0 8 5 8 10 0 25 -18 5 -43 -46 -16 -31 -30 -54 -33 -51
-3 3 4 23 15 46 12 22 21 42 21 45 0 11 -34 15 -42 4 -12 -19 -10 -28 7 -28
13 0 12 -5 -2 -36 -10 -19 -19 -31 -21 -25 -2 5 1 19 7 29 8 16 7 21 -5 26
-22 9 -31 7 -16 -3 9 -5 11 -17 6 -37 -6 -25 -8 -26 -15 -9 -4 11 -8 14 -8 7
-1 -7 7 -27 16 -45 9 -18 16 -34 16 -37 -1 -4 9 -6 22 -6 13 0 22 3 19 7 -2 4
0 10 6 14 5 3 11 1 11 -4 1 -6 2 -17 3 -23 1 -7 10 -12 20 -10 10 2 15 -1 12
-7 -4 -5 -2 -12 3 -15 10 -7 71 13 71 23 0 4 -11 22 -25 41 -14 19 -25 35 -25
37 0 1 16 18 36 38 32 33 34 37 19 52 -13 13 -18 14 -25 3 -4 -7 -13 -9 -20
-5 -9 6 -9 9 1 15 9 6 9 12 -4 24 -18 19 -24 20 -32 6z m-50 -40 c3 -5 1 -10
-4 -10 -6 0 -11 5 -11 10 0 6 2 10 4 10 3 0 8 -4 11 -10z m125 -20 c0 -5 -3
-10 -7 -10 -5 0 -17 -14 -28 -30 -11 -16 -24 -30 -28 -30 -12 0 -6 12 23 49
25 31 40 39 40 21z m-57 -88 c7 -7 17 -18 23 -25 8 -9 7 -15 -5 -25 -14 -11
-13 -12 9 -7 l25 6 -25 -15 c-26 -16 -55 -22 -32 -7 11 7 10 10 -3 15 -9 3
-21 4 -25 1 -13 -8 -5 24 10 38 10 9 11 9 6 0 -5 -9 -2 -11 8 -7 12 5 13 9 3
19 -10 11 -15 10 -29 -2 -10 -9 -18 -12 -18 -8 0 4 -9 0 -19 -9 -19 -17 -20
-17 -37 8 -9 15 -14 29 -10 33 3 3 6 0 6 -8 0 -12 2 -11 11 1 8 12 9 9 5 -10
-3 -14 -3 -19 0 -12 3 6 10 10 14 7 5 -3 12 0 16 6 4 8 3 9 -4 5 -13 -8 -16 6
-5 18 4 3 13 -4 20 -16 7 -13 13 -16 12 -8 -3 36 0 41 16 28 9 -7 21 -19 28
-26z"/>
<path d="M665 710 c-3 -6 1 -7 9 -4 18 7 21 14 7 14 -6 0 -13 -4 -16 -10z"/>
<path d="M443 886 c4 -9 -1 -17 -11 -19 -12 -3 -11 -5 6 -6 16 -1 22 5 22 19
0 11 -5 20 -11 20 -6 0 -9 -6 -6 -14z"/>
<path d="M470 880 c0 -11 4 -20 8 -20 4 0 8 9 8 20 0 11 -4 20 -8 20 -4 0 -8
-9 -8 -20z"/>
<path d="M502 880 c0 -14 2 -19 5 -12 2 6 2 18 0 25 -3 6 -5 1 -5 -13z"/>
<path d="M550 868 c0 -19 2 -20 10 -8 13 19 13 30 0 30 -5 0 -10 -10 -10 -22z"/>
<path d="M275 860 c-3 -5 -1 -10 4 -10 6 0 11 5 11 10 0 6 -2 10 -4 10 -3 0
-8 -4 -11 -10z"/>
<path d="M193 830 c-8 -12 -9 -21 -3 -25 6 -3 10 1 10 9 0 9 5 16 10 16 6 0
10 5 10 10 0 16 -14 11 -27 -10z"/>
<path d="M432 825 c0 -16 2 -22 5 -12 2 9 2 23 0 30 -3 6 -5 -1 -5 -18z"/>
<path d="M452 825 c0 -16 2 -22 5 -12 2 9 2 23 0 30 -3 6 -5 -1 -5 -18z"/>
<path d="M478 843 c6 -2 18 -2 25 0 6 3 1 5 -13 5 -14 0 -19 -2 -12 -5z"/>
<path d="M516 814 c-4 -20 -5 -38 -3 -40 3 -3 8 11 11 32 4 20 5 38 3 40 -3 3
-8 -11 -11 -32z"/>
<path d="M470 810 c0 -11 -6 -20 -14 -20 -7 0 -16 -11 -18 -25 -3 -14 -1 -25
3 -25 5 0 9 9 9 21 0 15 5 19 15 15 11 -4 15 2 15 24 0 17 -2 30 -5 30 -3 0
-5 -9 -5 -20z"/>
<path d="M756 823 c-3 -3 -1 -12 5 -20 9 -10 6 -18 -11 -33 -23 -20 -40 -26
-40 -14 0 4 10 15 22 25 11 11 17 19 11 19 -5 0 -18 -9 -28 -20 -25 -27 -7
-47 25 -30 17 9 24 9 30 1 3 -7 14 -9 23 -5 18 7 23 24 7 24 -5 0 -10 -5 -10
-11 0 -5 -4 -7 -10 -4 -15 9 -12 25 5 25 8 0 15 5 15 10 0 6 -7 10 -16 10 -8
0 -13 4 -9 9 6 11 -9 23 -19 14z"/>
<path d="M490 775 c0 -19 4 -35 8 -35 4 0 6 16 4 35 -2 19 -6 35 -8 35 -2 0
-4 -16 -4 -35z"/>
<path d="M160 790 c0 -5 5 -10 10 -10 6 0 10 5 10 10 0 6 -4 10 -10 10 -5 0
-10 -4 -10 -10z"/>
<path d="M230 781 c0 -10 19 -25 25 -20 1 2 -3 10 -11 17 -8 7 -14 8 -14 3z"/>
<path d="M145 760 c3 -5 8 -10 11 -10 2 0 4 5 4 10 0 6 -5 10 -11 10 -5 0 -7
-4 -4 -10z"/>
<path d="M520 751 c0 -6 4 -13 10 -16 6 -3 7 1 4 9 -7 18 -14 21 -14 7z"/>
<path d="M193 731 c18 -11 25 -21 18 -25 -6 -4 -11 -2 -11 3 0 6 -4 11 -10 11
-16 0 -11 -17 7 -24 14 -6 32 8 33 25 0 6 -46 29 -58 29 -4 0 6 -9 21 -19z"/>
<path d="M130 730 c0 -5 5 -10 10 -10 6 0 10 5 10 10 0 6 -4 10 -10 10 -5 0
-10 -4 -10 -10z"/>
<path d="M735 730 c-3 -5 -1 -18 5 -27 9 -15 10 -14 5 7 -6 24 -5 24 9 6 17
-21 20 -18 10 8 -7 18 -20 21 -29 6z"/>
<path d="M810 730 c0 -5 5 -10 10 -10 6 0 10 5 10 10 0 6 -4 10 -10 10 -5 0
-10 -4 -10 -10z"/>
<path d="M780 720 c0 -5 5 -10 10 -10 6 0 10 5 10 10 0 6 -4 10 -10 10 -5 0
-10 -4 -10 -10z"/>
<path d="M120 699 c0 -5 5 -7 10 -4 6 3 10 8 10 11 0 2 -4 4 -10 4 -5 0 -10
-5 -10 -11z"/>
<path d="M425 700 c-50 -20 -89 -91 -80 -144 12 -58 68 -106 126 -106 50 0
115 55 125 106 l6 33 34 -25 c26 -20 40 -24 63 -19 30 6 30 6 11 27 -11 12
-22 29 -25 38 -8 26 -75 52 -114 45 -27 -5 -37 -1 -58 21 -26 28 -22 29 32 9
20 -8 20 -8 0 8 -21 17 -87 21 -120 7z m108 -63 c26 -24 47 -51 47 -59 0 -8
-16 -36 -35 -62 -32 -41 -40 -46 -75 -46 -53 0 -96 39 -105 96 -6 37 -3 46 26
79 36 40 68 57 84 45 6 -5 31 -29 58 -53z m100 -16 c11 -2 48 -41 38 -41 -6 0
-13 5 -17 11 -4 8 -9 7 -15 -2 -7 -12 -9 -12 -9 -1 0 8 -10 23 -22 33 -20 17
-20 19 -3 11 11 -6 23 -10 28 -11z"/>
<path d="M820 700 c0 -5 5 -10 10 -10 6 0 10 5 10 10 0 6 -4 10 -10 10 -5 0
-10 -4 -10 -10z"/>
<path d="M781 691 c-7 -5 -10 -14 -7 -20 4 -6 2 -11 -3 -11 -6 0 -11 -4 -11
-10 0 -5 7 -7 15 -4 9 4 14 14 13 23 -2 9 3 15 10 14 6 -2 12 2 12 7 0 12 -10
13 -29 1z"/>
<path d="M180 680 c8 -5 20 -10 25 -10 6 0 3 5 -5 10 -8 5 -19 10 -25 10 -5 0
-3 -5 5 -10z"/>
<path d="M110 669 c0 -5 5 -7 10 -4 6 3 10 8 10 11 0 2 -4 4 -10 4 -5 0 -10
-5 -10 -11z"/>
<path d="M830 670 c0 -5 5 -10 10 -10 6 0 10 5 10 10 0 6 -4 10 -10 10 -5 0
-10 -4 -10 -10z"/>
<path d="M700 660 c-13 -9 -13 -10 0 -10 8 0 22 5 30 10 13 9 13 10 0 10 -8 0
-22 -5 -30 -10z"/>
<path d="M220 640 c8 -5 22 -10 30 -10 13 0 13 1 0 10 -8 5 -22 10 -30 10 -13
0 -13 -1 0 -10z"/>
<path d="M828 643 c-28 -7 -21 -21 7 -15 14 2 25 8 25 13 0 9 -4 10 -32 2z"/>
<path d="M265 625 c-22 -8 -31 -14 -20 -14 11 0 34 6 50 14 38 17 22 17 -30 0z"/>
<path d="M698 633 c7 -3 16 -2 19 1 4 3 -2 6 -13 5 -11 0 -14 -3 -6 -6z"/>
<path d="M770 630 c-12 -8 -11 -10 8 -10 12 0 22 5 22 10 0 13 -11 13 -30 0z"/>
<path d="M742 610 c0 -14 2 -19 5 -12 2 6 2 18 0 25 -3 6 -5 1 -5 -13z"/>
<path d="M708 613 c7 -3 16 -2 19 1 4 3 -2 6 -13 5 -11 0 -14 -3 -6 -6z"/>
<path d="M840 610 c0 -5 5 -10 10 -10 6 0 10 5 10 10 0 6 -4 10 -10 10 -5 0
-10 -4 -10 -10z"/>
<path d="M760 600 c0 -5 5 -10 10 -10 6 0 10 5 10 10 0 6 -4 10 -10 10 -5 0
-10 -4 -10 -10z"/>
<path d="M218 593 c12 -2 32 -2 45 0 12 2 2 4 -23 4 -25 0 -35 -2 -22 -4z"/>
<path d="M845 581 c-3 -5 -1 -12 5 -16 5 -3 10 1 10 9 0 18 -6 21 -15 7z"/>
<path d="M228 573 c18 -2 45 -2 60 0 15 2 0 4 -33 4 -33 0 -45 -2 -27 -4z"/>
<path d="M748 573 c6 -2 18 -2 25 0 6 3 1 5 -13 5 -14 0 -19 -2 -12 -5z"/>
<path d="M792 560 c0 -14 2 -19 5 -12 2 6 2 18 0 25 -3 6 -5 1 -5 -13z"/>
<path d="M218 553 c12 -2 32 -2 45 0 12 2 2 4 -23 4 -25 0 -35 -2 -22 -4z"/>
<path d="M742 540 c0 -14 2 -19 5 -12 2 6 2 18 0 25 -3 6 -5 1 -5 -13z"/>
<path d="M765 550 c-3 -5 -1 -10 4 -10 6 0 11 5 11 10 0 6 -2 10 -4 10 -3 0
-8 -4 -11 -10z"/>
<path d="M840 540 c0 -5 5 -10 10 -10 6 0 10 5 10 10 0 6 -4 10 -10 10 -5 0
-10 -4 -10 -10z"/>
<path d="M231 536 c2 -2 20 -6 39 -10 25 -4 31 -3 20 4 -14 9 -69 15 -59 6z"/>
<path d="M710 529 c12 -8 9 -10 -12 -6 -15 2 -25 0 -22 -4 3 -5 0 -9 -5 -9 -6
0 -11 5 -11 11 0 8 -5 8 -15 -1 -8 -7 -12 -16 -9 -21 3 -6 -6 -8 -20 -5 -14 2
-30 -1 -36 -9 -9 -10 -7 -13 7 -10 10 2 20 4 23 5 3 1 12 3 20 4 8 0 14 6 13
12 -1 5 14 11 34 11 22 1 31 -2 23 -7 -9 -6 -7 -10 9 -15 13 -4 25 -4 28 -1 4
3 1 6 -6 6 -9 0 -11 8 -7 25 5 20 3 25 -11 25 -16 0 -16 -2 -3 -11z"/>
<path d="M770 520 c19 -13 30 -13 30 0 0 6 -10 10 -22 10 -19 0 -20 -2 -8 -10z"/>
<path d="M220 509 c-12 -8 -8 -9 15 -6 17 2 24 2 18 0 -16 -6 -16 -8 2 -44 14
-25 18 -28 36 -18 16 8 24 8 33 -2 7 -8 7 -10 0 -6 -6 4 -20 0 -30 -8 -27 -20
-29 -19 -49 25 -10 22 -20 38 -22 36 -3 -2 3 -19 13 -37 11 -23 13 -34 5 -37
-6 -2 -18 -10 -26 -18 -10 -11 -16 -11 -21 -2 -4 6 -3 13 2 15 24 9 34 21 29
35 -7 17 -45 13 -45 -4 0 -5 9 -6 20 -3 28 9 25 -2 -4 -17 -22 -12 -23 -15
-11 -32 14 -18 15 -18 40 3 26 20 28 20 51 3 29 -21 30 -32 3 -29 -12 1 -23
-4 -25 -11 -1 -7 0 -8 3 -2 2 5 9 10 14 10 16 0 9 -19 -17 -45 -23 -23 -24
-27 -10 -41 15 -14 18 -14 33 1 12 12 13 19 4 24 -13 8 -4 41 11 41 6 0 8 -7
4 -15 -3 -8 -1 -15 4 -15 6 0 10 5 10 12 0 6 3 9 6 6 3 -4 0 -16 -6 -29 -10
-18 -9 -24 5 -32 13 -7 14 -11 5 -17 -7 -4 -10 -14 -8 -21 3 -10 9 -7 17 9 11
20 10 26 -6 38 -10 7 -13 14 -7 14 6 0 21 22 34 50 29 63 39 58 11 -5 -28 -63
-26 -71 4 -15 27 50 33 42 10 -14 -9 -21 -11 -36 -5 -36 5 0 10 5 10 10 0 6 4
10 10 10 5 0 7 -8 4 -17 -5 -15 -4 -16 5 -3 15 21 14 30 -4 30 -13 0 -14 4 -5
20 6 11 8 32 4 47 -4 19 -3 24 4 15 7 -11 11 -10 16 3 7 19 -11 48 -25 39 -12
-7 -11 9 1 24 6 6 7 10 3 7 -3 -3 -15 2 -25 12 -10 9 -18 13 -18 9 0 -3 -10 0
-23 8 -15 10 -27 12 -37 6 -13 -9 -13 -10 0 -10 13 0 13 -1 0 -10 -20 -13 -33
-13 -25 0 3 6 0 10 -7 10 -7 1 -2 7 11 14 20 11 21 14 6 19 -23 10 -38 8 -55
-4z m132 -44 c12 0 23 -16 23 -33 0 -9 6 -17 14 -17 8 0 16 -7 18 -15 4 -13 3
-13 -6 0 -8 11 -11 12 -11 2 0 -7 -4 -11 -10 -7 -5 3 -17 -9 -26 -27 -21 -42
-18 -40 -38 -32 -11 4 -15 13 -11 24 4 12 -1 23 -12 29 -17 11 -17 12 1 26 14
10 24 12 38 4 17 -9 18 -8 9 10 -16 29 -28 33 -53 21 -22 -11 -23 -11 -3 5 11
9 19 21 17 26 -1 5 8 4 20 -3 13 -7 26 -12 30 -13z m-82 -175 c0 -5 -4 -10
-10 -10 -5 0 -10 5 -10 10 0 6 5 10 10 10 6 0 10 -4 10 -10z"/>
<path d="M327 460 c7 -8 20 -15 29 -16 9 -1 13 1 9 4 -4 4 -10 7 -13 7 -4 0
-14 4 -22 9 -12 7 -13 6 -3 -4z"/>
<path d="M304 408 c-4 -6 1 -17 10 -24 11 -7 15 -18 11 -26 -4 -7 4 1 19 17
14 17 25 35 25 40 0 6 -6 1 -14 -9 -9 -12 -15 -15 -15 -7 0 11 -3 11 -15 1
-13 -11 -14 -10 -9 4 7 18 -1 22 -12 4z"/>
<path d="M840 510 c0 -5 5 -10 10 -10 6 0 10 5 10 10 0 6 -4 10 -10 10 -5 0
-10 -4 -10 -10z"/>
<path d="M755 495 c17 -7 32 -11 34 -9 8 7 -6 15 -35 19 l-29 4 30 -14z"/>
<path d="M165 490 c3 -5 8 -10 11 -10 2 0 4 5 4 10 0 6 -5 10 -11 10 -5 0 -7
-4 -4 -10z"/>
<path d="M659 483 c-1 -5 -1 -12 0 -17 1 -5 -5 -6 -13 -3 -22 9 -28 -5 -9 -25
16 -17 15 -18 -8 -14 -13 2 -23 10 -21 17 2 9 0 10 -11 1 -10 -8 -17 -8 -24
-1 -12 12 -53 -22 -52 -43 0 -7 5 -3 11 10 6 12 15 22 20 22 5 0 2 -13 -7 -30
-8 -16 -15 -35 -14 -42 0 -7 4 -4 8 7 7 17 9 16 15 -9 5 -20 3 -32 -6 -38 -10
-8 -9 -9 4 -5 11 4 18 -2 22 -19 7 -26 13 -29 34 -15 11 7 10 16 -7 50 -12 22
-24 41 -26 41 -3 0 1 -13 10 -30 9 -17 12 -30 8 -30 -5 0 -2 -4 6 -9 8 -5 9
-11 3 -15 -14 -9 -45 80 -34 100 7 13 16 3 43 -50 31 -61 49 -81 49 -56 0 6
-4 10 -8 10 -5 0 -16 16 -25 35 -20 41 -22 54 -6 38 6 -6 17 -10 23 -7 17 5
52 -46 37 -55 -6 -4 -9 -15 -5 -24 4 -12 1 -17 -12 -17 -13 0 -15 -3 -7 -11 9
-9 16 -7 29 6 13 13 14 19 5 25 -10 6 -10 9 -1 15 7 4 16 2 20 -5 6 -10 13 -8
31 9 12 11 27 21 32 21 5 0 7 7 3 15 -3 9 0 15 9 15 8 0 15 5 15 10 0 6 -7 10
-15 10 -17 0 -20 16 -6 24 5 4 11 0 14 -6 3 -9 10 -7 21 7 18 23 20 35 6 35
-5 0 -10 -7 -10 -16 0 -11 -5 -14 -17 -10 -9 4 -20 2 -23 -5 -8 -12 -48 4 -62
25 -6 8 -10 7 -16 -2 -7 -10 -14 -8 -33 7 -13 11 -19 20 -12 21 6 0 15 -4 18
-10 3 -5 12 -10 18 -10 7 0 6 4 -3 10 -30 20 4 9 37 -11 19 -12 37 -19 40 -15
4 3 1 6 -6 6 -8 0 -10 8 -6 23 7 22 7 22 -9 2 -17 -20 -17 -20 -11 1 5 18 0
24 -26 33 -38 13 -39 13 -40 4z m40 -17 l24 -13 -30 1 c-16 0 -30 7 -30 14 0
15 6 15 36 -2z m-105 -41 c5 0 11 -6 14 -14 3 -9 0 -11 -8 -6 -9 5 -11 4 -6
-4 4 -6 12 -9 17 -6 5 3 6 -2 2 -11 -6 -16 -7 -15 -20 2 -7 10 -13 23 -13 28
-1 6 -8 0 -16 -14 -10 -17 -13 -18 -8 -5 3 11 7 25 7 32 0 7 5 9 11 5 6 -4 15
-7 20 -7z m53 -50 c-15 -16 -17 -14 -23 21 -5 28 -5 28 15 10 16 -14 17 -21 8
-31z m33 24 c0 -14 -17 -10 -23 5 -4 10 -1 13 9 9 7 -3 14 -9 14 -14z m34 5
c23 -9 19 -24 -5 -21 -25 2 -33 -11 -19 -33 9 -13 11 -13 20 0 8 13 13 12 32
-7 18 -19 19 -23 6 -23 -9 0 -18 -6 -20 -12 -5 -13 -10 -9 -51 39 -18 21 -18
22 0 41 22 25 18 23 37 16z m51 -54 c-4 -6 -12 -5 -21 5 -9 8 -12 19 -9 25 4
6 12 5 21 -5 9 -8 12 -19 9 -25z m-55 20 c0 -5 -4 -10 -10 -10 -5 0 -10 5 -10
10 0 6 5 10 10 10 6 0 10 -4 10 -10z"/>
<path d="M710 330 c0 -5 5 -10 10 -10 6 0 10 5 10 10 0 6 -4 10 -10 10 -5 0
-10 -4 -10 -10z"/>
<path d="M830 480 c0 -5 5 -10 10 -10 6 0 10 5 10 10 0 6 -4 10 -10 10 -5 0
-10 -4 -10 -10z"/>
<path d="M180 470 c-8 -5 -10 -10 -5 -10 6 0 17 5 25 10 8 5 11 10 5 10 -5 0
-17 -5 -25 -10z"/>
<path d="M780 460 c18 -12 30 -13 30 -2 0 4 -10 9 -22 9 -18 2 -20 0 -8 -7z"/>
<path d="M120 450 c0 -5 5 -10 11 -10 5 0 7 5 4 10 -3 6 -8 10 -11 10 -2 0 -4
-4 -4 -10z"/>
<path d="M820 450 c0 -5 5 -10 10 -10 6 0 10 5 10 10 0 6 -4 10 -10 10 -5 0
-10 -4 -10 -10z"/>
<path d="M780 430 c0 -5 5 -10 10 -10 6 0 10 5 10 10 0 6 -4 10 -10 10 -5 0
-10 -4 -10 -10z"/>
<path d="M135 420 c-3 -5 -1 -10 4 -10 6 0 11 5 11 10 0 6 -2 10 -4 10 -3 0
-8 -4 -11 -10z"/>
<path d="M438 385 c2 -14 10 -25 17 -25 8 0 16 -10 18 -22 2 -13 5 -5 5 17 0
22 -2 34 -5 28 -8 -20 -23 -15 -23 7 0 11 -4 20 -9 20 -4 0 -6 -11 -3 -25z"/>
<path d="M490 375 c0 -19 2 -35 4 -35 2 0 6 16 8 35 2 19 0 35 -4 35 -4 0 -8
-16 -8 -35z"/>
<path d="M145 390 c-3 -5 1 -10 10 -10 9 0 13 5 10 10 -3 6 -8 10 -10 10 -2 0
-7 -4 -10 -10z"/>
<path d="M235 379 c-11 -16 -1 -19 13 -3 7 8 8 14 3 14 -5 0 -13 -5 -16 -11z"/>
<path d="M416 365 c-3 -9 -6 -22 -5 -28 0 -7 5 -1 10 12 5 13 8 26 5 28 -2 2
-6 -3 -10 -12z"/>
<path d="M512 365 c0 -11 4 -31 8 -45 6 -20 8 -21 8 -5 0 11 -4 31 -8 45 -6
20 -8 21 -8 5z"/>
<path d="M160 360 c0 -5 5 -10 10 -10 6 0 10 5 10 10 0 6 -4 10 -10 10 -5 0
-10 -4 -10 -10z"/>
<path d="M186 342 c-8 -14 21 -48 32 -38 3 4 2 10 -4 14 -6 4 -13 14 -16 22
-3 10 -6 11 -12 2z"/>
<path d="M431 333 c-1 -16 -6 -21 -18 -17 -16 5 -16 4 0 -6 23 -15 30 -8 24
22 -4 22 -4 22 -6 1z"/>
<path d="M452 325 c0 -16 2 -22 5 -12 2 9 2 23 0 30 -3 6 -5 -1 -5 -18z"/>
<path d="M646 325 c4 -8 11 -15 16 -15 6 0 5 6 -2 15 -7 8 -14 15 -16 15 -2 0
-1 -7 2 -15z"/>
<path d="M478 303 c6 -2 18 -2 25 0 6 3 1 5 -13 5 -14 0 -19 -2 -12 -5z"/>
<path d="M550 283 c0 -13 5 -23 10 -23 13 0 13 11 0 30 -8 12 -10 11 -10 -7z"/>
<path d="M432 283 c10 -2 15 -10 11 -19 -3 -8 0 -14 6 -14 6 0 11 9 11 20 0
14 -6 20 -22 19 -17 -1 -18 -3 -6 -6z"/>
<path d="M470 270 c0 -11 4 -20 8 -20 4 0 8 9 8 20 0 11 -4 20 -8 20 -4 0 -8
-9 -8 -20z"/>
<path d="M502 270 c0 -14 2 -19 5 -12 2 6 2 18 0 25 -3 6 -5 1 -5 -13z"/>
<path d="M413 250 c-1 -11 2 -20 5 -20 4 0 8 9 9 20 1 11 -2 20 -5 20 -4 0 -8
-9 -9 -20z"/>
<path d="M527 250 c3 -11 9 -20 13 -20 5 0 6 9 3 20 -3 11 -9 20 -13 20 -5 0
-6 -9 -3 -20z"/>
<path d="M602 261 c-7 -4 -12 -13 -10 -18 2 -6 -1 -10 -7 -9 -5 0 -9 4 -7 9 1
4 -2 7 -8 7 -5 0 -8 -10 -6 -22 3 -13 5 -25 5 -28 1 -2 6 1 12 7 6 6 18 9 25
6 17 -6 18 9 3 24 -8 8 -8 13 0 17 11 7 12 6 15 -14 0 -5 4 -10 9 -10 9 0 10
2 2 23 -8 19 -14 21 -33 8z"/>
<path d="M280 250 c0 -5 5 -10 10 -10 6 0 10 5 10 10 0 6 -4 10 -10 10 -5 0
-10 -4 -10 -10z"/>
<path d="M350 250 c0 -5 5 -10 10 -10 6 0 10 5 10 10 0 6 -4 10 -10 10 -5 0
-10 -4 -10 -10z"/>
<path d="M377 228 c-6 -21 -2 -36 7 -27 10 11 16 49 8 49 -5 0 -12 -10 -15
-22z"/>
<path d="M440 230 c0 -5 5 -10 10 -10 6 0 10 5 10 10 0 6 -4 10 -10 10 -5 0
-10 -4 -10 -10z"/>
<path d="M470 230 c0 -5 5 -10 10 -10 6 0 10 5 10 10 0 6 -4 10 -10 10 -5 0
-10 -4 -10 -10z"/>
<path d="M500 230 c0 -5 5 -10 10 -10 6 0 10 5 10 10 0 6 -4 10 -10 10 -5 0
-10 -4 -10 -10z"/>
<path d="M340 220 c0 -5 5 -10 10 -10 6 0 10 5 10 10 0 6 -4 10 -10 10 -5 0
-10 -4 -10 -10z"/>
<path d="M405 211 c-3 -5 -1 -12 5 -16 5 -3 10 1 10 9 0 18 -6 21 -15 7z"/>
<path d="M535 211 c-3 -5 -1 -12 5 -16 5 -3 10 1 10 9 0 18 -6 21 -15 7z"/>
<path d="M435 200 c4 -6 11 -8 16 -5 14 9 11 15 -7 15 -8 0 -12 -5 -9 -10z"/>
<path d="M470 200 c0 -5 5 -10 10 -10 6 0 10 5 10 10 0 6 -4 10 -10 10 -5 0
-10 -4 -10 -10z"/>
<path d="M500 200 c0 -5 5 -10 10 -10 6 0 10 5 10 10 0 6 -4 10 -10 10 -5 0
-10 -4 -10 -10z"/>
<path d="M350 107 c-26 -13 -38 -60 -21 -85 11 -18 73 -21 78 -4 4 9 -2 11
-19 7 -30 -8 -52 16 -43 45 4 14 15 20 36 20 31 0 39 14 13 24 -19 7 -14 8
-44 -7z"/>
<path d="M436 113 c-3 -3 -6 -31 -6 -60 0 -40 3 -53 13 -50 6 2 11 14 10 26
-2 16 3 21 22 21 20 0 25 -5 25 -26 0 -16 5 -24 13 -22 15 6 17 108 2 108 -5
1 -11 -8 -13 -20 -2 -13 -11 -20 -27 -20 -18 0 -22 4 -18 19 5 19 -9 36 -21
24z"/>
<path d="M575 96 c-30 -30 -32 -49 -4 -77 22 -22 60 -22 67 0 3 9 -1 11 -14 7
-27 -8 -46 8 -42 35 2 18 10 25 31 27 16 2 27 8 24 15 -7 22 -36 19 -62 -7z"/>
<path d="M682 104 c-22 -15 -30 -57 -14 -80 12 -18 50 -26 72 -14 29 15 28 74
-2 94 -12 9 -25 16 -28 16 -3 0 -16 -7 -28 -16z m56 -40 c2 -11 -4 -27 -13
-34 -22 -19 -50 9 -40 39 9 29 49 25 53 -5z"/>
<path d="M927 114 c-3 -3 -3 -21 0 -40 7 -43 0 -43 -27 1 -33 53 -50 46 -50
-20 0 -65 17 -74 22 -12 l3 42 24 -42 c34 -60 51 -56 51 11 0 50 -9 74 -23 60z"/>
<path d="M10 55 c0 -30 5 -55 10 -55 6 0 10 9 10 19 0 12 8 21 21 23 55 8 50
68 -6 68 l-35 0 0 -55z m50 19 c0 -8 -7 -14 -15 -14 -15 0 -21 21 -9 33 10 9
24 -2 24 -19z"/>
<path d="M112 59 c3 -50 4 -52 36 -54 17 -2 32 1 32 6 0 5 -9 9 -20 9 -11 0
-20 7 -20 15 0 8 9 15 20 15 11 0 20 5 20 10 0 6 -9 10 -20 10 -11 0 -20 5
-20 10 0 6 9 10 20 10 11 0 20 5 20 10 0 6 -16 10 -36 10 l-35 0 3 -51z"/>
<path d="M217 59 c-19 -53 -15 -77 7 -46 7 9 19 17 26 17 7 0 19 -8 26 -17 22
-31 27 -6 9 46 -22 68 -44 68 -68 0z m43 1 c0 -11 -4 -20 -10 -20 -5 0 -10 9
-10 20 0 11 5 20 10 20 6 0 10 -9 10 -20z"/>
<path d="M785 55 c0 -47 2 -54 19 -51 15 2 19 12 20 54 1 46 -1 52 -19 52 -18
0 -20 -7 -20 -55z"/>
</g>
</svg>
