<svg width="69" height="22" viewBox="0 0 69 22" fill="none" xmlns="http://www.w3.org/2000/svg">
<path d="M10.0342 21.1C6.84597 21.1 4.37164 20.2225 2.61125 18.4676C0.870416 16.693 0 14.0704 0 10.6C0 7.12958 0.870416 4.51691 2.61125 2.76198C4.37164 0.98733 6.84597 0.100006 10.0342 0.100006C13.2421 0.100006 15.7164 0.98733 17.4572 2.76198C19.2176 4.51691 20.0978 7.12958 20.0978 10.6C20.0978 14.0507 19.2176 16.6634 17.4572 18.438C15.7164 20.2127 13.2421 21.1 10.0342 21.1ZM10.0342 18.7042C12.3619 18.7042 14.1418 18.0732 15.3741 16.8113C16.6064 15.5296 17.2225 13.4986 17.2225 10.7183V10.6C17.2029 7.78029 16.577 5.72958 15.3447 4.44789C14.1125 3.14648 12.3423 2.49578 10.0342 2.49578C7.74572 2.49578 5.98533 3.14648 4.75306 4.44789C3.52078 5.72958 2.89487 7.78029 2.87531 10.6V10.7183C2.87531 13.4986 3.49144 15.5296 4.72372 16.8113C5.95599 18.0732 7.72616 18.7042 10.0342 18.7042Z" fill="white"/>
<path d="M21.7209 0.454935H24.2148L34.8358 14.593L35.54 15.5394L35.6573 15.5099V14.1493V0.454935H38.2686V20.7451H35.892L25.2123 6.42958L24.4495 5.39437L24.3321 5.42395V6.63663V20.7451H21.7209V0.454935Z" fill="white"/>
<path d="M49.9364 21.1C46.7482 21.1 44.2738 20.2225 42.5134 18.4676C40.7726 16.693 39.9022 14.0704 39.9022 10.6C39.9022 7.12958 40.7726 4.51691 42.5134 2.76198C44.2738 0.98733 46.7482 0.100006 49.9364 0.100006C53.1443 0.100006 55.6186 0.98733 57.3594 2.76198C59.1198 4.51691 60 7.12958 60 10.6C60 14.0507 59.1198 16.6634 57.3594 18.438C55.6186 20.2127 53.1443 21.1 49.9364 21.1ZM49.9364 18.7042C52.2641 18.7042 54.044 18.0732 55.2763 16.8113C56.5086 15.5296 57.1247 13.4986 57.1247 10.7183V10.6C57.1051 7.78029 56.4792 5.72958 55.2469 4.44789C54.0147 3.14648 52.2445 2.49578 49.9364 2.49578C47.6479 2.49578 45.8875 3.14648 44.6553 4.44789C43.423 5.72958 42.7971 7.78029 42.7775 10.6V10.7183C42.7775 13.4986 43.3936 15.5296 44.6259 16.8113C45.8582 18.0732 47.6284 18.7042 49.9364 18.7042Z" fill="white"/>
</svg>
