<svg xmlns="http://www.w3.org/2000/svg" fill="none" height="10" width="13"><path fill="#fff" d="M10.018 2.5H.123a.125.125 0 0 1-.087-.213L2.21.11A.385.385 0 0 1 2.478 0h9.895a.125.125 0 0 1 .087.212L10.285 2.39a.385.385 0 0 1-.267.11zm0 7.5H.123a.125.125 0 0 1-.087-.213L2.21 7.61a.385.385 0 0 1 .267-.11h9.895a.125.125 0 0 1 .087.212L10.285 9.89a.385.385 0 0 1-.267.11zm-7.54-3.75h9.895a.125.125 0 0 0 .087-.213L10.285 3.86a.385.385 0 0 0-.267-.11H.123a.125.125 0 0 0-.087.212L2.21 6.14c.071.07.167.11.267.11z"></path></svg>