<svg width="24" height="24" viewBox="0 0 24 24" fill="none" xmlns="http://www.w3.org/2000/svg">
<rect width="24" height="24" rx="12" fill="white" fill-opacity="0.05"/>
<path d="M16.018 9.49994H6.12324C6.09878 9.49959 6.07495 9.49208 6.05472 9.47832C6.03448 9.46456 6.01873 9.44517 6.00942 9.42254C6.0001 9.39992 5.99763 9.37506 6.00231 9.35104C6.00699 9.32703 6.01861 9.30491 6.03574 9.28744L8.21069 7.11C8.28217 7.03996 8.37811 7.00051 8.47818 7H18.3729C18.3974 7.00034 18.4212 7.00786 18.4415 7.02162C18.4617 7.03537 18.4774 7.05477 18.4868 7.07739C18.4961 7.10002 18.4985 7.12488 18.4939 7.14889C18.4892 7.17291 18.4776 7.19502 18.4604 7.21249L16.2855 9.38994C16.214 9.45998 16.1181 9.49943 16.018 9.49994Z" fill="white"/>
<path d="M16.018 16.9998H6.12324C6.09878 16.9995 6.07495 16.992 6.05472 16.9782C6.03448 16.9644 6.01873 16.945 6.00942 16.9224C6.0001 16.8998 5.99763 16.8749 6.00231 16.8509C6.00699 16.8269 6.01861 16.8048 6.03574 16.7873L8.21069 14.6099C8.28217 14.5398 8.37811 14.5004 8.47818 14.4999H18.3729C18.3974 14.5002 18.4212 14.5077 18.4415 14.5215C18.4617 14.5353 18.4774 14.5546 18.4868 14.5773C18.4961 14.5999 18.4985 14.6248 18.4939 14.6488C18.4892 14.6728 18.4776 14.6949 18.4604 14.7124L16.2855 16.8898C16.214 16.9599 16.1181 16.9993 16.018 16.9998Z" fill="white"/>
<path d="M8.47818 13.2499H18.3729C18.3974 13.2495 18.4212 13.242 18.4415 13.2283C18.4617 13.2145 18.4774 13.1951 18.4868 13.1725C18.4961 13.1499 18.4985 13.125 18.4939 13.101C18.4892 13.077 18.4776 13.0549 18.4604 13.0374L16.2855 10.8599C16.214 10.7899 16.1181 10.7504 16.018 10.7499H6.12324C6.09878 10.7503 6.07495 10.7578 6.05472 10.7716C6.03448 10.7853 6.01873 10.8047 6.00942 10.8273C6.0001 10.85 5.99763 10.8748 6.00231 10.8988C6.00699 10.9228 6.01861 10.945 6.03574 10.9624L8.21069 13.1399C8.28217 13.2099 8.37811 13.2494 8.47818 13.2499Z" fill="white"/>
</svg>
