<svg width="67" height="60" viewBox="0 0 67 60" fill="none" xmlns="http://www.w3.org/2000/svg">
<path fill-rule="evenodd" clip-rule="evenodd" d="M52.9766 55.927C51.5706 58.3593 48.9417 59.9982 45.9352 59.9982C41.4481 59.9982 37.8041 56.3503 37.8041 51.8557C37.8041 50.3447 38.2155 48.9298 38.9321 47.7178L51.4539 25.9991C51.4664 25.9742 51.4811 25.9516 51.4946 25.9278C53.7393 22.0353 58.7169 20.6999 62.6016 22.9466C66.4727 25.1853 67.8109 30.1393 65.6024 34.026H65.6035L52.9763 55.9258L52.9766 55.927ZM38.8553 4.13726C38.8824 4.08859 38.9107 4.03992 38.94 3.99125L38.9412 3.98786C39.6295 2.82434 40.6162 1.81475 41.8696 1.0915C45.7555 -1.15631 50.733 0.179259 52.9766 4.07273C54.4629 6.6499 54.3781 9.70573 53.0241 12.1303L27.7743 55.9288C27.0837 57.1274 26.079 58.1675 24.7973 58.91C20.9103 61.1555 15.9339 59.82 13.6903 55.9288C12.1735 53.2984 12.2922 50.17 13.7276 47.7231L38.8553 4.13726ZM13.6541 4.13273C13.6734 4.09991 13.6926 4.06596 13.7129 4.032L13.7163 4.0286C15.1291 1.61894 17.7422 0.00167435 20.7317 0.00167435C25.2188 0.00167435 28.8628 3.64962 28.8628 8.1442C28.8628 9.60766 28.4751 10.9817 27.7981 12.1703L27.7857 12.1952H27.7845L27.7834 12.1997L15.1721 34.0722C12.9297 37.9636 7.95218 39.299 4.06631 37.0535C0.179288 34.8056 -1.15429 29.821 1.08927 25.9309L13.6554 4.13394L13.6541 4.13273Z" fill="#C2D0DE"/>
</svg>
