<svg width="53" height="60" viewBox="0 0 53 60" fill="none" xmlns="http://www.w3.org/2000/svg">
<path d="M20.9997 28.0642H31.4996V60H20.9997V28.0642ZM2.0998 58.0645C2.0998 59.1338 3.03948 59.9998 4.19959 59.9998H18.8991L18.8998 28.0641H2.09959L2.0998 58.0645ZM50.3995 17.419H40.6598C43.9396 15.9136 46.1991 12.8002 46.1991 9.19346C46.1991 4.1157 41.7336 8.30039e-08 36.2244 8.30039e-08C30.7151 -0.000674923 26.2496 4.1157 26.2496 9.19346C26.2496 4.1157 21.7842 8.30039e-08 16.2749 8.30039e-08C10.7656 -0.000674923 6.30014 4.1157 6.30014 9.19346C6.30014 12.8002 8.55969 15.9136 11.8402 17.4197L2.0998 17.419C0.939648 17.419 0 18.2851 0 19.3543V25.1612C0 26.2305 0.939685 27.0965 2.0998 27.0965H18.9001V17.419H16.8295C15.5434 16.5387 14.6997 15.1394 14.6997 13.5483C14.6997 10.8765 17.0508 8.7096 19.9497 8.7096C22.8486 8.7096 25.1996 10.8765 25.1996 13.5483V17.419H21V27.0965H31.5V17.419H27.3004V13.5483C27.3004 10.8765 29.6514 8.7096 32.5503 8.7096C35.4492 8.7096 37.8003 10.8765 37.8003 13.5483C37.8003 15.1394 36.9573 16.5389 35.6712 17.419H33.5999V27.0965H50.4002C51.5604 27.0965 52.5 26.2304 52.5 25.1612V19.3543C52.5 18.2851 51.5603 17.419 50.4002 17.419L50.3995 17.419ZM33.5992 60H48.2987C49.4589 60 50.3985 59.1339 50.3985 58.0647L50.3993 28.0644H33.599L33.5992 60Z" fill="#C2D0DE"/>
</svg>
