<svg width="337" height="538" viewBox="0 0 337 538" fill="none" xmlns="http://www.w3.org/2000/svg">
<g filter="url(#filter0_b_18_143256)">
<rect x="8.54907" y="117.045" width="317.17" height="316.961" rx="158.48" fill="white" fill-opacity="0.09"/>
</g>
<path d="M171.407 260.241C158.298 256.027 144.139 256.913 132.035 262.702C119.93 268.492 110.867 278.715 106.83 291.129C85.2057 358.165 120.137 417.928 90.5899 508.806C120.137 417.928 183.915 390.022 205.704 323.007C209.68 310.584 208.303 297.006 201.875 285.243C195.448 273.48 184.493 264.49 171.407 260.241Z" fill="url(#paint0_linear_18_143256)"/>
<path d="M171.431 260.249C162.492 257.375 152.838 257.979 144.584 261.927C136.33 265.875 130.149 272.846 127.397 281.311C112.651 327.023 136.471 367.776 116.322 429.745C136.471 367.776 179.961 348.746 194.819 303.049C197.53 294.578 196.591 285.318 192.208 277.297C187.825 269.276 180.355 263.146 171.431 260.249Z" fill="url(#paint1_linear_18_143256)"/>
<path d="M171.432 260.249C165.459 258.31 158.999 258.699 153.473 261.331C147.948 263.963 143.809 268.623 141.968 274.286C132.005 304.93 148.014 332.274 134.528 373.753C148.014 332.274 177.028 319.55 186.991 288.905C188.831 283.246 188.226 277.049 185.308 271.676C182.391 266.303 177.4 262.193 171.432 260.249Z" fill="url(#paint2_linear_18_143256)"/>
<path d="M145.14 247.5L199.209 265.344L196.521 273.465C196.193 274.455 195.464 275.267 194.494 275.723C193.524 276.18 192.392 276.242 191.348 275.898L145.153 260.653C144.109 260.308 143.238 259.584 142.731 258.641C142.224 257.697 142.124 256.611 142.451 255.622L145.14 247.5Z" fill="url(#paint3_linear_18_143256)"/>
<path d="M252.542 201.809L269.404 251.197C270.411 254.122 270.751 257.202 270.4 260.224C270.05 263.246 269.017 266.139 267.372 268.704L235.719 318.231C235.487 318.615 235.15 318.93 234.742 319.142C234.335 319.354 233.872 319.456 233.402 319.437C232.932 319.417 232.472 319.277 232.07 319.032C231.668 318.786 231.339 318.444 231.118 318.04L198.678 264.433L252.542 201.809Z" fill="url(#paint4_linear_18_143256)"/>
<path d="M139.922 164.843L97.0214 194.606C94.4746 196.365 92.3735 198.644 90.8626 201.286C89.3517 203.927 88.4669 206.869 88.2691 209.908L84.3076 268.559C84.2653 269.007 84.3501 269.461 84.5531 269.874C84.756 270.287 85.0696 270.644 85.4611 270.906C85.8525 271.169 86.3074 271.328 86.7779 271.367C87.2484 271.406 87.7173 271.323 88.1353 271.128L146.022 247.115L139.922 164.843Z" fill="url(#paint5_linear_18_143256)"/>
<path d="M247.029 29.6011C182.977 52.4961 113.986 168.245 135.854 241.028C136.129 242.08 136.672 243.057 137.433 243.872C138.194 244.686 139.15 245.312 140.213 245.693L204.021 266.787C205.108 267.109 206.253 267.169 207.353 266.963C208.454 266.757 209.475 266.292 210.326 265.608C271.275 220.201 284.818 86.1169 247.029 29.6011Z" fill="url(#paint6_linear_18_143256)"/>
<path d="M247.029 29.601C223.894 37.8687 200.141 58.2902 180.242 84.4272C164.062 78.3334 268.006 113.3 268.006 113.3C267.568 80.5155 260.636 50.0642 247.029 29.601Z" fill="url(#paint7_linear_18_143256)"/>
<path d="M231.954 154.127C231.21 158.78 229.034 163.074 225.701 166.467C222.369 169.859 218.029 172.197 213.232 173.185C208.434 174.173 203.394 173.767 198.749 172.018C194.103 170.269 190.061 167.256 187.134 163.359C184.207 159.462 182.526 154.857 182.304 150.127C182.082 145.396 183.328 140.752 185.886 136.782C188.444 132.812 192.198 129.694 196.673 127.823C201.148 125.952 206.144 125.412 211.028 126.271C214.272 126.838 217.386 128.009 220.194 129.717C223.001 131.425 225.447 133.635 227.39 136.222C229.334 138.81 230.737 141.723 231.52 144.795C232.303 147.867 232.45 151.039 231.954 154.127Z" fill="url(#paint8_linear_18_143256)"/>
<path d="M231.954 154.127C232.797 148.854 231.751 143.407 228.984 138.665C228.783 139.285 228.581 139.904 228.534 140.552C228.284 143.502 227.405 146.353 225.95 148.929C225.144 150.045 224.073 150.959 222.821 151.599C221.57 152.239 220.171 152.589 218.735 152.62C214.635 152.681 210.704 150.144 206.646 150.506C201.691 150.975 198.138 155.59 193.157 156.138C190.795 156.325 188.407 155.812 186.315 154.668C184.77 153.982 183.425 152.928 182.413 151.611C183.053 157.407 185.871 162.846 190.339 166.91C194.807 170.975 200.62 173.387 206.688 173.693C212.756 174 218.665 172.181 223.307 168.577C227.95 164.973 231.009 159.831 231.911 154.113L231.954 154.127Z" fill="url(#paint9_linear_18_143256)"/>
<g style="mix-blend-mode:overlay" opacity="0.4">
<g style="mix-blend-mode:overlay" opacity="0.4">
<path d="M214.132 131.212C213.626 131.048 213.099 130.877 212.593 130.713C212.326 130.648 212.051 130.634 211.782 130.672C211.514 130.71 211.257 130.799 211.028 130.934C210.571 131.215 210.246 131.653 210.116 132.163C210.001 132.643 210.082 133.153 210.342 133.59C210.602 134.027 211.022 134.359 211.519 134.519L211.708 134.58C212.122 134.693 212.531 134.825 212.932 134.977C213.191 135.063 213.465 135.097 213.735 135.079C214.006 135.06 214.268 134.989 214.506 134.87C214.75 134.757 214.967 134.597 215.144 134.399C215.32 134.202 215.452 133.972 215.532 133.722C215.655 133.222 215.581 132.69 215.323 132.227C215.065 131.765 214.641 131.403 214.132 131.212Z" fill="white"/>
</g>
<g style="mix-blend-mode:overlay" opacity="0.4">
<path d="M207.005 130.401C206.797 130.225 206.556 130.089 206.294 130.005C206.033 129.92 205.758 129.887 205.486 129.908C202.656 130.046 199.904 130.739 197.399 131.944C194.894 133.149 192.69 134.841 190.922 136.915C190.751 137.115 190.625 137.346 190.551 137.596C190.476 137.846 190.454 138.109 190.486 138.37C190.518 138.631 190.604 138.885 190.738 139.117C190.872 139.349 191.052 139.555 191.267 139.723C191.455 139.888 191.677 140.013 191.918 140.089C192.322 140.209 192.75 140.217 193.151 140.113C193.553 140.008 193.911 139.795 194.185 139.499C195.581 137.842 197.329 136.49 199.319 135.527C201.309 134.565 203.498 134.013 205.749 133.905C206.301 133.867 206.81 133.63 207.177 133.242C207.516 132.84 207.683 132.327 207.645 131.803C207.617 131.281 207.389 130.782 207.005 130.401Z" fill="white"/>
</g>
</g>
<g style="mix-blend-mode:soft-light">
<path d="M139.951 230.866C139.965 235.843 140.119 240.821 140.468 245.841L168.431 254.921L167.71 252.19C167.158 249.8 166.669 247.432 166.202 245.07C165.266 240.346 164.675 235.424 164.063 230.496C163.048 220.61 162.744 210.69 163.154 200.807C163.982 180.754 167.619 160.981 173.969 142.017C177.126 132.412 180.952 123.037 185.424 113.956L187.051 110.528L188.868 107.163L192.502 100.431L196.455 93.8682L198.434 90.577L200.569 87.3806C211.973 70.1423 225.247 54.137 240.181 39.621C223.492 52.6455 208.315 67.3377 194.896 83.461L192.345 86.5005L189.951 89.6347L185.148 95.9432L180.693 102.475L178.441 105.744L176.324 109.101C170.595 118.08 165.486 127.42 161.031 137.065C152.027 156.55 145.814 177.179 142.555 198.406C140.903 209.132 140.033 219.978 139.951 230.866Z" fill="white"/>
</g>
<path d="M211.092 137.54C217.565 139.693 221.065 146.685 218.909 153.157C216.753 159.63 209.759 163.13 203.285 160.977C196.811 158.823 193.312 151.831 195.467 145.359C197.623 138.887 204.618 135.386 211.092 137.54ZM212.708 153.956L202.184 150.455C202.07 150.417 201.946 150.425 201.839 150.478L199.073 151.848C199.033 151.868 198.999 151.899 198.977 151.938C198.955 151.977 198.945 152.021 198.948 152.066C198.951 152.111 198.968 152.153 198.995 152.188C199.023 152.223 199.06 152.25 199.103 152.263L209.627 155.764C209.741 155.802 209.865 155.794 209.972 155.741L212.738 154.37C212.778 154.35 212.811 154.319 212.833 154.28C212.855 154.241 212.865 154.197 212.862 154.153C212.859 154.108 212.843 154.066 212.815 154.031C212.788 153.996 212.75 153.97 212.708 153.956ZM211.768 149.337L201.244 145.837L201.192 145.825C201.152 145.821 201.112 145.828 201.076 145.845C201.039 145.862 201.008 145.889 200.985 145.922C200.963 145.955 200.949 145.994 200.947 146.034C200.944 146.074 200.952 146.114 200.97 146.15L202.364 148.904L202.4 148.965C202.456 149.041 202.535 149.1 202.625 149.13L213.149 152.631L213.201 152.642C213.241 152.646 213.281 152.639 213.318 152.622C213.354 152.605 213.385 152.578 213.408 152.545C213.43 152.512 213.444 152.474 213.446 152.433C213.449 152.393 213.441 152.353 213.423 152.317L212.029 149.563L211.993 149.502C211.937 149.425 211.858 149.367 211.768 149.337ZM215.274 146.253L204.75 142.752C204.636 142.714 204.512 142.722 204.404 142.775L201.638 144.146C201.598 144.166 201.565 144.197 201.543 144.236C201.521 144.275 201.511 144.319 201.515 144.364C201.518 144.408 201.534 144.451 201.562 144.486C201.589 144.521 201.626 144.547 201.669 144.561L212.193 148.062C212.306 148.1 212.431 148.091 212.538 148.038L215.304 146.668C215.344 146.648 215.377 146.617 215.4 146.578C215.422 146.539 215.432 146.495 215.429 146.45C215.425 146.406 215.409 146.363 215.381 146.328C215.354 146.293 215.316 146.267 215.274 146.253Z" fill="white"/>
<defs>
<filter id="filter0_b_18_143256" x="4.54907" y="113.045" width="325.17" height="324.961" filterUnits="userSpaceOnUse" color-interpolation-filters="sRGB">
<feFlood flood-opacity="0" result="BackgroundImageFix"/>
<feGaussianBlur in="BackgroundImage" stdDeviation="2"/>
<feComposite in2="SourceAlpha" operator="in" result="effect1_backgroundBlur_18_143256"/>
<feBlend mode="normal" in="SourceGraphic" in2="effect1_backgroundBlur_18_143256" result="shape"/>
</filter>
<linearGradient id="paint0_linear_18_143256" x1="171.484" y1="260.266" x2="90.7636" y2="508.862" gradientUnits="userSpaceOnUse">
<stop stop-color="#4219E2"/>
<stop offset="1" stop-color="#0E88FF"/>
</linearGradient>
<linearGradient id="paint1_linear_18_143256" x1="171.484" y1="260.266" x2="116.441" y2="429.784" gradientUnits="userSpaceOnUse">
<stop stop-color="#4219E2"/>
<stop offset="1" stop-color="#0E9AFF"/>
</linearGradient>
<linearGradient id="paint2_linear_18_143256" x1="171.421" y1="260.246" x2="134.561" y2="373.764" gradientUnits="userSpaceOnUse">
<stop stop-color="#4219E2"/>
<stop offset="1" stop-color="#0EB7FF"/>
</linearGradient>
<linearGradient id="paint3_linear_18_143256" x1="168.55" y1="267.711" x2="172.486" y2="255.596" gradientUnits="userSpaceOnUse">
<stop stop-color="white"/>
<stop offset="0.13" stop-color="#EFF6FF"/>
<stop offset="0.52" stop-color="#C6DFFF"/>
<stop offset="0.82" stop-color="#ACD0FF"/>
<stop offset="1" stop-color="#A2CBFF"/>
</linearGradient>
<linearGradient id="paint4_linear_18_143256" x1="170.964" y1="237.196" x2="266.968" y2="268.41" gradientUnits="userSpaceOnUse">
<stop stop-color="#0184FF"/>
<stop offset="1" stop-color="#411DE4"/>
</linearGradient>
<linearGradient id="paint5_linear_18_143256" x1="54.7299" y1="199.011" x2="150.371" y2="230.107" gradientUnits="userSpaceOnUse">
<stop stop-color="#0184FF"/>
<stop offset="1" stop-color="#411DE4"/>
</linearGradient>
<linearGradient id="paint6_linear_18_143256" x1="157.116" y1="71.9456" x2="242.219" y2="250.583" gradientUnits="userSpaceOnUse">
<stop stop-color="white"/>
<stop offset="0.21" stop-color="#FBFDFF"/>
<stop offset="0.42" stop-color="#EFF6FF"/>
<stop offset="0.62" stop-color="#DBEBFF"/>
<stop offset="0.83" stop-color="#BFDBFF"/>
<stop offset="1" stop-color="#A2CBFF"/>
</linearGradient>
<linearGradient id="paint7_linear_18_143256" x1="143.385" y1="34.3299" x2="277.812" y2="78.0368" gradientUnits="userSpaceOnUse">
<stop stop-color="#0184FF"/>
<stop offset="1" stop-color="#411DE4"/>
</linearGradient>
<linearGradient id="paint8_linear_18_143256" x1="158.728" y1="133.993" x2="230.334" y2="157.275" gradientUnits="userSpaceOnUse">
<stop stop-color="#0184FF"/>
<stop offset="1" stop-color="#411DE4"/>
</linearGradient>
<linearGradient id="paint9_linear_18_143256" x1="160.668" y1="138.059" x2="229.321" y2="160.381" gradientUnits="userSpaceOnUse">
<stop stop-color="#0184FF"/>
<stop offset="1" stop-color="#411DE4"/>
</linearGradient>
</defs>
</svg>
