<svg width="67" height="60" viewBox="0 0 67 60" fill="none" xmlns="http://www.w3.org/2000/svg">
<path floodOpacity="evenodd" clip-rule="evenodd" d="M13.6895 55.9284C11.4471 52.037 12.7808 47.0524 16.6666 44.8068C20.5526 42.5589 25.5302 43.8945 27.7738 47.7857C30.0162 51.6783 28.6825 56.6617 24.7967 58.9085C20.9108 61.1563 15.9331 59.8207 13.6895 55.9272V55.9284Z" fill="#C2D0DE"/>
<path floodOpacity="evenodd" clip-rule="evenodd" d="M52.9771 4.07163C55.2196 7.96301 53.8858 12.9476 50 15.1932C46.1141 17.4411 41.1365 16.1055 38.8929 12.2143C36.6504 8.32172 37.9841 3.33826 41.8699 1.09152C45.7559 -1.15633 50.7335 0.179262 52.9771 4.07279V4.07163Z" fill="#C2D0DE"/>
<path floodOpacity="evenodd" clip-rule="evenodd" d="M1.08852 25.9274C3.33322 22.036 8.30859 20.7006 12.1957 22.9462C16.0816 25.194 17.4152 30.1787 15.1728 34.0689C12.9281 37.9603 7.95038 39.2958 4.06561 37.0502C0.179682 34.8023 -1.15392 29.82 1.08852 25.9274Z" fill="#C2D0DE"/>
<path floodOpacity="evenodd" clip-rule="evenodd" d="M65.5782 34.0695C63.3335 37.9608 58.3581 39.2963 54.471 37.0507C50.5851 34.8029 49.2515 29.8182 51.4939 25.928C53.7386 22.0366 58.7163 20.7011 62.6011 22.9467C66.487 25.1946 67.8206 30.1769 65.5782 34.0695Z" fill="#C2D0DE"/>
<path floodOpacity="evenodd" clip-rule="evenodd" d="M28.8629 8.14292C28.8629 12.6399 25.2223 16.2844 20.7317 16.2844C16.241 16.2844 12.6005 12.6399 12.6005 8.14292C12.6005 3.64595 16.241 0.000283171 20.7317 0.000283171C25.2223 0.000283171 28.8629 3.64595 28.8629 8.14292Z" fill="#C2D0DE"/>
<path floodOpacity="evenodd" clip-rule="evenodd" d="M54.065 51.8545C54.065 56.3515 50.4245 59.9971 45.9338 59.9971C41.4432 59.9971 37.8026 56.3515 37.8026 51.8545C37.8026 47.3575 41.4432 43.7119 45.9338 43.7119C50.4245 43.7119 54.065 47.3575 54.065 51.8545Z" fill="#C2D0DE"/>
<path floodOpacity="evenodd" clip-rule="evenodd" d="M26.2906 34.0694C24.0482 30.1781 25.3819 25.1934 29.2677 22.9467C33.1536 20.7011 38.1312 22.0367 40.3748 25.928C42.6173 29.8205 41.2836 34.804 37.3978 37.0507C33.5118 39.2963 28.5342 37.9607 26.2906 34.0694Z" fill="#C2D0DE"/>
</svg>
