<svg width="66" height="93" viewBox="0 0 66 93" fill="none" xmlns="http://www.w3.org/2000/svg">
<g clip-path="url(#clip0_415:1749)">
<g opacity="0.2">
<path opacity="0.0909" d="M12.9457 72.5919C12.9689 72.3564 13.6873 71.9782 14.7533 71.5857C16.7386 70.8508 19.9984 69.9945 22.7484 69.2666C25.1817 68.6244 27.3678 68.1249 27.8081 67.8894L29.3839 67.3328C30.3418 66.8191 38.4836 71.4787 39.2407 71.8854L43.2034 74.2402L51.5152 79.171L62.3685 85.6146C62.3839 85.6217 63.7666 86.4423 63.7898 86.4566C64.8327 87.0132 65.4352 87.8838 65.4661 88.8542C65.497 89.9246 64.8327 90.9307 63.5735 91.6015C63.5735 91.6015 61.3256 92.8146 60.0356 92.8217C58.9387 92.8288 57.9345 92.6147 57.1543 92.1937L43.0721 86.371L36.9773 83.8521L28.99 80.5482C28.3256 80.1986 21.4275 77.2372 17.0244 75.1251C14.622 73.9691 12.9148 72.9629 12.9457 72.5919Z" fill="black"/>
<path opacity="0.1818" d="M15.8816 73.4552C15.8816 73.2412 16.6077 72.8701 17.5656 72.5133C19.4349 71.814 22.5017 71.0576 25.0354 70.4154C27.2292 69.8588 29.3458 69.4806 29.7474 69.2666L31.2151 68.7956C32.0803 68.3389 39.7278 72.7274 40.4076 73.0913L44.1077 75.2891L51.871 79.9059L62.0059 85.9356C62.029 85.9499 63.2959 86.6992 63.3345 86.7206C64.3001 87.2415 64.8717 88.0478 64.9335 88.9398C65.0031 89.9388 64.4314 90.8807 63.2573 91.5015C63.2573 91.5015 61.1562 92.6147 59.9202 92.6361C58.8851 92.6504 57.9349 92.4577 57.2088 92.0652L43.9918 86.5422L38.2755 84.1517L30.7748 81.0191C30.18 80.7051 23.4981 77.7938 19.5354 75.8885C17.3029 74.811 15.7348 73.8334 15.8816 73.4552Z" fill="black"/>
<path opacity="0.2727" d="M18.8167 74.3258C18.8167 74.1331 19.5351 73.762 20.3848 73.4409C22.1461 72.7773 25.0119 72.128 27.3371 71.5642C29.2914 71.0933 31.3385 70.8435 31.6938 70.6509L33.0457 70.2655C33.8104 69.8588 40.9635 73.9761 41.5737 74.3044L45.0112 76.3523L52.2261 80.648L61.6503 86.2567C61.6889 86.2781 62.8322 86.956 62.8862 86.9846C63.7823 87.4627 64.323 88.2048 64.408 89.0254C64.5084 89.953 64.0372 90.8236 62.948 91.4087C62.948 91.4087 60.9937 92.4291 59.8118 92.4577C58.8385 92.472 57.9501 92.3078 57.2626 91.9439L44.9031 86.7134L39.5576 84.4514L32.5513 81.4829C32.026 81.1975 25.5527 78.3503 22.0302 76.652C19.9754 75.653 18.5927 74.704 18.8167 74.3258Z" fill="black"/>
<path opacity="0.3636" d="M21.7522 75.1892C21.7522 75.0251 22.4551 74.654 23.1967 74.3686C24.842 73.7407 27.5071 73.1912 29.6236 72.7131C31.3463 72.3278 33.3161 72.1993 33.625 72.0281L34.8687 71.7284C35.5408 71.3716 42.1918 75.2249 42.7248 75.5032L45.9074 77.4013L52.5738 81.383L61.2795 86.5779C61.3336 86.6064 62.3533 87.2058 62.4228 87.2486C63.2416 87.691 63.7515 88.3689 63.875 89.111C64.0141 89.9673 63.6356 90.7737 62.6314 91.3088C62.6314 91.3088 60.8238 92.2294 59.696 92.2722C58.7845 92.2936 57.9502 92.1437 57.3168 91.8083L45.8224 86.8776L40.8554 84.744L34.3357 81.9468C33.8722 81.697 27.6229 78.8998 24.5408 77.4084C22.6559 76.4951 21.4586 75.5817 21.7522 75.1892Z" fill="black"/>
<path opacity="0.4545" d="M24.6876 76.0527C24.6876 75.91 25.3828 75.5389 26.0163 75.2892C27.5458 74.6969 30.0099 74.2474 31.9257 73.8549C33.4088 73.5481 35.3091 73.5481 35.5717 73.4054L36.6995 73.1842C37.2712 72.8773 43.4355 76.4595 43.8913 76.7021L46.8112 78.4503L52.9292 82.111L60.9165 86.8919C60.9783 86.9276 61.8821 87.4556 61.9748 87.5056C62.7241 87.9123 63.2031 88.5188 63.3498 89.1825C63.5198 89.9745 63.2417 90.7095 62.3224 91.2019C62.3224 91.2019 60.6616 92.0296 59.5879 92.0724C58.7459 92.101 57.958 91.9725 57.3786 91.6657L46.7494 87.0275L42.1532 85.0223L36.1202 82.3893C35.7262 82.1752 29.6932 79.4279 27.0514 78.1506C25.3288 77.33 24.3168 76.4523 24.6876 76.0527Z" fill="black"/>
<path opacity="0.5455" d="M27.6307 76.9232C27.6307 76.8019 28.3104 76.4308 28.8357 76.2239C30.2571 75.6673 32.5127 75.3248 34.2199 75.0108C35.4635 74.7825 37.2866 74.9109 37.5106 74.7967L38.5302 74.6611C39.0092 74.4043 44.6714 77.7224 45.0499 77.9222L47.7072 79.5134L53.2845 82.8601L60.5534 87.22C60.6307 87.2629 61.4109 87.7195 61.519 87.7766C62.1911 88.1405 62.6468 88.69 62.8168 89.2751C63.0253 89.9958 62.8477 90.6666 62.0134 91.109C62.0134 91.109 60.4993 91.844 59.4797 91.8939C58.6995 91.9296 57.9734 91.8226 57.4404 91.5443L47.6686 87.2058L43.4432 85.3291L37.8968 82.8672C37.5647 82.6888 31.7557 79.9915 29.5541 78.9212C28.0015 78.1719 27.1749 77.3228 27.6307 76.9232Z" fill="black"/>
<path opacity="0.6364" d="M30.5663 77.7866C30.5663 77.6938 31.2306 77.3156 31.6555 77.1515C32.9609 76.6306 35.008 76.388 36.5143 76.1596C37.5108 76.0098 39.272 76.2667 39.4574 76.1739L40.3612 76.124C40.7475 75.917 45.9153 78.964 46.2166 79.1281L48.6112 80.5695L53.64 83.5951L60.1906 87.5411C60.2756 87.5911 60.9399 87.9764 61.0635 88.0478C61.666 88.376 62.0909 88.8612 62.284 89.3679C62.5312 90.0172 62.4462 90.6238 61.6969 91.0234C61.6969 91.0234 60.3373 91.6585 59.364 91.7227C58.6456 91.7584 57.9736 91.6799 57.4947 91.423L48.5881 87.377L44.7411 85.6288L39.6892 83.3382C39.4265 83.1955 33.8261 80.5481 32.0726 79.6918C30.6821 79.0068 30.041 78.2005 30.5663 77.7866Z" fill="black"/>
<path opacity="0.7273" d="M33.5016 78.6572C33.5016 78.5858 34.1582 78.2076 34.4672 78.0792C35.6568 77.5939 37.6189 77.8508 38.8085 77.3085C39.4883 77.0017 41.2572 77.6296 41.3963 77.5583L42.1919 77.5939C42.4777 77.4441 47.1512 80.2199 47.3829 80.3412L49.5149 81.6328L53.9953 84.3443L59.8352 87.8765C59.9356 87.9336 60.4763 88.2476 60.6231 88.3261C61.1484 88.6187 61.55 89.0325 61.7663 89.4678C62.0599 90.0458 62.0599 90.581 61.3956 90.9378C61.3956 90.9378 60.1828 91.4801 59.2635 91.5514C58.6069 91.5943 57.9889 91.5372 57.5641 91.3088L49.5149 87.5626L46.0388 85.9428L41.4735 83.8163C41.2727 83.7093 35.8963 81.1119 34.5831 80.4625C33.3548 79.8488 32.8991 79.071 33.5016 78.6572Z" fill="black"/>
<path opacity="0.8182" d="M36.4371 79.5206C36.4371 79.4707 37.0782 79.0925 37.2868 79.0068C38.3683 78.5573 39.9904 78.2933 41.1028 78.4574C41.5895 78.3218 43.2426 78.9854 43.3353 78.9355L44.0228 79.0496C44.2159 78.9497 48.3949 81.4544 48.5417 81.54L50.4188 82.6817L54.3507 85.0722L59.4722 88.1834C59.5881 88.2405 60.0052 88.4831 60.1674 88.5759C60.6232 88.8256 61.0017 89.1824 61.2412 89.5392C61.581 90.0458 61.666 90.5168 61.0867 90.8307C61.0867 90.8307 60.0206 91.2732 59.1555 91.3588C58.5684 91.4087 58.0045 91.3731 57.626 91.1733L50.442 87.7196L47.3444 86.2282L43.258 84.273C43.1267 84.2016 37.9666 81.647 37.0937 81.2118C36.0354 80.6909 35.765 79.9416 36.4371 79.5206Z" fill="black"/>
<path opacity="0.9091" d="M39.3728 80.384C39.3728 80.3626 39.9985 79.9773 40.1067 79.9273C41.0722 79.5134 42.4859 79.3279 43.4051 79.5991C43.6446 79.5348 45.2359 80.334 45.2822 80.3126L45.8538 80.5124C45.9465 80.4625 49.6312 82.7031 49.7085 82.7459L51.3229 83.7307L54.7064 85.8072L59.1095 88.5045C59.2331 88.5687 59.5343 88.7399 59.712 88.8398C60.0905 89.0539 60.4536 89.3393 60.7085 89.6176C61.0947 90.0529 61.2647 90.4597 60.7703 90.7237C60.7703 90.7237 59.851 91.0733 59.0399 91.159C58.5147 91.2161 58.0048 91.1946 57.6804 91.0234L51.3538 87.8694L48.627 86.5136L45.035 84.7225C44.9655 84.6869 40.0294 82.1751 39.5968 81.961C38.7085 81.5257 38.6235 80.8193 39.3728 80.384Z" fill="black"/>
<path opacity="0.2" d="M45.6913 80.7551L52.2187 84.794L58.7461 88.8328C59.4568 89.211 61.2798 90.2028 60.461 90.6381C60.461 90.6381 58.4603 91.2946 57.7496 90.9093L49.9322 86.8205L42.1148 82.7317C41.4041 82.3535 41.4891 81.6899 42.3156 81.2475L42.9259 80.855C43.737 80.4197 44.9807 80.3769 45.6913 80.7551Z" fill="black"/>
</g>
<path d="M62.818 85.9642C63.8222 87.6768 63.1269 89.8175 61.2653 90.7451C59.4114 91.6728 57.0939 91.0306 56.0897 89.3108C55.0855 87.5983 55.7807 85.4575 57.6424 84.5299C59.4963 83.6022 61.8137 84.2445 62.818 85.9642Z" fill="url(#paint0_linear_415:1749)"/>
<path d="M46.6423 56.6434L38.3691 60.7608L54.7919 88.9112C54.7996 88.9183 54.7996 88.9326 54.8073 88.9398C55.5257 90.1671 57.959 90.2456 60.2378 89.1039C62.5243 87.9693 63.7912 86.0498 63.0728 84.8224C63.0651 84.8153 63.0573 84.801 63.0496 84.7939L46.6423 56.6434Z" fill="url(#paint1_linear_415:1749)"/>
<path d="M46.6423 56.6434L38.3691 60.7608L54.7919 88.9112C54.7996 88.9183 54.7996 88.9326 54.8073 88.9398C55.5257 90.1671 57.959 90.2456 60.2378 89.1039C62.5243 87.9693 63.7912 86.0498 63.0728 84.8224C63.0651 84.8153 63.0573 84.801 63.0496 84.7939L46.6423 56.6434Z" fill="url(#paint2_linear_415:1749)"/>
<path d="M46.6504 56.6649C47.3688 57.8922 46.0943 59.8118 43.8155 60.9463C41.529 62.0809 39.0957 62.0096 38.385 60.7822C37.6666 59.5549 38.9412 57.6354 41.22 56.5008C43.5065 55.3591 45.9321 55.4304 46.6504 56.6649Z" fill="url(#paint3_linear_415:1749)"/>
<path d="M41.2273 51.0704L36.3066 53.518L39.8059 59.512C39.8059 59.5191 39.8137 59.5263 39.8137 59.5334C40.2385 60.2613 41.6908 60.3112 43.0426 59.6333C44.4021 58.9554 45.1592 57.8137 44.7343 57.0859C44.7343 57.0787 44.7266 57.0716 44.7266 57.0645L41.2273 51.0704Z" fill="url(#paint4_linear_415:1749)"/>
<path d="M26.7893 50.8207C14.3294 44.1773 4.23315 28.0862 4.23315 14.8851C4.23315 9.58327 5.86306 5.55158 8.62079 3.05408C3.36798 4.63821 0 9.63322 0 17.2613C0 30.4624 10.0962 46.5535 22.5562 53.1969C30.0105 57.1715 36.6152 56.8646 40.7247 53.1469C36.8855 54.3029 32.0499 53.6321 26.7893 50.8207Z" fill="url(#paint5_linear_415:1749)"/>
<path opacity="0.7" d="M23.6373 6.72185C11.8494 0.435268 2.29395 5.46596 2.29395 17.9606C2.29395 30.4553 11.8494 45.6829 23.6373 51.9695C35.4253 58.2561 44.9807 53.2254 44.9807 40.7307C44.9807 28.2361 35.4253 13.0084 23.6373 6.72185Z" fill="url(#paint6_linear_415:1749)"/>
<path d="M27.3373 2.86149C21.2116 -0.406676 15.6576 -0.777734 11.5944 1.25595C11.4785 1.31304 5.64633 4.31718 5.46094 4.5812C9.59366 1.69836 15.7194 1.74118 22.5557 5.38754C35.0157 12.0309 45.1119 28.122 45.1119 41.3231C45.1119 48.0592 42.4855 52.7403 38.2524 54.831C38.5536 54.7525 38.9167 54.6098 39.357 54.3815C39.4806 54.3173 43.4511 52.0909 43.5747 52.0267C47.4911 49.8146 49.9012 45.2477 49.9012 38.797C49.8935 25.5959 39.7896 9.50486 27.3373 2.86149Z" fill="url(#paint7_linear_415:1749)"/>
<path d="M22.5562 5.38038C10.0962 -1.26299 0 4.06027 0 17.2614C0 30.4625 10.0962 46.5536 22.5562 53.1969C35.0162 59.8403 45.1124 54.5242 45.1124 41.3159C45.1124 28.1148 35.0084 12.0237 22.5562 5.38038ZM22.394 51.6128C10.8919 45.4761 1.56812 30.6266 1.56812 18.4316C1.56812 6.2438 10.8919 1.33442 22.394 7.46401C33.8961 13.6007 43.2198 28.4502 43.2198 40.6452C43.2198 52.8401 33.8961 57.7495 22.394 51.6128Z" fill="url(#paint8_linear_415:1749)"/>
</g>
<defs>
<linearGradient id="paint0_linear_415:1749" x1="55.6303" y1="87.6364" x2="63.2727" y2="87.6364" gradientUnits="userSpaceOnUse">
<stop offset="0.096" stop-color="#45108A"/>
<stop offset="1" stop-color="#7C1DC9"/>
</linearGradient>
<linearGradient id="paint1_linear_415:1749" x1="47.2784" y1="75.9469" x2="55.1168" y2="71.3741" gradientUnits="userSpaceOnUse">
<stop offset="0.0101" stop-color="#C1A1D5"/>
<stop offset="0.0488" stop-color="#C8ABDA"/>
<stop offset="0.1149" stop-color="#DAC6E6"/>
<stop offset="0.1998" stop-color="#F7F2F9"/>
<stop offset="0.2222" stop-color="white"/>
<stop offset="0.2513" stop-color="#F9F5FB"/>
<stop offset="0.3001" stop-color="#E9DBF2"/>
<stop offset="0.3586" stop-color="#D1B4E3"/>
<stop offset="0.4264" stop-color="#B395D6"/>
<stop offset="0.4949" stop-color="#9C7DCB"/>
<stop offset="0.5583" stop-color="#8E6EC5"/>
<stop offset="0.6111" stop-color="#8969C3"/>
<stop offset="0.755" stop-color="#9471C6"/>
<stop offset="1" stop-color="#B086CC"/>
</linearGradient>
<linearGradient id="paint2_linear_415:1749" x1="47.2391" y1="75.9665" x2="55.2035" y2="71.3201" gradientUnits="userSpaceOnUse">
<stop offset="0.0101" stop-color="#C1A1D5"/>
<stop offset="0.0488" stop-color="#C8ABDA"/>
<stop offset="0.1149" stop-color="#DAC6E6"/>
<stop offset="0.1998" stop-color="#F7F2F9"/>
<stop offset="0.2222" stop-color="white"/>
<stop offset="0.2513" stop-color="#F9F5FB"/>
<stop offset="0.3001" stop-color="#E9DBF2"/>
<stop offset="0.3586" stop-color="#D1B4E3"/>
<stop offset="0.4264" stop-color="#B395D6"/>
<stop offset="0.4949" stop-color="#9C7DCB"/>
<stop offset="0.5583" stop-color="#8E6EC5"/>
<stop offset="0.6111" stop-color="#8969C3"/>
<stop offset="0.755" stop-color="#9471C6"/>
<stop offset="1" stop-color="#B086CC"/>
</linearGradient>
<linearGradient id="paint3_linear_415:1749" x1="33.3384" y1="58.1433" x2="50.4529" y2="59.4037" gradientUnits="userSpaceOnUse">
<stop stop-color="#9F79C8"/>
<stop offset="0.1409" stop-color="#A27DCA"/>
<stop offset="0.2725" stop-color="#AC88CF"/>
<stop offset="0.4" stop-color="#BC9BD7"/>
<stop offset="0.5202" stop-color="#D1B4E3"/>
<stop offset="0.6493" stop-color="#DBC4E9"/>
<stop offset="0.8997" stop-color="#F4EDF8"/>
<stop offset="1" stop-color="white"/>
</linearGradient>
<linearGradient id="paint4_linear_415:1749" x1="38.4707" y1="57.1747" x2="43.1325" y2="54.4551" gradientUnits="userSpaceOnUse">
<stop offset="0.096" stop-color="#45108A"/>
<stop offset="0.3081" stop-color="#7C1DC9"/>
<stop offset="0.5198" stop-color="#5D16A5"/>
<stop offset="0.6667" stop-color="#45108A"/>
<stop offset="0.8889" stop-color="#56149D"/>
</linearGradient>
<linearGradient id="paint5_linear_415:1749" x1="1.9688" y1="9.75467" x2="33.8025" y2="71.0912" gradientUnits="userSpaceOnUse">
<stop offset="0.0101" stop-color="#C1A1D5"/>
<stop offset="0.0488" stop-color="#C8ABDA"/>
<stop offset="0.1149" stop-color="#DAC6E6"/>
<stop offset="0.1998" stop-color="#F7F2F9"/>
<stop offset="0.2222" stop-color="white"/>
<stop offset="0.2513" stop-color="#F9F5FB"/>
<stop offset="0.3001" stop-color="#E9DBF2"/>
<stop offset="0.3586" stop-color="#D1B4E3"/>
<stop offset="0.4264" stop-color="#B395D6"/>
<stop offset="0.4949" stop-color="#9C7DCB"/>
<stop offset="0.5583" stop-color="#8E6EC5"/>
<stop offset="0.6111" stop-color="#8969C3"/>
<stop offset="0.755" stop-color="#9471C6"/>
<stop offset="1" stop-color="#B086CC"/>
</linearGradient>
<linearGradient id="paint6_linear_415:1749" x1="25.5355" y1="74.5336" x2="23.4102" y2="15.2381" gradientUnits="userSpaceOnUse">
<stop stop-color="#6C4FB0" stop-opacity="0.9133"/>
<stop offset="0.6508" stop-color="#675BB6" stop-opacity="0.9197"/>
<stop offset="1" stop-color="#2AF6FF"/>
</linearGradient>
<linearGradient id="paint7_linear_415:1749" x1="17.581" y1="-0.589422" x2="42.6802" y2="51.4186" gradientUnits="userSpaceOnUse">
<stop offset="0.0101" stop-color="#C1A1D5"/>
<stop offset="0.0488" stop-color="#C8ABDA"/>
<stop offset="0.1149" stop-color="#DAC6E6"/>
<stop offset="0.1998" stop-color="#F7F2F9"/>
<stop offset="0.2222" stop-color="white"/>
<stop offset="0.2513" stop-color="#F9F5FB"/>
<stop offset="0.3001" stop-color="#E9DBF2"/>
<stop offset="0.3586" stop-color="#D1B4E3"/>
<stop offset="0.4264" stop-color="#B395D6"/>
<stop offset="0.4949" stop-color="#9C7DCB"/>
<stop offset="0.5583" stop-color="#8E6EC5"/>
<stop offset="0.6111" stop-color="#8969C3"/>
<stop offset="0.755" stop-color="#9471C6"/>
<stop offset="1" stop-color="#B086CC"/>
</linearGradient>
<linearGradient id="paint8_linear_415:1749" x1="-22.5465" y1="18.8116" x2="59.6334" y2="41.1888" gradientUnits="userSpaceOnUse">
<stop stop-color="#9F79C8"/>
<stop offset="0.1409" stop-color="#A27DCA"/>
<stop offset="0.2725" stop-color="#AC88CF"/>
<stop offset="0.4" stop-color="#BC9BD7"/>
<stop offset="0.5202" stop-color="#D1B4E3"/>
<stop offset="0.6493" stop-color="#DBC4E9"/>
<stop offset="0.8997" stop-color="#F4EDF8"/>
<stop offset="1" stop-color="white"/>
</linearGradient>
<clipPath id="clip0_415:1749">
<rect width="66" height="93" fill="white"/>
</clipPath>
</defs>
</svg>
