<svg width="54" height="81" viewBox="0 0 54 81" fill="none" xmlns="http://www.w3.org/2000/svg">
<g clip-path="url(#clip0_415:1721)">
<g opacity="0.2">
<path opacity="0.0909" d="M4.80229 54.593C4.80229 54.593 8.32777 53.2523 8.42037 53.3103L11.0529 52.4982C12.1707 51.873 14.9025 52.1566 15.7888 52.6529L31.8883 60.5873L33.2773 61.2705L50.7658 69.8945C51.9498 70.5584 52.8758 71.7379 52.8758 72.9045C52.8758 73.1108 52.889 73.3364 52.8559 73.5362C52.684 74.6254 51.9564 75.6761 50.6533 76.4044C50.6533 76.4044 50.0713 76.6751 49.2775 77.0167C47.915 77.6097 45.7521 78.4218 43.8074 79.1502C41.6445 79.9558 39.3559 80.5617 38.7673 80.5617C37.5304 80.5617 36.2075 80.1879 35.3278 79.6851L20.6239 71.4543L18.9571 70.5197L2.57985 61.3607C1.39587 60.6968 0.50293 59.5238 0.50293 58.3507C0.50293 58.0284 0.635218 57.6739 0.932866 57.3452C1.80597 56.3526 3.62493 55.2504 4.80229 54.593Z" fill="black"/>
<path opacity="0.1818" d="M4.65679 54.8766C4.65679 54.8766 8.01029 53.5552 8.20211 53.6648L10.7685 53.0332C11.7739 52.466 14.5784 52.8978 15.3721 53.349L31.1078 61.1286L32.4637 61.799L49.562 70.249C50.6269 70.8484 51.7315 72.0472 51.7315 73.0979C51.7315 73.2848 51.7778 73.5104 51.7646 73.6908C51.6587 74.7286 51.0436 75.7792 49.7538 76.5011C49.7538 76.5011 49.1387 76.804 48.4243 77.1134C47.0683 77.7064 44.9385 78.4089 43.0931 79.047C41.1286 79.7302 38.754 80.1298 38.2249 80.1298C37.1137 80.1298 35.6982 79.6658 34.9045 79.2146L20.6306 71.2222L19.01 70.3134L3.10902 61.4122C2.0441 60.8128 0.999023 59.6204 0.999023 58.5698C0.999023 58.2798 1.05855 57.9317 1.3099 57.6223C2.0441 56.7006 3.47942 55.5404 4.65679 54.8766Z" fill="black"/>
<path opacity="0.2727" d="M4.5107 55.1667C4.5107 55.1667 7.69223 53.8647 7.97665 54.0258L10.4769 53.5746C11.3698 53.0719 14.2471 53.6455 14.9548 54.0452L30.3333 61.6637L31.6562 62.3147L48.3708 70.5971C49.3167 71.1256 50.6065 72.3502 50.6065 73.2848C50.6065 73.4524 50.6925 73.678 50.6859 73.8391C50.6396 74.8382 50.1501 75.8695 48.8669 76.5914C48.8669 76.5914 48.2187 76.9265 47.5903 77.2037C46.2476 77.8031 44.1442 78.3832 42.398 78.9439C40.632 79.5047 38.1714 79.6981 37.7018 79.6981C36.7162 79.6981 35.2082 79.1438 34.5004 78.7506L20.6432 70.9903L19.0756 70.1137L3.64422 61.4703C2.69836 60.9418 1.50115 59.7301 1.50115 58.7955C1.50115 58.5376 1.48792 58.196 1.69297 57.8995C2.28826 57.0423 3.32673 55.8305 4.5107 55.1667Z" fill="black"/>
<path opacity="0.3636" d="M4.36589 55.4567C4.36589 55.4567 7.37544 54.174 7.75247 54.3867L10.1866 54.116C10.9671 53.6777 13.9105 54.3996 14.5322 54.7477L29.5535 62.2051L30.8434 62.8432L47.1743 70.9516C48.0011 71.4156 49.4761 72.6596 49.4761 73.4782C49.4761 73.62 49.6349 73.852 49.6084 73.9938C49.8333 74.9348 49.2512 75.9726 47.9813 76.688C47.9813 76.688 47.3 77.049 46.751 77.3003C45.4215 77.8998 43.3446 78.3703 41.6976 78.8408C40.1366 79.2855 37.5834 79.2662 37.1733 79.2662C36.3069 79.2662 34.7128 78.6281 34.0976 78.28L20.6638 70.7517L19.1425 69.9009L4.18069 61.5219C3.35389 61.0578 2.00455 59.8267 2.00455 59.0081C2.00455 58.7825 1.85903 58.4023 2.07731 58.1702C2.34188 57.2808 3.18191 56.127 4.36589 55.4567Z" fill="black"/>
<path opacity="0.4545" d="M4.21992 55.7467C4.21992 55.7467 7.0575 54.4834 7.53373 54.7477L9.89508 54.6574C10.5631 54.2836 13.5793 55.1473 14.1085 55.4438L28.7792 62.7465L30.0359 63.3717L45.9767 71.306C46.6844 71.7057 48.3446 72.969 48.3446 73.6715C48.3446 73.794 48.5497 74.026 48.5232 74.1485C48.8671 75.0444 48.3512 76.0757 47.0879 76.7847C47.0879 76.7847 46.3735 77.1843 45.9039 77.397C44.5876 77.9964 42.5504 78.3509 40.996 78.7441C39.6467 79.0793 36.9943 78.8472 36.6437 78.8472C35.9029 78.8472 34.2162 78.1189 33.6871 77.8224L20.6766 70.5326L19.2015 69.7076L4.716 61.5863C4.00826 61.1867 2.50679 59.9427 2.50679 59.2402C2.50679 59.0468 2.27528 58.6601 2.46049 58.4603C2.53324 57.603 3.03594 56.417 4.21992 55.7467Z" fill="black"/>
<path opacity="0.5455" d="M4.07461 56.0368C4.07461 56.0368 6.74022 54.7864 7.30905 55.1086L9.60425 55.1989C10.1599 54.883 13.2488 55.895 13.692 56.1463L28.0055 63.2879L29.2292 63.9002L44.7863 71.6606C45.375 71.9957 47.2138 73.2784 47.2138 73.8649C47.2138 73.968 47.4651 74.2001 47.4453 74.3032C47.9083 75.1475 47.4519 76.1788 46.2018 76.8814C46.2018 76.8814 45.4543 77.3132 45.0641 77.4937C43.761 78.0931 41.7966 78.5894 40.2951 78.641C39.2236 79.0664 36.4124 78.4154 36.1148 78.4154C35.4996 78.4154 33.7204 77.6033 33.2772 77.3519L20.69 70.2941L19.2679 69.4949L5.24536 61.6314C4.65668 61.2963 3.00308 60.033 3.00308 59.4529C3.00308 59.2917 2.67897 58.8986 2.83772 58.731C2.72527 57.9253 2.88402 56.7071 4.07461 56.0368Z" fill="black"/>
<path opacity="0.6364" d="M3.9286 56.3268C3.9286 56.3268 6.42223 55.0958 7.08367 55.4696L9.31273 55.7403C9.76251 55.4889 12.911 56.6491 13.2681 56.8425L27.2245 63.8229L28.4151 64.4159L43.5886 72.0086C44.0582 72.2729 46.0822 73.5813 46.0822 74.0518C46.0822 74.1356 46.3799 74.3677 46.36 74.4515C46.9355 75.2442 46.5452 76.2755 45.3017 76.9716C45.3017 76.9716 44.5278 77.4357 44.2169 77.5839C42.9271 78.1898 40.9957 78.6088 39.5869 78.5379C38.727 78.8795 35.8167 77.9836 35.5785 77.9836C35.0825 77.9836 33.2172 77.0812 32.8666 76.8814L20.7027 70.0621L19.3269 69.2886L5.78064 61.6895C5.31101 61.4252 3.49867 60.1426 3.49867 59.672C3.49867 59.5431 3.08857 59.1371 3.21425 59.0082C2.92321 58.2476 2.73801 56.9972 3.9286 56.3268Z" fill="black"/>
<path opacity="0.7273" d="M3.79007 56.6104C3.79007 56.6104 6.11173 55.3987 6.87239 55.8241L9.02868 56.2752C9.36602 56.0883 12.5872 57.3903 12.8518 57.5385L26.451 64.3578L27.6085 64.9379L42.3917 72.3566C42.7489 72.5565 44.9515 73.8842 44.9515 74.2323C44.9515 74.2967 45.2888 74.5288 45.2822 74.5932C45.9767 75.3344 45.6526 76.3657 44.4157 77.0554C44.4157 77.0554 43.6088 77.5517 43.3773 77.6612C42.1007 78.2671 40.209 78.6216 38.8861 78.4154C38.2445 78.6732 35.2283 77.5323 35.0498 77.5323C34.6793 77.5323 32.7215 76.5397 32.4569 76.3915L20.7163 69.8042L19.3935 69.063L6.31016 61.741C5.95298 61.5412 3.99512 60.2392 3.99512 59.8911C3.99512 59.7945 3.49904 59.382 3.59164 59.2853C3.1154 58.5698 2.59287 57.2872 3.79007 56.6104Z" fill="black"/>
<path opacity="0.8182" d="M3.64436 56.9004C3.64436 56.9004 5.79404 55.708 6.6473 56.185L8.73745 56.8167C8.96234 56.6942 12.2563 58.138 12.4283 58.2411L25.6703 64.9057L26.7948 65.4729L41.1943 72.7176C41.4324 72.8529 43.8136 74.2 43.8136 74.4321C43.8136 74.4708 44.1973 74.7092 44.1907 74.7544C44.9976 75.444 44.7397 76.4688 43.516 77.1585C43.516 77.1585 42.6826 77.6935 42.5238 77.7644C41.2605 78.3703 39.4018 78.6538 38.1782 78.3251C37.7482 78.4927 34.6328 77.1134 34.5138 77.1134C34.2691 77.1134 32.2186 76.037 32.04 75.9339L20.7227 69.5851L19.4462 68.8697L6.84573 61.799C6.60761 61.6636 4.49762 60.3488 4.49762 60.1103C4.49762 60.0458 3.90893 59.6269 3.96846 59.5624C3.30702 58.8921 2.44054 57.5772 3.64436 56.9004Z" fill="black"/>
<path opacity="0.9091" d="M3.49927 57.1905C3.49927 57.1905 5.47697 56.011 6.42283 56.5459L8.44684 57.3581C8.55929 57.2936 11.9194 58.8856 12.012 58.9372L24.8969 65.4407L25.9882 65.9885L40.0042 73.0656C40.1232 73.1301 42.6896 74.503 42.6896 74.619C42.6896 74.6383 43.1196 74.8768 43.1196 74.9026C44.0456 75.5407 43.8471 76.5655 42.6367 77.2487C42.6367 77.2487 41.7702 77.8159 41.6908 77.8546C40.4407 78.4669 38.6151 78.6732 37.4841 78.2156C37.2724 78.2993 34.0512 76.6815 33.9917 76.6815C33.866 76.6815 31.7295 75.5149 31.6369 75.4698L20.743 69.3531L19.5127 68.6634L7.37531 61.8505C7.25625 61.7861 4.99412 60.4454 4.99412 60.3294C4.99412 60.2972 4.31945 59.8718 4.34591 59.8396C3.49927 59.2144 2.29545 57.8673 3.49927 57.1905Z" fill="black"/>
<path opacity="0.2" d="M36.7759 78.1125L20.7558 69.1146L4.73575 60.1232C3.69067 59.5367 2.14951 58.1573 3.35333 57.4806C3.35333 57.4806 5.15907 56.3204 6.20414 56.9069L24.116 65.9821L42.0278 75.0573C43.0728 75.6438 42.9406 76.6687 41.7367 77.3454L40.8438 77.9513C39.64 78.6281 37.8144 78.699 36.7759 78.1125Z" fill="black"/>
</g>
<path d="M46.2346 42.6431L2.50679 26.7487V58.2927V58.3507C2.36128 59.3755 2.9235 60.3746 4.21331 61.1029L33.7797 77.7902C36.3395 79.234 40.8174 79.0535 43.7741 77.3841C45.3417 76.5011 46.1619 75.386 46.2148 74.3161L46.228 74.3225V42.6431H46.2346Z" fill="url(#paint0_linear_415:1721)"/>
<path d="M33.7862 46.5555L4.21978 29.8682C1.66001 28.4244 1.9775 25.9107 4.93414 24.2478C7.89078 22.5849 12.3687 22.4044 14.9285 23.8417L44.4949 40.529C47.0547 41.9728 46.7372 44.4865 43.7805 46.1494C40.8239 47.8188 36.346 47.9993 33.7862 46.5555Z" fill="url(#paint1_linear_415:1721)"/>
<path d="M18.1764 28.0313C18.1764 29.5137 16.0598 30.7126 13.4471 30.7126C10.8344 30.7126 8.71777 29.5137 8.71777 28.0313C8.71777 26.5488 10.8344 25.35 13.4471 25.35C16.0598 25.35 18.1764 26.5488 18.1764 28.0313Z" fill="url(#paint2_linear_415:1721)"/>
<path d="M40.566 41.2057C40.566 42.6882 38.4494 43.887 35.8367 43.887C33.224 43.887 31.1074 42.6882 31.1074 41.2057C31.1074 39.7233 33.224 38.5244 35.8367 38.5244C38.4494 38.5244 40.566 39.7233 40.566 41.2057Z" fill="url(#paint3_linear_415:1721)"/>
<path d="M27.291 1.63075C19.0296 -3.00353 8.71777 2.80382 8.71777 12.0853V27.9991C8.71777 28.0055 8.71777 28.0184 8.71777 28.0249C8.71777 29.3011 10.5367 30.3323 12.7856 30.3323C15.0345 30.3323 16.8535 29.3011 16.8535 28.0249C16.8535 28.012 16.8469 27.9926 16.8469 27.9798H16.8932V13.7804C16.8932 9.8487 21.2587 7.38654 24.7577 9.34595C28.8189 11.6212 31.3258 15.8365 31.3258 20.4064V41.1091H31.3721C31.4184 42.3596 33.2175 43.3715 35.4334 43.3715C37.6624 43.3715 39.4748 42.3531 39.4946 41.0898V22.2046C39.4946 13.716 34.8381 5.86541 27.291 1.63075Z" fill="url(#paint4_linear_415:1721)"/>
<path d="M18.7918 5.57532C15.1208 5.57532 12.1377 8.48222 12.1377 12.0594V28.5534L12.098 29.9714C12.0649 30.0874 14.3734 29.9069 14.4263 29.7006L14.466 28.2826V11.7887C14.466 8.87539 16.4503 6.40034 19.1688 5.58821C19.0431 5.57532 18.9175 5.57532 18.7918 5.57532Z" fill="url(#paint5_linear_415:1721)"/>
<path d="M25.8892 3.55789C24.176 2.59752 22.3372 2.10767 20.4257 2.10767C19.6319 2.10767 18.825 2.20435 18.0312 2.38482C18.0511 2.38482 18.0709 2.38482 18.0908 2.38482C20.009 2.38482 21.8478 2.87467 23.5543 3.83505C30.6515 7.81834 35.0567 15.2499 35.0567 23.2294V43.0685V43.1716C35.0567 43.2812 37.385 43.0879 37.385 42.9009V42.7978V22.9587C37.3982 14.9728 32.9864 7.54118 25.8892 3.55789Z" fill="url(#paint6_linear_415:1721)"/>
<path opacity="0.5" d="M14.79 14.4121V29.6427C15.7094 29.3655 16.3114 28.8821 16.3378 28.4245V28.4116L16.3775 27.535V14.1413C16.3775 11.4923 18.1634 9.2428 20.6306 8.48224C17.3895 8.61115 14.79 11.2216 14.79 14.4121Z" fill="url(#paint7_linear_415:1721)"/>
<path d="M23.0911 52.6851C23.0911 50.6355 21.6028 48.1411 19.7706 47.1098C17.9384 46.0786 16.4502 46.9036 16.4502 48.9532C16.4502 50.3326 17.1249 51.9181 18.1303 53.117V59.6076L21.411 61.451V54.9604C22.4164 54.883 23.0911 54.0645 23.0911 52.6851Z" fill="#25054D"/>
<path d="M19.6905 58.9243V52.4337C18.6917 51.2349 18.0104 49.6493 18.0104 48.2699C18.0104 47.5996 18.1758 47.0582 18.4536 46.6715C17.2762 46.5812 16.4561 47.4256 16.4561 48.9532C16.4561 50.3325 17.1307 51.9181 18.1361 53.1169V59.6075L21.4169 61.4509V59.8975L19.6905 58.9243Z" fill="url(#paint8_linear_415:1721)"/>
</g>
<defs>
<linearGradient id="paint0_linear_415:1721" x1="46.65" y1="52.757" x2="2.21126" y2="52.757" gradientUnits="userSpaceOnUse">
<stop offset="0.0606" stop-color="#7C1DC9"/>
<stop offset="0.1178" stop-color="#9141D4"/>
<stop offset="0.2071" stop-color="#B580E8"/>
<stop offset="0.2526" stop-color="#9E75E3"/>
<stop offset="0.317" stop-color="#8569DE"/>
<stop offset="0.384" stop-color="#7360DB"/>
<stop offset="0.4548" stop-color="#685BD9"/>
<stop offset="0.5354" stop-color="#6559D8"/>
<stop offset="0.6567" stop-color="#6755D9"/>
<stop offset="0.7719" stop-color="#6D4ADE"/>
<stop offset="0.8843" stop-color="#7737E5"/>
<stop offset="0.9949" stop-color="#851CEF"/>
</linearGradient>
<linearGradient id="paint1_linear_415:1721" x1="13.4374" y1="30.3679" x2="73.1285" y2="58.1907" gradientUnits="userSpaceOnUse">
<stop offset="0.0303" stop-color="#7C1DC9"/>
<stop offset="0.2138" stop-color="#6E41D2"/>
<stop offset="0.6184" stop-color="#4C9BE8"/>
<stop offset="1" stop-color="#2AF6FF"/>
</linearGradient>
<linearGradient id="paint2_linear_415:1721" x1="16.3508" y1="25.517" x2="9.79264" y2="31.4993" gradientUnits="userSpaceOnUse">
<stop stop-color="white"/>
<stop offset="1" stop-color="#4B61B8"/>
</linearGradient>
<linearGradient id="paint3_linear_415:1721" x1="38.7382" y1="38.6913" x2="32.18" y2="44.6736" gradientUnits="userSpaceOnUse">
<stop stop-color="white"/>
<stop offset="1" stop-color="#4B61B8"/>
</linearGradient>
<linearGradient id="paint4_linear_415:1721" x1="51.1294" y1="34.9564" x2="-6.66688" y2="-1.18038" gradientUnits="userSpaceOnUse">
<stop stop-color="#9F79C8"/>
<stop offset="0.1409" stop-color="#A27DCA"/>
<stop offset="0.2725" stop-color="#AC88CF"/>
<stop offset="0.4" stop-color="#BC9BD7"/>
<stop offset="0.5202" stop-color="#D1B4E3"/>
<stop offset="0.6493" stop-color="#DBC4E9"/>
<stop offset="0.8997" stop-color="#F4EDF8"/>
<stop offset="1" stop-color="white"/>
</linearGradient>
<linearGradient id="paint5_linear_415:1721" x1="16.484" y1="18.2898" x2="0.188334" y2="8.10109" gradientUnits="userSpaceOnUse">
<stop stop-color="#9F79C8"/>
<stop offset="0.1409" stop-color="#A27DCA"/>
<stop offset="0.2725" stop-color="#AC88CF"/>
<stop offset="0.4" stop-color="#BC9BD7"/>
<stop offset="0.5202" stop-color="#D1B4E3"/>
<stop offset="0.6493" stop-color="#DBC4E9"/>
<stop offset="0.8997" stop-color="#F4EDF8"/>
<stop offset="1" stop-color="white"/>
</linearGradient>
<linearGradient id="paint6_linear_415:1721" x1="36.8639" y1="25.2292" x2="-4.92205" y2="11.5013" gradientUnits="userSpaceOnUse">
<stop stop-color="#9F79C8"/>
<stop offset="0.1409" stop-color="#A27DCA"/>
<stop offset="0.2725" stop-color="#AC88CF"/>
<stop offset="0.4" stop-color="#BC9BD7"/>
<stop offset="0.5202" stop-color="#D1B4E3"/>
<stop offset="0.6493" stop-color="#DBC4E9"/>
<stop offset="0.8997" stop-color="#F4EDF8"/>
<stop offset="1" stop-color="white"/>
</linearGradient>
<linearGradient id="paint7_linear_415:1721" x1="22.2766" y1="21.7742" x2="9.38419" y2="13.7133" gradientUnits="userSpaceOnUse">
<stop stop-color="#FFE4A7"/>
<stop offset="1"/>
</linearGradient>
<linearGradient id="paint8_linear_415:1721" x1="6.77799" y1="55.4056" x2="23.1957" y2="53.6164" gradientUnits="userSpaceOnUse">
<stop offset="0.0303" stop-color="#7C1DC9"/>
<stop offset="0.2138" stop-color="#6E41D2"/>
<stop offset="0.6184" stop-color="#4C9BE8"/>
<stop offset="1" stop-color="#2AF6FF"/>
</linearGradient>
<clipPath id="clip0_415:1721">
<rect width="54" height="81" fill="white"/>
</clipPath>
</defs>
</svg>
