<svg width="86" height="64" viewBox="0 0 86 64" fill="none" xmlns="http://www.w3.org/2000/svg">
<path d="M75.6186 29.7629C88.4666 44.2067 83.5602 59.109 64.6555 63.0412C45.7507 66.9735 20.0131 58.449 7.16506 43.9983C-5.68296 29.5475 -0.776598 14.6522 18.1282 10.7199C37.026 6.78767 62.7705 15.3122 75.6186 29.7629Z" fill="url(#paint0_linear_415:1663)"/>
<path opacity="0.48" d="M84.5997 42.5949L83.6018 42.2545C83.3454 37.5232 81.0308 32.3335 76.464 27.2063C63.6091 12.7625 37.8715 4.23796 18.9667 8.17022C12.6258 9.49024 7.86501 12.04 4.81585 15.3956L3.54075 14.9648L1.82214 20.1824C-0.554817 26.3309 1.33011 33.9522 7.99667 41.4555C20.8447 55.8993 46.5893 64.4238 65.4871 60.4985C74.9395 58.5324 80.8922 53.822 82.8742 47.8055L84.5997 42.5949Z" fill="url(#paint1_linear_415:1663)"/>
<path opacity="0.48" d="M84.5997 42.5949L83.6018 42.2545C83.3454 37.5232 81.0308 32.3335 76.464 27.2063C63.6091 12.7625 37.8715 4.23796 18.9667 8.17022C12.6258 9.49024 7.86501 12.04 4.81585 15.3956L3.54075 14.9648L1.82214 20.1824C-0.554817 26.3309 1.33011 33.9522 7.99667 41.4555C20.8447 55.8993 46.5893 64.4238 65.4871 60.4985C74.9395 58.5324 80.8922 53.822 82.8742 47.8055L84.5997 42.5949Z" fill="url(#paint2_linear_415:1663)"/>
<path opacity="0.48" d="M84.5997 42.5949L83.6018 42.2545C83.3454 37.5232 81.0308 32.3335 76.464 27.2063C63.6091 12.7625 37.8715 4.23796 18.9667 8.17022C12.6258 9.49024 7.86501 12.04 4.81585 15.3956L3.54075 14.9648L1.82214 20.1824C-0.554817 26.3309 1.33011 33.9522 7.99667 41.4555C20.8447 55.8993 46.5893 64.4238 65.4871 60.4985C74.9395 58.5324 80.8922 53.822 82.8742 47.8055L84.5997 42.5949Z" fill="url(#paint3_linear_415:1663)"/>
<path d="M85.2578 40.5801L84.2598 40.2397C84.0034 35.5085 81.6889 30.3187 77.1221 25.1915C64.274 10.7408 38.5364 2.21626 19.6316 6.14852C13.2908 7.46854 8.52995 10.0183 5.4808 13.3739L4.2057 12.9431L2.49401 18.1607C0.117058 24.3092 2.00199 31.9305 8.66855 39.4338C21.5166 53.8776 47.2611 62.4021 66.159 58.4768C75.6113 56.5107 81.5641 51.8003 83.5461 45.7838L85.2578 40.5801Z" fill="url(#paint4_linear_415:1663)"/>
<path opacity="0.48" d="M84.26 40.2397C84.2531 40.073 84.2392 39.9132 84.2254 39.7464L85.3549 36.3213L83.2275 35.6127L83.3106 35.3695C83.0126 34.4664 82.6454 33.5562 82.2018 32.6392L81.4188 35.0152L80.1991 34.6123L81.3772 31.0482C80.9822 30.3465 80.5387 29.6379 80.0605 28.9362L78.3835 34.0148L77.1638 33.6118L79.1319 27.644C78.6814 27.0465 78.2102 26.449 77.6974 25.8585L75.3412 33.0074L74.1285 32.6044L76.7203 24.7469C76.2352 24.2189 75.7293 23.6909 75.2096 23.1767L72.3059 32L71.1001 31.604L74.1978 22.211C73.685 21.7386 73.1653 21.2662 72.6247 20.8077L69.2637 30.9857L68.0648 30.5897L70.7814 22.3361L68.9449 21.7247L66.2284 29.9783L65.0365 29.5823L67.0115 23.5936L65.1682 22.9822L63.1931 28.9709L62.0081 28.5749L63.2347 24.8511L61.3844 24.2397L60.1578 27.9635L58.9728 27.5745L59.451 26.1155L57.5938 25.5041L57.1156 26.9631L34.6766 19.5293L35.1548 18.0704L33.2976 17.459L32.8194 18.9179L31.6344 18.5289L32.861 14.805L31.0107 14.1937L29.7841 17.9175L28.5991 17.5215L30.5741 11.5328L28.7308 10.9214L26.7557 16.9101L25.5638 16.5141L28.2803 8.26054L26.4439 7.64917L23.7204 15.9097L22.5216 15.5137L25.8826 5.31482C25.1757 5.36345 24.4827 5.42598 23.7898 5.5024L20.6921 14.9093L19.4863 14.5133L22.3968 5.68303C21.6761 5.78725 20.9554 5.90535 20.2555 6.0443L17.6568 13.8949L16.4441 13.492L18.8072 6.32915C18.0449 6.50283 17.3103 6.69736 16.5965 6.90579L14.6284 12.8876L13.4088 12.4846L15.0858 7.39211C14.275 7.67001 13.5058 7.98264 12.7712 8.30917L11.5931 11.8871L10.3735 11.4842L11.1635 9.08729C10.2626 9.55972 9.43101 10.0669 8.65486 10.6157L8.56477 10.8867L6.43729 10.178L5.39781 13.3391L4.49692 13.0334L1.60715 21.7872C1.42005 23.4685 1.51014 25.2193 1.88435 27.0256L3.68612 21.5649L4.91271 21.9748L2.49418 29.2836C2.79217 30.1798 3.16638 31.0899 3.60296 32.007L6.71449 22.5654L7.93415 22.9683L4.43455 33.5979C4.82956 34.2996 5.27307 35.0083 5.75123 35.71L9.74978 23.5727L10.9694 23.9757L6.67984 37.0022C7.13028 37.5997 7.60151 38.1971 8.11433 38.7877L12.7989 24.5801L14.0117 24.9831L9.09837 39.8993C9.58346 40.4273 10.0893 40.9553 10.6091 41.4694L15.8412 25.5945L17.047 25.9905L11.6278 42.442C12.1406 42.9145 12.6603 43.3869 13.2009 43.8454L18.8834 26.6018L20.0823 26.9978L14.2473 44.7139C14.774 45.1446 15.3214 45.5615 15.8689 45.9783L21.9187 27.6092L23.1106 28.0052L16.9292 46.7564C17.4766 47.1455 18.031 47.5276 18.5993 47.9027L24.947 28.6027L26.1321 28.9987L19.6734 48.5975C20.2347 48.9518 20.803 49.2992 21.3851 49.6396L27.9823 29.6101L29.1673 29.9991L22.4869 50.2649C23.0621 50.5914 23.6442 50.9041 24.2333 51.2167L31.0246 30.6105L32.2026 30.9996L25.3559 51.7864C25.9449 52.0851 26.5409 52.37 27.1369 52.6479L34.0668 31.611L35.2379 32L28.2595 53.1689C28.8624 53.4399 29.4653 53.6969 30.0752 53.947L37.1021 32.6183L38.2663 33.0074L31.2117 54.4125C31.8215 54.6557 32.4383 54.8849 33.0619 55.1142L40.1374 33.6327L41.2947 34.0148L34.2054 55.5241C34.836 55.7395 35.4666 55.9479 36.0972 56.1494L43.1865 34.64L44.3438 35.0222L37.2684 56.5107C37.899 56.6982 38.5366 56.8789 39.1672 57.0526L46.2218 35.6544L47.386 36.0434L40.3591 57.3582C40.9967 57.518 41.6412 57.6709 42.2787 57.8168L49.2502 36.6548L50.4213 37.0439L43.4914 58.0738C44.1359 58.2058 44.7873 58.3309 45.4318 58.442L52.2785 37.6552L53.4566 38.0443L46.6653 58.6435C47.3237 58.7477 47.9751 58.8381 48.6334 58.9214L55.3138 38.6557L56.4989 39.0447L49.9016 59.0673C50.5669 59.1368 51.2321 59.1993 51.8905 59.248L58.3491 39.6561L59.5342 40.0521L53.1794 59.3313C53.8586 59.3661 54.5308 59.3938 55.203 59.4077L61.3775 40.6635L62.5694 41.0595L56.5196 59.4216C57.2057 59.4216 57.8918 59.4077 58.5709 59.38L64.4059 41.6709L65.6047 42.0669L59.9222 59.3035C60.6291 59.2549 61.3221 59.1924 62.015 59.1159L67.4342 42.6713L68.647 43.0743L63.4149 58.9423C64.1356 58.838 64.8563 58.7199 65.5632 58.581L70.4765 43.6717L71.6892 44.0747L67.0115 58.2753C67.7738 58.1016 68.5084 57.9071 69.2221 57.6917L73.5117 44.6791L74.7314 45.0821L70.7329 57.2123C71.5367 56.9344 72.3129 56.6288 73.0474 56.3022L76.547 45.6865L77.7667 46.0895L74.6621 55.5172C75.563 55.0447 76.3946 54.5306 77.1707 53.9887L79.5754 46.6869L80.802 47.0968L79.0141 52.5298C80.4001 51.2931 81.5158 49.9175 82.3612 48.4377L84.9807 40.4759L84.26 40.2397Z" fill="url(#paint5_linear_415:1663)"/>
<path d="M78.8344 19.9948C91.6824 34.4385 86.776 49.3408 67.8713 53.2731C48.9665 57.2054 23.2289 48.6808 10.3809 34.2301C-2.46714 19.7864 2.43922 4.891 21.344 0.958734C40.2487 -2.97353 65.9864 5.551 78.8344 19.9948Z" fill="url(#paint6_linear_415:1663)"/>
<path opacity="0.3" d="M52.3759 3.59179C43.1592 0.534909 33.3603 -0.708687 24.6702 0.409854L3.83203 22.8224C4.80915 26.5184 6.95741 30.3881 10.3739 34.237C12.4944 36.62 14.9753 38.8432 17.7126 40.8788L52.3759 3.59179Z" fill="#42E8E0"/>
<path opacity="0.3" d="M63.4567 8.30225L27.6084 46.8676C32.3692 49.2089 37.4904 51.0569 42.6878 52.3144L75.688 16.8129C72.1676 13.5823 68.0027 10.713 63.4567 8.30225Z" fill="#42E8E0"/>
<path d="M23.5403 5.35648C40.2829 1.8758 63.0753 9.42074 74.4542 22.218C79.8942 28.3317 81.7375 34.5428 80.3516 39.7395C82.5068 34.2788 80.8574 27.498 74.9185 20.8146C63.5396 8.01735 40.7472 0.472411 24.0046 3.95309C15.266 5.76638 9.90916 10.2336 8.39844 15.9027C10.3735 10.9075 15.5362 7.01692 23.5403 5.35648Z" fill="url(#paint7_linear_415:1663)"/>
<path d="M57.1847 26.3934C55.0711 25.4902 52.8674 25.1429 50.5736 25.3721C53.6574 24.1563 53.7822 21.9123 50.9409 18.64C50.8716 18.5636 50.8023 18.4803 50.733 18.4038C49.7697 17.2992 48.7233 16.3682 47.6007 15.6179C46.388 14.805 45.2099 14.2076 44.0595 13.8255C42.9092 13.4433 41.6687 13.2071 40.3382 13.1099C39.6313 13.0612 38.9522 13.0404 38.2938 13.0473L36.4574 10.9839L32.4866 11.8107L33.9973 13.5059C33.6092 13.5754 33.2142 13.6518 32.8054 13.7351L31.3501 14.0408L29.8532 12.3595L25.8824 13.1863L27.3793 14.8676L24.635 15.4373L23.5609 15.6596L23.2698 15.7221L18.71 16.667L21.4126 19.703L25.9725 18.7582L45.4455 40.6496L40.8856 41.5945L43.5883 44.6305L48.1482 43.6787L49.5133 43.3938L52.2576 42.8242L53.7822 44.5332L57.753 43.7065L56.7897 42.6227L56.2353 41.9974L58.8687 41.4486L60.3933 43.1576L64.3641 42.3309L63.4008 41.2471L62.6247 40.3786C64.3225 39.6631 65.4036 38.739 65.8679 37.5927C66.5401 35.8836 65.6739 33.6535 63.2553 30.9232C63.2068 30.8676 63.1514 30.805 63.089 30.7356C61.2595 28.7486 59.2984 27.2966 57.1847 26.3934ZM35.0368 18.1885L36.3188 17.9245C39.4789 17.2645 42.0429 18.0426 44.0041 20.2449C45.1544 21.5371 45.6811 22.5445 45.5841 23.274C45.4871 24.0035 44.5723 24.5454 42.8399 24.9067L41.2945 25.2262L35.0368 18.1885ZM52.3754 37.683L44.9188 29.3044L46.5058 28.9709C48.3006 28.5958 49.846 28.6652 51.1488 29.1654C52.4516 29.6657 53.803 30.7078 55.2028 32.2779C56.4502 33.6813 57.0115 34.7859 56.8867 35.5849C56.762 36.3839 55.8195 36.9674 54.0732 37.3287L52.3754 37.683Z" fill="url(#paint8_linear_415:1663)"/>
<path d="M26.7694 10.4698L26.0625 12.6096L28.2662 12.1511L26.7694 10.4698Z" fill="url(#paint9_linear_415:1663)"/>
<path d="M33.3738 9.09424L32.667 11.2341L34.8846 10.7964L33.3738 9.09424Z" fill="url(#paint10_linear_415:1663)"/>
<path d="M53.7824 20.6061L52.9439 23.1559L51.6064 21.5718L53.7824 20.6061Z" fill="url(#paint11_linear_415:1663)"/>
<path d="M66.8661 34.4872L65.8474 37.5996L63.8516 35.2167L66.8661 34.4872Z" fill="url(#paint12_linear_415:1663)"/>
<path d="M58.0783 23.6769C55.9647 22.7738 53.761 22.4264 51.4672 22.6556C54.551 21.4398 54.6757 19.1958 51.8345 15.9236C51.7652 15.8471 51.6959 15.7638 51.6266 15.6873C50.6633 14.5827 49.6169 13.6517 48.4943 12.9014C47.2815 12.0886 46.1034 11.4911 44.9531 11.109C43.8027 10.7269 42.5623 10.4906 41.2317 10.3934C40.5249 10.3447 39.8457 10.3239 39.1874 10.3309L37.351 8.26746L33.3801 9.0942L34.8909 10.7894C34.5028 10.8589 34.1078 10.9353 33.6989 11.0187L32.2436 11.3243L30.7468 9.64305L26.776 10.4698L28.2728 12.1511L25.5286 12.7208L24.4544 12.9431L24.1634 13.0056L19.6035 13.9505L22.3062 16.9865L26.866 16.0417L46.3391 37.9331L41.7792 38.878L44.4818 41.914L49.0417 40.9622L50.4069 40.6774L53.1511 40.1077L54.6757 41.8167L58.6465 40.99L57.6833 39.9062L57.1289 39.2809L59.7623 38.7321L61.2868 40.4411L65.2577 39.6144L64.2944 38.5306L63.5183 37.6622C65.2161 36.9466 66.2971 36.0226 66.7615 34.8762C67.4337 33.1672 66.5674 30.937 64.1489 28.2067C64.1004 28.1511 64.0449 28.0886 63.9826 28.0191C62.1531 26.0391 60.1919 24.587 58.0783 23.6769ZM35.9303 15.472L37.2124 15.208C40.3724 14.548 42.9365 15.3261 44.8976 17.5284C46.048 18.8206 46.5747 19.828 46.4776 20.5575C46.3806 21.287 45.4659 21.8289 43.7334 22.1902L42.188 22.5098L35.9303 15.472ZM53.3382 35.0569L46.3529 27.1993L47.9052 26.8311C49.6585 26.4142 51.1623 26.4281 52.4166 26.8728C53.6639 27.3174 54.946 28.2761 56.2557 29.749C57.4269 31.069 57.9397 32.1111 57.7942 32.8893C57.6486 33.6674 56.7131 34.2579 55.0014 34.6609L53.3382 35.0569Z" fill="url(#paint13_linear_415:1663)"/>
<path d="M65.2369 39.6283L64.3429 42.3448L60.3721 43.1646L61.266 40.455L65.2369 39.6283Z" fill="url(#paint14_linear_415:1663)"/>
<path d="M58.6333 41.0039L57.7394 43.7134L53.7686 44.5402L54.6625 41.8307L58.6333 41.0039Z" fill="url(#paint15_linear_415:1663)"/>
<path d="M44.4755 41.9209L43.5816 44.6304L40.8789 41.5944L41.7729 38.8849L44.4755 41.9209Z" fill="url(#paint16_linear_415:1663)"/>
<path d="M19.6039 13.9505L18.71 16.667L21.4057 19.703L22.2996 16.9865L19.6039 13.9505Z" fill="url(#paint17_linear_415:1663)"/>
<path d="M25.9661 18.7512L26.8601 16.0417L22.3002 16.9865L21.4062 19.703L25.9661 18.7512Z" fill="url(#paint18_linear_415:1663)"/>
<path d="M26.8598 16.0417L25.9658 18.7512L43.54 38.5167L46.3328 37.9331L26.8598 16.0417Z" fill="url(#paint19_linear_415:1663)"/>
<defs>
<linearGradient id="paint0_linear_415:1663" x1="6.44614" y1="1.83196" x2="27.5637" y2="84.2845" gradientUnits="userSpaceOnUse">
<stop stop-color="#42E8E0"/>
<stop offset="0.0157" stop-color="#40DDDA"/>
<stop offset="0.0921" stop-color="#3AAEC0"/>
<stop offset="0.173" stop-color="#3484A9"/>
<stop offset="0.2573" stop-color="#2F6195"/>
<stop offset="0.3458" stop-color="#2B4486"/>
<stop offset="0.44" stop-color="#282E79"/>
<stop offset="0.5425" stop-color="#261E71"/>
<stop offset="0.6594" stop-color="#24156C"/>
<stop offset="0.8226" stop-color="#24126A"/>
</linearGradient>
<linearGradient id="paint1_linear_415:1663" x1="-4.56013" y1="18.8309" x2="75.9754" y2="45.3628" gradientUnits="userSpaceOnUse">
<stop stop-color="#42E8E0"/>
<stop offset="0.1507" stop-color="#43E3E0"/>
<stop offset="0.3285" stop-color="#45D5DF"/>
<stop offset="0.5199" stop-color="#49BDDD"/>
<stop offset="0.7209" stop-color="#4E9CDB"/>
<stop offset="0.9274" stop-color="#5472D8"/>
<stop offset="1" stop-color="#5761D7"/>
</linearGradient>
<linearGradient id="paint2_linear_415:1663" x1="-4.56013" y1="18.8309" x2="75.9754" y2="45.3628" gradientUnits="userSpaceOnUse">
<stop stop-color="#42E8E0"/>
<stop offset="0.1507" stop-color="#43E3E0"/>
<stop offset="0.3285" stop-color="#45D5DF"/>
<stop offset="0.5199" stop-color="#49BDDD"/>
<stop offset="0.7209" stop-color="#4E9CDB"/>
<stop offset="0.9274" stop-color="#5472D8"/>
<stop offset="1" stop-color="#5761D7"/>
</linearGradient>
<linearGradient id="paint3_linear_415:1663" x1="-4.56013" y1="18.8309" x2="75.9754" y2="45.3628" gradientUnits="userSpaceOnUse">
<stop stop-color="#42E8E0"/>
<stop offset="0.1507" stop-color="#43E3E0"/>
<stop offset="0.3285" stop-color="#45D5DF"/>
<stop offset="0.5199" stop-color="#49BDDD"/>
<stop offset="0.7209" stop-color="#4E9CDB"/>
<stop offset="0.9274" stop-color="#5472D8"/>
<stop offset="1" stop-color="#5761D7"/>
</linearGradient>
<linearGradient id="paint4_linear_415:1663" x1="-3.89609" y1="16.8142" x2="76.6395" y2="43.3462" gradientUnits="userSpaceOnUse">
<stop stop-color="#42E8E0"/>
<stop offset="0.0157" stop-color="#40DDDA"/>
<stop offset="0.0921" stop-color="#3AAEC0"/>
<stop offset="0.173" stop-color="#3484A9"/>
<stop offset="0.2573" stop-color="#2F6195"/>
<stop offset="0.3458" stop-color="#2B4486"/>
<stop offset="0.44" stop-color="#282E79"/>
<stop offset="0.5425" stop-color="#261E71"/>
<stop offset="0.6594" stop-color="#24156C"/>
<stop offset="0.8226" stop-color="#24126A"/>
</linearGradient>
<linearGradient id="paint5_linear_415:1663" x1="1.83476" y1="21.0792" x2="82.601" y2="47.6872" gradientUnits="userSpaceOnUse">
<stop stop-color="#42E8E0"/>
<stop offset="0.1507" stop-color="#43E3E0"/>
<stop offset="0.3285" stop-color="#45D5DF"/>
<stop offset="0.5199" stop-color="#49BDDD"/>
<stop offset="0.7209" stop-color="#4E9CDB"/>
<stop offset="0.9274" stop-color="#5472D8"/>
<stop offset="1" stop-color="#5761D7"/>
</linearGradient>
<linearGradient id="paint6_linear_415:1663" x1="9.66308" y1="-7.93237" x2="30.7807" y2="74.5202" gradientUnits="userSpaceOnUse">
<stop stop-color="#42E8E0"/>
<stop offset="0.00269487" stop-color="#43E6E0"/>
<stop offset="0.0805" stop-color="#52B7E4"/>
<stop offset="0.1614" stop-color="#608EE7"/>
<stop offset="0.2471" stop-color="#6B6BE9"/>
<stop offset="0.3372" stop-color="#754EEB"/>
<stop offset="0.4331" stop-color="#7C38ED"/>
<stop offset="0.5374" stop-color="#8128EE"/>
<stop offset="0.6564" stop-color="#841FEF"/>
<stop offset="0.8226" stop-color="#851CEF"/>
</linearGradient>
<linearGradient id="paint7_linear_415:1663" x1="11.9213" y1="5.12739" x2="83.954" y2="28.8581" gradientUnits="userSpaceOnUse">
<stop stop-color="#2B237C"/>
<stop offset="1" stop-color="#180D5B"/>
</linearGradient>
<linearGradient id="paint8_linear_415:1663" x1="17.4912" y1="20.3467" x2="66.2888" y2="36.4228" gradientUnits="userSpaceOnUse">
<stop stop-color="#2B237C"/>
<stop offset="1" stop-color="#180D5B"/>
</linearGradient>
<linearGradient id="paint9_linear_415:1663" x1="27.7149" y1="10.2921" x2="26.9233" y2="13.2618" gradientUnits="userSpaceOnUse">
<stop stop-color="#42E8E0"/>
<stop offset="0.0157" stop-color="#40DDDA"/>
<stop offset="0.0921" stop-color="#3AAEC0"/>
<stop offset="0.173" stop-color="#3484A9"/>
<stop offset="0.2573" stop-color="#2F6195"/>
<stop offset="0.3458" stop-color="#2B4486"/>
<stop offset="0.44" stop-color="#282E79"/>
<stop offset="0.5425" stop-color="#261E71"/>
<stop offset="0.6594" stop-color="#24156C"/>
<stop offset="0.8226" stop-color="#24126A"/>
</linearGradient>
<linearGradient id="paint10_linear_415:1663" x1="34.329" y1="8.92037" x2="33.5373" y2="11.8901" gradientUnits="userSpaceOnUse">
<stop stop-color="#42E8E0"/>
<stop offset="0.0157" stop-color="#40DDDA"/>
<stop offset="0.0921" stop-color="#3AAEC0"/>
<stop offset="0.173" stop-color="#3484A9"/>
<stop offset="0.2573" stop-color="#2F6195"/>
<stop offset="0.3458" stop-color="#2B4486"/>
<stop offset="0.44" stop-color="#282E79"/>
<stop offset="0.5425" stop-color="#261E71"/>
<stop offset="0.6594" stop-color="#24156C"/>
<stop offset="0.8226" stop-color="#24126A"/>
</linearGradient>
<linearGradient id="paint11_linear_415:1663" x1="53.008" y1="19.8865" x2="52.0655" y2="23.4221" gradientUnits="userSpaceOnUse">
<stop stop-color="#2B237C"/>
<stop offset="1" stop-color="#180D5B"/>
</linearGradient>
<linearGradient id="paint12_linear_415:1663" x1="64.157" y1="34.7646" x2="67.3497" y2="36.6117" gradientUnits="userSpaceOnUse">
<stop stop-color="#2B237C"/>
<stop offset="1" stop-color="#180D5B"/>
</linearGradient>
<linearGradient id="paint13_linear_415:1663" x1="21.8886" y1="13.7154" x2="170.539" y2="103.464" gradientUnits="userSpaceOnUse">
<stop stop-color="white"/>
<stop offset="0.0763" stop-color="#E4DDEA"/>
<stop offset="0.1719" stop-color="#C8BBD4"/>
<stop offset="0.2737" stop-color="#B19EC2"/>
<stop offset="0.3821" stop-color="#9F88B4"/>
<stop offset="0.5001" stop-color="#9378AB"/>
<stop offset="0.6347" stop-color="#8B6FA5"/>
<stop offset="0.8226" stop-color="#896CA3"/>
</linearGradient>
<linearGradient id="paint14_linear_415:1663" x1="61.2879" y1="40.5153" x2="65.2357" y2="42.7992" gradientUnits="userSpaceOnUse">
<stop stop-color="#2B237C"/>
<stop offset="1" stop-color="#180D5B"/>
</linearGradient>
<linearGradient id="paint15_linear_415:1663" x1="54.6834" y1="41.8894" x2="58.6312" y2="44.1733" gradientUnits="userSpaceOnUse">
<stop stop-color="#2B237C"/>
<stop offset="1" stop-color="#180D5B"/>
</linearGradient>
<linearGradient id="paint16_linear_415:1663" x1="40.8113" y1="40.6725" x2="45.67" y2="43.4834" gradientUnits="userSpaceOnUse">
<stop stop-color="#2B237C"/>
<stop offset="1" stop-color="#180D5B"/>
</linearGradient>
<linearGradient id="paint17_linear_415:1663" x1="21.3932" y1="13.462" x2="19.603" y2="20.1774" gradientUnits="userSpaceOnUse">
<stop stop-color="#42E8E0"/>
<stop offset="0.0157" stop-color="#40DDDA"/>
<stop offset="0.0921" stop-color="#3AAEC0"/>
<stop offset="0.173" stop-color="#3484A9"/>
<stop offset="0.2573" stop-color="#2F6195"/>
<stop offset="0.3458" stop-color="#2B4486"/>
<stop offset="0.44" stop-color="#282E79"/>
<stop offset="0.5425" stop-color="#261E71"/>
<stop offset="0.6594" stop-color="#24156C"/>
<stop offset="0.8226" stop-color="#24126A"/>
</linearGradient>
<linearGradient id="paint18_linear_415:1663" x1="24.9974" y1="14.6025" x2="23.2588" y2="21.1242" gradientUnits="userSpaceOnUse">
<stop stop-color="#2B237C"/>
<stop offset="1" stop-color="#180D5B"/>
</linearGradient>
<linearGradient id="paint19_linear_415:1663" x1="39.4025" y1="16.0648" x2="33.2741" y2="39.054" gradientUnits="userSpaceOnUse">
<stop stop-color="#42E8E0"/>
<stop offset="0.0157" stop-color="#40DDDA"/>
<stop offset="0.0921" stop-color="#3AAEC0"/>
<stop offset="0.173" stop-color="#3484A9"/>
<stop offset="0.2573" stop-color="#2F6195"/>
<stop offset="0.3458" stop-color="#2B4486"/>
<stop offset="0.44" stop-color="#282E79"/>
<stop offset="0.5425" stop-color="#261E71"/>
<stop offset="0.6594" stop-color="#24156C"/>
<stop offset="0.8226" stop-color="#24126A"/>
</linearGradient>
</defs>
</svg>
