<svg width="50" height="73" viewBox="0 0 50 73" fill="none" xmlns="http://www.w3.org/2000/svg">
<g clip-path="url(#clip0_415:1688)">
<path d="M21.578 27.8794C21.4597 27.9288 21.3351 27.9843 21.2168 28.0337C21.3351 27.9781 21.4597 27.9288 21.578 27.8794Z" fill="#BD393D"/>
<path d="M19.9274 28.5151C20.0084 28.4904 20.0769 28.4534 20.1578 28.4287C20.0333 28.4719 19.9087 28.5151 19.7842 28.5521C19.8278 28.5398 19.8776 28.5274 19.9274 28.5151Z" fill="#BD393D"/>
<path d="M15.7176 29.3666C15.7488 29.3604 15.7799 29.3542 15.811 29.3542C15.674 29.3666 15.5433 29.3728 15.4062 29.3851C15.5059 29.3789 15.6118 29.3789 15.7176 29.3666Z" fill="#BD393D"/>
<path d="M10.2756 29.2555C10.3752 29.2679 10.4749 29.2741 10.5683 29.2864C10.3815 29.2617 10.1946 29.237 10.0078 29.2062C10.1012 29.2247 10.1884 29.2432 10.2756 29.2555Z" fill="#BD393D"/>
<path d="M11.5708 29.4036C11.6642 29.4098 11.7638 29.4098 11.8572 29.4159C11.658 29.4036 11.4649 29.3851 11.2656 29.3666C11.3715 29.3789 11.4711 29.3913 11.5708 29.4036Z" fill="#BD393D"/>
<path d="M17.4119 29.1321C17.5364 29.1074 17.661 29.0766 17.7918 29.0519C17.6423 29.0827 17.4991 29.1136 17.3496 29.1383C17.3683 29.1383 17.3932 29.1383 17.4119 29.1321Z" fill="#BD393D"/>
<path d="M19.075 28.7557C18.9131 28.7989 18.7511 28.8483 18.583 28.8853C18.7511 28.8483 18.9131 28.7989 19.075 28.7557Z" fill="#BD393D"/>
<path d="M14.2425 29.4653C14.311 29.4653 14.3733 29.453 14.4418 29.453C14.2612 29.4592 14.0806 29.4653 13.9062 29.4653C14.0121 29.4653 14.1304 29.4715 14.2425 29.4653Z" fill="#BD393D"/>
<path d="M12.8785 29.4715C12.9657 29.4715 13.0529 29.4715 13.1401 29.4715C12.9408 29.4653 12.7477 29.4653 12.5547 29.453C12.6606 29.4592 12.7726 29.4715 12.8785 29.4715Z" fill="#BD393D"/>
<path d="M8.96076 29.0334C9.06662 29.0519 9.17249 29.0704 9.27213 29.0889C9.09776 29.0519 8.92339 29.021 8.74902 28.984C8.82375 28.9964 8.88603 29.0149 8.96076 29.0334Z" fill="#AC3437"/>
<path d="M7.82812 28.7557C7.84681 28.7619 7.87172 28.7619 7.8904 28.7681C7.87172 28.7681 7.85303 28.7619 7.82812 28.7557Z" fill="#982E31"/>
<path d="M7.79688 28.7434C7.80958 28.7497 7.82228 28.7497 7.83499 28.7561C7.81593 28.7497 7.80323 28.7497 7.79688 28.7434Z" fill="#932C2F"/>
<path d="M29.6242 7.96029L9.44116 19.5798C9.41625 19.5922 9.39756 19.6107 9.37265 19.6292C9.27302 19.6909 9.19206 19.7588 9.09865 19.8205C8.96164 19.9192 8.81219 20.0118 8.70009 20.1167C8.68764 20.129 8.67518 20.1414 8.66273 20.1537C8.61914 20.1969 8.588 20.2401 8.54441 20.2833C8.46345 20.3697 8.38249 20.4499 8.31399 20.5363C8.29531 20.561 8.2704 20.5795 8.25172 20.6042C8.23304 20.635 8.20813 20.6597 8.19567 20.6906C8.15208 20.7584 8.12717 20.8263 8.0898 20.8942C8.0898 20.9004 8.08358 20.9065 8.08358 20.9065C8.03376 20.9991 7.97771 21.0917 7.94035 21.1842C7.93412 21.1966 7.92789 21.2027 7.92166 21.2151C7.91544 21.2336 7.91544 21.2459 7.90921 21.2644C7.87807 21.357 7.87807 21.4496 7.85939 21.5421C7.85316 21.5668 7.84694 21.5977 7.84694 21.6223C7.84071 21.7026 7.80957 21.7766 7.80957 21.8507V21.8568C7.80957 21.9247 7.83448 21.9926 7.84694 22.0666C7.86562 22.2147 7.8843 22.3628 7.93412 22.5048C7.96526 22.5973 8.02753 22.696 8.07735 22.7886C8.14585 22.912 8.20813 23.0354 8.30154 23.1527C8.40118 23.2823 8.5195 23.4057 8.65027 23.5229C8.84955 23.708 9.08619 23.887 9.35397 24.0536C9.37888 24.066 9.39756 24.0845 9.42247 24.0968C9.43493 24.103 9.44738 24.1153 9.45984 24.1215C11.6457 25.3742 15.1953 25.3742 17.3749 24.1215L29.5869 17.0868L34.9985 13.9706L35.0234 4.83789L29.6242 7.96029Z" fill="#932C2F"/>
<path d="M22.836 27.2439C22.4374 27.4722 22.014 27.682 21.5781 27.8733C21.4597 27.9227 21.3352 27.9782 21.2169 28.0276C20.8744 28.1695 20.5194 28.3053 20.1582 28.4287C20.0772 28.4534 20.0087 28.4904 19.9278 28.5151C19.8842 28.5336 19.8344 28.5397 19.7846 28.5583C19.5541 28.6323 19.3113 28.694 19.0746 28.7619C18.9127 28.8051 18.7508 28.8545 18.5827 28.8915C18.3211 28.9532 18.0533 29.0087 17.7918 29.0581C17.6672 29.0828 17.5427 29.1136 17.4119 29.1383C17.3932 29.1445 17.3683 29.1445 17.3496 29.1445C16.8452 29.2309 16.3283 29.3049 15.8115 29.3543C15.7803 29.3543 15.7492 29.3666 15.718 29.3666C15.6122 29.379 15.5125 29.379 15.4067 29.3851C15.0891 29.4098 14.7653 29.4345 14.4414 29.4468C14.3729 29.4468 14.3106 29.4592 14.2421 29.4592C14.1301 29.4654 14.0117 29.4592 13.8996 29.4592C13.6443 29.4654 13.389 29.4654 13.1399 29.4654C13.0527 29.4654 12.9655 29.4654 12.8783 29.4654C12.7662 29.4654 12.6604 29.453 12.5545 29.4468C12.3241 29.4407 12.0875 29.4283 11.857 29.4098C11.7636 29.4036 11.664 29.4036 11.5706 29.3975C11.4709 29.3913 11.3713 29.3728 11.2654 29.3666C11.035 29.3419 10.7984 29.3173 10.568 29.2864C10.4683 29.2741 10.3687 29.2679 10.2753 29.2556C10.1881 29.2432 10.1009 29.2247 10.0137 29.2124C9.76463 29.1753 9.52176 29.1321 9.27266 29.0828C9.16679 29.0643 9.06093 29.0519 8.96129 29.0272C8.89279 29.0149 8.82428 28.9902 8.74956 28.9779C8.46309 28.9162 8.17663 28.8421 7.89017 28.7681C7.87149 28.7619 7.84658 28.7557 7.8279 28.7557C7.81544 28.7495 7.80299 28.7495 7.79053 28.7495C7.7158 28.731 7.64107 28.7187 7.57257 28.694C7.53521 28.6817 7.50407 28.6693 7.46671 28.657C6.97474 28.5151 6.50145 28.3608 6.04063 28.1818C6.01572 28.1757 5.99081 28.1695 5.95967 28.1572C5.74171 28.0708 5.5362 27.9782 5.3307 27.8856C5.23106 27.8424 5.12519 27.7993 5.02555 27.7561C4.68927 27.5956 4.35922 27.4228 4.04785 27.2439C3.72402 27.0588 3.41265 26.8613 3.13242 26.6638C3.05769 26.6145 3.00164 26.5589 2.93314 26.5096C2.72763 26.3553 2.52213 26.2072 2.33531 26.0468C2.26681 25.9851 2.21076 25.9233 2.14226 25.8616C1.97412 25.7074 1.80598 25.5531 1.66274 25.3927C1.60047 25.3248 1.55065 25.2507 1.48838 25.1767C1.3576 25.0224 1.22682 24.8681 1.11473 24.7139C1.05246 24.6275 1.00887 24.5411 0.959046 24.4547C0.865634 24.3066 0.765996 24.1585 0.691266 24.0104C0.641447 23.9179 0.61031 23.8253 0.572945 23.7327C0.510671 23.5846 0.435942 23.4427 0.386123 23.2946C0.354985 23.1959 0.336303 23.0971 0.311393 22.9984C0.274029 22.8565 0.230437 22.7084 0.205527 22.5665C0.186845 22.4677 0.186845 22.369 0.180617 22.2641C0.168163 22.1283 0.143253 21.9926 0.143253 21.8506L2.21354e-05 65.3483C-0.00620529 67.3106 1.30155 69.279 3.9233 70.7785C4.49 71.0994 5.10028 71.3833 5.72925 71.6363C5.76662 71.6486 5.80398 71.6671 5.84135 71.6795C5.86626 71.6856 5.88494 71.698 5.90985 71.7103C6.37068 71.8893 6.85019 72.0497 7.34216 72.1916C7.37952 72.204 7.41689 72.2102 7.45425 72.2225C7.56012 72.2534 7.67221 72.2842 7.7843 72.3089C8.05831 72.3829 8.33855 72.4508 8.61878 72.5125C8.69351 72.5249 8.76824 72.5434 8.83674 72.5557C8.94883 72.5804 9.06093 72.5989 9.16679 72.6236C9.39721 72.6668 9.63385 72.71 9.87049 72.747C9.9639 72.7594 10.0573 72.7717 10.1507 72.784C10.2566 72.7964 10.3625 72.8149 10.4683 72.8272C10.6863 72.8519 10.898 72.8766 11.116 72.9013C11.2218 72.9136 11.3339 72.9198 11.446 72.926C11.5519 72.9321 11.6515 72.9445 11.7574 72.9506C11.9691 72.9692 12.1809 72.9753 12.3926 72.9877C12.5109 72.9938 12.6292 72.9938 12.7538 73C12.8472 73 12.9468 73.0062 13.0403 73.0062C13.2707 73.0062 13.5073 73.0062 13.7377 73.0062C13.8623 73.0062 13.9868 73 14.1176 72.9938C14.1923 72.9938 14.2671 72.9877 14.3356 72.9877C14.6345 72.9753 14.9334 72.9506 15.2323 72.926C15.3506 72.9136 15.4752 72.9074 15.5935 72.8951C15.6309 72.8889 15.6682 72.8889 15.6994 72.8828C16.21 72.8334 16.7144 72.7655 17.2064 72.673C17.2313 72.6668 17.2562 72.6606 17.2874 72.6544C17.443 72.6298 17.5925 72.5927 17.7482 72.5619C17.9786 72.5125 18.2152 72.4693 18.4457 72.4138C18.6325 72.3706 18.8131 72.3151 18.9999 72.2657C19.2179 72.204 19.442 72.1484 19.6538 72.0806C19.7036 72.0621 19.7534 72.0435 19.8095 72.025C19.8904 72.0004 19.9714 71.9695 20.0523 71.9448C20.4073 71.8214 20.756 71.6918 21.0861 71.5561C21.2106 71.5005 21.3414 71.4512 21.4597 71.3956C21.8957 71.2043 22.3191 70.9945 22.7114 70.7662L48.3062 56.0243L48.4307 12.4958L22.836 27.2439Z" fill="#851CEF"/>
<path opacity="0.7" d="M21.5781 27.8795C21.4597 27.9288 21.3352 27.9844 21.2169 28.0337C20.8744 28.1757 20.5194 28.3114 20.1582 28.4348C20.0772 28.4595 20.0087 28.4965 19.9278 28.5212C19.8842 28.5397 19.8344 28.5459 19.7846 28.5644C19.5541 28.6385 19.3113 28.7002 19.0746 28.7681C18.9127 28.8113 18.7508 28.8606 18.5827 28.8976C18.3211 28.9594 18.0533 29.0149 17.7918 29.0643C17.6672 29.0889 17.5427 29.1198 17.4119 29.1445C17.3932 29.1506 17.3683 29.1506 17.3496 29.1506C16.8452 29.237 16.3283 29.3111 15.8115 29.3605C15.7803 29.3605 15.7492 29.3728 15.718 29.3728C15.6122 29.3851 15.5125 29.3851 15.4067 29.3913C15.0891 29.416 14.7652 29.4407 14.4414 29.453C14.3729 29.453 14.3106 29.4654 14.2421 29.4654C14.1301 29.4715 14.0117 29.4654 13.8996 29.4654C13.6443 29.4715 13.389 29.4715 13.1399 29.4715C13.0527 29.4715 12.9655 29.4715 12.8783 29.4715C12.7662 29.4715 12.6604 29.4592 12.5545 29.453C12.3241 29.4468 12.0875 29.4345 11.857 29.416C11.7636 29.4098 11.664 29.4098 11.5706 29.4036C11.4709 29.3975 11.3713 29.379 11.2654 29.3728C11.035 29.3481 10.7984 29.3234 10.568 29.2926C10.4683 29.2802 10.3687 29.2741 10.2753 29.2617C10.1881 29.2494 10.1009 29.2309 10.0137 29.2185C9.76463 29.1815 9.52176 29.1383 9.27266 29.0889C9.16679 29.0704 9.06093 29.0581 8.96129 29.0334C8.89279 29.0211 8.82428 28.9964 8.74955 28.984C8.46309 28.9223 8.17663 28.8483 7.89017 28.7742C7.87149 28.7681 7.84658 28.7619 7.8279 28.7619C7.81544 28.7557 7.80299 28.7557 7.79053 28.7557C7.7158 28.7372 7.64107 28.7249 7.57257 28.7002C7.53521 28.6878 7.50407 28.6755 7.4667 28.6632C6.97474 28.5212 6.50145 28.367 6.04062 28.188C6.01571 28.1818 5.99081 28.1757 5.95967 28.1633C5.74171 28.0769 5.5362 27.9844 5.3307 27.8918C5.23106 27.8486 5.12519 27.8054 5.02555 27.7622C4.68927 27.5956 4.35922 27.4228 4.04785 27.2439C3.72402 27.0588 3.41265 26.8613 3.13242 26.6638C3.05769 26.6145 3.00164 26.5589 2.93314 26.5096C2.72763 26.3553 2.52213 26.2072 2.33531 26.0468C2.2668 25.9851 2.21076 25.9233 2.14226 25.8616C1.97412 25.7074 1.80598 25.5531 1.66274 25.3927C1.60047 25.3248 1.55065 25.2507 1.48838 25.1767C1.3576 25.0224 1.22682 24.8681 1.11473 24.7139C1.05246 24.6275 1.00886 24.5411 0.959046 24.4547C0.865634 24.3066 0.765995 24.1585 0.691266 24.0104C0.641447 23.9178 0.61031 23.8253 0.572945 23.7327C0.510671 23.5846 0.435942 23.4427 0.386122 23.2946C0.354985 23.1959 0.336303 23.0971 0.311393 22.9984C0.274029 22.8565 0.230437 22.7084 0.205527 22.5665C0.186845 22.4677 0.186845 22.369 0.180617 22.2641C0.168163 22.1283 0.143253 21.9926 0.143253 21.8506L2.21354e-05 65.3483C-0.00620529 67.3106 1.30155 69.279 3.9233 70.7785C4.49 71.0994 5.10028 71.3833 5.72925 71.6363C5.76662 71.6486 5.80398 71.6671 5.84135 71.6795C5.86626 71.6856 5.88494 71.698 5.90985 71.7103C6.37068 71.8893 6.85019 72.0497 7.34216 72.1916C7.37952 72.204 7.41689 72.2102 7.45425 72.2225C7.56012 72.2534 7.67221 72.2842 7.7843 72.3089C8.05831 72.3829 8.33854 72.4508 8.61878 72.5125C8.69351 72.5249 8.76824 72.5434 8.83674 72.5557C8.94883 72.5804 9.06093 72.5989 9.16679 72.6236C9.39721 72.6668 9.63385 72.71 9.87049 72.747C9.9639 72.7594 10.0573 72.7717 10.1507 72.784C10.2566 72.7964 10.3625 72.8149 10.4683 72.8272C10.6863 72.8519 10.898 72.8766 11.116 72.9013C11.2218 72.9136 11.3339 72.9198 11.446 72.926C11.5519 72.9321 11.6515 72.9445 11.7574 72.9506C11.9691 72.9692 12.1809 72.9753 12.3926 72.9877C12.5109 72.9938 12.6292 72.9938 12.7538 73C12.8472 73 12.9468 73.0062 13.0403 73.0062C13.2707 73.0062 13.5073 73.0062 13.7377 73.0062C13.8623 73.0062 13.9868 73 14.1176 72.9938C14.1923 72.9938 14.2671 72.9877 14.3356 72.9877C14.6345 72.9753 14.9334 72.9507 15.2323 72.926C15.3506 72.9136 15.4752 72.9075 15.5935 72.8951C15.6309 72.8889 15.6682 72.8889 15.6994 72.8828C16.21 72.8334 16.7144 72.7655 17.2064 72.673C17.2313 72.6668 17.2562 72.6606 17.2874 72.6545C17.443 72.6298 17.5925 72.5927 17.7482 72.5619C17.9786 72.5125 18.2152 72.4693 18.4457 72.4138C18.6325 72.3706 18.8131 72.3151 18.9999 72.2657C19.2179 72.204 19.442 72.1484 19.6538 72.0806C19.7036 72.0621 19.7534 72.0435 19.8095 72.025C19.8904 72.0004 19.9714 71.9695 20.0523 71.9448C20.4073 71.8214 20.756 71.6918 21.0861 71.5561C21.2106 71.5005 21.3414 71.4512 21.4597 71.3956C21.8956 71.2043 22.3191 70.9945 22.7114 70.7662L22.836 27.2377C22.4374 27.4722 22.014 27.682 21.5781 27.8795Z" fill="url(#paint0_linear_415:1688)"/>
<path d="M0.186298 22.5665C0.211207 22.7146 0.254799 22.8565 0.292164 22.9984C0.317074 23.0972 0.335756 23.1959 0.366893 23.2946C0.416712 23.4427 0.485214 23.5847 0.553716 23.7328C0.597308 23.8253 0.628445 23.9179 0.672037 24.0104C0.746766 24.1585 0.846405 24.3066 0.939816 24.4547C0.995863 24.5411 1.03945 24.6275 1.0955 24.7139C1.2076 24.8682 1.33837 25.0224 1.46915 25.1767C1.53142 25.2446 1.58124 25.3186 1.64352 25.3927C1.78675 25.5531 1.95489 25.7074 2.12303 25.8617C2.19153 25.9234 2.24758 25.9851 2.31608 26.0468C2.49667 26.2072 2.70218 26.3615 2.91391 26.5096C2.98241 26.559 3.04469 26.6145 3.11319 26.6639C3.39965 26.8613 3.70479 27.0588 4.02862 27.2439C4.33999 27.4229 4.67004 27.5895 5.00632 27.7499C5.10596 27.7931 5.21183 27.8363 5.31147 27.8795C5.54188 27.9844 5.77853 28.0831 6.0214 28.1757C6.48222 28.3546 6.96174 28.5151 7.44748 28.6508C7.55334 28.6817 7.66544 28.7064 7.7713 28.7372C7.78376 28.7372 7.79621 28.7434 7.80867 28.7496C7.82735 28.7557 7.85226 28.7619 7.87094 28.7619C8.15117 28.836 8.43764 28.91 8.73033 28.9717C8.90469 29.0087 9.07906 29.0396 9.25343 29.0766C9.4963 29.126 9.7454 29.1692 9.99449 29.2062C10.1813 29.2371 10.3681 29.2617 10.555 29.2864C10.7854 29.3173 11.0158 29.342 11.2524 29.3667C11.4455 29.3852 11.6448 29.4037 11.844 29.416C12.0745 29.4345 12.3049 29.4469 12.5415 29.453C12.7346 29.4592 12.9338 29.4654 13.1269 29.4716C13.3822 29.4716 13.6313 29.4716 13.8866 29.4654C14.0672 29.4592 14.2478 29.4592 14.4222 29.453C14.746 29.4407 15.0636 29.416 15.3874 29.3913C15.5244 29.379 15.6552 29.3728 15.7922 29.3605C16.3091 29.3049 16.826 29.2371 17.3304 29.1507C17.4799 29.126 17.6231 29.089 17.7725 29.0643C18.0403 29.0087 18.3081 28.9594 18.5634 28.8977C18.7316 28.8545 18.8935 28.8113 19.0554 28.7681C19.292 28.7064 19.5349 28.6385 19.7653 28.5645C19.8899 28.5274 20.0144 28.4781 20.139 28.441C20.5002 28.3176 20.8551 28.188 21.1976 28.0399C21.316 27.9906 21.4405 27.9412 21.5588 27.8857C21.9947 27.6882 22.4182 27.4846 22.8168 27.2563L48.4115 12.5205L42.9563 9.3981L37.5446 12.5143L34.9914 13.983L29.5797 17.0992L17.3678 24.1339C15.1882 25.3865 11.6385 25.3865 9.45271 24.1339C9.44025 24.1277 9.4278 24.1153 9.41534 24.1092C9.39043 24.0968 9.37175 24.0783 9.34684 24.066C9.07906 23.8994 8.84242 23.7204 8.64314 23.5353C8.51237 23.418 8.39404 23.2885 8.2944 23.165C8.20099 23.0478 8.13872 22.9244 8.07022 22.801C8.0204 22.7084 7.95812 22.6097 7.92699 22.5171C7.87094 22.369 7.85849 22.2271 7.8398 22.079C7.83358 22.0111 7.80244 21.9432 7.80244 21.8692C7.80244 21.8692 7.80244 21.8692 7.80244 21.863C7.80244 21.789 7.82735 21.7149 7.8398 21.6347C7.84603 21.61 7.84603 21.5792 7.85226 21.5545C7.87094 21.4434 7.87717 21.3385 7.91453 21.2274C7.91453 21.2151 7.92699 21.2089 7.93321 21.1966C7.97058 21.104 8.02663 21.0115 8.07645 20.9189C8.13249 20.814 8.17608 20.7153 8.24459 20.6165C8.26327 20.5918 8.28818 20.5733 8.30686 20.5486C8.37536 20.4623 8.45632 20.382 8.53728 20.2956C8.69296 20.1352 8.87978 19.9809 9.09152 19.8328C9.18493 19.7711 9.26588 19.6971 9.36552 19.6415C9.39043 19.623 9.40911 19.6107 9.43402 19.5922L29.6233 7.96031L35.035 4.84408L29.5797 1.72168L3.98503 16.4636C1.40687 17.9446 0.124023 19.8884 0.124023 21.8322C0.124023 21.8383 0.124023 21.8445 0.124023 21.8507V21.8568C0.124023 21.9926 0.148933 22.1284 0.161388 22.2703C0.167615 22.3628 0.167615 22.4677 0.186298 22.5665Z" fill="#9049E2"/>
<path d="M48.381 28.1201L37.7819 34.186C37.4207 34.3896 37.0782 34.6364 36.7357 34.9018C36.6298 34.9882 36.524 35.0869 36.4181 35.1795C36.2562 35.3214 36.1005 35.4695 35.9448 35.6176C35.8701 35.6916 35.7891 35.7533 35.7144 35.8274C35.6521 35.8891 35.5899 35.957 35.5338 36.0249C35.4653 36.0989 35.403 36.1791 35.3408 36.2593C35.1851 36.4321 35.0356 36.6111 34.8862 36.7962C34.8301 36.8641 34.7741 36.9196 34.7242 36.9875C34.6993 37.0183 34.6744 37.0554 34.6433 37.0924C34.5935 37.1541 34.5561 37.2281 34.5125 37.2899C34.4004 37.4441 34.3008 37.6046 34.1949 37.765C34.0953 37.9193 33.9894 38.0674 33.896 38.2216C33.8898 38.234 33.8773 38.2463 33.8711 38.2587C33.8649 38.271 33.8586 38.2833 33.8462 38.3019C33.7714 38.4253 33.7154 38.561 33.6469 38.6906C33.5659 38.8449 33.485 39.0053 33.4103 39.1596C33.3418 39.3015 33.2546 39.4373 33.1923 39.5854C33.1923 39.5915 33.1861 39.5977 33.1861 39.6039C33.1798 39.6101 33.1798 39.6224 33.1798 39.6286C33.1051 39.7952 33.0553 39.9618 32.993 40.1284C32.9245 40.3012 32.8622 40.474 32.8 40.6467C32.7688 40.7331 32.7315 40.8134 32.7066 40.8997C32.6941 40.9368 32.6816 40.98 32.6692 41.017C32.6505 41.0787 32.6443 41.1404 32.6256 41.2083C32.5696 41.4243 32.5197 41.6341 32.4761 41.8439C32.4512 41.9673 32.4076 42.0907 32.389 42.2141C32.3765 42.282 32.364 42.3499 32.3516 42.4177C32.3454 42.4795 32.3454 42.5412 32.3391 42.609C32.2955 42.9669 32.252 43.331 32.252 43.6766C32.2582 45.4167 32.8747 46.6385 33.8711 47.2124L35.4528 48.1257C35.4466 48.1257 35.4404 48.1134 35.4342 48.1134C35.1975 47.9714 34.9796 47.7986 34.7865 47.5827C34.7803 47.5765 34.7741 47.5703 34.7678 47.5642C34.5748 47.3482 34.4066 47.0952 34.2696 46.8052C34.2634 46.799 34.2634 46.7928 34.2634 46.7866C34.1264 46.4966 34.0205 46.1696 33.9458 45.8055C33.9458 45.7993 33.9458 45.7931 33.9458 45.7931C33.8711 45.4291 33.8337 45.028 33.8337 44.6022C33.8337 44.2505 33.8586 43.8926 33.9022 43.5285C33.9084 43.4668 33.9271 43.3989 33.9334 43.3372C33.9396 43.2755 33.952 43.2138 33.9645 43.1521C33.9894 43.0225 34.0019 42.8929 34.033 42.7633C34.0766 42.5535 34.1326 42.3437 34.1887 42.1339C34.2074 42.0722 34.2323 42.0043 34.2447 41.9426C34.2572 41.9117 34.2634 41.8747 34.2759 41.8377C34.3008 41.7513 34.3257 41.6587 34.3568 41.5724C34.4191 41.3996 34.4814 41.2268 34.5436 41.054C34.6059 40.8874 34.6744 40.727 34.7491 40.5604C34.7491 40.5542 34.7554 40.548 34.7554 40.5418C34.7616 40.5295 34.7678 40.5233 34.7678 40.511C34.8301 40.3691 34.8986 40.2271 34.9671 40.0852C35.0418 39.9309 35.1228 39.7705 35.2038 39.6162C35.2723 39.4866 35.347 39.3571 35.4217 39.2275C35.4279 39.2151 35.4342 39.209 35.4404 39.1966C35.4466 39.1843 35.4591 39.1658 35.4653 39.1534C35.5587 38.993 35.6521 38.8387 35.7518 38.6906C35.8576 38.5302 35.9635 38.3697 36.0694 38.2155C36.1192 38.1476 36.169 38.0859 36.2188 38.018C36.2437 37.9871 36.2686 37.9501 36.2873 37.9193C36.3371 37.8514 36.387 37.7835 36.4368 37.7156C36.58 37.5305 36.7357 37.3454 36.8852 37.1726C36.9537 37.0924 37.0284 37.0245 37.0969 36.9443C37.1592 36.8826 37.2152 36.8209 37.2775 36.753C37.346 36.679 37.4145 36.6049 37.4892 36.5309C37.6449 36.3766 37.813 36.247 37.975 36.1051C38.0808 36.0125 38.1867 35.9138 38.2988 35.8212C38.6351 35.5559 38.9838 35.309 39.345 35.1054L49.9441 29.0396L48.381 28.1201Z" fill="#721DD6"/>
<path d="M49.9627 29.0334L39.3636 35.0993C39.0024 35.3029 38.6536 35.5498 38.3174 35.8151C38.2053 35.9015 38.0994 36.0064 37.9935 36.099C37.7569 36.3026 37.5203 36.5124 37.2961 36.7469C37.2338 36.8086 37.1777 36.8703 37.1155 36.9382C36.829 37.2467 36.555 37.5676 36.2997 37.9132C36.2748 37.944 36.2499 37.9749 36.2312 38.0119C35.9509 38.3883 35.6894 38.7832 35.4527 39.1905C35.4465 39.2028 35.4403 39.209 35.4341 39.2214C35.1912 39.641 34.9732 40.0668 34.7802 40.5049C34.774 40.5172 34.7677 40.5234 34.7677 40.5357C34.5809 40.9615 34.419 41.3996 34.2882 41.8316C34.2758 41.8686 34.2695 41.8995 34.2571 41.9365C34.1388 42.3438 34.0453 42.7449 33.9768 43.1521C33.9644 43.2138 33.9519 43.2755 33.9457 43.3373C33.8834 43.763 33.8398 44.1888 33.8398 44.6023C33.8398 45.0342 33.8772 45.4291 33.9519 45.7932C33.9519 45.7994 33.9519 45.8056 33.9519 45.8056C34.0267 46.1635 34.1325 46.4905 34.2695 46.7867C34.2695 46.7929 34.2758 46.799 34.2758 46.8052C34.4128 47.0952 34.5809 47.3482 34.774 47.5642C34.7802 47.5704 34.7864 47.5766 34.7926 47.5827C34.9857 47.7987 35.2036 47.9715 35.4403 48.1134C36.4491 48.7058 37.8565 48.6318 39.4072 47.7432L50.0062 41.6773L49.9627 29.0334Z" fill="#AB77E8"/>
<path d="M42.4146 39.1411L41.6238 38.6845C41.5864 38.666 41.5428 38.6474 41.5054 38.6289C41.4681 38.6104 41.4245 38.5981 41.3809 38.5857C41.356 38.5796 41.3248 38.5734 41.2937 38.5672C41.2875 38.5672 41.2813 38.561 41.275 38.561C41.2688 38.561 41.2563 38.5549 41.2439 38.5549C41.2003 38.5487 41.1505 38.5425 41.1007 38.5364C41.0508 38.5302 40.9948 38.5302 40.945 38.5364C40.9263 38.5364 40.9076 38.5425 40.8952 38.5425C40.8827 38.5425 40.8702 38.5425 40.8578 38.5487C40.8267 38.5487 40.8017 38.5549 40.7706 38.5549C40.7021 38.5672 40.6336 38.5796 40.5589 38.5981L40.5776 38.6042L40.5651 38.5981C40.534 38.6042 40.5028 38.6228 40.4779 38.6289C40.4468 38.6413 40.4219 38.6474 40.3907 38.6598C40.3596 38.6721 40.3222 38.6783 40.2911 38.6968C40.1852 38.74 40.0731 38.7955 39.9548 38.8634C39.8054 38.9498 39.6497 39.0547 39.5064 39.172C39.4566 39.209 39.4068 39.2583 39.357 39.3015C39.2885 39.3571 39.22 39.4126 39.1515 39.4805C39.1203 39.5113 39.0892 39.5484 39.0581 39.5792C39.0332 39.6039 39.0082 39.6286 38.9833 39.6594C38.9522 39.6965 38.9211 39.7273 38.8899 39.7582C38.8276 39.8322 38.7591 39.9124 38.6969 39.9927C38.6782 40.0173 38.6533 40.0482 38.6346 40.0791C38.6221 40.0976 38.6097 40.1099 38.5972 40.1284C38.5785 40.1531 38.5536 40.184 38.535 40.2086C38.4851 40.2765 38.4415 40.3444 38.398 40.4123C38.3544 40.4802 38.317 40.548 38.2734 40.6097C38.2734 40.6097 38.2672 40.6159 38.2672 40.6221C38.2609 40.6344 38.2547 40.6406 38.2485 40.6529C38.2174 40.7023 38.1862 40.7578 38.1613 40.8072C38.1239 40.8751 38.0928 40.943 38.0554 41.0108C38.0243 41.0725 37.9994 41.1342 37.9683 41.2021V41.2083C37.9683 41.2145 37.9683 41.2145 37.962 41.2206C37.9309 41.2885 37.906 41.3626 37.8748 41.4304C37.8437 41.5045 37.8188 41.5785 37.7939 41.6526C37.7814 41.6896 37.769 41.7328 37.7565 41.7637C37.7503 41.7822 37.7441 41.7945 37.7441 41.813C37.7378 41.8377 37.7254 41.8686 37.7192 41.8933C37.6943 41.9858 37.6693 42.0722 37.6507 42.1648C37.6382 42.2203 37.632 42.2697 37.6257 42.3252C37.6195 42.3561 37.6133 42.3869 37.6071 42.4116C37.6071 42.4363 37.6008 42.461 37.5946 42.4856C37.5759 42.6461 37.5635 42.7942 37.5635 42.9485C37.5635 43.7013 37.8313 44.2258 38.2609 44.4726L39.0518 44.9293C38.6221 44.6824 38.3606 44.1579 38.3544 43.4051C38.3544 43.2323 38.373 43.0472 38.398 42.8621C38.4042 42.8374 38.4042 42.8127 38.4104 42.7818C38.4415 42.6091 38.4789 42.4363 38.535 42.2573C38.5412 42.245 38.5474 42.2265 38.5474 42.208C38.7218 41.6341 39.0145 41.0664 39.3819 40.5665C39.3943 40.5542 39.4006 40.5419 39.4068 40.5295C39.5189 40.3814 39.6372 40.2395 39.7618 40.1099C39.7867 40.0852 39.8116 40.0544 39.8365 40.0297C39.9361 39.9248 40.0482 39.8261 40.1541 39.7335C40.1977 39.6965 40.235 39.6594 40.2786 39.6286C40.4281 39.5113 40.5776 39.4064 40.7332 39.3201C40.8827 39.2337 41.0322 39.172 41.1754 39.1164C41.2003 39.1102 41.2314 39.0979 41.2563 39.0917C41.3933 39.0485 41.5241 39.0177 41.6487 39.0053C41.6611 39.0053 41.6736 39.0053 41.686 38.9992C41.823 38.9868 41.9476 38.993 42.0721 39.0177C42.0784 39.0177 42.0846 39.0177 42.0908 39.0239C42.2154 39.0485 42.3275 39.0917 42.4333 39.1534C42.4271 39.1411 42.4209 39.1411 42.4146 39.1411Z" fill="#B2B2B2"/>
<path d="M40.7334 39.3139C42.0536 38.561 43.1247 39.1658 43.1247 40.6653C43.131 42.1771 42.0661 44.0036 40.7458 44.7565C39.4256 45.5093 38.3545 44.9046 38.3545 43.3989C38.3483 41.8932 39.4132 40.0667 40.7334 39.3139Z" fill="#E0DFDE"/>
<path d="M37.4958 7.6579L17.3127 19.2836C16.9764 19.4749 16.6028 19.6292 16.2104 19.7649C16.0734 19.8143 15.9302 19.8513 15.787 19.8945C15.6064 19.9439 15.4196 19.9932 15.2327 20.0303C15.0023 20.0796 14.7657 20.1228 14.529 20.1475C14.4792 20.1537 14.4356 20.1598 14.392 20.166C14.0744 20.203 13.7568 20.2154 13.4392 20.2216C13.3894 20.2216 13.3458 20.2216 13.296 20.2216C12.9846 20.2216 12.667 20.203 12.3557 20.1722C12.3121 20.166 12.2623 20.166 12.2187 20.1598C11.9135 20.1228 11.6146 20.0735 11.3157 20.0056C11.2659 19.9932 11.2098 19.9809 11.16 19.9686C10.8922 19.9007 10.6369 19.8266 10.3878 19.7341C10.338 19.7156 10.2882 19.7032 10.2383 19.6847C9.93943 19.5675 9.65297 19.4379 9.39142 19.2898C8.28916 18.6604 7.73492 17.8273 7.74115 17.0004L7.71001 21.9062C7.70379 22.7331 8.25803 23.5599 9.36028 24.1955C9.6156 24.3374 9.88338 24.467 10.1698 24.5781C10.1823 24.5843 10.201 24.5843 10.2134 24.5904C10.2633 24.609 10.3131 24.6213 10.3629 24.6398C10.5248 24.6954 10.6805 24.7571 10.8486 24.8003C10.9358 24.8249 11.0292 24.8434 11.1226 24.8681C11.1787 24.8805 11.2347 24.899 11.2908 24.9113C11.3406 24.9237 11.3842 24.936 11.434 24.9484C11.6146 24.9854 11.8014 25.0162 11.9883 25.0471C12.0568 25.0533 12.1253 25.0594 12.1875 25.0718C12.2374 25.0779 12.2747 25.0779 12.3245 25.0841C12.393 25.0903 12.4615 25.1026 12.53 25.1088C12.7106 25.1211 12.8975 25.1335 13.0843 25.1396C13.1403 25.1396 13.1964 25.1396 13.2524 25.1396C13.3085 25.1396 13.3583 25.1396 13.4143 25.1396C13.4953 25.1396 13.5762 25.1396 13.6572 25.1396C13.8689 25.1335 14.0744 25.1211 14.2799 25.0964C14.2986 25.0964 14.3235 25.0903 14.3422 25.0903C14.4045 25.0841 14.4605 25.0718 14.5166 25.0656C14.6723 25.0471 14.8342 25.0286 14.9899 24.9977C15.0584 24.9854 15.1269 24.9607 15.1954 24.9484C15.3884 24.9113 15.569 24.862 15.7496 24.8126C15.8493 24.7879 15.9551 24.7694 16.0485 24.7385C16.0921 24.7262 16.1295 24.7015 16.1731 24.683C16.5654 24.5473 16.9391 24.3992 17.2753 24.2017L37.4584 12.576L42.8701 9.45976L42.9012 4.55402L37.4958 7.6579Z" fill="#9765B7"/>
<path d="M42.9077 4.54167L37.4961 7.6579L17.313 19.2836C15.1334 20.5363 11.59 20.5363 9.39795 19.2836C7.20589 18.0309 7.19344 15.9946 9.37304 14.7419L29.5499 3.11623L34.9615 0L42.9077 4.54167Z" fill="#E7CBF7"/>
</g>
<defs>
<linearGradient id="paint0_linear_415:1688" x1="2.21354e-05" y1="47.4275" x2="22.8379" y2="47.4275" gradientUnits="userSpaceOnUse">
<stop offset="0.00558659" stop-color="#851CEF"/>
<stop offset="0.1053" stop-color="#851CEF"/>
<stop offset="1" stop-color="#851CEF"/>
</linearGradient>
<clipPath id="clip0_415:1688">
<rect width="50" height="73" fill="white"/>
</clipPath>
</defs>
</svg>
