<svg width="32" height="32" viewBox="0 0 32 32" fill="none" xmlns="http://www.w3.org/2000/svg">
<rect width="32" height="32" rx="5" fill="#4D5373"/>
<path d="M19.2335 8H12.7665C10.1382 8 8 10.1382 8 12.7665V19.2335C8 21.8618 10.1382 24 12.7665 24H19.2335C21.8618 24 24 21.8618 24 19.2335V12.7665C24 10.1382 21.8617 8 19.2335 8ZM19.2335 18.5C18 19.2335 19.2435 19.2335 17.5 19.2335L14 19.5C14 19 13.5 18.5 12.7665 18L12.5 14.5C12.5 12.7565 13 14 14.5 12.7665L17 12.5C18 13.5 18 12.7665 18.5 14L20 16L19.2335 18.5Z" fill="white"/>
<path d="M16 11C13.243 11 11 13.243 11 16C11 18.757 13.243 21 16 21C18.757 21 21 18.757 21 16C21 13.243 18.757 11 16 11ZM16 19.0552C14.3127 19.0552 12.9448 17.6874 12.9448 16C12.9448 14.3127 14.3127 12.9448 16 12.9448C17.6873 12.9448 19.0552 14.3127 19.0552 16C19.0552 17.6873 17.6873 19.0552 16 19.0552Z" fill="white"/>
<path d="M20.1459 12.8845C20.6935 12.8845 21.1374 12.4406 21.1374 11.8929C21.1374 11.3453 20.6935 10.9014 20.1459 10.9014C19.5982 10.9014 19.1543 11.3453 19.1543 11.8929C19.1543 12.4406 19.5982 12.8845 20.1459 12.8845Z" fill="#4D5373"/>
</svg>
