<svg width="32" height="32" viewBox="0 0 32 32" fill="none" xmlns="http://www.w3.org/2000/svg">
<rect width="32" height="32" rx="5" fill="#4D5373"/>
<path d="M22.2378 11.081C21.0905 10.5806 19.8602 10.212 18.5739 10.0009C18.5505 9.99681 18.5271 10.007 18.515 10.0274C18.3568 10.2948 18.1815 10.6438 18.0588 10.9181C16.6753 10.7212 15.2989 10.7212 13.9437 10.9181C13.821 10.6377 13.6394 10.2948 13.4804 10.0274C13.4684 10.0077 13.445 9.99749 13.4215 10.0009C12.1359 10.2113 10.9057 10.58 9.7577 11.081C9.74776 11.0851 9.73924 11.0919 9.73359 11.1007C7.40004 14.4143 6.76079 17.6465 7.07439 20.8386C7.0758 20.8542 7.08503 20.8692 7.0978 20.8787C8.63741 21.9533 10.1288 22.6058 11.5925 23.0382C11.6159 23.045 11.6407 23.0368 11.6556 23.0185C12.0018 22.5691 12.3105 22.0952 12.5751 21.5969C12.5907 21.5677 12.5758 21.5331 12.5439 21.5216C12.0543 21.3451 11.5882 21.1299 11.1398 20.8855C11.1043 20.8658 11.1015 20.8176 11.1341 20.7945C11.2285 20.7273 11.3229 20.6573 11.413 20.5867C11.4293 20.5738 11.452 20.5711 11.4711 20.5793C14.417 21.8576 17.6062 21.8576 20.5172 20.5793C20.5364 20.5704 20.5591 20.5732 20.5761 20.5861C20.6662 20.6567 20.7606 20.7273 20.8557 20.7945C20.8883 20.8176 20.8862 20.8658 20.8507 20.8855C20.4023 21.1346 19.9361 21.3451 19.4459 21.5209C19.414 21.5324 19.3998 21.5677 19.4154 21.5969C19.6857 22.0945 19.9943 22.5684 20.3342 23.0178C20.3484 23.0368 20.3739 23.045 20.3973 23.0382C21.8681 22.6058 23.3595 21.9533 24.8991 20.8787C24.9126 20.8692 24.9211 20.8549 24.9225 20.8393C25.2978 17.1489 24.2939 13.9432 22.2612 11.1014C22.2562 11.0919 22.2477 11.0851 22.2378 11.081ZM13.015 18.895C12.1281 18.895 11.3973 18.121 11.3973 17.1706C11.3973 16.2201 12.114 15.4462 13.015 15.4462C13.9232 15.4462 14.6469 16.2269 14.6327 17.1706C14.6327 18.121 13.9161 18.895 13.015 18.895ZM18.9961 18.895C18.1092 18.895 17.3784 18.121 17.3784 17.1706C17.3784 16.2201 18.095 15.4462 18.9961 15.4462C19.9042 15.4462 20.6279 16.2269 20.6137 17.1706C20.6137 18.121 19.9042 18.895 18.9961 18.895Z" fill="white"/>
</svg>
