<svg width="18" height="18" viewBox="0 0 35 35" fill="none" xmlns="http://www.w3.org/2000/svg">
<g clip-path="url(#clip0_168:1191)">
<path d="M26.2042 8.21563C27.267 9.38768 28.1006 10.735 28.6757 12.1902L32.1029 10.2224L30.003 18.0592L22.1286 15.9492L26.7886 13.2737C25.5875 9.97766 22.8278 7.39332 19.3819 6.47001C13.5928 4.91882 7.62112 8.36658 6.06994 14.1557C4.51875 19.9448 7.96658 25.9165 13.7556 27.4677C17.8094 28.5539 22.0367 27.2578 24.788 24.0852L26.41 25.4918C24.8334 27.31 22.7849 28.6556 20.4862 29.3832C18.1235 30.1309 15.604 30.1857 13.1999 29.5415C6.2673 27.684 2.13849 20.5326 3.99608 13.6C5.85367 6.66737 13.005 2.53856 19.9376 4.39615C22.3598 5.04518 24.5267 6.36589 26.2042 8.21563Z" fill="white"/>
</g>
<defs>
<clipPath id="clip0_168:1191">
<rect width="26.2749" height="26.2749" fill="white" transform="matrix(0.258819 -0.965926 -0.965926 -0.258819 25.9756 33.0901)"/>
</clipPath>
</defs>
</svg>
