<svg width="22" height="16" viewBox="0 0 22 16" fill="none" xmlns="http://www.w3.org/2000/svg">
<path d="M18.6239 1.2632C17.2217 0.678517 15.7181 0.247752 14.1459 0.00103495C14.1173 -0.00372662 14.0887 0.00817279 14.0739 0.0319722C13.8805 0.344532 13.6663 0.752292 13.5163 1.07279C11.8254 0.842736 10.1431 0.842736 8.48679 1.07279C8.33676 0.745168 8.11478 0.344532 7.92053 0.0319722C7.90578 0.00896685 7.87718 -0.00293255 7.84855 0.00103495C6.27725 0.246964 4.7736 0.677729 3.37052 1.2632C3.35838 1.26795 3.34797 1.27589 3.34106 1.2862C0.488942 5.15836 -0.292371 8.93534 0.0909151 12.6655C0.0926494 12.6837 0.103922 12.7012 0.119532 12.7123C2.00127 13.9681 3.82406 14.7305 5.61301 15.2358C5.64164 15.2437 5.67197 15.2342 5.69019 15.2128C6.11337 14.6877 6.49059 14.1339 6.81402 13.5516C6.83311 13.5175 6.81489 13.477 6.77588 13.4636C6.17754 13.2573 5.6078 13.0058 5.05975 12.7202C5.0164 12.6972 5.01293 12.6409 5.05281 12.6139C5.16814 12.5354 5.2835 12.4537 5.39363 12.3712C5.41355 12.3561 5.44131 12.3529 5.46474 12.3624C9.06518 13.8563 12.9631 13.8563 16.521 12.3624C16.5445 12.3521 16.5722 12.3553 16.593 12.3704C16.7032 12.4529 16.8185 12.5354 16.9347 12.6139C16.9746 12.6409 16.972 12.6972 16.9286 12.7202C16.3806 13.0114 15.8108 13.2573 15.2116 13.4628C15.1726 13.4763 15.1553 13.5175 15.1744 13.5516C15.5047 14.1331 15.882 14.6868 16.2973 15.212C16.3147 15.2342 16.3459 15.2437 16.3745 15.2358C18.1721 14.7305 19.9949 13.9681 21.8766 12.7123C21.8931 12.7012 21.9035 12.6845 21.9053 12.6663C22.364 8.35382 21.1369 4.60781 18.6525 1.28699C18.6465 1.27589 18.6361 1.26795 18.6239 1.2632ZM7.35169 10.3942C6.26771 10.3942 5.37454 9.48986 5.37454 8.37921C5.37454 7.26857 6.25039 6.36421 7.35169 6.36421C8.46163 6.36421 9.34616 7.27651 9.32881 8.37921C9.32881 9.48986 8.45296 10.3942 7.35169 10.3942ZM14.6619 10.3942C13.5779 10.3942 12.6847 9.48986 12.6847 8.37921C12.6847 7.26857 13.5606 6.36421 14.6619 6.36421C15.7718 6.36421 16.6563 7.27651 16.639 8.37921C16.639 9.48986 15.7718 10.3942 14.6619 10.3942Z" fill="#9D9D9D"/>
</svg>
