<svg width="18" height="15" viewBox="0 0 18 15" fill="none" xmlns="http://www.w3.org/2000/svg">
<path d="M18 1.91887C17.3306 2.2125 16.6174 2.40712 15.8738 2.50163C16.6388 2.04488 17.2226 1.32712 17.4971 0.462C16.7839 0.88725 15.9964 1.18763 15.1571 1.35525C14.4799 0.634125 13.5146 0.1875 12.4616 0.1875C10.4186 0.1875 8.77387 1.84575 8.77387 3.87863C8.77387 4.17113 8.79862 4.45238 8.85938 4.72013C5.7915 4.5705 3.07687 3.10013 1.25325 0.86025C0.934875 1.41263 0.748125 2.04488 0.748125 2.7255C0.748125 4.0035 1.40625 5.13638 2.38725 5.79225C1.79437 5.781 1.21275 5.60887 0.72 5.33775C0.72 5.349 0.72 5.36363 0.72 5.37825C0.72 7.1715 1.99912 8.661 3.6765 9.00412C3.37612 9.08625 3.04875 9.12562 2.709 9.12562C2.47275 9.12562 2.23425 9.11213 2.01038 9.06262C2.4885 10.524 3.84525 11.5984 5.4585 11.6332C4.203 12.6154 2.60888 13.2071 0.883125 13.2071C0.5805 13.2071 0.29025 13.1936 0 13.1565C1.63463 14.2106 3.57187 14.8125 5.661 14.8125C12.4515 14.8125 16.164 9.1875 16.164 4.31175C16.164 4.14862 16.1584 3.99112 16.1505 3.83475C16.8829 3.315 17.4982 2.66587 18 1.91887Z" fill="#9D9D9D"/>
</svg>
