<svg width="22" height="22" viewBox="0 0 22 22" fill="none" xmlns="http://www.w3.org/2000/svg">
<path d="M18.3033 5.53498L17.3855 2.28257L14.2668 3.10585L12.9676 0.569427L2.60504 5.53498H0V21.4499H20.5851V17.1603H22V9.75202H20.5851V5.53498H18.3033ZM16.3032 4.11537L16.7038 5.535H15.511H13.789H10.9254L13.4479 4.8691L14.9648 4.46865L16.3032 4.11537ZM19.042 19.9574H1.54308V11.8288V8.99455V8.76996V7.23824V7.02749H2.34143H2.96633H5.2717H14.5535H16.2756H17.1249H17.9247H18.7244H19.042V8.15283V9.75199H18.6935H17.8937H15.9002H12.4243H11.1713V10.3524V12.018V12.2103V12.9838V13.7574V17.1602H19.042L19.042 19.9574ZM20.4569 15.6678H19.8135H19.042H12.7144V13.3501V12.5765V11.803V11.2786V11.2445H12.7856H14.8299H17.7601H19.042H19.8136H19.9145H20.4569V15.6678ZM12.2699 2.56935L12.7499 3.50628L7.32743 4.93771L12.2699 2.56935Z" fill="white"/>
<path d="M13.9365 12.7617V13.0274V14.2231H15.4475V12.7617H14.943H13.9365Z" fill="white"/>
</svg>
