<svg width="32" height="32" viewBox="0 0 32 32" fill="none" xmlns="http://www.w3.org/2000/svg">
<rect width="32" height="32" rx="5" fill="#4D5373"/>
<path d="M22.0814 10H10.9533C8.76993 10 7 11.6661 7 13.7214V18.958C7 21.0132 8.76993 22.6793 10.9533 22.6793H22.0814C24.2648 22.6793 26.0347 21.0132 26.0347 18.958V13.7214C26.0347 11.6661 24.2648 10 22.0814 10ZM19.4079 16.5944L14.2029 18.9313C14.0642 18.9936 13.904 18.8984 13.904 18.7537V13.934C13.904 13.7873 14.0684 13.6922 14.2074 13.7585L19.4124 16.2414C19.5671 16.3153 19.5644 16.5242 19.4079 16.5944Z" fill="white"/>
</svg>
