<svg width="54" height="50" viewBox="0 0 54 50" fill="none" xmlns="http://www.w3.org/2000/svg">
<path d="M50.4237 1L30.1113 16L33.8886 7.15999L50.4237 1Z" fill="#E17726" stroke="#E17726" stroke-width="0.25" stroke-linecap="round" stroke-linejoin="round"/>
<path d="M3.57812 1L23.7096 16.1399L20.1133 7.15998L3.57812 1Z" fill="#E27625" stroke="#E27625" stroke-width="0.25" stroke-linecap="round" stroke-linejoin="round"/>
<path d="M43.1076 35.7795L37.7031 44.0195L49.2757 47.1996L52.5909 35.9597L43.1076 35.7795Z" fill="#E27625" stroke="#E27625" stroke-width="0.25" stroke-linecap="round" stroke-linejoin="round"/>
<path d="M1.42188 35.9597L4.71683 47.1996L16.2694 44.0195L10.8849 35.7795L1.42188 35.9597Z" fill="#E27625" stroke="#E27625" stroke-width="0.25" stroke-linecap="round" stroke-linejoin="round"/>
<path d="M15.6423 21.8601L12.4277 26.7001L23.8798 27.2201L23.4981 14.9202L15.6423 21.8601Z" fill="#E27625" stroke="#E27625" stroke-width="0.25" stroke-linecap="round" stroke-linejoin="round"/>
<path d="M38.3486 21.8599L30.3725 14.7799L30.1113 27.2199L41.5633 26.6999L38.3486 21.8599Z" fill="#E27625" stroke="#E27625" stroke-width="0.25" stroke-linecap="round" stroke-linejoin="round"/>
<path d="M16.2715 44.0198L23.2029 40.6799L17.2359 36.0399L16.2715 44.0198Z" fill="#E27625" stroke="#E27625" stroke-width="0.25" stroke-linecap="round" stroke-linejoin="round"/>
<path d="M30.7988 40.6799L37.7101 44.0198L36.7658 36.0399L30.7988 40.6799Z" fill="#E27625" stroke="#E27625" stroke-width="0.25" stroke-linecap="round" stroke-linejoin="round"/>
<path d="M37.7101 44.0202L30.7988 40.6803L31.3613 45.1602L31.301 47.0603L37.7101 44.0202Z" fill="#D5BFB2" stroke="#D5BFB2" stroke-width="0.25" stroke-linecap="round" stroke-linejoin="round"/>
<path d="M16.2715 44.0202L22.7007 47.0603L22.6605 45.1602L23.2029 40.6803L16.2715 44.0202Z" fill="#D5BFB2" stroke="#D5BFB2" stroke-width="0.25" stroke-linecap="round" stroke-linejoin="round"/>
<path d="M22.8184 33.0798L17.0723 31.3998L21.1307 29.5398L22.8184 33.0798Z" fill="#233447" stroke="#233447" stroke-width="0.25" stroke-linecap="round" stroke-linejoin="round"/>
<path d="M31.1836 33.0798L32.8713 29.5398L36.9499 31.3998L31.1836 33.0798Z" fill="#233447" stroke="#233447" stroke-width="0.25" stroke-linecap="round" stroke-linejoin="round"/>
<path d="M16.2692 44.0195L17.2738 35.7795L10.8848 35.9597L16.2692 44.0195Z" fill="#CC6228" stroke="#CC6228" stroke-width="0.25" stroke-linecap="round" stroke-linejoin="round"/>
<path d="M36.7227 35.7795L37.7072 44.0195L43.1117 35.9597L36.7227 35.7795Z" fill="#CC6228" stroke="#CC6228" stroke-width="0.25" stroke-linecap="round" stroke-linejoin="round"/>
<path d="M41.5633 26.7001L30.1113 27.2201L31.1761 33.0802L32.8639 29.5401L36.9424 31.4001L41.5633 26.7001Z" fill="#CC6228" stroke="#CC6228" stroke-width="0.25" stroke-linecap="round" stroke-linejoin="round"/>
<path d="M17.0688 31.4001L21.1272 29.5401L22.815 33.0802L23.8798 27.2201L12.4277 26.7001L17.0688 31.4001Z" fill="#CC6228" stroke="#CC6228" stroke-width="0.25" stroke-linecap="round" stroke-linejoin="round"/>
<path d="M12.4277 26.7001L17.2296 36.0401L17.0687 31.4001L12.4277 26.7001Z" fill="#E27525" stroke="#E27525" stroke-width="0.25" stroke-linecap="round" stroke-linejoin="round"/>
<path d="M36.9406 31.4001L36.7598 36.0401L41.5616 26.7001L36.9406 31.4001Z" fill="#E27525" stroke="#E27525" stroke-width="0.25" stroke-linecap="round" stroke-linejoin="round"/>
<path d="M23.8892 27.2197L22.8242 33.0798L24.1703 39.9997L24.4717 30.8798L23.8892 27.2197Z" fill="#E27525" stroke="#E27525" stroke-width="0.25" stroke-linecap="round" stroke-linejoin="round"/>
<path d="M30.1115 27.2197L29.5488 30.8599L29.8301 39.9997L31.1762 33.0798L30.1115 27.2197Z" fill="#E27525" stroke="#E27525" stroke-width="0.25" stroke-linecap="round" stroke-linejoin="round"/>
<path d="M31.1723 33.0799L29.8262 39.9997L30.7906 40.6798L36.7577 36.0398L36.9385 31.3998L31.1723 33.0799Z" fill="#F5841F" stroke="#F5841F" stroke-width="0.25" stroke-linecap="round" stroke-linejoin="round"/>
<path d="M17.0723 31.3998L17.2331 36.0398L23.2001 40.6798L24.1645 39.9997L22.8184 33.0799L17.0723 31.3998Z" fill="#F5841F" stroke="#F5841F" stroke-width="0.25" stroke-linecap="round" stroke-linejoin="round"/>
<path d="M31.2998 47.06L31.3599 45.16L30.8377 44.72H23.1628L22.6605 45.16L22.7007 47.06L16.2715 44.02L18.5217 45.86L23.0824 49H30.8978L35.4787 45.86L37.7088 44.02L31.2998 47.06Z" fill="#C0AC9D" stroke="#C0AC9D" stroke-width="0.25" stroke-linecap="round" stroke-linejoin="round"/>
<path d="M30.7991 40.6799L29.8346 40H24.1689L23.2046 40.6799L22.6621 45.16L23.1644 44.7199H30.8393L31.3617 45.16L30.7991 40.6799Z" fill="#161616" stroke="#161616" stroke-width="0.25" stroke-linecap="round" stroke-linejoin="round"/>
<path d="M51.2918 16.9799L52.9997 8.69998L50.4279 1L30.7988 15.5L38.353 21.8599L49.0215 24.96L51.3722 22.22L50.3477 21.4799L51.9749 20L50.7293 19.04L52.3568 17.8L51.2918 16.9799Z" fill="#763E1A" stroke="#763E1A" stroke-width="0.25" stroke-linecap="round" stroke-linejoin="round"/>
<path d="M1 8.69998L2.72785 16.9799L1.62284 17.8L3.27031 19.04L2.02466 20L3.65205 21.4799L2.62739 22.22L4.97808 24.96L15.6466 21.8599L23.2008 15.5L3.57169 1L1 8.69998Z" fill="#763E1A" stroke="#763E1A" stroke-width="0.25" stroke-linecap="round" stroke-linejoin="round"/>
<path d="M49.0154 24.9601L38.347 21.8602L41.5616 26.7003L36.7598 36.0401L43.1086 35.9602H52.5917L49.0154 24.9601Z" fill="#F5841F" stroke="#F5841F" stroke-width="0.25" stroke-linecap="round" stroke-linejoin="round"/>
<path d="M15.6464 21.8602L4.97803 24.9601L1.42188 35.9602H10.8849L17.2336 36.0401L12.4319 26.7003L15.6464 21.8602Z" fill="#F5841F" stroke="#F5841F" stroke-width="0.25" stroke-linecap="round" stroke-linejoin="round"/>
<path d="M30.1227 27.2196L30.8058 15.4996L33.8998 7.15967H20.1172L23.2112 15.4996L23.8943 27.2196L24.1555 30.8996L24.1756 39.9996H29.8413L29.8614 30.8996L30.1227 27.2196Z" fill="#F5841F" stroke="#F5841F" stroke-width="0.25" stroke-linecap="round" stroke-linejoin="round"/>
</svg>
