<svg width="381" height="75" viewBox="0 0 381 75" fill="none" xmlns="http://www.w3.org/2000/svg">
<g opacity="0.3">
<path d="M136.306 9.11533H137.103V5.77868H139.136C140.981 5.77868 141.935 4.60681 141.935 3.08124C141.935 1.55567 140.981 0.388056 139.123 0.388056H136.306V9.11533ZM137.103 5.06277V1.10396H139.102C140.482 1.10396 141.151 1.93493 141.151 3.08124C141.151 4.22328 140.482 5.06277 139.114 5.06277H137.103Z" fill="white"/>
<path d="M154.141 4.75169C154.141 2.02016 152.573 0.268738 150.365 0.268738C148.162 0.268738 146.594 2.02442 146.594 4.75169C146.594 7.47897 148.158 9.23465 150.365 9.23465C152.573 9.23465 154.141 7.48323 154.141 4.75169ZM153.365 4.75169C153.37 7.0997 152.087 8.48465 150.365 8.48465C148.64 8.48465 147.365 7.09118 147.365 4.75169C147.365 2.39942 148.652 1.01874 150.365 1.01874C152.087 1.01874 153.365 2.40368 153.365 4.75169Z" fill="white"/>
<path d="M160.765 9.11533H161.618L163.642 1.71334H163.697L165.721 9.11533H166.574L168.964 0.388056H168.15L166.173 7.89232H166.105L164.127 0.388056H163.207L161.23 7.89232H161.162L159.184 0.388056H158.375L160.765 9.11533Z" fill="white"/>
<path d="M173.584 9.11533H178.732V8.39942H174.381V5.10539H178.379V4.38948H174.381V1.10396H178.647V0.388056H173.584V9.11533Z" fill="white"/>
<path d="M183.889 9.11533H184.686V5.58692H186.719C186.834 5.58692 186.945 5.58266 187.051 5.57414L188.965 9.11533H189.885L187.87 5.42073C188.956 5.06277 189.519 4.16789 189.519 3.00027C189.519 1.4747 188.56 0.388056 186.706 0.388056H183.889V9.11533ZM184.686 4.85823V1.10396H186.685C188.066 1.10396 188.735 1.85823 188.735 3.00027C188.735 4.14232 188.066 4.85823 186.698 4.85823H184.686Z" fill="white"/>
<path d="M194.64 9.11533H199.788V8.39942H195.437V5.10539H199.434V4.38948H195.437V1.10396H199.702V0.388056H194.64V9.11533Z" fill="white"/>
<path d="M207.502 9.11533C210.127 9.11533 211.622 7.4747 211.627 4.73039C211.627 2.0159 210.152 0.388056 207.655 0.388056H204.945V9.11533H207.502ZM205.742 8.39942V1.10396H207.608C209.726 1.10396 210.851 2.47186 210.855 4.73039C210.855 7.01022 209.705 8.39942 207.455 8.39942H205.742Z" fill="white"/>
<path d="M223.293 9.11533H226.4C228.275 9.11533 229.14 8.148 229.14 6.82698C229.14 5.50169 228.262 4.70482 227.414 4.64516V4.57698C228.194 4.36817 228.799 3.76306 228.799 2.67215C228.799 1.35965 227.942 0.388056 226.238 0.388056H223.293V9.11533ZM224.09 8.39942V5.0372H226.434C227.606 5.0372 228.377 5.82982 228.377 6.82698C228.377 7.73039 227.746 8.39942 226.4 8.39942H224.09ZM224.09 4.32982V1.10396H226.238C227.431 1.10396 228.036 1.74743 228.036 2.67215C228.036 3.63095 227.341 4.32982 226.31 4.32982H224.09Z" fill="white"/>
<path d="M233.424 0.388056L236.574 5.3355V9.11533H237.366V5.3355L240.515 0.388056H239.595L237.008 4.5301H236.932L234.345 0.388056H233.424Z" fill="white"/>
</g>
<path opacity="0.3" d="M182.789 59.487L184.04 58.2468L178.63 52.837L184.04 47.4272L182.789 46.187L177.39 51.5861L171.98 46.187L170.729 47.4272L176.139 52.837L170.729 58.2468L171.98 59.487L177.39 54.0772L182.789 59.487Z" fill="white"/>
<g clip-path="url(#clip0)">
<path d="M216.424 61.837H219.501V49.9313L226.654 61.837H229.272L236.424 49.9313V61.837H239.501V43.837H236.478L227.976 58.0313L219.447 43.837H216.424V61.837Z" fill="white"/>
<path d="M246.651 61.837H258.554V58.9056H249.728V54.3027H258.554V51.3713H249.728V46.7684H258.554V43.837H246.651V61.837Z" fill="white"/>
<path d="M270.332 61.837H273.409V46.7684H280.534V43.837H263.179V46.7684H270.332V61.837Z" fill="white"/>
<path d="M298.924 61.837H302.298L293.526 43.837H290.53L281.758 61.837H285.132L286.644 58.6999H297.386L298.924 61.837ZM288.074 55.7684L292.015 47.6684L295.955 55.7684H288.074Z" fill="white"/>
<path d="M307.626 61.837H310.703V56.1799H314.671C318.45 56.1799 321.176 53.5827 321.176 50.0084C321.176 46.4599 318.45 43.837 314.671 43.837H307.626V61.837ZM310.703 53.2484V46.7684H314.671C316.668 46.7684 318.099 48.1313 318.099 50.0084C318.099 51.8856 316.668 53.2484 314.671 53.2484H310.703Z" fill="white"/>
<path d="M326.994 61.837H339.059V58.9056H330.071V43.837H326.994V61.837Z" fill="white"/>
<path d="M344.463 61.837H356.366V58.9056H347.54V54.3027H356.366V51.3713H347.54V46.7684H356.366V43.837H344.463V61.837Z" fill="white"/>
<path d="M361.18 61.837H365.148L370.816 55.177L376.457 61.837H380.424L372.786 52.837L380.424 43.837H376.484L370.816 50.497L365.148 43.837H361.18L368.818 52.837L361.18 61.837Z" fill="white"/>
</g>
<path fill-rule="evenodd" clip-rule="evenodd" d="M31.411 43.3204C30.1726 42.0823 28.1566 42.0823 26.9183 43.3204C26.1934 44.0451 25.8612 45.0794 26.0273 46.091V46.0986C26.0802 46.4232 26.0424 46.7629 25.8989 47.08C25.7102 47.4876 25.3704 47.7821 24.9778 47.9255C24.5851 48.0689 24.1321 48.0614 23.7243 47.8727C21.4214 46.8082 18.6654 47.2989 16.8683 49.0957C15.0712 50.8924 14.5804 53.6479 15.6451 55.9505C15.8414 56.3657 15.8414 56.8187 15.6904 57.2188C15.5394 57.6038 15.2524 57.936 14.8447 58.1247C14.6257 58.2304 14.3917 58.2757 14.1576 58.2757C14.0443 58.2757 13.9386 58.2606 13.8329 58.2379H13.78C12.7834 58.0945 11.8018 58.4191 11.0844 59.1363C10.4879 59.7403 10.1557 60.5405 10.1557 61.386C10.1557 62.2391 10.4804 63.0318 11.0844 63.6357C12.3228 64.8738 14.3388 64.8738 15.5771 63.6357C16.302 62.911 16.6342 61.8767 16.4681 60.8651C16.4606 60.8123 16.4606 60.7594 16.4681 60.7066C16.453 60.4348 16.4983 60.163 16.6191 59.8988C16.8079 59.4911 17.1401 59.1967 17.5328 59.0533C17.9329 58.9023 18.3784 58.9098 18.7937 59.0986C21.0967 60.163 23.8527 59.6723 25.6498 57.8756C27.4468 56.0788 27.9376 53.3233 26.873 51.0207C26.6842 50.6206 26.6767 50.1752 26.8201 49.7826C26.9636 49.3825 27.2581 49.0353 27.6734 48.8465C27.9678 48.7106 28.2774 48.6729 28.5719 48.7106C28.6172 48.7031 28.67 48.7031 28.7154 48.7106C29.712 48.8541 30.6936 48.5295 31.411 47.8123C32.6493 46.5742 32.6493 44.5585 31.411 43.3204ZM23.7772 51.0283C25.1514 52.4023 25.1514 54.6293 23.7772 56.0033C22.403 57.3773 20.1755 57.3773 18.8013 56.0033C17.427 54.6293 17.427 52.4023 18.8013 51.0283C20.1755 49.6543 22.403 49.6543 23.7772 51.0283ZM42.5256 53.5196C42.5256 41.7803 33.0042 32.2606 21.2628 32.2606C9.52145 32.2606 0 41.7728 0 53.5196C0 65.2664 9.5139 74.7862 21.2628 74.7862C33.0117 74.7862 42.5256 65.2589 42.5256 53.5196ZM32.5964 42.1955C34.4765 44.0753 34.4765 47.1177 32.5964 48.9975C31.8942 49.6996 31.0259 50.1375 30.1273 50.3262C31.3883 53.731 30.5653 57.6189 27.9754 60.2083C26.1859 61.9975 23.7772 62.9412 21.3383 62.9412C20.2435 62.9412 19.1411 62.7449 18.084 62.3524C17.9103 63.2583 17.4648 64.134 16.7626 64.8361C14.8825 66.7159 11.8395 66.7159 9.95939 64.8361C8.07926 62.9563 8.07926 59.9139 9.95939 58.0341C10.6616 57.332 11.5224 56.8942 12.4285 56.713C11.1373 53.3007 11.9528 49.3901 14.5578 46.7855C17.1628 44.181 21.074 43.3657 24.4794 44.6491C24.6606 43.7507 25.0986 42.8901 25.7932 42.1955C27.6734 40.3157 30.7163 40.3157 32.5964 42.1955ZM89.1747 64.3514C88.4451 64.499 87.8719 64.5727 87.455 64.5727C86.0584 64.5727 84.964 64.2144 84.1719 63.4978C83.4007 62.7812 83.015 61.6642 83.015 60.1467V41.5256H86.9547V59.4828C86.9547 60.0097 87.0589 60.4101 87.2674 60.6841C87.4758 60.937 87.8927 61.0635 88.5181 61.0635H88.8933C89.0183 61.0424 89.1121 61.0319 89.1747 61.0319V64.3514ZM59.988 64.383H63.8964V53.4127C63.8964 51.6845 63.4066 50.2723 62.4269 49.1764C61.4472 48.0804 60.1027 47.5324 58.3934 47.5324C57.5179 47.5324 56.6737 47.7221 55.8608 48.1015C55.0478 48.4808 54.4121 49.0077 53.9535 49.6822V41.5572H50.0451V64.383H53.9535V55.7206C53.9535 54.5614 54.2349 53.5181 54.7977 52.5907C55.3813 51.6423 56.2151 51.1681 57.2991 51.1681C58.2788 51.1681 58.9666 51.4315 59.3627 51.9585C59.7796 52.4643 59.988 53.223 59.988 54.2347V64.383ZM80.8376 57.3962C80.8376 57.1643 80.848 56.7955 80.8689 56.2897C80.9314 54.0134 80.4624 52.106 79.4618 50.5674C78.1278 48.5441 76.1475 47.5324 73.5211 47.5324C71.3949 47.5324 69.6648 48.2279 68.3307 49.619C66.7674 51.2419 65.9857 53.4338 65.9857 56.1948C65.9857 58.9558 66.8195 61.1478 68.4871 62.7707C69.8837 64.1196 71.5929 64.794 73.6149 64.794C75.9703 64.794 77.7943 64.0247 79.0866 62.4862C79.8996 61.4956 80.3582 60.4839 80.4624 59.4511H76.7103C76.5644 59.9991 76.3038 60.4628 75.9286 60.8422C75.4075 61.3691 74.6154 61.6326 73.5523 61.6326C72.656 61.6326 71.8535 61.2953 71.1448 60.6209C70.311 59.82 69.9149 58.7451 69.9566 57.3962H80.8376ZM75.9599 51.6423C76.6061 52.3589 76.9396 53.3179 76.9605 54.5192H69.9254C69.9462 53.5076 70.2276 52.654 70.7696 51.9585C71.3949 51.1154 72.3017 50.6939 73.4898 50.6939C74.5529 50.6939 75.3763 51.01 75.9599 51.6423ZM91.0744 45.6671H95.2642V41.5888H91.0744V45.6671ZM91.1995 64.383H95.1704V47.9434H91.1995V64.383ZM112.246 64.383H108.995L108.713 62.2332C108.317 63.0341 107.702 63.6664 106.868 64.1301C106.035 64.5727 105.097 64.794 104.054 64.794C102.324 64.794 100.949 64.2566 99.9271 63.1817C98.9266 62.1068 98.4263 60.6841 98.4263 58.9137V47.9434H102.335V58.0285C102.335 60.115 103.273 61.1583 105.149 61.1583C105.941 61.1583 106.608 60.8843 107.15 60.3364C107.942 59.5987 108.338 58.3657 108.338 56.6374V47.9434H112.246V64.383ZM134.879 64.383H138.756V53.2863C138.756 51.5369 138.297 50.1459 137.38 49.1131C136.463 48.0593 135.16 47.5324 133.472 47.5324C131.221 47.5324 129.584 48.4281 128.563 50.2196C127.687 48.4281 126.135 47.5324 123.904 47.5324C121.861 47.5324 120.319 48.3965 119.277 50.1248L118.964 47.9434H115.712V64.383H119.589V55.4045C119.589 54.2453 119.871 53.223 120.433 52.3378C120.996 51.4315 121.788 50.9784 122.81 50.9784C123.748 50.9784 124.394 51.2419 124.748 51.7688C125.124 52.2957 125.311 53.0966 125.311 54.1715V64.383H129.188V55.4045C129.188 54.2453 129.459 53.223 130.001 52.3378C130.564 51.4315 131.356 50.9784 132.378 50.9784C133.316 50.9784 133.962 51.2419 134.316 51.7688C134.691 52.2957 134.879 53.0966 134.879 54.1715V64.383Z" fill="white"/>
<defs>
<clipPath id="clip0">
<rect width="164" height="18" fill="white" transform="translate(216.424 43.837)"/>
</clipPath>
</defs>
</svg>
