<svg width="620" height="75" viewBox="0 0 620 75" fill="none" xmlns="http://www.w3.org/2000/svg">
<path fill-rule="evenodd" clip-rule="evenodd" d="M155.629 20.0171C153.474 17.8628 149.966 17.8628 147.811 20.0171C146.55 21.2782 145.972 23.0779 146.261 24.8382V24.8513C146.353 25.4162 146.287 26.0073 146.038 26.5591C145.709 27.2684 145.118 27.7807 144.435 28.0303C143.752 28.2799 142.963 28.2668 142.254 27.9384C138.246 26.0862 133.451 26.94 130.324 30.0665C127.197 33.1929 126.343 37.9877 128.195 41.9943C128.537 42.7168 128.537 43.505 128.274 44.2013C128.011 44.8712 127.512 45.4492 126.803 45.7776C126.422 45.9615 126.014 46.0403 125.607 46.0403C125.41 46.0403 125.226 46.0141 125.042 45.9747H124.95C123.216 45.7251 121.508 46.2899 120.26 47.5379C119.222 48.5888 118.643 49.9813 118.643 51.4525C118.643 52.937 119.208 54.3163 120.26 55.3672C122.414 57.5216 125.922 57.5216 128.077 55.3672C129.338 54.1061 129.916 52.3064 129.627 50.5461C129.614 50.4542 129.614 50.3622 129.627 50.2703C129.601 49.7974 129.68 49.3244 129.89 48.8647C130.219 48.1553 130.797 47.643 131.48 47.3934C132.176 47.1307 132.952 47.1438 133.674 47.4722C137.681 49.3244 142.477 48.4706 145.604 45.3441C148.731 42.2177 149.585 37.4229 147.733 33.4163C147.404 32.72 147.391 31.945 147.641 31.2619C147.89 30.5657 148.403 29.9614 149.125 29.633C149.638 29.3965 150.176 29.3308 150.689 29.3965C150.768 29.3834 150.86 29.3834 150.938 29.3965C152.673 29.6461 154.381 29.0813 155.629 27.8333C157.784 25.6789 157.784 22.1715 155.629 20.0171ZM142.346 33.4294C144.737 35.8202 144.737 39.6955 142.346 42.0863C139.954 44.4771 136.079 44.4771 133.687 42.0863C131.296 39.6955 131.296 35.8202 133.687 33.4294C136.079 31.0386 139.954 31.0386 142.346 33.4294ZM174.969 37.7644C174.969 17.3373 158.401 0.772308 137.971 0.772308C117.54 0.772308 100.972 17.3242 100.972 37.7644C100.972 58.2047 117.527 74.7696 137.971 74.7696C158.414 74.7696 174.969 58.1915 174.969 37.7644ZM157.692 18.0598C160.963 21.3308 160.963 26.6247 157.692 29.8957C156.47 31.1174 154.959 31.8793 153.395 32.2077C155.59 38.1322 154.157 44.8975 149.651 49.4033C146.537 52.5166 142.346 54.1586 138.102 54.1586C136.197 54.1586 134.279 53.8171 132.439 53.134C132.137 54.7104 131.362 56.2342 130.14 57.4559C126.868 60.7268 121.573 60.7268 118.302 57.4559C115.03 54.1849 115.03 48.8909 118.302 45.62C119.524 44.3983 121.022 43.6364 122.598 43.3211C120.351 37.3835 121.77 30.5788 126.303 26.0467C130.836 21.5147 137.642 20.096 143.568 22.3291C143.883 20.7659 144.645 19.2684 145.854 18.0598C149.125 14.7889 154.42 14.7889 157.692 18.0598ZM590.479 68.3644C609.398 68.3644 617.482 55.4648 619.46 47.0371L606.474 43.3393C605.27 47.7251 601.056 54.7769 590.479 54.7769C581.363 54.7769 572.935 48.1551 572.935 36.7175C572.935 23.9039 582.137 18.0561 590.307 18.0561C601.056 18.0561 604.926 25.1939 605.872 29.4077L618.686 25.3659C616.708 16.5942 608.624 4.8126 590.307 4.8126C573.279 4.8126 558.832 17.7122 558.832 36.7175C558.832 55.7228 572.935 68.3644 590.479 68.3644ZM48.9563 54.0889V67.0744H0.54002V54.0029L29.951 19.0881H1.82998V6.10255H48.6124V18.6581L18.5134 54.0889H48.9563ZM263.658 67.0744C282.061 67.0744 294.359 55.4648 294.359 36.6315C294.359 17.7981 282.061 6.10255 263.744 6.10255H241.643V67.0744H263.658ZM255.23 54.2609V18.9161H263.142C272.516 18.9161 280.169 24.4199 280.169 36.6315C280.169 48.8431 272.516 54.2609 263.142 54.2609H255.23ZM374.989 67.0744V6.10255H361.229V67.0744H374.989ZM486.224 67.0744H501.015L478.312 6.10255H462.574L439.613 67.0744H453.889L458.275 54.6909H481.838L486.224 67.0744ZM470.228 21.238L477.538 42.3073H462.746L470.228 21.238Z" fill="white"/>
</svg>
