<svg width="400" height="54" viewBox="0 0 400 54" fill="none" xmlns="http://www.w3.org/2000/svg">
<path fill-rule="evenodd" clip-rule="evenodd" d="M372.697 50.2878C371.802 50.1642 371.092 49.8799 370.651 49.6795C370.413 49.5713 370.205 49.4643 370.071 49.3946L369.924 49.3181C369.867 49.2881 369.836 49.2719 369.792 49.2503L369.742 49.2249L369.691 49.1983C366.461 47.4882 364.455 44.1057 364.638 40.5073C364.638 40.5073 364.238 38.5551 362.286 38.5551C360.334 38.5551 359.776 40.5073 359.776 40.5073C359.752 41.1708 359.73 41.8206 359.71 42.454L359.709 42.4759L359.709 42.4978C359.623 44.6474 359.04 46.9174 357.499 48.8115C355.92 50.7526 353.762 51.7738 351.537 52.1608L351.511 52.1654L351.485 52.1696C346.368 53.0025 341.488 49.5438 340.659 44.332L340.649 44.2713L340.641 44.2103C340.494 43.1114 340.426 41.9187 340.426 40.8682V40.7598L340.437 40.5073C340.437 40.5073 340.426 38.5551 337.941 38.5551C336.503 38.5551 335.444 40.5073 335.444 40.5073C331.641 46.2411 325.29 49.4374 319.112 49.7933C314.82 50.0405 310.355 48.9484 306.712 46.1659C304.226 44.2673 302.283 41.7012 301.057 38.5625C300.959 40.423 300.814 42.2621 300.635 44.0974L300.627 44.1826L300.615 44.2676C299.771 50.6027 293.61 54.7314 287.406 52.4595C284.411 51.3926 282.397 49.0377 281.609 46.2878C280.446 48.082 278.729 49.3485 276.768 50.0523L276.716 50.0712L276.663 50.0888C272.412 51.5057 267.48 49.9545 265.076 45.8381C264.594 45.0482 264.222 44.1633 263.984 43.2983C262.599 47.9604 258.475 51.3013 253.203 50.7741L253.167 50.7704L253.13 50.7662C250.439 50.4557 248.08 49.2009 246.301 47.3234L246.28 47.3004L246.258 47.2772C245.058 45.9769 243.779 44.5498 242.584 43.0325L242.577 43.06L242.569 43.0925C242.096 44.8774 241.175 46.5272 239.712 47.8094C238.272 49.0711 236.58 49.7393 234.923 50.0334C231.308 50.6861 228.057 49.3515 225.868 46.7176C223.974 51.6066 218.646 54.4226 213.285 52.4595C210.289 51.3926 208.275 49.0377 207.487 46.2878C206.324 48.082 204.607 49.3485 202.647 50.0523L202.594 50.0712L202.541 50.0888C198.291 51.5057 193.359 49.9545 190.954 45.8381C190.73 45.47 190.529 45.0812 190.354 44.6834C189.439 46.168 188.09 47.4068 186.312 48.1972L186.227 48.2346L186.142 48.2688C184.256 49.0232 182.106 49.7468 179.944 50.2216C173.814 51.6184 167.988 50.3822 162.832 47.2033L162.816 47.1939L162.801 47.1843C160.968 46.0359 159.432 44.666 158.179 43.1228C158.007 44.0834 157.674 45.0162 157.198 45.8936C154.907 50.1135 149.683 51.9845 145.128 50.1624L145.105 50.1532L145.082 50.1438C143.498 49.4915 142.17 48.5437 141.233 47.8082C139.311 46.3045 137.262 44.9634 135.099 43.7272C134.816 47.4337 132.759 50.2316 129.909 51.641C127.258 52.9524 124.11 52.9708 121.528 51.8045C118.496 50.4505 116.514 47.8734 116.017 44.5517C115.948 44.191 115.841 43.5563 115.836 42.8753C115.782 39.7844 115.722 36.6873 115.659 33.5859C113.949 37.8221 111.123 41.471 107.455 44.4611L107.441 44.473C97.3748 52.6146 85.2218 49.8574 78.7326 41.9345L78.7214 41.9208L78.7103 41.9071C75.5308 37.9672 73.4298 33.2709 72.9961 27.9945C72.6061 23.2495 73.0545 17.7892 76.504 12.9139C80.1757 7.6302 85.9198 3.74268 92.1654 2.43254C98.5366 1.09606 105.543 2.45156 111.037 7.84817C112.838 9.56551 114.235 11.4421 115.264 13.4707L115.262 13.3665L115.262 13.2354C115.261 12.6705 115.26 11.774 115.43 10.7617C115.662 8.99972 116.254 7.16771 117.467 5.5447C118.739 3.84502 120.47 2.6731 122.467 1.99112L122.49 1.9834L122.512 1.97591C130.349 -0.614593 138.623 -0.939583 146.713 3.10529L146.735 3.11609C152.061 5.81206 156.049 10.2011 157.333 16.4149C161.088 9.69546 167.578 4.72466 175.365 3.40477L175.428 3.39417L175.491 3.3852C176.275 3.27315 177.391 3.22065 177.968 3.1935C178.124 3.18618 178.24 3.1807 178.301 3.1764L178.522 3.16058L178.744 3.16493C182.055 3.22986 186.504 3.74919 190.018 7.64391L190.06 7.69017L190.101 7.73749C191.592 9.47752 192.562 11.5996 192.766 13.816C194.766 10.0083 197.578 6.49689 201.277 4.11619C204.904 1.76795 209.082 0.953281 213.057 1.89715C217.03 2.84054 220.398 5.44488 222.588 9.17871C223.294 10.3662 223.849 11.5777 224.298 12.7753C224.899 9.42808 227.119 6.59011 230.587 5.43574C232.32 4.82294 234.239 4.60017 236.189 5.04192C238.173 5.49131 239.852 6.55309 241.178 7.97278C242.569 9.44213 243.633 11.0739 244.44 12.3125L244.489 12.387C245.389 13.6963 246.284 15.0055 247.176 16.314C247.311 14.8185 247.461 13.3204 247.637 11.8316C248.481 4.72256 255.97 1.61099 261.676 4.57372L261.697 4.58431L261.717 4.5951C263.407 5.49262 264.83 6.82178 265.735 8.59835C266.612 10.3209 266.84 12.145 266.707 13.8356C266.699 13.9602 266.692 14.0855 266.683 14.2113C268.694 10.2521 271.572 6.57903 275.399 4.11615C279.025 1.76794 283.203 0.953287 287.179 1.89715C291.152 2.84054 294.52 5.44488 296.71 9.17871C298.572 12.3142 299.387 15.6174 299.978 18.3907L300.004 18.5142L300.024 18.6389C300.089 19.0489 300.151 19.4562 300.21 19.8607C300.32 19.1084 300.438 18.3641 300.56 17.6286L300.567 17.5877L300.666 17.053C301.034 15.0495 301.438 12.8476 301.952 10.7356L301.962 10.6941L301.973 10.6526C303.198 5.97608 307.241 3.12216 311.911 3.34131C316.434 3.54603 320.302 6.88321 320.829 11.469C322.632 6.56927 328.227 3.67983 333.522 5.87008C334.543 3.98369 336.245 2.43445 338.462 1.58997L338.504 1.57397L338.546 1.55874C340.321 0.919876 342.501 0.389396 344.808 0.468471C347.559 0.519355 350.328 0.729771 352.9 0.925274L352.902 0.925436C353.483 0.969578 354.054 1.01296 354.612 1.05357L354.656 1.05676L354.7 1.06075C355.202 1.10642 355.724 1.13098 356.378 1.1604L356.434 1.1629C357.044 1.19028 357.77 1.2229 358.526 1.2886L358.594 1.29455L358.662 1.30242C358.888 1.32841 359.182 1.35533 359.523 1.38661C360.648 1.48961 362.289 1.6399 363.694 1.96003C365.807 2.41802 367.78 3.47639 369.216 5.16366C369.646 4.82163 370.097 4.49565 370.569 4.18737L370.587 4.17584L370.605 4.16445C375.102 1.2832 380.196 -0.130875 385.531 0.0095178L385.565 0.0103951L385.598 0.0117281C387.742 0.0974777 389.725 0.675202 391.314 1.31889C394.336 2.46881 396.753 5.05478 397.241 8.71919L397.243 8.73361L397.245 8.74803C397.965 14.4037 393.594 19.1064 388.248 19.2522C390.827 20.4796 393.573 22.1522 395.803 24.8253C400.148 30.0059 401.028 35.9554 398.866 41.0799C396.81 45.9506 392.29 49.3906 387.181 50.5605L387.115 50.5756L387.049 50.5889C386.915 50.6155 386.848 50.6314 386.746 50.6556C386.648 50.6786 386.519 50.7092 386.27 50.7638C385.897 50.8456 385.371 50.9515 384.761 51.0073C380.491 51.4068 376.922 50.9897 372.697 50.2878Z" fill="#002A7A"/>
<path d="M12.0133 21.1481C11.111 21.9095 10.5624 21.7687 9.43343 21.4733C4.61933 20.2133 1.13669 22.9374 0.160692 26.6512C-0.290133 28.3667 0.160654 32.0552 2.11285 33.9392C5.67556 37.3774 10.599 41.0806 16.8507 40.6358L16.868 40.6453L16.8837 40.6499C26.3145 50.5098 39.2568 51.336 52.2335 51.336C62.0808 51.336 70.7868 46.3091 75.5004 40.0164L76.415 38.6918C78.2689 35.7685 79.2231 33.2762 79.2231 29.7751C79.2231 27.3891 78.738 25.0938 77.8422 22.9484C76.9139 14.2281 71.4142 6.34493 62.6297 2.4402C58.7254 0.704713 55.2932 0 50.9168 0C43.8418 0 37.323 2.46127 31.9147 6.89765C29.8732 8.5723 28.8478 9.04248 27.4908 11.2244C24.5428 7.88365 19.4441 6.83828 15.3317 9.76031C12.9857 11.4272 11.5412 15.0297 12.4694 18.2753C12.9091 19.8127 12.5786 20.5786 12.0133 21.1481Z" fill="#002A7A"/>
<path d="M373.41 45.4589C377.541 46.1475 380.64 46.4918 384.313 46.1475C384.944 46.0902 385.518 45.918 386.092 45.8032C393.609 44.0817 398.659 35.8184 392.06 27.9567C389.477 24.858 385.977 23.5381 382.247 21.9887C373.639 17.9144 379.607 12.1186 386.665 14.1845C389.879 15.1026 392.806 12.5203 392.404 9.36418C392.174 7.64265 391.084 6.43758 389.535 5.86374C388.272 5.34728 386.838 4.94559 385.403 4.8882C381.042 4.77343 376.91 5.92112 373.237 8.27388C366.294 12.8072 365.892 22.333 372.491 27.0959C375.246 29.1618 378.517 29.9652 381.673 31.5145C383.05 32.1458 386.149 33.9247 385.403 35.9331C384.255 38.6302 376.967 36.8513 374.5 36.5644C372.319 36.3922 370.311 37.712 369.68 39.7779C369.106 41.729 370.024 43.8522 371.975 44.8851C372.434 45.1146 372.893 45.4016 373.41 45.4589Z" fill="#DE5CFF"/>
<path d="M356.095 15.1598C356.496 15.1598 356.726 15.1598 356.898 15.1598C358.218 15.2745 359.538 15.3319 360.858 15.5041C363.555 15.791 365.965 14.1842 366.366 11.7741C366.826 9.36396 365.334 7.29812 362.637 6.72428C361.145 6.37997 359.595 6.32259 358.103 6.15044C356.783 6.03567 355.521 6.03567 354.258 5.9209C351.102 5.69136 347.889 5.40444 344.675 5.34706C343.183 5.28967 341.634 5.63398 340.199 6.15044C337.789 7.06858 336.756 9.53611 337.617 11.7167C338.363 13.7252 340.601 14.9302 342.839 14.5286C344.044 14.299 345.249 14.299 346.512 14.3564C346.512 14.6433 346.569 14.8729 346.569 15.045C346.225 22.7919 345.651 33.1211 345.306 40.868C345.306 41.7287 345.364 42.7043 345.479 43.565C345.88 46.0899 348.233 47.7541 350.701 47.3524C353.34 46.8933 354.717 45.1718 354.832 42.3026C355.062 34.9 355.636 24.9151 355.923 17.5699C355.923 16.8239 356.037 16.0205 356.095 15.1598Z" fill="#DE5CFF"/>
<path d="M333.722 32.0311C334.583 26.4074 334.583 20.8986 334.583 14.701C334.526 12.75 333.608 11.258 331.829 10.4546C328.673 9.01999 325.172 11.3154 325.115 14.7584C325.057 18.7753 325 22.7922 324.828 26.8091C324.426 37.3105 312.892 39.6632 313.982 27.4978C314.441 22.6775 315.589 17.7998 315.991 12.9795C316.22 10.3972 314.269 8.33138 311.687 8.21661C309.277 8.10184 307.326 9.47906 306.694 11.8892C306.178 14.0124 305.776 16.2504 305.375 18.431C304.571 23.2513 304.055 28.0716 304.629 32.8919C306.867 50.1646 330.566 47.984 333.722 32.0311Z" fill="#FF6680"/>
<path d="M286.654 39.1469C286.482 40.4093 286.367 41.6144 286.195 42.7621C285.793 45.0001 286.941 47.1233 289.064 47.8693C292.163 49.017 295.319 47.0659 295.778 43.6229C296.524 35.9907 296.639 28.416 295.204 19.4067C294.63 16.7096 293.942 14.0699 292.507 11.6598C289.351 6.26566 283.268 4.83105 278.046 8.21673C273.226 11.3155 270.012 17.2261 268.635 22.9645C267.143 29.2194 267.602 35.5317 268.635 41.7866C268.75 42.303 268.98 42.8769 269.266 43.3359C270.414 45.3444 272.882 46.2052 275.12 45.4592C277.358 44.6558 278.505 42.7047 278.161 40.2946C278.104 40.065 278.161 39.8929 278.161 39.6633C280.973 39.4912 283.67 39.319 286.654 39.1469ZM286.826 30.1375C283.555 30.3097 280.514 30.4819 277.472 30.654C276.899 27.0962 278.391 22.1037 280.629 18.7181C285.621 10.9138 286.137 23.7679 286.654 26.9814C286.711 28.0143 286.769 28.9899 286.826 30.1375Z" fill="#FF6680"/>
<path d="M238.597 29.4485C238.941 29.8502 239.228 30.1945 239.515 30.5388C241.638 33.4654 243.704 36.4494 245.885 39.3186C247.09 40.9254 248.467 42.4748 249.844 43.9668C250.877 45.0571 252.197 45.7457 253.689 45.9178C256.558 46.2048 258.911 44.3111 259.485 41.1549C259.829 39.3186 260.001 37.4249 260.173 35.5886C260.575 30.2519 260.919 24.9152 261.321 19.5784C261.493 17.57 261.723 15.5041 261.838 13.4957C262.01 11.4872 261.264 9.88046 259.427 8.90493C256.443 7.35555 252.886 9.0197 252.484 12.4054C251.967 16.7666 251.681 21.1852 251.336 25.6038C251.164 27.0958 251.107 28.5878 250.935 30.3667C250.418 29.6781 250.074 29.2764 249.787 28.8747C246.688 24.2839 243.589 19.6932 240.433 15.1024C239.572 13.7826 238.712 12.4628 237.621 11.3151C236.129 9.70831 234.236 9.30662 232.17 10.0526C230.219 10.6838 229.014 12.4054 229.014 14.6434C228.842 23.251 228.727 31.9161 228.612 40.5811C228.612 41.5566 228.784 42.5322 229.415 43.3355C230.563 44.8849 232.17 45.5735 234.064 45.2292C236.015 44.8849 237.334 43.7946 237.851 41.8435C238.023 41.1549 238.08 40.4663 238.138 39.7203C238.253 36.5068 238.31 33.2359 238.425 29.965C238.425 29.8502 238.54 29.7354 238.597 29.4485Z" fill="#FA9E00"/>
<path d="M212.532 39.1469C212.36 40.4093 212.245 41.6144 212.073 42.7621C211.671 45.0001 212.819 47.1233 214.942 47.8693C218.041 49.017 221.197 47.0659 221.656 43.6229C222.402 35.9907 222.517 28.416 221.082 19.4067C220.508 16.7096 219.82 14.0699 218.385 11.6598C215.229 6.26566 209.146 4.83105 203.924 8.21673C199.104 11.3155 195.891 17.2261 194.513 22.9645C193.021 29.2194 193.48 35.5317 194.513 41.7866C194.628 42.303 194.858 42.8769 195.145 43.3359C196.292 45.3444 198.76 46.2052 200.998 45.4592C203.236 44.6558 204.383 42.7047 204.039 40.2946C203.982 40.065 204.039 39.8929 204.039 39.6633C206.851 39.4912 209.548 39.319 212.532 39.1469ZM212.704 30.1375C209.433 30.3097 206.392 30.4819 203.351 30.654C202.777 27.0962 204.269 22.1037 206.507 18.7181C211.499 10.9138 212.016 23.7679 212.532 26.9814C212.589 28.0143 212.647 28.9899 212.704 30.1375Z" fill="#53EABC"/>
<path d="M178.648 8.04443C177.845 8.10182 176.984 8.10182 176.181 8.21659C166.024 9.93812 158.334 19.5787 158.736 30.6539C158.908 35.9906 161.089 40.3518 165.393 43.0489C169.582 45.6312 174.115 46.5493 178.878 45.459C180.714 45.0573 182.608 44.4261 184.329 43.7375C185.879 43.0489 186.797 41.6143 186.912 39.778C187.084 36.6218 184.272 34.2117 181.288 34.8429C180.026 35.1872 178.821 35.5315 177.673 35.9332C175.837 36.5071 174.058 36.3349 172.279 35.7037C169.582 34.7855 168.09 32.8345 168.262 29.7357C168.491 25.3745 170.213 21.7019 173.713 19.2918C175.894 17.7998 178.361 16.7669 181.116 18.6605C183.124 20.0378 185.821 19.177 187.141 17.2259C188.404 15.2749 188.117 12.9221 186.395 10.9137C184.272 8.56089 181.575 8.10182 178.648 8.04443Z" fill="#53EABC"/>
<path d="M144.358 32.8344C144.875 32.4901 145.334 32.2032 145.735 31.9163C148.203 30.1947 150.211 28.0141 151.531 25.3171C152.564 23.3086 153.023 21.1854 152.794 18.9474C152.22 13.5533 149.179 9.8233 144.53 7.47054C137.874 4.14225 130.988 4.3144 124.044 6.60978C121.691 7.41316 120.544 9.13469 120.257 11.4874C120.142 12.1187 120.142 12.6925 120.142 13.3237C120.314 23.1365 120.544 33.0066 120.716 42.8193C120.716 43.1062 120.773 43.4505 120.831 43.7375C121.06 45.459 121.978 46.6641 123.528 47.3527C126.053 48.5004 130.012 47.3527 130.242 43.221C130.299 41.2699 130.242 39.3762 130.242 37.4252C130.242 36.9661 130.242 36.5644 130.242 35.9906C130.758 36.1053 131.102 36.2201 131.389 36.3349C135.923 38.4581 140.284 40.8682 144.244 43.967C145.047 44.5982 145.965 45.2295 146.941 45.6311C149.236 46.5493 151.818 45.5738 152.909 43.5653C153.999 41.5569 153.368 39.4336 151.244 37.8269C151.187 37.7695 151.072 37.7121 151.015 37.6547C148.834 36.048 146.654 34.4986 144.358 32.8344ZM129.84 26.35C129.84 22.2757 129.84 18.3736 129.84 14.4141C130.012 14.2993 130.242 14.1845 130.471 14.1845C133.742 13.7828 137.013 13.7254 139.997 15.3322C140.973 15.906 141.891 16.7668 142.579 17.6276C143.555 18.89 143.612 20.382 142.752 21.8166C141.719 23.5955 140.227 24.9728 138.218 25.604C135.521 26.4074 132.824 26.35 129.84 26.35Z" fill="#0FE6DF"/>
<path d="M112.635 23.5779C112.635 18.5854 111.086 14.6259 107.643 11.355C99.2645 3.09165 86.4678 7.10856 80.4998 15.7162C77.9749 19.274 77.5158 23.4057 77.8601 27.5948C78.2044 31.7838 79.8686 35.5712 82.5083 38.8421C87.4433 44.8675 96.5674 46.9907 104.372 40.6784C109.651 36.3746 112.692 30.6361 112.635 23.5779ZM103.167 23.6926C103.167 27.9391 101.216 31.3248 98.1168 33.9071C94.8459 36.7189 91.3455 35.686 89.4518 32.4724C87.845 29.7754 86.9843 26.9635 87.4433 23.75C88.5336 15.831 103.167 11.7567 103.167 23.6926Z" fill="#0FE6DF"/>
<path fill-rule="evenodd" clip-rule="evenodd" d="M59.7983 44.1155C57.5364 45.0343 54.8722 45.5082 52.419 45.5082C51.726 45.5082 51.0002 45.5138 50.2422 45.5197C49.6491 45.5243 49.0362 45.5323 48.4035 45.5404C38.6017 45.6668 28.0003 44.7691 19.9692 34.303C15.4751 36.0801 10.469 33.5727 6.57529 29.7261C5.77757 28.9381 5.94047 27.8906 6.41318 27.2661C6.86037 26.6753 7.70154 26.2623 8.61894 26.5081C11.6029 27.3076 14.7576 26.7522 16.9506 24.5858C19.1829 22.3806 19.7219 19.482 18.8555 16.3804C18.6021 15.4733 18.9917 14.6131 19.6304 14.1485C20.3111 13.6535 21.3721 13.5648 22.1529 14.3362C25.9758 18.1128 28.5126 22.9353 26.8796 27.3322C28.0006 27.9827 29.0987 28.4652 29.9967 28.737C29.8411 27.6752 29.7616 26.5735 29.7616 25.4344C29.7616 19.1465 32.2244 14.0235 36.3986 10.5184C40.5143 7.06243 45.8625 5.36865 51.7948 5.36865C54.7937 5.36865 57.2743 5.79386 59.5316 6.67192C61.7842 7.54816 63.7473 8.84949 65.7378 10.515C69.9278 14.0208 72.3912 19.146 72.3912 25.4344C72.3912 30.1054 71.0458 34.1205 68.655 37.3088C64.0866 37.789 57.5411 37.0148 54.8161 35.5709C53.6309 34.9429 53.3284 36.2544 53.2512 36.9648C53.2223 37.2305 53.3299 37.4881 53.5275 37.668C55.9392 39.863 59.871 41.4017 63.6852 41.9585C62.4447 42.8309 61.1782 43.5551 59.7983 44.1155ZM52.2315 28.0347C52.2315 30.3966 50.2938 32.3113 47.9036 32.3113C45.5133 32.3113 43.5756 30.3966 43.5756 28.0347C43.5756 25.6728 45.5133 23.7581 47.9036 23.7581C50.2938 23.7581 52.2315 25.6728 52.2315 28.0347Z" fill="#70DBFF"/>
</svg>
