<svg width="22" height="24" viewBox="0 0 22 24" fill="none" xmlns="http://www.w3.org/2000/svg">
<path d="M21.5152 6.01807C20.1455 6.01807 18.8818 5.56432 17.8669 4.79885C16.703 3.92135 15.8668 2.63416 15.5715 1.15057C15.4983 0.784004 15.459 0.405723 15.4552 0.0180664H11.5426V10.7093L11.5379 16.5654C11.5379 18.131 10.5183 19.4585 9.10505 19.9254C8.69489 20.0609 8.25192 20.1251 7.79067 20.0998C7.20192 20.0674 6.65021 19.8898 6.17067 19.6029C5.15021 18.9926 4.45833 17.8854 4.43958 16.6188C4.41005 14.6393 6.01036 13.0254 7.98849 13.0254C8.37896 13.0254 8.75396 13.0892 9.10505 13.2049V10.2828V9.23229C8.73474 9.17744 8.35786 9.14885 7.97677 9.14885C5.81161 9.14885 3.78661 10.0488 2.33911 11.6703C1.24505 12.8956 0.588799 14.4588 0.487549 16.0981C0.354893 18.2515 1.14286 20.2985 2.67099 21.8088C2.89552 22.0306 3.1313 22.2363 3.37786 22.4262C4.68802 23.4345 6.28974 23.981 7.97677 23.981C8.35786 23.981 8.73474 23.9529 9.10505 23.8981C10.681 23.6646 12.1351 22.9432 13.2826 21.8088C14.6926 20.4153 15.4716 18.5651 15.4801 16.5959L15.4599 7.85088C16.1326 8.36979 16.868 8.79916 17.6574 9.13244C18.885 9.65041 20.1868 9.91291 21.5265 9.91244V7.07135V6.01713C21.5274 6.01807 21.5161 6.01807 21.5152 6.01807Z" fill="white"/>
</svg>
