<svg width="24" height="20" viewBox="0 0 24 20" fill="none" xmlns="http://www.w3.org/2000/svg">
<path d="M24 2.5585C23.1075 2.95 22.1565 3.2095 21.165 3.3355C22.185 2.7265 22.9635 1.7695 23.3295 0.616C22.3785 1.183 21.3285 1.5835 20.2095 1.807C19.3065 0.8455 18.0195 0.25 16.6155 0.25C13.8915 0.25 11.6985 2.461 11.6985 5.1715C11.6985 5.5615 11.7315 5.9365 11.8125 6.2935C7.722 6.094 4.1025 4.1335 1.671 1.147C1.2465 1.8835 0.9975 2.7265 0.9975 3.634C0.9975 5.338 1.875 6.8485 3.183 7.723C2.3925 7.708 1.617 7.4785 0.96 7.117C0.96 7.132 0.96 7.1515 0.96 7.171C0.96 9.562 2.6655 11.548 4.902 12.0055C4.5015 12.115 4.065 12.1675 3.612 12.1675C3.297 12.1675 2.979 12.1495 2.6805 12.0835C3.318 14.032 5.127 15.4645 7.278 15.511C5.604 16.8205 3.4785 17.6095 1.1775 17.6095C0.774 17.6095 0.387 17.5915 0 17.542C2.1795 18.9475 4.7625 19.75 7.548 19.75C16.602 19.75 21.552 12.25 21.552 5.749C21.552 5.5315 21.5445 5.3215 21.534 5.113C22.5105 4.42 23.331 3.5545 24 2.5585Z" fill="white"/>
</svg>
