<svg width="31" height="22" viewBox="0 0 31 22" fill="none" xmlns="http://www.w3.org/2000/svg">
<path d="M30.3662 3.50159C30.0205 2.21637 29.0072 1.20325 27.7222 0.857178C25.3746 0.214844 15.984 0.214844 15.984 0.214844C15.984 0.214844 6.59381 0.214844 4.24622 0.832825C2.9859 1.17853 1.94788 2.21655 1.60217 3.50159C0.984375 5.849 0.984375 10.7172 0.984375 10.7172C0.984375 10.7172 0.984375 15.61 1.60217 17.9329C1.94824 19.2179 2.96118 20.231 4.2464 20.5771C6.61853 21.2196 15.9844 21.2196 15.9844 21.2196C15.9844 21.2196 25.3746 21.2196 27.7222 20.6016C29.0074 20.2557 30.0205 19.2426 30.3666 17.9576C30.9842 15.61 30.9842 10.7419 30.9842 10.7419C30.9842 10.7419 31.0089 5.849 30.3662 3.50159ZM12.9943 15.2147V6.21979L20.803 10.7172L12.9943 15.2147Z" fill="white"/>
</svg>
